<?xml version="1.0" encoding="utf-8"?>
<!-- Generator: Adobe Illustrator 12.0.1, SVG Export Plug-In . SVG Version: 6.00 Build 51448)  -->
<!DOCTYPE svg PUBLIC "-//W3C//DTD SVG 1.1//EN" "http://www.w3.org/Graphics/SVG/1.1/DTD/svg11.dtd" [
	<!ENTITY ns_svg "http://www.w3.org/2000/svg">
	<!ENTITY ns_xlink "http://www.w3.org/1999/xlink">
]>
<svg  version="1.1" id="Layer_1" xmlns="&ns_svg;" xmlns:xlink="&ns_xlink;" width="519.347" height="590.323"
	 viewBox="0 0 519.347 590.323" overflow="visible" enable-background="new 0 0 519.347 590.323" xml:space="preserve">
<g>
	<path fill-rule="evenodd" clip-rule="evenodd" fill="#B5121B" d="M513.3,368.29c0,0,17.419-188.387-63.871-232.903
		S273.945,91.516,273.945,91.516s-45.162-11.613-57.419-10.968s-90.967,3.871-147.742,61.936S4.268,237.322,6.849,285.064
		S34.59,438.613,34.59,438.613s35.484,78.064,41.936,83.226s45.807,49.032,72.903,54.839s85.161,3.871,98.709,1.936
		s90.968,2.58,118.71-2.581S475.881,490.87,490.72,461.193S513.3,368.29,513.3,368.29z"/>
	<path fill-rule="evenodd" clip-rule="evenodd" fill="#4F6E18" d="M435.881,122.484l1.29-9.032l25.161-7.742l1.291-12.903
		c0,0,32.258-25.807,33.548-37.419s8.388-34.839,8.388-34.839l-26.452-4.516c0,0-54.838-3.226-57.419-3.226
		s-25.807,1.935-25.807,1.935l-58.71,14.194L290.72,72.807l-5.161,5.806l-12.903,47.097l-18.71,17.419l-2.581-21.29
		c0,0-8.387-27.742-12.903-27.742s-5.807-3.226-5.807-3.226h-3.226l-12.903,8.387l-14.839,12.258l6.452,11.613
		c0,0,14.838,10.968,18.064,17.419s10.968,23.226,7.742,29.677s-11.613,21.936-11.613,21.936l18.709,8.387
		c0,0,6.451,7.097,19.354-3.871s-3.226-21.29-3.226-21.29s-5.807-9.677,3.871-15.484s43.227-16.129,53.549-15.484
		s36.129,3.871,46.451,5.161S435.881,122.484,435.881,122.484z"/>
	<g>
		<path fill-rule="evenodd" clip-rule="evenodd" d="M128.784,96.677c19.355-7.742,45.585-15.076,45.585-15.076
			c18.618-4.441,37.196-6.549,56.171-3.305c12.472,2.132,30.2,8.871,42.502,7.704c6.438-7.356,5.01-17.696,10.211-25.552
			c6.205-9.372,11.687-0.515,10.789,6.552c4.025-12.669,43.959-60.471,57.04-48.291c4.511,4.199,69.589-16.137,79.96-18.709
			c0.212,3.071-0.122,6.071-1,9c17.575,3.292,36.434-0.392,54.271,1.769c7.537,0.913,18.056,7.336,24.729,1.231
			c1.819,12.711,0.071,13.33-1.464,25.2c-2.003,15.479-11.935,31.819-22.989,42.547c-3.352,3.452-7.2,6.203-11.547,8.253
			c3.106,7.075,5.986,5.481-0.182,13.04c-7.153,8.765-17.479,12.396-27.818,15.96c-1.044,8.386,21.504,21.834,25.993,28.778
			c3.272,5.061,27.515,41.83,24.007,41.222c12.243,17.943,11.928,39.532,18.193,58.733c9.227,28.277,5.686,63.759,4.131,93.062
			c-1.347,25.372-0.48,51.383-7.393,74.494c-2.524,8.44-15.375,66.487-26.932,65.711c-17.381,49.203-68.323,100.661-121.93,104.683
			c-32.088,2.407-63.948-5.23-96.07-0.683c-36.439,6.404-69.496,11.889-105.735,1.585c-49.991-14.213-92.863-56.351-110.92-104.846
			c-11.695-31.407-26.934-58.809-33.474-92.108c-4.904-24.97-6.537-47.017-11.291-72.415c-8.007-42.781-3.551-94.041,21.59-128.004
			c10.651-14.388,15.866-35.889,32.811-45.057c9.281-5.021,18.263-15.345,27.411-21.24
			C85.434,120.915,109.429,104.419,128.784,96.677z M414.042,64c12.456-17.565-7.786-31.605-4-49
			c-12.237-0.507-33.612,3.708-40.02,15.011c-4.384,7.734-4.186,16.984-6.15,25.414c-2.492,10.692-9.686,19.685-11.83,30.575
			C372.512,78.557,395.099,75.228,414.042,64 M424.042,44c2.501-8.686,6.898-16.554,10-25c-8.022-0.246-13.274,2.745-20-3
			C411.001,25.542,419.895,36.289,424.042,44 M486.042,19c-13.358,0.179-41.383-5.23-49.032,5.751
			C430.706,33.8,422.828,52.81,422.042,64c0.276-2.972,35.451-16.518,40.054-19.261c10.181-6.068,19.582-13.335,27.946-21.739
			C490.15,23.019,486.233,18.62,486.042,19 M440.042,61c12.18,1.766,27.173,4.806,39.063,0.05
			c15.119-6.048,10.921-26.39,17.937-38.05C480.41,39.15,461.33,51.814,440.042,61 M346.042,85c14.087-16.467,2.75-37.181-6-53
			c-13.465,7.407-29.133,20.613-30.139,36.758c-0.555,8.898,0.346,17.832-0.475,26.718c-0.439,4.758-7.098,14.076-5.387,18.524
			C312.835,99.033,334.394,96.711,346.042,85 M350.042,44c4.061,4.646,3.777,11.803,7,17c2.198-9.706,4.479-19.373,7-29
			C357.967,34.124,352.835,38.096,350.042,44 M450.042,66c5.495,18.095,20.533,11.818,28,0C471.35,60.585,458.358,70.389,450.042,66
			 M454.042,87c1.484-1.852,3.151-3.518,5-5c-13.119-13.14-16.057-19.004-35.65-14.753c-17.522,3.801-33.38,12.288-50.35,17.753
			c20.892,0.236,72.143,40.197,88,9C458.086,92.294,455.752,89.961,454.042,87 M298.042,84c3.442,2.409,5.108,5.742,5,10
			c6.928-3.806,2.416-18.424,1-24C300.866,74.154,298.866,78.82,298.042,84 M253.042,167c2.578-10.281,24.727-26.005,32.463-33.614
			c3.665-3.677,7.395-7.288,11.189-10.832c8.998-8.217,0.472-5.216,3.861-14.524c4.265-11.707-2.853-22.663-12.514-30.031
			c-4.881,13.98-8.513,28.246-10.679,42.9c-1.714,11.601-5.696,13.129-11,22.901c-0.34,0.626-11.33,11.111-11.321,11.199
			c-12.702-10.845-2.235-33.377-14-46c-1.543,10.95-5.798,19.784-18,21c7.118,9.754,16.401,26.769,14.154,39.057
			c-1.154,6.309-4.276,12.073-6.058,18.195c-3.021,10.384,12.062,11.447,19.904,13.749C255.475,189.287,250.187,178.388,253.042,167
			 M265.042,118c4.052-13.778,15.217-23.896-5.378-27.431c-14.667-2.518-33.975-1.921-47.74-6.7
			c-8.527-2.96-30.955,4.62-39.882,7.131c-20.367,5.73-39.202,15.511-58,25C59.13,143.718,15.553,199.202,11.81,265.09
			c-1.03,18.139,25.42,177.822,34.938,185.452c-0.255,0.075,28.31,54.979,32.251,61.007c19.082,29.179,45.865,50.212,75.787,61.695
			c30.726,11.792,67.629-0.995,99.423-1.065c33.043-0.072,69.139,7.444,101.954,0.575c53.261-11.148,102.913-72.829,127.761-118.595
			c16.049-29.558,20.691-64.893,22.677-98.81c2.375-40.572,4.14-87.249-7.292-126.177c-7.668-26.112-14.984-55.301-34.241-75.633
			c-7.206-7.609-19.123-15.938-28.967-19.069c-13.53-4.304-25.529,9.558-39.504,9.561c-3.82,0-14.066,8.836-22.405,9.616
			c-12.762,1.194-25.545-1.072-37.876-4.17c-23.498-5.905-51.53,4.33-71.272,17.523c0.043,3.391-4.751,20.917,4,18
			c8.047-2.683,16.906-0.667,25-3c11.545-3.327,28.335-13.956,36-5c-17.875,4.677-37.045,6.728-53.233,16.246
			c-19.102,11.231-24.23,15.551-43.758,5.038c-8.369-4.505-17.125-7.214-27.239-9.444c-11.801-2.602-43.394-1.555-51.769-9.84
			c12.88-0.114,35.917,2.909,45,5c35.221,8.062,42.743-32.719,17-51c-6.994-4.966-10.866-5.947-15.451-14.466
			c-8.439-15.684,8.674-14.668,17.439-22.042c27.486-23.125,33.48,12.562,40.012,33.509
			C267.876,129.306,263.289,123.961,265.042,118 M404.042,131c13.678-3.702,4.338-6.862-2.193-13.763
			c-10.367-10.957-10.148-24.465-28.035-27.435c-12.185-2.022-25.1,1.06-36.323,5.743c-5.07,2.115-29.212,14.37-27.448,21.456
			c10.477-3.057,27.865,4.958,37.403,9.278C362.393,133.047,385.319,136.065,404.042,131 M231.042,91
			c-5.877,4.639-41.441,20.553-21.788,26.255C227.381,122.514,245.094,103.026,231.042,91 M424.042,121
			c-3.884-1.98-7.217-4.647-10-8c5.339-2.271,13.927,0.629,17-6c-12.568-1.959-23.635-8.386-36-11
			C398.688,106.57,409.105,129.552,424.042,121 M216.042,124c5.117,0.441,17.148,4.531,16-6
			C229.843,121.464,215.554,118.883,216.042,124z M289.042,140c20.41-1.951,39.787,2.222,60,1
			C339.229,118.123,296.925,112.52,289.042,140 M364.042,142c2.331,4.741,9.11-1.651,11-3c-9.686-0.861-18.146-6.806-28-7
			C348.719,138.333,357.071,149.19,364.042,142"/>
	</g>
</g>
</svg>
