<?xml version="1.0" encoding="UTF-8" standalone="no"?>
<!-- Created with Inkscape (http://www.inkscape.org/) -->

<svg
   xmlns:dc="http://purl.org/dc/elements/1.1/"
   xmlns:cc="http://creativecommons.org/ns#"
   xmlns:rdf="http://www.w3.org/1999/02/22-rdf-syntax-ns#"
   xmlns:svg="http://www.w3.org/2000/svg"
   xmlns="http://www.w3.org/2000/svg"
   xmlns:xlink="http://www.w3.org/1999/xlink"
   xmlns:sodipodi="http://sodipodi.sourceforge.net/DTD/sodipodi-0.dtd"
   xmlns:inkscape="http://www.inkscape.org/namespaces/inkscape"
   width="262.80118"
   height="190.0817"
   id="svg4930"
   version="1.1"
   inkscape:version="0.47pre4 r22446"
   sodipodi:docname="Documento nuevo 12">
  <defs
     id="defs4932">
    <linearGradient
       inkscape:collect="always"
       id="linearGradient6216">
      <stop
         style="stop-color:#382509;stop-opacity:1;"
         offset="0"
         id="stop6218" />
      <stop
         style="stop-color:#382509;stop-opacity:0;"
         offset="1"
         id="stop6220" />
    </linearGradient>
    <linearGradient
       id="linearGradient5660">
      <stop
         id="stop5662"
         offset="0"
         style="stop-color:#c7a748;stop-opacity:0.94509804;" />
      <stop
         id="stop5664"
         offset="1"
         style="stop-color:#f8f3e5;stop-opacity:1" />
    </linearGradient>
    <linearGradient
       id="linearGradient5641">
      <stop
         style="stop-color:#caac53;stop-opacity:1"
         offset="0"
         id="stop5643" />
      <stop
         style="stop-color:#f8f3e5;stop-opacity:1"
         offset="1"
         id="stop5645" />
    </linearGradient>
    <linearGradient
       id="linearGradient5616">
      <stop
         style="stop-color:#555753;stop-opacity:1;"
         offset="0"
         id="stop5618" />
      <stop
         style="stop-color:#ffffff;stop-opacity:0.98192769;"
         offset="1"
         id="stop5620" />
    </linearGradient>
    <linearGradient
       inkscape:collect="always"
       id="linearGradient5594">
      <stop
         style="stop-color:#c5981e;stop-opacity:1;"
         offset="0"
         id="stop5596" />
      <stop
         style="stop-color:#c5981e;stop-opacity:0;"
         offset="1"
         id="stop5598" />
    </linearGradient>
    <linearGradient
       inkscape:collect="always"
       id="linearGradient5586">
      <stop
         style="stop-color:#888a85;stop-opacity:1;"
         offset="0"
         id="stop5588" />
      <stop
         style="stop-color:#888a85;stop-opacity:0;"
         offset="1"
         id="stop5590" />
    </linearGradient>
    <linearGradient
       inkscape:collect="always"
       id="linearGradient5545">
      <stop
         style="stop-color:#e6cb4e;stop-opacity:1"
         offset="0"
         id="stop5547" />
      <stop
         style="stop-color:#dbbc2f;stop-opacity:1"
         offset="1"
         id="stop5549" />
    </linearGradient>
    <inkscape:perspective
       sodipodi:type="inkscape:persp3d"
       inkscape:vp_x="0 : 372.04724 : 1"
       inkscape:vp_y="0 : 1000 : 0"
       inkscape:vp_z="1052.3622 : 372.04724 : 1"
       inkscape:persp3d-origin="526.18109 : 248.03149 : 1"
       id="perspective4939" />
    <inkscape:perspective
       id="perspective5009"
       inkscape:persp3d-origin="0.5 : 0.33333333 : 1"
       inkscape:vp_z="1 : 0.5 : 1"
       inkscape:vp_y="0 : 1000 : 0"
       inkscape:vp_x="0 : 0.5 : 1"
       sodipodi:type="inkscape:persp3d" />
    <filter
       inkscape:collect="always"
       id="filter5635"
       color-interpolation-filters="sRGB">
      <feGaussianBlur
         inkscape:collect="always"
         stdDeviation="1.0396328"
         id="feGaussianBlur5637" />
    </filter>
    <filter
       inkscape:collect="always"
       id="filter5666"
       color-interpolation-filters="sRGB">
      <feGaussianBlur
         inkscape:collect="always"
         stdDeviation="0.35275373"
         id="feGaussianBlur5668" />
    </filter>
    <linearGradient
       inkscape:collect="always"
       xlink:href="#linearGradient5660"
       id="linearGradient6155"
       gradientUnits="userSpaceOnUse"
       gradientTransform="translate(4.9105965e-7,1.5909904)"
       x1="-29.493673"
       y1="152.42287"
       x2="-50.205383"
       y2="118.66432" />
    <linearGradient
       inkscape:collect="always"
       xlink:href="#linearGradient5616"
       id="linearGradient6192"
       gradientUnits="userSpaceOnUse"
       gradientTransform="matrix(1.8837942,-0.671803,0.671803,1.8837942,90.757829,-310.0524)"
       x1="-94.065926"
       y1="193.78864"
       x2="-87.625015"
       y2="196.61542" />
    <linearGradient
       inkscape:collect="always"
       xlink:href="#linearGradient5586"
       id="linearGradient6197"
       gradientUnits="userSpaceOnUse"
       x1="-81.211105"
       y1="152.47725"
       x2="-72.372269"
       y2="161.43849"
       gradientTransform="matrix(1.8837942,-0.671803,0.671803,1.8837942,39.799487,-225.28479)" />
    <linearGradient
       inkscape:collect="always"
       xlink:href="#linearGradient5586"
       id="linearGradient6200"
       gradientUnits="userSpaceOnUse"
       x1="-81.211105"
       y1="152.47725"
       x2="-72.372269"
       y2="161.43849"
       gradientTransform="matrix(1.8837942,-0.671803,0.671803,1.8837942,39.799487,-225.28479)" />
    <linearGradient
       inkscape:collect="always"
       xlink:href="#linearGradient5594"
       id="linearGradient6205"
       gradientUnits="userSpaceOnUse"
       x1="4.2426414"
       y1="225.01625"
       x2="-61.250919"
       y2="166.68065"
       gradientTransform="matrix(1.8837942,-0.671803,0.671803,1.8837942,39.799487,-225.28479)" />
    <linearGradient
       inkscape:collect="always"
       xlink:href="#linearGradient5545"
       id="linearGradient6208"
       gradientUnits="userSpaceOnUse"
       x1="-25.25"
       y1="200.59448"
       x2="-5.75"
       y2="187.07193"
       gradientTransform="matrix(1.8837942,-0.671803,0.671803,1.8837942,39.799487,-225.28479)" />
    <linearGradient
       inkscape:collect="always"
       xlink:href="#linearGradient5641"
       id="linearGradient6213"
       gradientUnits="userSpaceOnUse"
       x1="-38.000317"
       y1="166.52966"
       x2="-54.801579"
       y2="126.44251"
       gradientTransform="matrix(1.8837942,-0.671803,0.671803,1.8837942,39.799487,-225.28479)" />
    <linearGradient
       inkscape:collect="always"
       xlink:href="#linearGradient6216"
       id="linearGradient6222"
       x1="173.63272"
       y1="142.96135"
       x2="168.74638"
       y2="141.2408"
       gradientUnits="userSpaceOnUse"
       gradientTransform="matrix(2,0,0,2,-110.13775,-105.74426)" />
    <filter
       inkscape:collect="always"
       id="filter6224">
      <feGaussianBlur
         inkscape:collect="always"
         stdDeviation="3.2692043"
         id="feGaussianBlur6226" />
    </filter>
  </defs>
  <sodipodi:namedview
     inkscape:document-units="mm"
     pagecolor="#ffffff"
     bordercolor="#666666"
     borderopacity="1.0"
     inkscape:pageopacity="0.0"
     inkscape:pageshadow="2"
     inkscape:zoom="1"
     inkscape:cx="182.06133"
     inkscape:cy="63.234271"
     inkscape:current-layer="layer1"
     id="namedview4934"
     showgrid="false"
     showguides="true"
     inkscape:guide-bbox="true"
     inkscape:window-width="1280"
     inkscape:window-height="950"
     inkscape:window-x="0"
     inkscape:window-y="25"
     inkscape:window-maximized="1" />
  <metadata
     id="metadata4936">
    <rdf:RDF>
      <cc:Work
         rdf:about="">
        <dc:format>image/svg+xml</dc:format>
        <dc:type
           rdf:resource="http://purl.org/dc/dcmitype/StillImage" />
        <dc:title></dc:title>
      </cc:Work>
    </rdf:RDF>
  </metadata>
  <g
     inkscape:label="Layer 1"
     inkscape:groupmode="layer"
     id="layer1"
     transform="translate(21.26284,-10.703418)">
    <path
       style="fill:#d3d7cf;fill-opacity:1;stroke:none;filter:url(#filter6224)"
       d="m 30.725524,26.742141 c -1.400511,0.610526 -2.8764,1.333765 -4.426228,2.202252 -24.7974976,13.895487 7.74442,86.894917 7.74442,86.894917 l 0.6611,0.73452 c -3.437365,-0.26946 -7.256956,-0.36045 -11.605612,-0.19065 -31.0970363,1.21418 -44.362044,78.72398 -44.362044,78.72398 0,0 0.370421,0.56545 1.663005,0.8432 -0.02558,0.14402 -0.151293,0.74776 -0.151293,0.74776 0.15757,-0.24324 0.275401,-0.49024 0.430415,-0.73308 1.244379,0.21136 3.228092,0.10586 6.421258,-0.75381 0.656102,0.0311 1.427626,-0.0363 2.451859,-0.31886 -2.684653,-7.89056 33.69271,-59.13779 39.994847,-67.0022 5.462364,5.30287 10.894394,10.23726 16.267364,14.79449 6.019683,25.81822 24.367509,57.14884 24.367509,57.14884 0,0 8.365033,3.35515 13.00849,-2.5345 -0.202214,-0.26017 -0.431321,-0.54049 -0.628782,-0.81679 l 0.80869,-27.07928 c 59.005208,34.1906 110.042368,27.65866 145.004408,15.60472 3.34349,0.44999 7.14234,-0.11223 8.83634,-3.03387 0.24517,-0.22317 0.46394,-0.48265 0.60229,-0.808 0.35688,-0.83928 0.22048,-0.96726 -0.12049,-0.90201 -0.009,-1.25318 -0.40086,-2.44056 -0.93295,-3.54776 -0.61638,-2.9384 -2.88516,-5.99423 -4.68068,-8.39116 -6.83571,-9.1254 -17.15699,-15.5101 -27.4471,-20.42069 -13.37361,-4.32211 -27.122,-7.82395 -40.72131,-11.77046 -0.55828,-0.99921 -2.24746,-4.01035 -5.08468,-8.6923 2.32158,2.45167 4.14293,3.93166 4.28386,2.63244 0.43473,-4.00762 -30.79308,-53.12049 -36.93983,-59.713476 -6.14675,-6.592986 -26.713422,1.281778 -26.713422,1.281778 l -13.703045,13.609796 3.375885,-0.858029 c -0.912077,0.501019 -1.724499,1.112628 -2.368077,1.918665 -2.003875,2.509686 -3.066167,5.657577 -3.604831,8.934949 C 69.179623,72.737398 56.330105,35.898092 56.330105,35.898092 c 0,0 -4.596847,-18.313896 -25.604581,-9.155951 z m 70.002546,57.98198 c 3.19536,-0.879607 7.7168,-1.020415 13.83564,-0.167863 5.12332,1.380628 9.51998,4.643657 13.52738,8.352716 l 10.7142,11.283576 c 9.90017,11.59522 23.41106,29.80778 24.9412,31.87652 -19.35333,-5.62225 -38.3794,-12.12539 -55.42551,-23.29192 -6.56804,-5.48969 -11.692184,-12.00739 -13.329308,-17.438879 l 5.736398,-10.61415 z M 75.41878,180.09648 c 1.505688,4.54331 3.305078,9.10408 5.385973,13.60632 -2.109638,-3.70689 -3.844043,-8.41112 -5.385973,-13.60632 z"
       id="path6019" />
    <path
       style="fill:url(#linearGradient6213);fill-opacity:1;stroke:none"
       d="m 40.033087,101.661 c 0,0 -27.505586,-75.022965 -1.814784,-87.187773 25.690798,-12.1648304 29.486234,9.003414 29.486234,9.003414 0,0 22.507992,82.060319 41.012153,79.214939 18.50416,-2.845363 -55.801375,16.1464 -55.801375,16.1464 L 40.033087,101.661 z"
       id="path5639" />
    <path
       style="fill:url(#linearGradient6155);fill-opacity:1;stroke:none;filter:url(#filter5666)"
       d="m -37.787744,114.15499 c 1.657034,2.97795 2.601714,6.7598 2.601714,6.7598 0,0 -3.674885,34.53839 1.210786,46.45895 8.533468,0.67705 15.999248,1.14529 11.34375,0.25 -9.192388,-1.76776 -7.414214,-43.30362 -7.414214,-43.30362 0,0 2.880485,-9.75809 -7.742036,-10.16513 z"
       id="path5649"
       sodipodi:nodetypes="cccscc"
       transform="matrix(1.8837942,-0.671803,0.671803,1.8837942,39.799487,-225.28479)" />
    <path
       style="fill:#f6f3cf;fill-opacity:1;stroke:none"
       d="M 93.706509,74.728353 108.30935,62.088847 c 0,0 21.05764,-6.447936 26.73848,0.550484 5.68086,6.998422 33.47226,58.134389 32.76414,62.102829 -0.70814,3.96846 -15.09298,-18.50546 -15.09298,-18.50546 L 125.62543,73.431381 111.19741,71.675769 93.706509,74.728353 z"
       id="path5628" />
    <path
       style="fill:url(#linearGradient6208);fill-opacity:1;stroke:none"
       d="m 231.58843,181.99184 c -47.36258,13.75236 -123.2974,18.44592 -203.781259,-76.72154 -0.996608,-4.89968 13.664352,7.80536 23.114924,3.7683 0,0 20.39884,-14.682343 31.922516,-13.636463 3.521064,0.31958 5.689272,7.449943 8.844418,5.854603 -4.811478,-9.027245 -1.79538,-18.662001 2.96028,-24.328197 6.409101,-7.636238 19.662001,-8.416754 29.160501,-6.645668 18.52154,4.941838 44.77804,61.355965 44.77804,61.355965 0,0 -18.92346,-29.71824 -27.9021,-40.348143 -5.11268,-6.052958 -10.7192,-12.696212 -18.2104,-15.276826 -29.188881,-6.129028 -23.006861,13.420548 -8.14644,27.679149 27.70018,20.99086 62.0157,28.97298 93.68412,41.66278 9.92968,5.6037 19.7655,12.70042 25.9603,22.27248 2.30866,3.5673 5.53592,8.4386 3.6093,12.2259 -0.96182,1.89074 -3.957,1.5462 -5.9942,2.13766 z"
       id="path5015"
       sodipodi:nodetypes="ccsscsccscccsss" />
    <path
       style="fill:url(#linearGradient6205);fill-opacity:1;stroke:none"
       d="m 27.604209,105.21432 c 80.483861,95.16748 157.866361,91.48794 205.228921,77.7356 2.0372,-0.59146 2.1392,-0.44422 3.10104,-2.33496 1.36696,-2.68714 0.3532,1.56592 -1.29994,-1.3597 -9.7466,1.53198 -4.74168,-6.64194 -15.82212,-7.33642 -2.9132,-0.1826 -22.99064,5.12548 -25.98606,4.76956 -40.40182,-4.80046 -86.44872,-22.6059 -136.345335,-69.59652 -2.577444,1.64714 -4.289608,2.85688 -4.289608,2.85688 -10.456074,2.76144 -16.539888,-4.25818 -24.586898,-4.73444 z"
       id="path5527"
       sodipodi:nodetypes="csscssccc" />
    <path
       style="fill:#e8ce3d;fill-opacity:1;stroke:none"
       d="m 65.830499,116.1089 c 0,0 -25.015072,-9.0965 -30.487696,-3.3912 -5.472632,5.70528 -47.301516,56.56616 -45.1173215,64.79594 -7.3495045,1.49492 -4.0216465,-5.23904 -4.0216465,-5.23904 0,0 13.13696247,-69.9903 44.244146,-69.0722 31.10719,0.9181 36.952078,13.09748 35.382518,12.9065 z"
       id="path5570"
       sodipodi:nodetypes="csccsc" />
    <path
       sodipodi:nodetypes="csccsc"
       id="path5574"
       d="m 64.451935,114.34838 c 0,0 -25.015072,-9.09648 -30.487696,-3.39118 -5.472632,5.70528 -45.03527,57.91356 -46.026314,66.71264 -7.3495,1.4949 -8.513826,-0.7174 -8.513826,-0.7174 0,0 18.5381345,-76.42866 49.645318,-75.51056 31.10719,0.91812 36.952078,13.09748 35.382518,12.9065 z"
       style="fill:#f6f3cf;fill-opacity:1;stroke:none" />
    <path
       style="opacity:0.2;fill:url(#linearGradient6200);fill-opacity:1;stroke:none"
       d="m 22.043911,104.85846 c -26.0075875,11.08604 -41.222688,73.82362 -41.222688,73.82362 19.69046047,-26.26502 22.6399725,-50.92794 51.364484,-72.70046 5.441116,0.1606 15.9424,2.29194 19.933212,3.01514 l 1.896992,-1.93726 c -5.429314,-1.96574 -13.051516,-3.569 -23.545964,-3.87874 -2.916298,-0.086 -5.735564,0.53096 -8.426002,1.67778 l -3.4e-5,-8e-5 z"
       id="path5576"
       sodipodi:nodetypes="cccccscc" />
    <path
       sodipodi:nodetypes="cccccscc"
       id="path5602"
       d="m 22.043911,104.85846 c -26.0075875,11.08604 -41.222688,73.82362 -41.222688,73.82362 19.69046047,-26.26502 22.6399725,-50.92794 51.364484,-72.70046 5.441116,0.1606 15.9424,2.29194 19.933212,3.01514 l 1.896992,-1.93726 c -5.429314,-1.96574 -13.051516,-3.569 -23.545964,-3.87874 -2.916298,-0.086 -5.735564,0.53096 -8.426002,1.67778 l -3.4e-5,-8e-5 z"
       style="opacity:0.2;fill:url(#linearGradient6197);fill-opacity:1;stroke:none" />
    <path
       style="opacity:0.2;fill:#555753;fill-opacity:1;stroke:none"
       d="m 68.621849,99.111337 c -2.805678,1.067443 -5.849616,2.558103 -9.196694,4.540503 -14.803316,8.76764 -10.669304,16.17408 -1.73844,38.93114 5.759006,-1.18472 19.974028,10.56274 24.962188,13.08174 -2.872748,-11.43594 -7.677518,-21.29736 -7.073082,-29.9959 0.7983,-11.48864 1.012422,-20.53356 2.336032,-23.76582 3.295514,-8.047613 15.898876,3.08904 15.898876,3.08904 1.20548,-0.67888 -5.549122,-13.352807 -25.18888,-5.880703 z"
       id="path5606"
       sodipodi:nodetypes="csccsscc" />
    <path
       style="fill:#f6f3cf;fill-opacity:1;stroke:none"
       d="m 90.842349,101.9185 c 0,0 -12.589784,-11.170923 -15.885298,-3.123303 -3.044238,7.434003 -4.664216,67.912783 8.495922,87.484443 -5.03587,5.55786 -13.157408,1.67986 -13.157408,1.67986 0,0 -37.112852,-74.84702 -13.553508,-88.800643 3.94318,-2.33546 7.079002,-1.4319 10.27436,-2.5206 18.503042,-6.304312 25.000732,4.618643 23.825932,5.280243 z"
       id="path5604"
       sodipodi:nodetypes="csccssc" />
    <path
       style="opacity:0.2;fill:url(#linearGradient6192);fill-opacity:1;stroke:none"
       d="m 66.721143,97.641737 c -2.805676,1.06744 -6.521418,0.6743 -9.868496,2.656703 -23.559344,13.95362 13.83774,87.36558 13.83774,87.36558 0,0 5.661418,2.66854 10.464122,0.31594 -1.183362,-0.3423 -1.971454,-0.6904 -1.971454,-0.6904 0,0 -37.418078,-73.47082 -13.858734,-87.424443 5.829772,-3.45284 10.812952,-5.33596 15.032908,-6.223698 -3.70089,-0.51159 -7.750112,1.760958 -13.636086,4.000318 z"
       id="path5611"
       sodipodi:nodetypes="cscccscc" />
    <path
       style="fill:none;stroke:#d9b83e;stroke-width:1.41732287;stroke-linecap:butt;stroke-linejoin:miter;stroke-miterlimit:4;stroke-opacity:1;stroke-dasharray:none"
       d="m 91.188249,101.90318 c 0,0 -8.582294,-5.831003 -11.693674,-5.252263 -1.73796,0.32328 -4.3645,1.15836 -5.20597,2.52012 -0.707282,2.110203 -1.578074,30.555443 -1.578074,30.555443 -0.566298,18.26908 2.141338,37.58608 10.114388,56.64374"
       id="path5624"
       sodipodi:nodetypes="csccc" />
    <path
       style="fill:none;stroke:#c2a947;stroke-width:2px;stroke-linecap:butt;stroke-linejoin:miter;stroke-opacity:1"
       d="m 91.593529,102.04154 c 0,0 -2.395874,-7.981703 -2.039738,-12.034933 0.439818,-5.005658 1.675338,-10.493006 5.072238,-14.195856 1.8393,-2.004952 4.83372,-2.557852 7.421741,-3.397474 3.11514,-1.010708 9.63284,-1.933846 9.63284,-1.933846"
       id="path5626"
       sodipodi:nodetypes="caaaa" />
    <path
       style="fill:#e5cb50;fill-opacity:1;stroke:none;filter:url(#filter5635)"
       d="m -39.931693,158.91716 -2.149849,15.03081 c 19.328106,30.51264 42.25175073,42.72977 63.962349,50.53169 0.03164,0.007 0.06201,0.0246 0.09375,0.0312 4.00866,0.99552 3.161976,-4.01076 2.59375,-6.5 -0.156192,-0.66164 -0.348828,-1.3231 -0.5625,-1.96875 -20.8831544,-7.16119 -41.242818,-16.01514 -58.859073,-50.63604 l -5.078427,-6.48896 0,5e-5 z"
       id="path5553"
       sodipodi:nodetypes="ccccccccc"
       transform="matrix(1.8837942,-0.671803,0.671803,1.8837942,39.799487,-225.28479)" />
    <path
       style="fill:url(#linearGradient6222);fill-opacity:1;stroke:none"
       d="m 234.54409,169.13322 c -0.73286,5.40578 -2.40914,11.36474 -7.18906,14.57542 3.80608,1.40796 7.84418,0.42024 11.80938,-2.50272 0.90482,-4.55714 -3.04398,-8.15914 -4.62032,-12.0727 z"
       id="path5568"
       sodipodi:nodetypes="cccc" />
    <path
       style="opacity:0.2;fill:#75511a;fill-opacity:1;stroke:none"
       d="m 189.25177,152.97584 c 7.59204,-0.1624 13.32612,5.47348 19.5209,8.92316 2.2595,0.41768 7.57654,5.43498 2.1394,3.34564 -5.91732,-3.49296 -10.89684,-9.03508 -17.97612,-10.16996 -1.3457,-0.40498 -2.8654,-0.85896 -3.68418,-2.09884 z"
       id="path5691" />
    <path
       style="opacity:0.3;fill:#75511a;fill-opacity:1;stroke:none"
       d="m 178.26049,165.4329 c 5.79044,2.61674 11.81082,4.80252 18.05774,6.03082 3.65844,2.40592 11.95108,2.04886 13.1911,4.91652 -4.74078,1.59682 -9.04088,-2.61538 -13.71364,-3.15266 -5.49024,-1.95652 -10.96984,-3.99402 -16.57824,-5.55522 -0.8408,-0.33948 -1.61888,-1.3741 -0.95696,-2.23946 z"
       id="path5693" />
    <path
       style="opacity:0.2;fill:#75511a;fill-opacity:1;stroke:none"
       d="m 162.46517,146.0475 c 6.39898,2.7332 11.88834,7.7865 19.03238,8.5774 6.15058,1.90232 12.31856,5.08302 18.94304,3.96108 1.80444,-0.1638 6.72938,1.96854 2.12018,1.5015 -9.73894,0.47778 -18.90606,-3.29512 -27.78634,-6.79004 -3.92192,-2.79026 -10.0652,-2.7283 -13.05872,-6.26784 l 0.2255,-0.47108 0.52396,-0.51102 z"
       id="path5695" />
    <path
       style="opacity:0.3;fill:#75511a;fill-opacity:1;stroke:none"
       d="m 210.43471,154.99584 c 6.06232,-0.83058 10.07546,5.1939 15.61162,6.11228 1.43416,0.59026 1.8261,4.3797 -0.4748,2.9278 2.71252,-0.79918 -4.41814,-1.49918 -4.71116,-3.39216 -3.15324,-2.40768 -6.63998,-4.42084 -10.42566,-5.64792 z"
       id="path5697" />
    <path
       style="opacity:0.2;fill:#75511a;fill-opacity:1;stroke:none"
       d="m 169.87319,166.899 c 1.96458,1.51498 7.78774,2.82374 7.07526,4.4678 -1.45652,0.4982 -10.3833,-3.56826 -7.07526,-4.4678 z"
       id="path5699" />
    <path
       style="opacity:0.2;fill:#75511a;fill-opacity:1;stroke:none"
       d="m 173.68595,140.25622 c 4.93822,1.84044 13.27056,3.29518 14.92098,8.1366 -2.61488,-0.0586 1.22056,-1.58886 -0.3383,-0.4871 -3.53554,-2.86498 -7.87016,-3.93132 -12.31968,-4.45154 -1.2469,0.087 -4.37036,-2.35244 -2.263,-3.19796 z"
       id="path5701" />
    <path
       style="opacity:0.2;fill:#75511a;fill-opacity:1;stroke:none"
       d="m 155.42959,138.5971 c 4.04772,1.61932 9.8163,-0.545 12.78318,3.2634 -2.8194,1.5972 -9.0817,-2.38886 -13.31202,-2.207 -0.45194,-0.37748 -0.008,-1.12168 0.52884,-1.0564 z"
       id="path5703" />
    <path
       style="opacity:0.3;fill:#75511a;fill-opacity:1;stroke:none"
       d="m 153.06271,153.17194 c 5.9171,5.63926 13.48738,9.28922 21.32594,11.40152 3.17272,1.1765 -1.63022,1.71814 -0.047,-0.21794 1.99866,3.42872 -4.86782,-0.59884 -6.52802,-0.40014 -5.44328,-1.69656 -10.05994,-5.40508 -14.9662,-8.15484 -1.2147,-0.88298 -2.40938,-3.11312 0.21528,-2.6286 z"
       id="path5705" />
    <path
       style="opacity:0.2;fill:#75511a;fill-opacity:1;stroke:none"
       d="m 168.24441,153.33192 c 2.96166,-2.09724 0.76558,4.77356 0.43874,0.022 -0.045,-0.1928 -0.3978,-0.2822 -0.43874,-0.022 z"
       id="path5707" />
    <path
       style="opacity:0.3;fill:#75511a;fill-opacity:1;stroke:none"
       d="m 141.03887,143.75196 c 2.27888,1.9645 10.1463,2.37348 9.18692,5.0573 -3.23558,-0.74288 -7.248,-2.27506 -9.18692,-5.0573 z"
       id="path5709" />
    <path
       style="opacity:0.3;fill:#75511a;fill-opacity:1;stroke:none"
       d="m 151.32323,166.35158 c 2.04402,-1.91902 7.18596,3.5818 2.46098,1.95164 -0.62064,-0.29698 -4.61948,-0.74444 -2.46098,-1.95164 z"
       id="path5711" />
    <path
       style="opacity:0.3;fill:#75511a;fill-opacity:1;stroke:none"
       d="m 149.85331,132.60186 c 2.7969,0.26142 3.38976,5.72376 0.22458,2.47112 -1.76636,-0.36098 -3.3052,-2.58782 -0.22458,-2.47112 z"
       id="path5713" />
    <path
       style="opacity:0.3;fill:#75511a;fill-opacity:1;stroke:none"
       d="m 139.65339,154.0892 c 6.71076,0.8474 -4.28654,3.98064 0,0 z"
       id="path5715" />
    <path
       style="opacity:0.3;fill:#75511a;fill-opacity:1;stroke:none"
       d="m 139.86109,132.97908 c 2.76454,-0.86932 5.86056,3.63806 1.34828,2.11464 -0.90824,-0.20698 -3.99684,-1.54232 -1.34828,-2.11464 z"
       id="path5717" />
    <path
       style="opacity:0.2;fill:#75511a;fill-opacity:1;stroke:none"
       d="m 124.91251,126.0181 c 5.99166,-0.0486 9.39436,7.1512 15.55242,6.351 4.23158,3.81508 10.78658,4.129 14.3346,8.82834 -2.84934,2.79584 -1.52718,-3.69944 -1.17602,-0.54082 -4.8195,-0.52442 -7.67698,-4.89508 -11.946,-6.46438 -5.3142,-2.64788 -10.672,-5.43858 -16.58396,-6.41004 -1.14014,-0.29368 -2.02362,-1.5499 -0.181,-1.7641 z"
       id="path5719" />
    <path
       style="opacity:0.3;fill:#75511a;fill-opacity:1;stroke:none"
       d="m 189.36931,180.00272 c 3.24508,0.0232 2.80634,4.7938 -0.25546,1.65154 -1.24028,-0.4175 -1.10238,-1.83306 0.25546,-1.65154 z"
       id="path5723" />
    <path
       style="opacity:0.4;fill:#75511a;fill-opacity:1;stroke:none"
       d="m 193.58005,182.77594 c 7.05386,0.31946 14.34758,1.7466 21.23152,-0.52568 2.72094,-3.03226 0.5008,4.52586 -2.36306,1.76116 -5.71704,0.0208 -11.44084,1.67762 -17.04844,-6.8e-4 -1.16338,-0.018 -5.04262,0.59824 -1.82002,-1.2348 z"
       id="path5725" />
    <path
       style="opacity:0.3;fill:#75511a;fill-opacity:1;stroke:none"
       d="m 190.84699,174.9622 c 2.72534,0.063 7.35894,-2.73096 8.92252,0.37388 -2.63706,-0.1192 -7.50882,3.02244 -8.92252,-0.37388 z"
       id="path5727" />
    <path
       style="opacity:0.3;fill:#75511a;fill-opacity:1;stroke:none"
       d="m 160.94249,172.29634 c 5.51164,3.89194 12.71714,2.14828 18.74956,4.57518 5.6889,1.31294 11.66816,2.61066 17.47116,1.21154 1.1552,-2.31502 8.2984,-0.60638 2.81428,-0.64476 -6.47934,0.92666 -13.04576,-1.35294 -19.48062,0.1756 -5.98928,-0.27832 -11.78316,-3.42894 -17.84188,-1.8108 -2.25522,0.1644 -5.75406,-2.66412 -1.7125,-3.50684 z"
       id="path5729" />
    <path
       style="opacity:0.3;fill:#75511a;fill-opacity:1;stroke:none"
       d="m 213.82467,179.95426 c 1.86224,1.16272 9.69176,0.137 5.17154,2.56174 -1.69718,-1.40932 -9.22828,1.23494 -5.17154,-2.56174 z"
       id="path5731" />
  </g>
</svg>
