<?xml version="1.0" encoding="UTF-8" standalone="no"?>
<!-- Created with Inkscape (http://www.inkscape.org/) -->

<svg
   xmlns:dc="http://purl.org/dc/elements/1.1/"
   xmlns:cc="http://creativecommons.org/ns#"
   xmlns:rdf="http://www.w3.org/1999/02/22-rdf-syntax-ns#"
   xmlns:svg="http://www.w3.org/2000/svg"
   xmlns="http://www.w3.org/2000/svg"
   xmlns:sodipodi="http://sodipodi.sourceforge.net/DTD/sodipodi-0.dtd"
   xmlns:inkscape="http://www.inkscape.org/namespaces/inkscape"
   id="svg3039"
   version="1.1"
   inkscape:version="0.48.2 r9819"
   width="50"
   height="50"
   sodipodi:docname="back77.svg">
  <metadata
     id="metadata3045">
    <rdf:RDF>
      <cc:Work
         rdf:about="">
        <dc:format>image/svg+xml</dc:format>
        <dc:type
           rdf:resource="http://purl.org/dc/dcmitype/StillImage" />
        <dc:title />
      </cc:Work>
    </rdf:RDF>
  </metadata>
  <defs
     id="defs3043" />
  <sodipodi:namedview
     pagecolor="#ffffff"
     bordercolor="#666666"
     borderopacity="1"
     objecttolerance="10"
     gridtolerance="10"
     guidetolerance="10"
     inkscape:pageopacity="0"
     inkscape:pageshadow="2"
     inkscape:window-width="708"
     inkscape:window-height="480"
     id="namedview3041"
     showgrid="false"
     inkscape:zoom="0.41622575"
     inkscape:cx="590.06704"
     inkscape:cy="283.5"
     inkscape:window-x="107"
     inkscape:window-y="56"
     inkscape:window-maximized="0"
     inkscape:current-layer="g3049" />
  <g
     id="g3049"
     transform="translate(0,-517)">
    <path
       style="fill:#d1cfd0"
       d="m 20.564168,523.52708 c -3.866311,0.1787 -7.828839,0.56355 -11.3368918,2.30987 -1.970824,0.55618 -3.200891,2.45766 -4.295615,4.04785 -1.807827,2.85828 -1.711369,6.43056 -1.113132,9.62141 1.140177,4.04731 3.750407,7.50601 6.7817028,10.40348 3.236647,3.4483 7.259352,6.30056 11.942727,7.47173 3.251364,0.76337 6.73161,1.83492 10.043709,0.79891 0.46426,-0.76867 0.01711,-1.74874 1.372035,-1.39585 3.04046,0.11792 5.792459,-1.30007 8.562851,-2.3095 1.370795,-0.95313 3.34621,-1.28216 3.849582,-2.5869 0.835461,-0.11417 2.316211,-1.2048 2.013708,-1.92553 1.512578,-0.75109 1.889857,-2.81707 2.54767,-4.19119 0.769785,-2.47574 0.219364,-5.18054 -0.632399,-7.57797 -2.237762,-5.3161 -7.27617,-8.87157 -12.41421,-11.26828 -5.268537,-2.52083 -11.201571,-3.46016 -17.026151,-3.4398 l -0.295586,0.0418 0,0 z m 4.234926,2.48079 c 5.244804,0.38778 10.255933,2.21944 14.827022,4.70146 1.880111,0.95916 3.280522,2.46978 4.80524,3.87127 1.855269,2.00975 3.559608,4.4699 3.741619,7.23577 0.626291,1.09949 -0.541871,2.8273 -0.388598,3.84876 -0.3211,1.18233 -1.045078,2.21151 -1.596034,3.14618 -1.255763,0.78393 -2.405004,2.72676 -3.753997,3.48698 -1.676291,1.37376 -3.734704,2.30139 -5.904934,2.69085 -1.148935,1.21103 -4.29206,-0.12761 -4.658758,1.13038 -2.402676,-0.10112 -4.844542,0.16382 -7.170233,-0.61441 -4.431368,-1.09209 -8.877633,-2.83291 -12.059653,-6.17588 -3.2300448,-3.01774 -6.4546848,-6.51117 -7.4418938,-10.90366 -0.283712,-3.24205 0.579621,-6.79383 3.193267,-8.97894 2.4073848,-2.63246 6.2199518,-2.95399 9.5541498,-3.49341 2.278583,-0.18716 4.576842,-0.14847 6.852803,0.0547 z m 10.254202,5.54665 c -3.533445,1.66546 -7.062111,3.35052 -10.747022,4.68377 -2.478659,0.86621 -4.645408,2.36951 -7.028943,3.42291 -1.834608,-0.12899 -5.300808,1.83774 -3.559687,3.61585 3.60473,0.97996 6.259211,3.79796 9.67509,5.199 2.149306,1.16537 4.536669,1.99216 6.418374,3.56945 2.000643,-0.3502 4.404857,-0.92849 6.227739,-1.55489 0.738368,-1.60058 -2.238643,-2.01335 -3.501432,-2.82694 -3.100304,-1.62086 -6.235604,-3.2483 -9.09844,-5.27942 -1.401497,-0.56333 -1.972504,-1.54847 -0.248975,-2.16865 2.770508,-1.58695 5.888905,-2.50934 8.806412,-3.74593 1.713513,-1.17322 4.602519,-1.5596 4.996868,-3.91897 -0.01634,-0.8885 -1.215892,-1.20984 -1.939984,-0.99618 z M 1.8888052,542.54601 c 0.08375,0.31247 0.253671,-0.33818 0,0 z"
       id="path3063"
       inkscape:connector-curvature="0" />
    <path
       style="fill:#b1aeaf"
       d="m 20.60371,523.61818 c -4.577925,0.16548 -9.369773,0.75865 -13.2247738,3.40077 -2.472727,2.2876 -4.072471,5.53092 -3.860329,8.91044 -0.109986,4.63389 2.41477,8.84933 5.463606,12.20893 3.6463208,3.96264 7.8994328,7.75513 13.3200878,9.09324 3.323284,0.82423 6.899528,1.92991 10.284399,0.83886 -0.242445,-2.55836 3.129123,-0.82915 4.72991,-1.80219 3.443657,-1.13647 7.09379,-2.25969 9.607851,-4.98932 1.286313,-1.33842 2.898922,-2.44817 3.353242,-4.33644 0.915366,-2.01173 1.1733,-4.33241 0.585538,-6.48499 -1.165632,-5.61921 -5.887943,-9.64757 -10.778151,-12.32182 -5.859747,-3.31284 -12.763596,-4.69278 -19.48138,-4.51748 z m 3.548723,2.26945 c 5.40751,0.35527 10.656857,2.04287 15.346565,4.68391 1.876382,0.91713 3.367943,2.34125 4.822055,3.77052 1.946244,2.04825 3.585967,4.54311 4.066141,7.32607 0.27766,1.40135 0.133665,2.44929 -0.423717,3.93569 -0.489995,1.50047 -1.105318,3.0067 -2.376876,4.18676 -1.250739,0.88866 -1.886875,2.27479 -3.428808,2.89975 -1.732675,1.30355 -3.869231,1.93912 -5.875943,2.71999 -1.349015,0.48211 -3.570258,-0.26012 -4.197743,0.85353 -1.647102,-0.14686 -3.267017,-0.0117 -4.9124,-0.17055 -4.157712,-0.75197 -8.346436,-2.02145 -11.863323,-4.39098 -3.396115,-2.74296 -6.6884368,-5.8208 -8.8191688,-9.64198 -1.309436,-2.20246 -1.80054,-4.82087 -1.157525,-7.30626 0.656551,-4.07427 4.223133,-7.37257 8.3058498,-8.12408 3.448012,-0.83635 6.979917,-1.06126 10.514893,-0.74237 z m 10.762292,5.82168 c -3.149086,1.50449 -6.304626,3.00379 -9.588776,4.21821 -2.824499,0.96806 -5.349714,2.55454 -8.03204,3.81344 -1.778594,0.1383 -4.090631,1.041 -4.025998,3.04645 2.025369,1.04683 4.239823,1.90115 6.089018,3.32472 3.325748,2.24334 7.235515,3.49248 10.511304,5.80254 1.916536,-0.15792 4.299358,-0.99997 6.016485,-1.51523 0.553569,-1.52673 -2.183672,-1.90674 -3.441109,-2.68105 -2.884824,-1.47722 -5.746894,-3.03477 -8.44642,-4.83706 -1.421907,-0.74265 -3.173515,-1.89791 -0.783515,-2.76339 2.743702,-1.51844 5.774614,-2.5034 8.66647,-3.67401 1.657417,-1.12243 4.204792,-1.49217 4.957945,-3.53357 0.376123,-1.07568 -1.10663,-1.58372 -1.923364,-1.20105 z"
       id="path3061"
       inkscape:connector-curvature="0" />
    <path
       style="fill:#908d8e"
       d="m 20.180083,523.66704 c -4.535157,0.256 -9.393282,0.84266 -13.0601728,3.71674 -2.456814,2.29597 -3.787117,5.63355 -3.518945,8.96005 -0.0012,5.21634 3.300603,9.77057 6.9284598,13.30867 3.406877,3.56586 7.564781,6.6477 12.512684,7.73505 3.080596,0.68717 6.378411,1.72188 9.491764,0.6569 -0.29432,-2.47789 2.743998,-0.99902 4.359121,-1.72037 3.619145,-1.11785 7.436771,-2.32574 10.062648,-5.17524 1.471001,-1.41677 3.093377,-2.85945 3.484496,-4.94711 0.998251,-2.03715 0.812837,-4.3276 0.203327,-6.43964 -1.597749,-5.7845 -6.796111,-9.7413 -12.022615,-12.33373 -5.656171,-2.83957 -12.124898,-3.95661 -18.440767,-3.76132 z m 4.003157,2.16411 c 6.114904,0.42059 12.051963,2.55194 17.166536,5.81888 3.143643,2.33625 5.87311,5.46415 6.984544,9.25906 0.612607,1.77192 0.353801,3.67398 -0.479431,5.30775 -0.347329,1.75645 -1.718994,3.2523 -3.016631,4.53602 -2.116665,2.11255 -4.907419,3.35453 -7.676769,4.41659 -1.694452,0.85953 -4.1768,0.0518 -5.20342,1.21264 -2.633858,-0.2346 -5.335973,-0.013 -7.871204,-0.89086 -4.131578,-1.06492 -8.207088,-2.75949 -11.24571,-5.79613 -3.3694288,-3.15663 -6.9124498,-6.7703 -7.7625158,-11.43921 -0.315058,-3.3935 0.786989,-7.07488 3.593641,-9.24388 2.5298698,-2.45633 6.3092958,-2.69743 9.6341558,-3.22233 1.953611,-0.15542 3.922528,-0.0661 5.876804,0.0415 z m 10.639106,5.98687 c -2.496704,1.09522 -4.894806,2.40586 -7.467697,3.34703 -3.342623,1.26375 -6.576109,2.7691 -9.702937,4.47937 -1.751533,0.38056 -4.428484,0.9239 -4.285599,3.15764 1.954349,1.01202 4.137169,1.79437 5.911925,3.20905 3.358612,2.27807 7.314704,3.54077 10.640531,5.85952 1.895935,-0.215 4.158825,-0.94306 5.904421,-1.53303 0.323399,-1.60419 -2.459696,-1.83698 -3.63279,-2.69447 -3.483561,-1.81125 -6.978611,-3.68382 -10.093228,-6.08099 1.1e-5,-1.80693 3.341618,-2.34945 4.886483,-3.24171 3.104623,-1.28234 6.355059,-2.33323 9.117733,-4.27587 1.411372,-1.16761 0.492799,-3.02223 -1.278842,-2.22654 z"
       id="path3059"
       inkscape:connector-curvature="0" />
    <path
       style="fill:#837b79"
       d="m 19.625803,523.75877 c -4.364003,0.22471 -9.087495,0.86587 -12.5231878,3.74058 -2.865366,2.5868 -3.947658,6.58215 -3.391673,10.2954 0.876367,6.10306 5.420926,10.84932 9.9640268,14.74318 4.257566,3.75176 9.975849,5.45553 15.584175,5.90838 1.30439,0.20548 4.751791,-0.26673 2.909947,-1.95203 -2.672975,-0.37612 -5.451751,-0.046 -8.045946,-0.96319 -4.498151,-1.11242 -8.887655,-3.10676 -12.04306,-6.53142 -3.0465968,-2.86369 -5.9860258,-6.20032 -6.9978188,-10.3181 -0.519562,-3.75075 0.854774,-7.82114 4.032049,-10.10599 2.5909848,-2.05965 6.0563038,-2.38156 9.2376258,-2.81209 6.892144,-0.46931 13.925328,0.87204 20.004373,4.13218 3.719948,1.68345 6.791499,4.61187 8.796164,8.10447 1.263755,2.38683 2.226255,5.27462 1.04676,7.88992 -0.919911,2.69619 -3.007929,4.89447 -5.33742,6.53534 -2.069666,1.35008 -4.364144,2.3562 -6.710277,3.11534 -0.840388,0.31987 -4.827331,-0.14926 -2.74279,0.99681 3.497449,0.29939 6.730759,-1.30868 9.846438,-2.63381 2.625499,-1.39226 4.692468,-3.6238 6.475185,-5.92825 1.087549,-2.2917 1.743922,-4.8485 1.100147,-7.36295 -1.248957,-5.90183 -6.311852,-10.0968 -11.509293,-12.79232 -5.981064,-3.14907 -12.942319,-4.44252 -19.695425,-4.06145 z m 15.427493,7.97948 c -2.730975,1.23408 -5.386258,2.63885 -8.215012,3.67032 -3.168425,1.17159 -6.202453,2.63668 -9.143032,4.27694 -1.784857,0.40388 -4.256771,0.83198 -4.357401,3.03974 1.982149,1.03668 4.162621,1.83958 5.962652,3.2596 3.349752,2.27231 7.30406,3.53422 10.60678,5.86076 1.946575,-0.12632 3.912858,-1.08524 5.839646,-1.43439 0.296046,-1.47433 -1.757707,-1.78832 -2.899057,-2.4046 -3.863998,-1.95494 -7.723313,-4.01694 -11.124268,-6.7005 1.792022,-2.03882 4.650895,-2.63297 7.048913,-3.74393 2.518989,-0.87824 4.924339,-2.02896 7.188006,-3.42878 1.271337,-0.98372 1.033776,-2.86001 -0.907227,-2.39516 z"
       id="path3057"
       inkscape:connector-curvature="0" />
    <path
       style="fill:#605d5d"
       d="m 17.824389,523.9317 c -4.467418,0.37243 -9.5355288,1.42396 -12.2050968,5.33123 -2.186412,3.01896 -2.373694,7.02895 -1.489369,10.52336 1.85583,5.96382 6.6468068,10.46036 11.4860118,14.23436 4.207955,2.87751 9.378806,4.12578 14.436869,4.45182 1.3149,0.23104 3.673029,-0.93156 1.985989,-1.98007 -2.933225,-0.31382 -5.957724,-0.0878 -8.76566,-1.16362 -3.822668,-1.07068 -7.588527,-2.69636 -10.389914,-5.54391 -3.4901258,-3.2041 -7.0668068,-6.92321 -7.9258258,-11.70962 -0.159635,-3.32209 0.845862,-6.88311 3.578417,-9.03768 2.6253208,-2.52457 6.5043198,-2.8537 9.9619178,-3.31501 7.27935,-0.5019 14.681181,1.14849 21.002469,4.7327 3.784701,2.00668 6.865702,5.36423 8.486327,9.27509 0.88177,2.00041 1.106612,4.27377 0.23253,6.31641 -1.743656,4.56028 -6.208685,7.46194 -10.713861,9.05893 -1.082508,0.99105 -4.539015,0.0803 -4.303088,1.34914 2.778657,0.28148 5.457827,-0.61885 7.976799,-1.68083 3.513216,-1.18492 6.25952,-3.85839 8.442457,-6.7127 1.031098,-2.21509 1.856245,-4.66907 1.242306,-7.12388 -1.183652,-6.17944 -6.491189,-10.59064 -11.965817,-13.27723 -4.578085,-2.42137 -9.773495,-3.57193 -14.934613,-3.87654 -2.04678,-0.0645 -4.100578,-0.0725 -6.138848,0.14805 z m 16.997957,7.92576 c -4.087157,2.09254 -8.390092,3.72151 -12.622981,5.49776 -2.146642,0.94835 -4.025413,2.5133 -6.399735,2.88652 -1.220738,-0.0211 -2.574953,1.5611 -2.397703,2.49161 1.57067,0.97826 3.518784,1.38009 4.964304,2.63326 3.650642,2.52701 7.907976,4.02704 11.617472,6.44804 1.736274,-0.34388 4.537265,-0.84616 5.614371,-1.68846 -0.09479,-1.77847 -2.997704,-1.79304 -4.248802,-2.80263 -3.200028,-1.80847 -6.510194,-3.50736 -9.395554,-5.79349 0.277081,-1.84838 3.468442,-2.41457 5.13791,-3.3186 3.077144,-1.26054 6.293161,-2.30086 9.006677,-4.25828 1.304426,-1.09888 0.326292,-2.78004 -1.275959,-2.09573 z"
       id="path3055"
       inkscape:connector-curvature="0" />
    <path
       style="fill:#2f2d2d"
       d="m 20.411034,523.8024 c -4.823446,0.25877 -10.264411,0.74956 -13.8198178,4.34848 -3.698777,3.94232 -3.635994,10.12031 -1.173501,14.66732 2.455583,4.66114 6.4784498,8.32658 10.6804268,11.47323 3.865565,2.45992 8.48092,3.66185 13.034293,4.05421 1.195788,0.26416 4.777967,-0.30061 2.759515,-1.80102 -2.511336,-0.2906 -5.095024,-0.0402 -7.534327,-0.8612 -4.514691,-1.10787 -8.945119,-3.04179 -12.143444,-6.45439 -3.1761658,-2.9803 -6.3540208,-6.4246 -7.2449948,-10.7812 -0.382001,-3.49198 0.761568,-7.30772 3.643414,-9.54335 2.4921788,-2.35839 6.1311018,-2.71327 9.3919648,-3.1883 7.353985,-0.55493 14.884937,0.92687 21.287883,4.57049 4.792995,2.50292 8.702928,7.08331 9.55827,12.43182 0.155127,4.06919 -2.737137,7.6165 -6.004721,9.81781 -2.082669,1.35826 -4.41925,2.38304 -6.797162,3.10594 -0.779481,-0.10226 -4.456514,0.54802 -1.925625,0.82075 3.292974,0.0666 6.329195,-1.46929 9.273258,-2.73406 2.448892,-1.387 4.430844,-3.47525 6.155173,-5.64541 1.073924,-2.3679 1.974642,-5.01773 1.130306,-7.59838 -1.242409,-5.82116 -6.312021,-9.93965 -11.425614,-12.60205 -5.734662,-3.00024 -12.374277,-4.2958 -18.845297,-4.08069 z m 13.903221,8.3586 c -5.215801,2.73715 -10.964562,4.35278 -16.057876,7.32889 -1.6532,0.86836 -4.182883,0.63193 -4.791936,2.82205 0.883567,1.51429 3.732634,1.65829 5.113085,3.1275 3.584743,2.40886 7.656353,3.98236 11.36397,6.17582 1.727617,-0.2256 4.698307,-0.37314 5.554754,-1.99182 -1.385253,-1.40258 -3.63401,-1.68122 -5.239012,-2.85577 -2.932231,-1.60568 -5.90643,-3.22487 -8.498795,-5.34473 0.854757,-1.85959 3.446154,-2.31576 5.194992,-3.21406 3.112905,-1.27328 6.379319,-2.36868 9.12859,-4.32844 1.489065,-1.48725 -0.329372,-2.73948 -1.767772,-1.71944 z"
       id="path3053"
       inkscape:connector-curvature="0" />
    <path
       style="fill:#ffffff;fill-opacity:1;stroke:#ffffff;stroke-width:0.09148186;stroke-opacity:1"
       d="m 18.378669,524.02503 c -4.490045,0.36464 -9.6405288,1.24203 -12.4557548,5.08289 -3.17677,4.2994 -2.606355,10.31813 0.143874,14.67763 2.50996,4.1924 6.2203938,7.58701 10.1625958,10.47324 3.988106,2.54864 8.782506,3.73381 13.49273,4.03579 1.393186,0.54606 4.169547,-1.3109 1.559651,-1.71567 -2.74223,-0.16871 -5.529092,-0.18673 -8.145515,-1.13778 -4.180305,-1.12245 -8.181222,-3.12176 -11.143702,-6.28158 -3.0815638,-2.95223 -6.2010868,-6.34284 -7.0869258,-10.60885 -0.669785,-4.5397 1.743264,-9.3958 6.0595628,-11.32774 5.803954,-2.16506 12.274368,-2.07306 18.285307,-0.84484 4.531925,0.98927 8.848333,2.9007 12.7008,5.423 3.639599,2.84708 6.703406,6.94113 7.032749,11.6219 -0.417996,5.25861 -4.99336,9.19144 -9.688612,11.10774 -1.858793,0.97469 -3.87764,1.35822 -5.94744,1.56268 1.331053,0.7384 3.988252,-0.0872 5.677201,-0.65929 2.929456,-1.00613 5.874309,-2.25783 7.953216,-4.61205 1.382677,-1.39677 2.877834,-2.81688 3.272709,-4.80843 1.502624,-3.55662 0.126913,-7.575 -1.951269,-10.61488 -3.558937,-4.89714 -9.198049,-7.9549 -14.909394,-9.83114 -4.842724,-1.45212 -9.968936,-1.93751 -15.011783,-1.54262 z m 16.628437,7.92731 c -4.393981,2.22886 -9.047356,3.89755 -13.532344,5.9324 -2.019253,1.00691 -3.919107,2.31128 -6.207441,2.65806 -1.681789,0.36985 -2.348481,2.86055 -0.08868,2.90953 2.408495,0.90488 4.315683,2.71183 6.63187,3.81452 2.582459,1.43113 5.300974,2.61435 7.871206,4.05797 1.836711,0.23507 4.596269,-0.20674 5.694735,-1.6265 -1.432361,-1.39356 -3.628863,-1.8225 -5.315802,-2.92307 -2.908204,-1.64209 -5.922016,-3.22035 -8.447643,-5.40245 1.231006,-2.06634 4.070958,-2.52718 6.130141,-3.57361 2.88167,-1.17407 5.923622,-2.21113 8.402049,-4.11156 0.822684,-0.82244 0.02466,-2.19691 -1.138088,-1.73529 z"
       id="path3051"
       inkscape:connector-curvature="0" />
  </g>
</svg>
