<?xml version="1.0" encoding="UTF-8" standalone="no"?>
<!-- Created with Inkscape (http://www.inkscape.org/) -->

<svg
   xmlns:dc="http://purl.org/dc/elements/1.1/"
   xmlns:cc="http://creativecommons.org/ns#"
   xmlns:rdf="http://www.w3.org/1999/02/22-rdf-syntax-ns#"
   xmlns:svg="http://www.w3.org/2000/svg"
   xmlns="http://www.w3.org/2000/svg"
   xmlns:sodipodi="http://sodipodi.sourceforge.net/DTD/sodipodi-0.dtd"
   xmlns:inkscape="http://www.inkscape.org/namespaces/inkscape"
   width="96"
   height="96"
   id="svg2"
   version="1.1"
   inkscape:version="0.48.2 r9819"
   sodipodi:docname="pause.svg">
  <defs
     id="defs4" />
  <sodipodi:namedview
     id="base"
     pagecolor="#ffffff"
     bordercolor="#666666"
     borderopacity="1.0"
     inkscape:pageopacity="0.0"
     inkscape:pageshadow="2"
     inkscape:zoom="0.70737049"
     inkscape:cx="148.64318"
     inkscape:cy="130.06749"
     inkscape:document-units="px"
     inkscape:current-layer="layer1"
     showgrid="false"
     inkscape:window-width="708"
     inkscape:window-height="425"
     inkscape:window-x="481"
     inkscape:window-y="27"
     inkscape:window-maximized="0" />
  <metadata
     id="metadata7">
    <rdf:RDF>
      <cc:Work
         rdf:about="">
        <dc:format>image/svg+xml</dc:format>
        <dc:type
           rdf:resource="http://purl.org/dc/dcmitype/StillImage" />
        <dc:title />
      </cc:Work>
    </rdf:RDF>
  </metadata>
  <g
     inkscape:label="Layer 1"
     inkscape:groupmode="layer"
     id="layer1"
     transform="translate(0,-956.36218)">
    <path
       style="fill:#ffffff"
       d="m 31.81691,1037.6264 c -6.753119,-0.5566 -13.776765,-2.0903 -19.276632,-6.2409 -5.2807558,-4.8366 -7.7938568,-12.2856 -6.6948458,-19.3373 0.948692,-10.2164 8.2178838,-18.31643 15.2064408,-25.20327 5.993203,-6.05532 13.637292,-10.45018 22.029534,-12.11205 5.095645,-1.01981 10.820264,-2.76749 15.759761,-0.33938 -0.358828,2.3591 1.135316,2.24585 3.016701,2.22579 5.540212,0.0392 10.57082,2.75189 15.61179,4.72302 3.669735,2.0525 7.176601,4.32817 9.704931,7.65569 2.9426,3.18069 4.60735,7.47356 4.99531,11.7428 0.45404,9.4943 -5.17801,18.1373 -12.490314,23.7338 -11.741517,9.2147 -26.776395,13.8141 -41.648367,13.4096 -2.073255,-0.015 -4.148887,-0.066 -6.214309,-0.2578 z m -8.96237,-2.2789 c -1.102626,-0.2352 -0.931885,0.4376 0,0 z m 19.991651,-1.3953 c -1.708888,-0.2787 0.516282,0.5376 0,0 z m 3.143776,-0.9179 c 9.511349,-1.0454 18.479047,-4.8568 26.773228,-9.424 6.3033,-5.0157 12.905715,-11.2876 13.756185,-19.7541 0.33352,-3.3047 -0.71928,-7.4312 -2.519167,-10.42909 -1.388811,-2.96282 -4.607408,-5.20492 -6.75486,-7.64016 -2.707865,-1.97987 -5.552293,-4.19895 -8.960645,-5.03298 -3.080316,-0.92181 -6.210515,-2.20453 -9.512565,-1.6606 -3.030159,-1.79409 -7.120559,-0.96237 -10.651976,-0.82814 -9.392812,1.87599 -19.031243,5.1697 -25.766864,12.30801 -5.684169,5.44932 -11.1696,11.69736 -13.2159748,19.47966 -0.53815,3.7275 0.09851,7.6529 1.5178588,11.1101 1.164557,3.5175 4.266017,5.8333 6.973215,8.1574 4.417355,2.5857 9.615813,3.2198 14.581242,3.9634 4.585836,0.3036 9.209332,0.2329 13.780323,-0.2495 z m -9.448705,-9.5677 c -2.92118,-2.4004 -5.593837,-5.1354 -8.040868,-8.016 -0.896721,-6.2063 -0.459521,-12.5558 -0.347408,-18.81707 -0.406185,-3.65982 0.524944,-7.7259 5.116055,-6.04643 2.797464,2.72066 7.327687,3.62871 9.357284,6.94223 -0.614751,3.77277 -1.642852,7.61747 -1.431552,11.53677 -0.09335,4.3945 0.43325,8.7977 0.338406,13.1749 -0.734392,1.5532 -3.56854,1.8475 -4.991917,1.2256 z m -0.972659,-1.6428 c -1.639012,-1.8015 -2.140235,-1.6759 0,0 z m -1.94532,-1.9506 c -1.345696,-1.5212 -1.693016,-1.2072 0,0 z m -4.834359,-7.6102 c -0.552143,0.506 0.376333,1.0648 0,0 z m 0.03112,-3.0627 c -0.302454,-0.5202 0.0045,3.3668 0.04772,0.7642 l -0.04772,-0.7642 z m 0.246761,-16.39051 c -0.55215,0.506 0.376326,1.0648 0,0 z m 31.753575,29.94531 c -2.411999,-2.7831 -6.657331,-3.3444 -8.007696,-6.8331 -1.195995,-4.5611 -0.55238,-9.3902 -0.868441,-14.063 0.397945,-3.60584 -1.229506,-8.17237 1.221119,-11.08848 3.750647,-1.19849 6.041471,4.19876 10.051901,4.02227 5.096587,0.76136 3.067806,5.66921 2.556348,8.97171 -0.126331,6.0114 0.374199,12.0602 -0.342494,18.0452 -0.7737,1.5652 -3.210473,1.564 -4.610737,0.9454 z m -5.190675,-4.6433 c -1.708883,-0.2787 0.516288,0.5375 0,0 z m -2.663238,-9.4615 c -0.55215,0.506 0.376335,1.0648 0,0 z m -0.541414,-12.3778 c -0.506402,0.0108 0.264474,1.61962 0,0 z m -39.644528,34.1724 c -1.596266,-1.6716 -2.712941,-2.5483 -0.57448,-0.3689 0.03638,-0.2625 0.46414,0.7334 0.57448,0.3689 z m 60.027076,-5.8905 c 0.847581,-1.5173 -1.498115,1.54 0,0 z m -65.9500018,-5.6308 c -0.41756,0.7109 0.247554,2.0868 0,0 z m 76.7882168,-4.7673 c -0.877711,0.275 -3.12458,3.2196 -0.637501,0.8572 l 0.331363,-0.3416 0.306138,-0.5156 z m -76.8112358,-5.2281 c -0.552149,0.506 0.376334,1.0648 0,0 z m 80.5919098,-5.0023 c -0.55215,0.506 0.37633,1.0648 0,0 z m 0.84809,-3.4848 c -0.5064,0.014 0.26447,1.6196 0,0 z m -0.45753,-1.73166 c -0.76583,-2.37301 0.45205,3.43076 0,0 z m -74.758601,-1.94531 c 0.847586,-1.51725 -1.498109,1.54002 0,0 z m 1.111614,-1.38953 c 0.84758,-1.51725 -1.498116,1.54002 0,0 z m 71.920307,-1.79373 c -0.734,-1.10468 -0.36447,0.45795 0.23193,0.54317 l -0.23193,-0.54317 z m -70.530791,-0.15159 c 0.84758,-1.51724 -1.498115,1.54003 0,0 z M 84.6265,991.08004 c -2.23916,-1.998 -2.591964,-1.64327 0,0 z m -1.814366,-1.95825 c -0.665545,-1.11027 -0.443203,1.03351 0,0 z m -58.915464,-4.0296 c 0.847585,-1.51724 -1.498109,1.54001 0,0 z m 50.022562,-2.45805 c -1.345697,-1.52116 -1.693017,-1.20719 0,0 z m -20.77326,-8.98107 c -1.102535,-0.23529 -0.93198,0.43749 0,0 z"
       id="path3029"
       inkscape:connector-curvature="0" />
  </g>
</svg>
