<?xml version="1.0" encoding="UTF-8" standalone="no"?>
<!-- Created with Inkscape (http://www.inkscape.org/) -->

<svg
   xmlns:dc="http://purl.org/dc/elements/1.1/"
   xmlns:cc="http://creativecommons.org/ns#"
   xmlns:rdf="http://www.w3.org/1999/02/22-rdf-syntax-ns#"
   xmlns:svg="http://www.w3.org/2000/svg"
   xmlns="http://www.w3.org/2000/svg"
   xmlns:sodipodi="http://sodipodi.sourceforge.net/DTD/sodipodi-0.dtd"
   xmlns:inkscape="http://www.inkscape.org/namespaces/inkscape"
   width="333.08575"
   height="491.99274"
   id="svg4089"
   version="1.1"
   inkscape:version="0.47 r22583"
   sodipodi:docname="New document 9">
  <defs
     id="defs4091">
    <inkscape:perspective
       sodipodi:type="inkscape:persp3d"
       inkscape:vp_x="0 : 526.18109 : 1"
       inkscape:vp_y="0 : 1000 : 0"
       inkscape:vp_z="744.09448 : 526.18109 : 1"
       inkscape:persp3d-origin="372.04724 : 350.78739 : 1"
       id="perspective4097" />
    <inkscape:perspective
       id="perspective4067"
       inkscape:persp3d-origin="0.5 : 0.33333333 : 1"
       inkscape:vp_z="1 : 0.5 : 1"
       inkscape:vp_y="0 : 1000 : 0"
       inkscape:vp_x="0 : 0.5 : 1"
       sodipodi:type="inkscape:persp3d" />
  </defs>
  <sodipodi:namedview
     id="base"
     pagecolor="#ffffff"
     bordercolor="#666666"
     borderopacity="1.0"
     inkscape:pageopacity="0.0"
     inkscape:pageshadow="2"
     inkscape:zoom="0.35"
     inkscape:cx="161.54288"
     inkscape:cy="243.13921"
     inkscape:document-units="px"
     inkscape:current-layer="layer1"
     showgrid="false"
     inkscape:window-width="1440"
     inkscape:window-height="840"
     inkscape:window-x="-4"
     inkscape:window-y="-4"
     inkscape:window-maximized="1" />
  <metadata
     id="metadata4094">
    <rdf:RDF>
      <cc:Work
         rdf:about="">
        <dc:format>image/svg+xml</dc:format>
        <dc:type
           rdf:resource="http://purl.org/dc/dcmitype/StillImage" />
        <dc:title></dc:title>
      </cc:Work>
    </rdf:RDF>
  </metadata>
  <g
     inkscape:label="Layer 1"
     inkscape:groupmode="layer"
     id="layer1"
     transform="translate(-213.45712,-283.50864)">
    <g
       id="g3684"
       transform="matrix(2.278451,0,0,2.278451,103.30165,-372.8975)">
      <g
         transform="matrix(1.0302015,0,0,1.0302015,-58.857086,-41.078618)"
         id="g3665">
        <path
           style="fill:#0088aa;fill-rule:evenodd;stroke:#006680;stroke-width:3;stroke-linecap:butt;stroke-linejoin:miter;stroke-miterlimit:4;stroke-opacity:1;stroke-dasharray:none"
           d="m 124.24604,321.02174 -12.125,156.5625 67.25,1.53125 c -1.25025,21.12013 -12.08441,43.03003 -13.91071,48.50893 l 40.13839,0 -8.66518,-48.10268 47.53125,1.09375 -3.03125,-51.53125 -41.1875,6.9375 13.84375,-45.02679 -40.53571,1.91965 c 0,0 8.75332,22.48472 7.78571,46.29464 l -41.9375,7.0625 38.375,-124.25 -53.53125,-1 z"
           id="path3630"
           sodipodi:nodetypes="ccccccccccccccc" />
        <path
           sodipodi:type="arc"
           style="fill:#d5f6ff;fill-opacity:1;stroke:#006680;stroke-width:3;stroke-miterlimit:4;stroke-opacity:1;stroke-dasharray:none;stroke-dashoffset:0"
           id="path3635"
           sodipodi:cx="168.69548"
           sodipodi:cy="351.31631"
           sodipodi:rx="17.172594"
           sodipodi:ry="17.172594"
           d="m 185.86807,351.31689 c -3.1e-4,9.48416 -7.689,17.17234 -17.17316,17.17202 -9.48416,-3.2e-4 -17.17234,-7.68901 -17.17202,-17.17317 3.1e-4,-9.48416 7.689,-17.17234 17.17316,-17.17202 9.48416,3.2e-4 17.17234,7.68901 17.17202,17.17317"
           sodipodi:start="3.3369056e-05"
           sodipodi:end="6.2832186"
           sodipodi:open="true" />
        <path
           sodipodi:open="true"
           sodipodi:end="6.2832186"
           sodipodi:start="3.3369056e-05"
           d="m 185.86807,351.31689 c -3.1e-4,9.48416 -7.689,17.17234 -17.17316,17.17202 -9.48416,-3.2e-4 -17.17234,-7.68901 -17.17202,-17.17317 3.1e-4,-9.48416 7.689,-17.17234 17.17316,-17.17202 9.48416,3.2e-4 17.17234,7.68901 17.17202,17.17317"
           sodipodi:ry="17.172594"
           sodipodi:rx="17.172594"
           sodipodi:cy="351.31631"
           sodipodi:cx="168.69548"
           id="path3637"
           style="fill:#d5f6ff;fill-opacity:1;stroke:#006680;stroke-width:3;stroke-miterlimit:4;stroke-opacity:1;stroke-dasharray:none;stroke-dashoffset:0"
           sodipodi:type="arc"
           transform="matrix(0.8377056,0,0,0.8377056,-9.9973108,56.511598)" />
        <path
           style="fill:#d5f6ff;fill-rule:evenodd;stroke:#004455;stroke-width:3;stroke-linecap:butt;stroke-linejoin:miter;stroke-miterlimit:4;stroke-opacity:1;stroke-dasharray:none"
           d="m 105.56094,375.0549 44.95179,0 c 0,0 -14.64721,19.1929 -27.27412,19.1929 -12.62691,0 -17.17259,-18.18275 -17.67767,-19.1929 z"
           id="path3639" />
        <path
           sodipodi:type="arc"
           style="fill:#004455;fill-opacity:1;stroke:none"
           id="path3641"
           sodipodi:cx="170.46324"
           sodipodi:cy="351.56885"
           sodipodi:rx="8.3337584"
           sodipodi:ry="8.3337584"
           d="m 178.797,351.56913 c -1.5e-4,4.6026 -3.73143,8.33363 -8.33404,8.33348 -4.6026,-1.6e-4 -8.33363,-3.73143 -8.33348,-8.33404 1.6e-4,-4.60261 3.73143,-8.33363 8.33404,-8.33348 4.60261,1.5e-4 8.33363,3.73143 8.33348,8.33404"
           sodipodi:start="3.3369056e-05"
           sodipodi:end="6.2832186"
           sodipodi:open="true" />
        <path
           sodipodi:open="true"
           sodipodi:end="6.2832186"
           sodipodi:start="3.3369056e-05"
           d="m 178.797,351.56913 c -1.5e-4,4.6026 -3.73143,8.33363 -8.33404,8.33348 -4.6026,-1.6e-4 -8.33363,-3.73143 -8.33348,-8.33404 1.6e-4,-4.60261 3.73143,-8.33363 8.33404,-8.33348 4.60261,1.5e-4 8.33363,3.73143 8.33348,8.33404"
           sodipodi:ry="8.3337584"
           sodipodi:rx="8.3337584"
           sodipodi:cy="351.56885"
           sodipodi:cx="170.46324"
           id="path3643"
           style="fill:#004455;fill-opacity:1;stroke:none"
           sodipodi:type="arc"
           transform="matrix(0.8030303,0,0,0.8030303,-8.2189677,68.364527)" />
        <g
           id="g3649">
          <path
             sodipodi:open="true"
             sodipodi:end="6.2832186"
             sodipodi:start="3.3369056e-05"
             d="m 174.25132,350.93763 c -8e-5,2.16183 -1.75264,3.91428 -3.91448,3.91421 -2.16183,-7e-5 -3.91428,-1.75264 -3.91421,-3.91447 8e-5,-2.16183 1.75264,-3.91428 3.91448,-3.91421 2.16183,7e-5 3.91428,1.75264 3.91421,3.91447"
             sodipodi:ry="3.9143412"
             sodipodi:rx="3.9143412"
             sodipodi:cy="350.9375"
             sodipodi:cx="170.33698"
             id="path3645"
             style="fill:#00222b;fill-opacity:1;stroke:none"
             sodipodi:type="arc" />
          <path
             sodipodi:open="true"
             sodipodi:end="6.2832186"
             sodipodi:start="3.3369056e-05"
             d="m 174.50385,348.66473 c -3e-5,0.90657 -0.73498,1.64147 -1.64155,1.64144 -0.90658,-3e-5 -1.64148,-0.73498 -1.64145,-1.64155 3e-5,-0.90658 0.73498,-1.64148 1.64156,-1.64144 0.90657,3e-5 1.64147,0.73497 1.64144,1.64155"
             sodipodi:ry="1.6414979"
             sodipodi:rx="1.6414979"
             sodipodi:cy="348.66467"
             sodipodi:cx="172.86235"
             id="path3647"
             style="fill:#aaeeff;fill-opacity:1;stroke:none"
             sodipodi:type="arc" />
        </g>
        <g
           id="g3653"
           transform="matrix(0.7096774,0,0,0.7096774,7.6576075,101.50627)">
          <path
             sodipodi:type="arc"
             style="fill:#00222b;fill-opacity:1;stroke:none"
             id="path3655"
             sodipodi:cx="170.33698"
             sodipodi:cy="350.9375"
             sodipodi:rx="3.9143412"
             sodipodi:ry="3.9143412"
             d="m 174.25132,350.93763 c -8e-5,2.16183 -1.75264,3.91428 -3.91448,3.91421 -2.16183,-7e-5 -3.91428,-1.75264 -3.91421,-3.91447 8e-5,-2.16183 1.75264,-3.91428 3.91448,-3.91421 2.16183,7e-5 3.91428,1.75264 3.91421,3.91447"
             sodipodi:start="3.3369056e-05"
             sodipodi:end="6.2832186"
             sodipodi:open="true" />
          <path
             sodipodi:type="arc"
             style="fill:#aaeeff;fill-opacity:1;stroke:none"
             id="path3657"
             sodipodi:cx="172.86235"
             sodipodi:cy="348.66467"
             sodipodi:rx="1.6414979"
             sodipodi:ry="1.6414979"
             d="m 174.50385,348.66473 c -3e-5,0.90657 -0.73498,1.64147 -1.64155,1.64144 -0.90658,-3e-5 -1.64148,-0.73498 -1.64145,-1.64155 3e-5,-0.90658 0.73498,-1.64148 1.64156,-1.64144 0.90657,3e-5 1.64147,0.73497 1.64144,1.64155"
             sodipodi:start="3.3369056e-05"
             sodipodi:end="6.2832186"
             sodipodi:open="true" />
        </g>
        <path
           style="fill:none;stroke:#0088aa;stroke-width:3;stroke-linecap:butt;stroke-linejoin:miter;stroke-miterlimit:4;stroke-opacity:1;stroke-dasharray:none"
           d="m 117.5,375.21932 0,7.14286"
           id="path3659" />
        <path
           id="path3661"
           d="m 133.39286,375.39789 0,7.14286"
           style="fill:none;stroke:#0088aa;stroke-width:3;stroke-linecap:butt;stroke-linejoin:miter;stroke-miterlimit:4;stroke-opacity:1;stroke-dasharray:none" />
        <path
           style="fill:none;stroke:#0088aa;stroke-width:3;stroke-linecap:butt;stroke-linejoin:miter;stroke-miterlimit:4;stroke-opacity:1;stroke-dasharray:none"
           d="m 123.39286,382.29012 0,11.21554"
           id="path3663" />
      </g>
      <path
         id="path3682"
         d="m 100,450.93361 c 0,0 32.85714,0 43.57143,-11.42857 10.71428,-11.42857 -6.42857,-22.85714 -15,-20 -8.57143,2.85714 -10.71429,14.28571 -5,17.14286 5.71428,2.85714 13.57143,0 12.85714,-5.71429 -0.71428,-5.71429 -8.57143,-1.42857 -8.57143,-1.42857"
         style="fill:none;stroke:#006680;stroke-width:2;stroke-linecap:butt;stroke-linejoin:miter;stroke-miterlimit:4;stroke-opacity:1;stroke-dasharray:none" />
    </g>
  </g>
</svg>
