<?xml version="1.0" encoding="utf-8"?>
<!-- Generator: Adobe Illustrator 12.0.1, SVG Export Plug-In . SVG Version: 6.00 Build 51448)  -->
<!DOCTYPE svg PUBLIC "-//W3C//DTD SVG 1.1//EN" "http://www.w3.org/Graphics/SVG/1.1/DTD/svg11.dtd" [
	<!ENTITY ns_svg "http://www.w3.org/2000/svg">
	<!ENTITY ns_xlink "http://www.w3.org/1999/xlink">
]>
<svg  version="1.1" id="Layer_1" xmlns="&ns_svg;" xmlns:xlink="&ns_xlink;" width="244.921" height="396.489"
	 viewBox="0 0 244.921 396.489" overflow="visible" enable-background="new 0 0 244.921 396.489" xml:space="preserve">
<g>
	<path fill-rule="evenodd" clip-rule="evenodd" fill="#DAC793" d="M94.125,1.769c-2.806,4.291-7.366,3.97-13.664,3.036
		C82.364,0.53,88.583,1.216,94.125,1.769z"/>
	<path fill-rule="evenodd" clip-rule="evenodd" fill="#DAC793" d="M95.138,4.299c3.759,5.203-0.548,8.276-4.048,11.133
		c-0.625,9.665,1.479,22.058-1.518,29.351c-1.96-8.907,0.647-21.536,0-36.436C90.774,6.345,93.569,5.936,95.138,4.299z"/>
	<path fill-rule="evenodd" clip-rule="evenodd" fill="#DAC793" d="M118.416,13.914c-5.33,4.504-16.196-0.287-22.772,0
		C100.841,9.339,110.83,14.458,118.416,13.914z"/>
	<path fill-rule="evenodd" clip-rule="evenodd" fill="#DAC793" d="M233.795,14.926c-1.053,2.321-3.48,3.266-5.06,5.061
		c-2.646-0.728-5.504-1.244-9.109-1.012C221.168,12.882,227.088,14.37,233.795,14.926z"/>
	<path fill-rule="evenodd" clip-rule="evenodd" fill="#DAC793" d="M190.782,25.553c-7.214,7.558-23.587,2.603-37.448,1.012
		c-15.265-1.751-30.356,0.028-34.917-10.121c0.41-0.096,0.504-0.508,1.012-0.506c2.205,0.259,4.816,4.218,7.591,5.566
		c16.923,0.04,38.735,5.926,54.653,6.073C185.085,27.609,188.223,25.609,190.782,25.553z"/>
	<path fill-rule="evenodd" clip-rule="evenodd" fill="#DAC793" d="M213.554,23.529c1.043,0.137,0.12,2.241,1.518,2.024
		c-5.438,1.798-15.071-0.713-21.254-1.518C197.268,19.816,208.482,24.68,213.554,23.529z"/>
	<path fill-rule="evenodd" clip-rule="evenodd" d="M79.45,24.541c1.924-0.405,0.644,2.393,1.012,3.542
		C79.432,27.595,79.369,26.14,79.45,24.541z"/>
	<path fill-rule="evenodd" clip-rule="evenodd" d="M118.416,28.083c-0.532,1.965-4.432-0.781-7.084,0
		C110.875,27.075,118.612,27.58,118.416,28.083z"/>
	<path fill-rule="evenodd" clip-rule="evenodd" d="M200.903,41.241c-14.223-0.263-30.839-1.585-46.051-2.53
		c-17.584-1.093-37.832,4.817-56.172,0.506c7.597-0.457,15.99,1.212,25.302,0.506c5.994-0.455,12.48-2.562,18.724-2.53
		c14.159,0.071,29.229,2.447,43.521,2.024C191.473,39.062,196.36,39.211,200.903,41.241z"/>
	<path fill-rule="evenodd" clip-rule="evenodd" d="M207.987,37.699c1.013,0,2.024,0,3.037,0c0.479,1.829-1.993,0.706-3.037,1.012
		C207.987,38.374,207.987,38.036,207.987,37.699z"/>
	<path fill-rule="evenodd" clip-rule="evenodd" d="M218.615,40.735c0.506,0,1.012,0,1.518,0c0.58,1.592-0.794,1.229-1.012,2.024
		C218.434,42.603,218.701,41.492,218.615,40.735z"/>
	<path fill-rule="evenodd" clip-rule="evenodd" d="M196.854,53.386c-12.618,1.835-24.431-2.134-35.93-2.024
		c-3.932,0.038-7.761,1.635-11.639,2.024c-15.438,1.552-31.016-4.182-47.569-2.53c16.18-3.797,31.933,3.063,47.569,1.518
		c3.622-0.358,7.016-1.894,10.627-2.024C171.943,49.917,184.428,53.68,196.854,53.386z"/>
	<path fill-rule="evenodd" clip-rule="evenodd" d="M198.878,60.977c-8.792-1.162-22.936-1.354-32.388-3.542
		c1.912-1.479,5.158,0.198,8.097,0.506C182.423,58.762,192.642,58.467,198.878,60.977z"/>
	<path fill-rule="evenodd" clip-rule="evenodd" d="M163.96,58.953c1.337,0.182,1.821,1.216,1.519,3.037
		c-20.52,2.909-41.108-2.093-63.763,0c2.205-2.442,4.956-0.912,8.603-1.012c16.863-0.465,35.709,0.907,53.641,1.012
		C164.213,60.397,162.858,60.011,163.96,58.953z"/>
	<path fill-rule="evenodd" clip-rule="evenodd" fill="#DAC793" d="M233.795,60.471c2.726-0.107,1.308,4.197,0.507,5.061
		C233.148,64.83,234.114,62.009,233.795,60.471z"/>
	<path fill-rule="evenodd" clip-rule="evenodd" fill="#DAC793" d="M230.759,61.989c1.282-0.222,2.353,2.307,1.013,3.036
		C229.943,65.505,231.066,63.032,230.759,61.989z"/>
	<path fill-rule="evenodd" clip-rule="evenodd" d="M178.13,66.038c1.449-0.1,2.762-0.063,2.53,1.518
		C179.211,67.655,177.899,67.619,178.13,66.038z"/>
	<path fill-rule="evenodd" clip-rule="evenodd" d="M181.167,66.543c9.094-0.826,17.14,3.776,25.303,5.567
		C198.113,72.199,190.083,67.582,181.167,66.543z"/>
	<path fill-rule="evenodd" clip-rule="evenodd" d="M182.178,69.58c-1.173,0.161-1.942-0.082-2.53-0.506
		C179.742,67.52,182.374,68.012,182.178,69.58z"/>
	<path fill-rule="evenodd" clip-rule="evenodd" d="M183.191,72.616c-26.574,2.189-55.749-5.049-78.438-2.53
		C127.885,65.766,155.717,72.987,183.191,72.616z"/>
	<path fill-rule="evenodd" clip-rule="evenodd" d="M228.736,72.11c0.907,1.285,1.761,2.624,2.023,4.554
		c-2.29,1.389-1.095-3.212-2.023-1.518C227.609,74.934,228.339,72.461,228.736,72.11z"/>
	<path fill-rule="evenodd" clip-rule="evenodd" d="M133.597,77.677c22.198,3.194,49.782-0.478,69.836,2.53
		c-2.255,1.821-9.8,0.425-12.146-1.012c-15.366,2.112-40.03,1.089-56.678-0.506C133.749,78.875,133.655,78.294,133.597,77.677z"/>
	<path fill-rule="evenodd" clip-rule="evenodd" d="M230.759,88.81c0.407,0.268,0.822,0.528,1.519,0.506
		c-0.073,17.59,5.673,36.404,5.061,49.593C234.631,121.652,232.746,106.158,230.759,88.81z"/>
	<path fill-rule="evenodd" clip-rule="evenodd" d="M94.125,97.919c4.425,8.833-1.189,25.409,0.506,36.436
		C92.008,121.795,95.963,108.926,94.125,97.919z"/>
	<path fill-rule="evenodd" clip-rule="evenodd" d="M81.98,101.461c0.45,0.312,0.905,0.612,1.012,0
		c1.098-0.085,0.229,1.795,0.506,2.53c-0.451-0.311-0.905-0.611-1.012,0C81.389,104.077,82.257,102.196,81.98,101.461z"/>
	<path fill-rule="evenodd" clip-rule="evenodd" d="M227.723,106.521c0.506,0,1.013,0,1.519,0
		c-0.26,18.015,4.607,33.708,4.048,47.063c-1.965,0.052-0.886-4.816-1.012-7.084c-0.261-4.678-0.644-8.64-1.519-10.121
		c-0.251-10.611-2.532-17.324-3.036-28.339C227.723,107.534,227.723,107.028,227.723,106.521z"/>
	<path fill-rule="evenodd" clip-rule="evenodd" d="M81.98,107.028c0.407,0.268,0.821,0.528,1.518,0.506c0,1.181,0,2.362,0,3.542
		c-0.431,0.093-0.478-0.197-0.506-0.506c-0.43-0.093-0.477,0.197-0.506,0.506C81.345,110.699,82.289,108.238,81.98,107.028z"/>
	<path fill-rule="evenodd" clip-rule="evenodd" d="M80.462,109.052c1.126,0.213,0.396,2.686,0,3.037
		C78.643,111.73,79.75,109.713,80.462,109.052z"/>
	<path fill-rule="evenodd" clip-rule="evenodd" d="M78.438,110.064c1.131,0.218,0.205,2.494,0.506,3.542
		C77.213,113.337,78.169,111.168,78.438,110.064z"/>
	<path fill-rule="evenodd" clip-rule="evenodd" d="M75.908,112.088c1.387,0.01,1.202,2.387,0.506,3.036
		C75.296,115.062,76.199,112.978,75.908,112.088z"/>
	<path fill-rule="evenodd" clip-rule="evenodd" d="M218.108,116.137c1.154,0.702,0.189,3.522,0.507,5.061
		C217.465,119.473,218.042,118.322,218.108,116.137z"/>
	<path fill-rule="evenodd" clip-rule="evenodd" d="M221.145,118.161c1.166,1.364,0.18,4.881,0.506,7.085
		C218.766,124.735,220.463,119.705,221.145,118.161z"/>
	<path fill-rule="evenodd" clip-rule="evenodd" fill="#DAC793" d="M74.39,122.715c3.628,0.42,6.634,1.462,10.627,1.518
		c0,5.735,0,11.471,0,17.206c-3.844-0.204-6.938-1.159-10.121-2.024C74.703,132.746,74.288,131.414,74.39,122.715z"/>
	<path fill-rule="evenodd" clip-rule="evenodd" fill="#DAC793" d="M85.017,142.958c-20.537,19.779-44.202,36.428-66.293,54.653
		c-2.889-0.99-6.171-1.587-9.615-2.024c4.388-5.686,10.614-9.681,16.193-14.169c16.333-13.142,33.336-26.606,50.1-39.978
		C78.768,141.784,81.414,142.85,85.017,142.958z"/>
	<path fill-rule="evenodd" clip-rule="evenodd" fill="#DAC793" d="M211.53,163.706c-1.552,6.193-8.798,2.284-12.651,1.518
		c-34.42-6.84-71.275-13.235-105.259-20.242c1.943-6.063,10.768-1.969,18.218-0.506C144.205,150.83,180.796,157.2,211.53,163.706z"
		/>
	<path fill-rule="evenodd" clip-rule="evenodd" fill="#DAC793" d="M92.101,157.127c36.044,7.308,73.09,13.614,108.296,21.76
		c-36.599-6.08-71.603-13.752-107.284-20.748C92.252,158.325,92.159,157.744,92.101,157.127z"/>
	<path fill-rule="evenodd" clip-rule="evenodd" d="M154.852,162.188c-1.128,2.164-3.992,0.415-5.566,0.506
		C149.871,160.681,152.458,162.926,154.852,162.188z"/>
	<path fill-rule="evenodd" clip-rule="evenodd" d="M142.707,180.911c-8.072-0.568-15.807-4.831-24.291-7.084
		c-8.596-2.284-17.489-3.772-26.315-6.073c-0.588,0.083-0.9-0.112-1.012-0.506c-0.143-0.904,0.478-1.039,0.506-0.506
		C109.806,170.292,127.429,174.429,142.707,180.911z"/>
	<path fill-rule="evenodd" clip-rule="evenodd" d="M75.402,167.248c14.791,2.246,28.46,5.613,38.46,12.651
		c-0.31,1.376-1.391,1.983-3.037,2.024c-0.3-1.615,0.95-1.565,0-2.53C101.618,172.745,87.004,171.501,75.402,167.248z"/>
	<path fill-rule="evenodd" clip-rule="evenodd" fill="#DAC793" d="M223.168,169.272c-16.133,21.146-34.884,39.674-51.617,60.22
		c-4.442-0.618-8.594-1.527-12.651-2.53c17.081-21.041,36.319-39.927,54.654-59.714
		C216.756,167.925,219.917,168.645,223.168,169.272z"/>
	<path fill-rule="evenodd" clip-rule="evenodd" fill="#DAC793" d="M163.96,168.766c6.325,0.735,16.319,1.793,22.772,4.048
		C180.617,174.012,169.734,171.279,163.96,168.766z"/>
	<path fill-rule="evenodd" clip-rule="evenodd" d="M77.426,172.309c-0.024,2.094-3.037-0.344-5.061,0.506
		C72.771,170.64,75.893,171.676,77.426,172.309z"/>
	<path fill-rule="evenodd" clip-rule="evenodd" fill="#DAC793" d="M192.299,172.814c-0.217,0.794-1.592,0.433-1.012,2.024
		c-1.548,0.367-1.488-0.873-3.036-0.506C188.784,173.009,190.307,172.678,192.299,172.814z"/>
	<path fill-rule="evenodd" clip-rule="evenodd" fill="#DAC793" d="M234.302,172.814c0.506,0,1.012,0,1.518,0
		c0.459,1.984,0.617,3.156-0.506,4.555C233.636,177.191,234.52,174.452,234.302,172.814z"/>
	<path fill-rule="evenodd" clip-rule="evenodd" fill="#DAC793" d="M194.324,173.32c1.681,0.681,5.06-0.335,4.555,2.53
		C196.195,176.006,192.955,175.75,194.324,173.32z"/>
	<path fill-rule="evenodd" clip-rule="evenodd" d="M74.39,175.851c0.236,1.08-0.723,0.964-1.518,1.012
		c0.994,1.199,3.356,1.03,5.566,1.012c0.751-0.221-0.2-0.647,0-1.518c2.063-0.376,1.743,1.631,4.048,1.012
		c0.245,1.763-2.469,0.567-2.53,2.024c-3.595-0.959-9.369,0.26-10.627-3.036C70.998,176.367,72.403,174.887,74.39,175.851z"/>
	<path fill-rule="evenodd" clip-rule="evenodd" d="M94.125,177.875c1.115,0.403,2.021,1.016,2.024,2.53c-0.675,0-1.35,0-2.024,0
		C94.125,179.562,94.125,178.718,94.125,177.875z"/>
	<path fill-rule="evenodd" clip-rule="evenodd" d="M163.455,179.899c3.066-0.528,9.136,0.305,9.615,4.048
		C170.217,182.245,166.925,180.982,163.455,179.899z"/>
	<path fill-rule="evenodd" clip-rule="evenodd" d="M93.113,181.417c-1.868,3.357-8.861,0.135-12.651,0.506
		c6.117,2.76,13.76,0.904,20.749,2.53c-10.014,1.578-20.936-0.317-28.845-2.53c-0.607-0.665-0.197-0.796,0-1.518
		C78.113,179.928,85.713,181.871,93.113,181.417z"/>
	<path fill-rule="evenodd" clip-rule="evenodd" d="M221.651,183.948c1.593,1.09-1.737,3.209-2.53,2.024
		C219.689,185.022,221.082,184.897,221.651,183.948z"/>
	<path fill-rule="evenodd" clip-rule="evenodd" d="M171.045,184.96c1.175,0.174,2.371,0.327,2.024,2.024
		c-1.112-0.532-1.682,0.016-3.036-1.012C170.159,185.422,171.04,185.628,171.045,184.96z"/>
	<path fill-rule="evenodd" clip-rule="evenodd" d="M221.651,186.478c0.506,0,1.012,0,1.518,0c0.187,0.861-0.395,0.955-1.012,1.012
		c-0.216,2.065,1.639,3.437-1.012,4.048C220.79,189.328,222.005,188.688,221.651,186.478z"/>
	<path fill-rule="evenodd" clip-rule="evenodd" d="M147.261,187.996c-0.717,1.665-4.742,2.083-6.579,1.012
		C142.208,187.958,145.207,187.663,147.261,187.996z"/>
	<path fill-rule="evenodd" clip-rule="evenodd" d="M58.702,189.008c18.153,3.908,41.9,12.184,59.714,19.23
		c9.058,3.583,19.566,6.185,21.76,13.663c-2.376-0.712-3.175-3.58-5.061-5.061c-4.322-3.394-11.919-5.742-18.218-8.097
		C98.921,202.025,77.404,194.84,58.702,189.008z"/>
	<path fill-rule="evenodd" clip-rule="evenodd" d="M136.127,188.502c2.907,5.857,20.481,4.462,28.846,8.097
		c-9.469-1.498-24.518-1.796-31.882-7.085C135.932,190.083,134.851,189.873,136.127,188.502z"/>
	<path fill-rule="evenodd" clip-rule="evenodd" d="M174.587,188.502c2.146-0.121,3.584,0.465,5.061,1.012
		C179.876,190.562,174.076,190.887,174.587,188.502z"/>
	<path fill-rule="evenodd" clip-rule="evenodd" d="M215.578,189.008c0.479,0.872,1.871,0.828,1.519,2.53
		c-0.588-0.083-0.9,0.112-1.012,0.506c-0.515-0.329-0.523-1.164-1.519-1.012C214.198,189.652,215.572,190.014,215.578,189.008z"/>
	<path fill-rule="evenodd" clip-rule="evenodd" d="M226.206,189.008c2.035,1.906-2.069,1.95-2.53,3.036
		C222.203,189.582,226.119,191.255,226.206,189.008z"/>
	<path fill-rule="evenodd" clip-rule="evenodd" d="M230.759,190.021c0.283,1.814-2.762,4.651-5.061,5.566
		C226.922,193.268,229.254,192.058,230.759,190.021z"/>
	<path fill-rule="evenodd" clip-rule="evenodd" d="M218.615,191.032c1.263,0.966-0.631,2.197,0.506,3.542
		c-0.408,0.435-1.387,0.301-1.519,1.012C216.573,194.687,218.861,192.826,218.615,191.032z"/>
	<path fill-rule="evenodd" clip-rule="evenodd" d="M21.254,201.659c3.153-4.269,7.128-7.716,12.146-10.121
		C29.909,195.47,25.551,198.534,21.254,201.659z"/>
	<path fill-rule="evenodd" clip-rule="evenodd" d="M209,191.539c1.817,1.365-1.369,1.964-1.013,3.542
		C205.73,194.3,208.272,192.375,209,191.539z"/>
	<path fill-rule="evenodd" clip-rule="evenodd" d="M214.06,194.575c-0.202,1.316-1.511,1.526-1.519,3.036
		c-1.745-0.369-0.337-1.522,0-2.53c-0.429-1.483-1.629,0.303-2.53,0C210.462,191.864,212.559,193.683,214.06,194.575z"/>
	<path fill-rule="evenodd" clip-rule="evenodd" d="M206.469,196.093c0.134,1.904-0.175,5.09-2.024,6.073
		c0.535-1.583,0.183-2.51,0.506-5.061C205.817,197.127,206.261,196.729,206.469,196.093z"/>
	<path fill-rule="evenodd" clip-rule="evenodd" d="M209.505,196.093c1.271,0.55,1.086,2.067,0.506,3.542
		C209.104,198.543,209.123,197.312,209.505,196.093z"/>
	<path fill-rule="evenodd" clip-rule="evenodd" fill="#DAC793" d="M16.7,198.623c-2.032,4.733-7.22,0.104-12.146,0.506
		C5.891,193.953,13.162,198.335,16.7,198.623z"/>
	<path fill-rule="evenodd" clip-rule="evenodd" d="M166.997,197.611c0.868,0.874,1.99-0.744,2.024,1.519c-0.675,0-1.35,0-2.024,0
		C166.997,198.623,166.997,198.117,166.997,197.611z"/>
	<path fill-rule="evenodd" clip-rule="evenodd" d="M213.554,199.635c0.687,0.157,0.42,1.267,0.506,2.024
		c-0.589-0.082-0.9,0.112-1.013,0.506C211.516,201.547,213.406,200.234,213.554,199.635z"/>
	<path fill-rule="evenodd" clip-rule="evenodd" d="M34.917,200.141c7.1,2.178,17.008,1.547,21.76,6.073
		C50.598,203.016,40.307,204.029,34.917,200.141z"/>
	<path fill-rule="evenodd" clip-rule="evenodd" fill="#DAC793" d="M7.591,202.166c-5.7,2.388-5.221,14.922,4.554,10.121
		c1.113-4.663-1.604-8.168-2.024-9.615c5.751-0.556,3.376,7.186,3.542,11.133c1.992,47.257,3.845,95.548,4.555,142.2
		c-4.335-0.725-8.561-1.56-12.146-3.036c0.334-17.087-0.77-27.558-1.518-44.026c-1.664-36.631-1.191-74.978-2.53-106.271
		c0-0.506,0-1.012,0-1.518C4.383,200.987,6.015,201.548,7.591,202.166z M13.157,229.998c2.264-4.52-4.052-11.79-8.603-5.061
		C2.909,233.483,10.715,234.873,13.157,229.998z"/>
	<path fill-rule="evenodd" clip-rule="evenodd" d="M218.615,203.178c1.482,0.429-0.303,1.629,0,2.53
		c-6.293,5.853-11.803,12.488-17.712,18.724c1.111-4.15,5.427-7.176,8.603-10.627C212.726,210.305,216.092,206.895,218.615,203.178z
		"/>
	<path fill-rule="evenodd" clip-rule="evenodd" fill="#DAC793" d="M224.181,205.202c0.431-0.093,0.478,0.198,0.506,0.506
		c-0.093,0.43,0.197,0.477,0.506,0.506c1.172,16.54,0.392,37.112,1.519,56.172c0.941,15.933,1.031,36.285,1.012,57.184
		c-2.084-0.636-7.506-0.894-10.121-2.53c-0.051-35.144-1.815-65.887-2.024-101.21C218.227,212.068,221.583,209.015,224.181,205.202z
		"/>
	<path fill-rule="evenodd" clip-rule="evenodd" fill="#DAC793" d="M7.084,205.708c1.852,1.765,0.466,3.423,0.506,5.566
		C4.994,211.052,5.029,206.513,7.084,205.708z"/>
	<path fill-rule="evenodd" clip-rule="evenodd" d="M196.854,205.708c1.532,0.619-0.357,1.931-0.506,2.53
		C194.928,207.732,196.296,205.897,196.854,205.708z"/>
	<path fill-rule="evenodd" clip-rule="evenodd" d="M38.966,207.226C35.321,209.213,35.03,205.13,38.966,207.226L38.966,207.226z"/>
	<path fill-rule="evenodd" clip-rule="evenodd" d="M45.544,208.238c0.083,0.146-6.075-0.873-6.072-1.012
		C39.486,206.449,44.973,205.853,45.544,208.238z"/>
	<path fill-rule="evenodd" clip-rule="evenodd" d="M58.196,207.226c0.225-0.835,3.824-0.835,4.048,0
		C62.73,208.908,59.045,207.43,58.196,207.226z"/>
	<path fill-rule="evenodd" clip-rule="evenodd" d="M231.772,206.72c0.887,8.772,4.48,20.769,5.566,33.399
		C234.874,229.222,231.731,218.775,231.772,206.72z"/>
	<path fill-rule="evenodd" clip-rule="evenodd" d="M45.544,208.744c0.506,0,1.012,0,1.518,0c-0.561,1.958,1.789,1.801,0.506,3.036
		C46.5,211.163,46.148,209.827,45.544,208.744z"/>
	<path fill-rule="evenodd" clip-rule="evenodd" d="M69.329,210.769c-1.012,2.191-3.163-1.424-5.567-1.013
		C65.521,207.296,67.101,210.698,69.329,210.769z"/>
	<path fill-rule="evenodd" clip-rule="evenodd" d="M42.002,212.286c-2.275-0.086-4.322-0.401-6.073-1.012
		C36.056,210.073,41.931,210.239,42.002,212.286z"/>
	<path fill-rule="evenodd" clip-rule="evenodd" d="M71.353,211.78c0.408,0.436,1.386,0.301,1.519,1.013
		c-1.449,1.532-0.183,0.434,0,3.542c-0.675,0-1.35,0-2.024,0C70.868,214.669,71.702,213.815,71.353,211.78z"/>
	<path fill-rule="evenodd" clip-rule="evenodd" d="M200.903,214.311c-6.032,14.042-14.156,25.99-24.291,35.93
		c1.294-5.348,6.533-7.846,10.121-12.145c5.018-6.013,7.013-14.837,12.146-20.749c-0.42-1.773-2.018-2.368-3.542-3.036
		c0.762-0.756,0.15-2.885,2.023-2.53C196.224,215.271,198.904,211.774,200.903,214.311z"/>
	<path fill-rule="evenodd" clip-rule="evenodd" fill="#DAC793" d="M20.748,213.805c12.753,2.766,25.077,5.961,38.46,8.097
		c-12.549,0.066-24.836-4.515-36.942-6.578C21.162,215.415,20.656,214.908,20.748,213.805z"/>
	<path fill-rule="evenodd" clip-rule="evenodd" d="M53.642,215.323c0.735,0.276,2.615-0.592,2.53,0.506
		C56.918,217.387,53.264,216.554,53.642,215.323z"/>
	<path fill-rule="evenodd" clip-rule="evenodd" d="M65.787,215.323c1.291,0.059,2.604,0.095,2.53,1.518
		C67.518,215.995,65.993,217.5,65.787,215.323z"/>
	<path fill-rule="evenodd" clip-rule="evenodd" fill="#DAC793" d="M20.748,218.865c3.667,0.381,7.226,0.871,10.121,2.024
		c-2.267,3.638-6.288,5.52-9.109,8.603c-1.973-1.362,1.568-1.421,1.012-3.036c-0.056-1.792-1.673,1.075-1.518-0.506
		c-0.441-1.96,2.209-0.827,1.518-3.036c-0.457-1.382-1.132,1.539-2.024,0C22.092,220.87,22.27,220.672,20.748,218.865z"/>
	<path fill-rule="evenodd" clip-rule="evenodd" d="M78.944,219.371c2.181,0.519,5.399-0.001,6.073,2.024
		C82.946,220.767,79.371,221.643,78.944,219.371z"/>
	<path fill-rule="evenodd" clip-rule="evenodd" d="M4.554,224.938c4.551-6.729,10.867,0.541,8.603,5.061
		C10.715,234.873,2.909,233.483,4.554,224.938z M6.072,227.468c0.186,1.502,0.877,2.497,2.024,3.036
		c1.486-0.991,0.944-4.628-0.506-5.566C7.435,226.131,5.833,225.879,6.072,227.468z"/>
	<path fill-rule="evenodd" clip-rule="evenodd" fill="#DAC793" d="M59.714,221.901c1.418,0.27,2.631,0.743,4.048,1.013
		C63.318,223.649,59.695,223.304,59.714,221.901z"/>
	<path fill-rule="evenodd" clip-rule="evenodd" fill="#DAC793" d="M64.269,223.42c5.894,0.964,13.234,0.523,17.206,3.542
		c2.217,0.369-0.408-1.006,1.012-1.012c19.232,3.282,38.835,8.683,57.184,12.651c2.541,0.549,6.061-0.461,7.591,2.53
		c-18.466-3.295-35.173-8.348-53.642-11.64c0.572,2.802,5.975,0.772,6.579,3.543c-2.04,2.249-6.807-1.197-10.121-1.013
		c0.076-0.936,1.713-0.311,2.024-1.012c-0.927-0.591-1.097-1.939-2.024-2.53c-0.57,2.702-3.918,1.074-4.048-1.013
		c-1.799-0.786-0.306,1.719-1.518,1.519C77.935,226.959,71.008,225.282,64.269,223.42z"/>
	<path fill-rule="evenodd" clip-rule="evenodd" d="M138.152,222.914c1.323-0.144,2.177,0.185,2.024,1.518
		C138.854,224.573,137.644,224.603,138.152,222.914z"/>
	<path fill-rule="evenodd" clip-rule="evenodd" d="M236.833,223.42c0.406,0.268,0.821,0.527,1.518,0.506
		c-0.66,5.721,2.111,8.01,2.024,13.157C238.254,233.469,237.53,228.457,236.833,223.42z"/>
	<path fill-rule="evenodd" clip-rule="evenodd" fill="#DAC793" d="M7.591,224.938c1.45,0.938,1.992,4.575,0.506,5.566
		c-1.147-0.539-1.839-1.534-2.024-3.036C5.833,225.879,7.435,226.131,7.591,224.938z"/>
	<path fill-rule="evenodd" clip-rule="evenodd" d="M101.21,225.95c0.643-1.096,3.888-0.555,3.542,1.012
		C103.184,227.013,102.335,226.344,101.21,225.95z"/>
	<path fill-rule="evenodd" clip-rule="evenodd" d="M129.043,225.444c1.561,0.463,3.09,0.957,4.048,2.023
		C131.77,228.756,128.694,227.506,129.043,225.444z"/>
	<path fill-rule="evenodd" clip-rule="evenodd" d="M186.227,225.444c-0.7,5.375-7.4,9.128-10.121,14.169
		c-1.569-2.144,2.327-4.021,4.049-6.072C182.392,230.874,184.015,227.966,186.227,225.444z"/>
	<path fill-rule="evenodd" clip-rule="evenodd" d="M110.825,227.468c1.249,0.438,3.503-0.129,3.542,1.519
		C112.7,228.967,110.787,229.193,110.825,227.468z"/>
	<path fill-rule="evenodd" clip-rule="evenodd" d="M116.898,227.975c2.802-0.272,4.38,0.68,6.073,1.518
		C121.663,230.271,117.398,229.684,116.898,227.975z"/>
	<path fill-rule="evenodd" clip-rule="evenodd" fill="#DAC793" d="M169.021,231.011c-1.543,6.109-9.498,0.421-14.169,0.506
		C156.452,225.521,164.691,230.626,169.021,231.011z"/>
	<path fill-rule="evenodd" clip-rule="evenodd" d="M132.08,231.011c-1.345-0.006-2.891,0.19-3.543-0.507
		C128.704,228.835,132.135,229.47,132.08,231.011z"/>
	<path fill-rule="evenodd" clip-rule="evenodd" fill="#DAC793" d="M212.036,231.517c0.691,1.839,1.741,3.319,2.024,5.566
		c-5.488,0.091-8.673-2.123-13.663-2.53C201.492,228.531,206.614,230.77,212.036,231.517z"/>
	<path fill-rule="evenodd" clip-rule="evenodd" fill="#DAC793" d="M77.426,231.011c3.487,0.73,7.558,0.876,10.121,2.53
		c-0.077,2.775-0.054,5.452,0.506,7.591c-3.186,0.853-7.027-1.185-10.627-1.519C77.426,236.746,77.426,233.878,77.426,231.011z"/>
	<path fill-rule="evenodd" clip-rule="evenodd" fill="#DAC793" d="M32.893,231.517c39.753,8.997,80.837,16.662,118.923,27.327
		c-0.374,2.397,0.568,3.479,0.506,5.566c-42.256-8.855-83.863-18.36-125.501-27.833C28.108,234.154,30.645,232.979,32.893,231.517z"
		/>
	<path fill-rule="evenodd" clip-rule="evenodd" fill="#DAC793" d="M106.271,234.553c-1.001,1.453-3.159-0.175-4.555,0
		C101.86,231.358,105.262,233.141,106.271,234.553z"/>
	<path fill-rule="evenodd" clip-rule="evenodd" fill="#DAC793" d="M103.234,237.083c0,2.699,0,5.397,0,8.097
		c-4.156-0.904-8.292-1.828-12.651-2.53c-0.208-2.503-1.722-6.357-0.506-8.603C93.396,234.173,99.97,235.235,103.234,237.083z
		 M94.631,240.119c0.269-1.104,1.225-3.273-0.506-3.542C94.427,237.625,93.5,239.901,94.631,240.119z M97.668,242.144
		c0.45-1.236,1.179-2.194,1.012-4.048c-0.647-0.028-0.701-0.649-1.519-0.507C97.475,238.963,96.52,241.605,97.668,242.144z"/>
	<path fill-rule="evenodd" clip-rule="evenodd" fill="#DAC793" d="M165.479,236.577c2.931,56.478,3.924,101.159,4.555,157.888
		c-4.716-0.345-8.304-1.817-12.146-3.036c-1.3-25.861-0.567-46.485-2.024-77.932c-1.12-24.179-0.909-58.623-2.024-77.933
		C155.872,231.992,162.844,235.777,165.479,236.577z M157.888,247.71c3.136,0.606,3.86-1.2,6.072-1.518
		C167.063,230.005,149.345,239.868,157.888,247.71z M159.913,267.952c5.991-2.079,6.613-7.841,2.023-11.639
		C155.615,256.357,153.617,266.308,159.913,267.952z"/>
	<path fill-rule="evenodd" clip-rule="evenodd" d="M94.125,236.577c1.73,0.269,0.775,2.438,0.506,3.542
		C93.5,239.901,94.427,237.625,94.125,236.577z"/>
	<path fill-rule="evenodd" clip-rule="evenodd" fill="#DAC793" d="M133.597,240.625c-4.048,0.586-11.664-2.155-16.699-3.036
		c-0.602-0.104-2.704-0.547-0.506-0.506C120.75,237.165,127.818,239.513,133.597,240.625z"/>
	<path fill-rule="evenodd" clip-rule="evenodd" d="M97.162,237.589c0.817-0.143,0.872,0.479,1.519,0.507
		c0.167,1.854-0.562,2.812-1.012,4.048C96.52,241.605,97.475,238.963,97.162,237.589z"/>
	<path fill-rule="evenodd" clip-rule="evenodd" fill="#DAC793" d="M158.9,239.613c1.541,1.61,2.522,5.056-0.506,5.566
		C157.085,243.338,157.503,241.122,158.9,239.613z"/>
	<path fill-rule="evenodd" clip-rule="evenodd" fill="#DAC793" d="M134.61,241.638c3.616-0.91,8.551,1.227,12.146,2.024
		C143.235,244.476,138.783,241.855,134.61,241.638z"/>
	<path fill-rule="evenodd" clip-rule="evenodd" fill="#DAC793" d="M236.833,244.674c1.275,1.93,0.62,3.517,0,5.566
		C234.491,249.325,235.544,245.988,236.833,244.674z"/>
	<path fill-rule="evenodd" clip-rule="evenodd" fill="#DAC793" d="M233.29,246.192c0.831-0.083,0.831,3.119,0,3.036
		C231.241,249.484,232.434,246.189,233.29,246.192z"/>
	<path fill-rule="evenodd" clip-rule="evenodd" d="M20.748,255.807c1.855,5.567,1.752,13.093,2.53,19.736
		C20.118,271.59,21.065,260.927,20.748,255.807z"/>
	<path fill-rule="evenodd" clip-rule="evenodd" d="M238.35,257.325c3.106,12.182,1.6,25.807,1.519,39.979
		c-2.766-1.781-1.204-5.756-1.013-8.098C239.76,278.154,238.622,270.812,238.35,257.325z"/>
	<path fill-rule="evenodd" clip-rule="evenodd" fill="#DAC793" d="M160.924,260.361c0.011,2.373,0.443,5.167-2.024,5.061
		C156.937,264.067,157.636,257.97,160.924,260.361z"/>
	<path fill-rule="evenodd" clip-rule="evenodd" fill="#DAC793" d="M77.932,264.916c3.372-1.338,7.606,0.82,10.627,1.519
		c0.135,6.686,0.55,12.57,1.012,18.218c-2.912,0.431-7.11-1.455-10.627-2.024C78.055,274.746,78.35,268.704,77.932,264.916z"/>
	<path fill-rule="evenodd" clip-rule="evenodd" d="M179.648,307.931c-2.528-14.678-6.509-27.902-8.603-43.015
		C174.608,277.883,178.756,292.888,179.648,307.931z"/>
	<path fill-rule="evenodd" clip-rule="evenodd" fill="#DAC793" d="M91.089,266.94c3.792,0.931,7.763,1.683,11.639,2.53
		c-2.654,4.093-5.492,8.003-9.615,10.627c0.025-3.939-1.023-7.041,0-10.627c-3.425,1.236-0.338,8.587-1.518,12.145
		c0.68-2.051-1.5-8.01-0.506-13.157C91.089,267.952,91.089,267.446,91.089,266.94z M94.631,277.062
		c0.847-1.101,0.812-4.56-0.506-5.061C94.443,273.539,93.478,276.359,94.631,277.062z"/>
	<path fill-rule="evenodd" clip-rule="evenodd" fill="#DAC793" d="M180.155,269.471c1.438,1.473,0.03,4.391-0.507,5.566
		C178.717,274.072,178.752,269.78,180.155,269.471z"/>
	<path fill-rule="evenodd" clip-rule="evenodd" d="M94.125,272.001c1.318,0.501,1.353,3.96,0.506,5.061
		C93.478,276.359,94.443,273.539,94.125,272.001z"/>
	<path fill-rule="evenodd" clip-rule="evenodd" fill="#DAC793" d="M152.828,305.906c0.249,1.774,0.755,3.294,0.506,5.566
		c-41.763-10.36-84.518-19.729-126.007-30.363c2.725-7.656,11.706-3.021,20.242-1.012
		C81.905,288.179,121.503,296.834,152.828,305.906z"/>
	<path fill-rule="evenodd" clip-rule="evenodd" d="M179.142,286.676c0.527,2.678,1.702,4.708,1.519,8.098
		C178.783,293.655,178.375,288.799,179.142,286.676z"/>
	<path fill-rule="evenodd" clip-rule="evenodd" d="M182.685,286.676c1.763,0.431,1.891,2.495,2.53,4.049
		c-0.739,0.441-1.96,0.402-1.519,2.024c-0.407-0.268-0.821-0.528-1.519-0.506C183.737,289.666,181.806,289.008,182.685,286.676z"/>
	<path fill-rule="evenodd" clip-rule="evenodd" d="M233.795,288.7c0.817-0.143,0.872,0.479,1.519,0.506
		c-0.157,2.036,0.261,4.646-1.519,5.061C233.795,292.411,233.795,290.556,233.795,288.7z"/>
	<path fill-rule="evenodd" clip-rule="evenodd" d="M21.254,290.219c1.089,0.429,1.79,1.246,1.518,3.036
		c-0.407-0.268-0.821-0.528-1.518-0.506C21.254,291.905,21.254,291.062,21.254,290.219z"/>
	<path fill-rule="evenodd" clip-rule="evenodd" d="M184.708,292.243c0.509,1.442,1.644,4.06,1.013,5.061
		c-0.527-1.16-1.968-1.407-2.53-2.53C183.11,293.343,184.71,293.595,184.708,292.243z"/>
	<path fill-rule="evenodd" clip-rule="evenodd" d="M232.278,294.267c0.407,0.269,0.821,0.528,1.518,0.507
		c0.047,2.239-0.643,3.742-2.023,4.554C231.914,297.614,232.577,296.422,232.278,294.267z"/>
	<path fill-rule="evenodd" clip-rule="evenodd" d="M182.178,299.327c1.14,0.813,3.475,2.229,2.024,4.049
		c-0.593-0.082-0.427-0.923-0.506-1.519C183.085,301.119,181.485,301.371,182.178,299.327z"/>
	<path fill-rule="evenodd" clip-rule="evenodd" d="M24.291,302.87c3.192,4.062,2.192,13.862,4.554,17.205
		c-1.043,6.315,2.087,13.712-0.506,18.219C28.687,324.684,25.818,313.106,24.291,302.87z"/>
	<path fill-rule="evenodd" clip-rule="evenodd" d="M21.254,305.906c4.209,9.435,3.992,29.158,1.518,40.484
		C23.091,332.882,23.701,317.604,21.254,305.906z"/>
	<path fill-rule="evenodd" clip-rule="evenodd" d="M100.198,306.412c9.036,1.592,16.972,4.282,25.303,6.579
		C118.561,313.299,107.331,309.271,100.198,306.412z"/>
	<path fill-rule="evenodd" clip-rule="evenodd" d="M129.043,313.497c1.173-0.161,1.942,0.081,2.53,0.506
		C131.607,315.431,128.974,314.938,129.043,313.497z"/>
	<path fill-rule="evenodd" clip-rule="evenodd" d="M33.399,316.533c1.784,4.079,4.176,12.519,2.024,17.206
		C34.976,326.726,33.845,322.87,33.399,316.533z"/>
	<path fill-rule="evenodd" clip-rule="evenodd" fill="#DAC793" d="M180.661,317.039c0.45,0.312,0.905,0.612,1.012,0
		c1.315,1.186,0.179,4.198-0.506,5.061C180.012,321.398,180.978,318.577,180.661,317.039z"/>
	<path fill-rule="evenodd" clip-rule="evenodd" fill="#DAC793" d="M143.718,320.582c1.198-1.328,3.809,0.211,5.061,0.506
		C147.703,322.962,145.611,320.795,143.718,320.582z"/>
	<path fill-rule="evenodd" clip-rule="evenodd" d="M185.215,329.185c1.229,5.519,2.265,11.23,3.036,17.206
		c-1.538-1.761-2.517-5.838-3.036-9.109C184.775,334.511,185.092,331.326,185.215,329.185z"/>
	<path fill-rule="evenodd" clip-rule="evenodd" d="M27.327,342.848c0.887,0.463,1.758,0.941,1.518,2.53
		C26.854,346.019,27.339,344.185,27.327,342.848z"/>
	<path fill-rule="evenodd" clip-rule="evenodd" d="M174.082,347.402c-0.394,12.807,5.104,22.364,2.53,31.882
		C176.678,368.091,172.358,357.013,174.082,347.402z"/>
	<path fill-rule="evenodd" clip-rule="evenodd" d="M97.162,1.263c0.743,2.462,0.06,6.351,1.012,8.603
		c5.233,2.888,15.798-0.016,21.76,3.036c2.594,1.328,3.998,5.896,7.591,7.085c7.115,2.354,18.539,1.854,28.339,3.036
		c15.414,1.859,29.915,5.61,37.954-2.53c7.819,0.352,14.298,1.5,20.748,2.024c2.028-4.044,4.963-7.183,8.603-9.615
		c6.359-0.174,8.429,0.961,13.664,1.518c2.556,45.104,1.41,93.167,4.048,143.213c2.151,40.81,0.706,85.216,3.036,122.465
		c0.375,5.994,1.723,13.061,0.507,18.724c-1.649,7.677-12.493,15.048-15.182,22.772c-3.753-1.309-8.507-1.614-12.651-2.53
		c-0.863-16.975-1.033-45.197-1.519-68.317c-6.938-2.694-17.059-4.847-24.29-5.566c-4.147,3.992-2.53,10.303-2.53,15.182
		c0,28.128,1.185,51.279,2.024,77.426c0.28,8.738,3.276,23.476,1.012,32.894c-0.994,4.135-6.242,9.102-9.109,13.157
		c-3.24,4.585-6.4,8.704-9.614,12.651c-6.355-0.224-10.579-2.578-16.194-3.542c-0.05-25.046-1.951-39.405-1.518-65.281
		c-37.417-9.645-74.94-19.186-113.356-27.832c0.157,6.167-0.273,11.795,0,17.205c0.267,5.284,2.19,11.604,1.012,16.7
		c-0.904,3.911-7.699,9.537-10.627,12.651c-4.12,4.381-8.052,8.043-11.64,11.639c-5.823-0.587-10.327-2.493-15.688-3.542
		c-0.551-29.019-0.787-51.224-2.024-78.944C1.378,249.738,1.2,220.947,0,200.141c24.147-20.385,49.708-39.357,73.883-59.714
		c-1.925-39.639,1.561-88.794,2.024-134.61C79.778,0.104,88.74-1.373,97.162,1.263z M80.462,4.805
		c6.297,0.934,10.857,1.255,13.664-3.036C88.583,1.216,82.364,0.53,80.462,4.805z M89.571,8.348c0.647,14.899-1.96,27.528,0,36.436
		c2.997-7.293,0.893-19.686,1.518-29.351c3.5-2.857,7.807-5.93,4.048-11.133C93.569,5.936,90.774,6.345,89.571,8.348z
		 M74.896,108.04c-0.167,1.534-1.763,10.714,0.506,12.651c1.432,0.083-0.421-3.119,1.012-3.036c1.091,0.428-0.189,3.226,1.012,3.542
		c0.483-1.878-0.074-4.797,1.518-5.567c0.51,1.684-1.119,5.505,1.012,5.567c-0.446-3.094-0.248-4.761,1.012-7.085
		c1.514,2.393-0.976,6.083,1.012,7.591c0.591-2.614-1.235-7.645,1.012-8.603c1.505,2.037-0.493,7.577,1.012,9.615
		c1.911-37.119,2.64-67.166,2.53-107.789c0.15-1.331-1.963-0.398-1.518-2.024c-1.375-2.813,2.577-4.826,0.506-5.061
		c-2.107,1.435-0.342,6.742-2.024,8.603c-1.077-2.008,1.442-8.774-1.012-8.603c-1.764,0.606,1.088,10.191-1.518,11.639
		c-1.175-3.042-0.173-8.261-0.506-12.145c-1.682,3.438-0.67,13.334-2.024,18.724c-2.041-5.367,2.359-15.826-1.012-19.23
		c0.52,8.737-2.089,18.549,1.012,25.302c-1.167,1.004-0.562-0.127-1.518-0.506C74.642,53.54,77.115,87.658,74.896,108.04z
		 M95.644,13.914c6.577-0.287,17.443,4.504,22.772,0C110.83,14.458,100.841,9.339,95.644,13.914z M219.626,18.975
		c3.605-0.232,6.464,0.284,9.109,1.012c1.579-1.794,4.007-2.74,5.06-5.061C227.088,14.37,221.168,12.882,219.626,18.975z
		 M181.672,27.578c-15.918-0.146-37.73-6.033-54.653-6.073c-2.774-1.349-5.386-5.308-7.591-5.566
		c-0.508-0.002-0.603,0.41-1.012,0.506c4.562,10.149,19.653,8.37,34.917,10.121c13.861,1.591,30.234,6.545,37.448-1.012
		C188.223,25.609,185.085,27.609,181.672,27.578z M168.009,30.614c-8.037-0.81-17.642-2.165-26.314-3.036
		c-13.898-1.397-22.4-1.953-27.327-9.615c-7.212-0.069-15.361-1.807-21.254-1.518c-1.152,21.565-0.092,46.827-1.012,63.256
		c7.062,2.217,16.746,1.811,23.785,4.049c3.093-5.201,12.842-3.287,18.724-2.53c14.806,1.903,36.949,3.441,48.581,6.072
		c3.979,0.9,7.396,3.398,8.603,6.579c6.163,0.924,13.915,2.951,20.242,2.024c-0.882-0.468-2.716,0.017-2.53-1.518
		c0.757-0.086,1.867,0.181,2.024-0.506c-0.346-1.003-3.015,0.316-2.53-1.518c1.149-0.369,3.948,0.912,3.542-1.012
		c-0.1-1.586-3.311-0.063-3.036-2.024c1.012,0,2.024,0,3.036,0c0.255-2.11-3.52-0.192-3.036-2.53
		c1.539-0.758,3.331,1.529,3.036-0.506c0.255-2.111-3.52-0.192-3.036-2.53c1.508-0.727,3.083,1.776,3.036-0.506
		c1.354-1.552-4.224-0.477-3.542-3.036c1.413,0.16,3.925,2.375,4.048-0.506c-0.068-1.449-3.474,0.438-3.542-1.012
		c1.139-1.633,2.846-0.064,4.049-1.012c0.591-2.615-3.519-0.53-3.543-2.53c1.345-0.005,2.891,0.191,3.543-0.506
		c0.352-2.039-2.518-0.856-3.037-2.024c1.167-0.478,1.632-0.033,3.543-0.506c0.644-2.331-2.566-0.808-3.036-2.024
		c0.519-1.168,3.388,0.014,3.036-2.024c0.362-1.374-2.387,0.362-2.024-1.012c0.509-1.788,2.237,0.436,2.024-1.519
		c-0.393-1.294-3.262-0.112-3.036-2.024c1.261-0.48,3.053,1.807,3.036-0.506c0.296-2.151-3.333-0.378-3.036-2.53
		c0.367,0.414,3.502,1.357,3.036-0.506c0.255-2.11-3.52-0.192-3.036-2.53c1.032,0.264,2.068,0.816,3.542,0
		c0.578-2.603-2.539-1.509-3.542-2.53c1.572-1.233,3.527,1.062,3.542-1.518c0.044-1.731-3.081-0.293-3.036-2.024
		c1.181,0,2.361,0,3.542,0c0.393-2.585-3.097-1.289-3.542-3.036c1.149-0.369,3.948,0.912,3.542-1.012
		c-0.392-1.294-3.262-0.112-3.036-2.024c2.201,0.01,2.801,0.894,3.542-1.012c-0.611-1.443-2.729-1.019-3.036-1.518
		c0.624-0.726,1.74-0.959,3.036-1.012c0.416-1.934-2.439-0.597-2.023-2.53c0.896-0.115,2.534,0.51,2.023-1.012
		c0.084-1.433-3.119,0.42-3.036-1.012c1.001-0.686,3.615,0.241,3.036-2.024c-0.457-1.061-2.856-0.18-3.036-1.518
		c1.261-0.257,3.053,0.017,3.036-1.519c0.084-1.433-3.119,0.421-3.036-1.012c0.519-1.168,3.389,0.014,3.036-2.024
		c-7.097-1.169-14.617-1.914-22.266-2.53C188.572,33.763,178.389,31.66,168.009,30.614z M229.242,22.517
		c0.295,9.321,2.908,19.018,1.012,28.845c-0.514-2.604-0.05-3.79-0.506-6.579c-0.313-1.374,0.643-4.016-0.506-4.554
		c0,1.855,0,3.711,0,5.566c-0.884,14.847-1.799,31.304-1.519,53.135c-0.507,1.567,2.693,1.966,1.013,3.037
		c-0.995,0.151-1.004-0.684-1.519-1.012c-1.71,19.593,0.325,43.111,2.024,62.245c-1.19-5.558-1.257-12.239-3.036-17.206
		c0.657,6.765-1.327,16.17,1.012,21.254c2.6-4.666,10.692-8.403,12.146-14.676c1.029-4.446-0.796-12.865-1.013-20.748
		c-0.754-27.491,0.103-47.587-2.023-67.305c0.204,4.187-5.637,4.404-7.085,1.518c-0.356-4.067,0.217-7.205,2.024-9.109
		c2.162,0.536,4.189,1.208,5.566,2.53c0.167-16.956-0.962-26.188-1.519-41.497c-0.111-0.394-0.424-0.588-1.012-0.506
		C233.428,19.957,230.546,20.448,229.242,22.517z M217.602,22.517c-0.801,33.669-2.658,68.2-2.53,95.644
		c1.343,4.352-0.775-6.009,1.519-5.566c1.641,2.67-0.616,5.781-0.506,8.603c-0.669-0.006-0.463-0.887-1.013-1.012
		c-1.431,6.1-1.406,18.185-0.506,26.315c3.297-6.551-1.739-16.349,1.519-21.76c0.139,7.872,1.253,15.154,0.506,22.266
		c3.255-3.242,0.964-9.848,1.012-14.676c0.027-2.764-0.377-6.149,1.013-8.097c0.319,7.945-0.425,16.956,1.518,23.278
		c2.011-4.491-0.116-15.012,1.519-18.724c0.961,8.254-0.982,14.331,1.012,20.748c-3.393,0.019-5.449-1.298-8.603-1.518
		c0.275,5.797-0.59,12.735,0.506,17.711c3.076,0.973,6.453,1.644,10.121,2.024c-1.453-19.173,0.256-26.192-1.519-44.533
		c1.104-0.322,1.61,1.435,1.519-0.506c0.504-29.229,1.543-56.749,2.53-80.462c-0.017-0.791-0.727-1.774-1.519-3.036
		c2.929-5.526,1.954-14.997,1.013-16.7c-1.161-1.771,0.239,3.228-1.013,3.036c-0.448-1.652-0.037-3.068-2.023-4.048
		c-0.622,3.498,1.648,4.881-0.507,6.579c-0.076-3.748-0.509-4.182-1.518-6.579c-0.339,4.207,1.885,4.658-0.506,7.591
		c-0.172-3.484,0.132-4.364-1.013-6.579c-1.693,3.1,1.546,10.566-1.012,15.688c-1.514-4.559,0.501-12.647-1.013-17.206
		C217.729,21.955,216.598,21.35,217.602,22.517z M193.818,24.035c6.183,0.805,15.816,3.316,21.254,1.518
		c-1.397,0.217-0.475-1.887-1.518-2.024C208.482,24.68,197.268,19.816,193.818,24.035z M88.053,97.413
		c-0.894,19.686-0.918,35.24,0,54.654c0.06,1.26-1.266,4.787,1.519,5.061c1.921-0.671-0.349-8.216,0-12.146
		c3.15-2.018,5.783-5.131,9.109-5.566c-0.958-3.277-2.212-8.238,0-11.639c0.139,4.584-0.662,10.108,1.518,12.651
		c0.276-24.522-1.545-33.857-1.518-58.196c-3.163,0.126-5.816-0.256-8.097-1.012c-1.087-9.888,2.239-22.591-1.518-28.845
		C86.994,67.122,88.689,83.396,88.053,97.413z M234.302,65.531c0.801-0.864,2.219-5.168-0.507-5.061
		C234.114,62.009,233.148,64.83,234.302,65.531z M231.772,65.025c1.34-0.729,0.27-3.258-1.013-3.036
		C231.066,63.032,229.943,65.505,231.772,65.025z M191.793,95.895c-5.286-9.325-18.685-8.071-34.411-10.121
		c-10.145-1.322-20.54-3.481-28.339-4.048c-7.056-0.513-9.26,2.457-13.158,3.036c-5.631,0.837-10.943-2.43-15.688-2.024
		c-0.167,23.243,1.562,36.846,1.518,58.196c37.024,7.003,73.741,14.312,110.825,21.254c-0.476-21.835,0.516-44.342,1.519-63.257
		C207.088,97.468,199.906,96.216,191.793,95.895z M74.896,139.415c3.183,0.865,6.277,1.82,10.121,2.024c0-5.735,0-11.471,0-17.206
		c-3.993-0.056-6.999-1.098-10.627-1.518C74.288,131.414,74.703,132.746,74.896,139.415z M75.402,141.439
		c-16.763,13.372-33.766,26.836-50.1,39.978c-5.579,4.489-11.805,8.484-16.193,14.169c3.443,0.437,6.726,1.034,9.615,2.024
		c22.091-18.225,45.756-34.875,66.293-54.653C81.414,142.85,78.768,141.784,75.402,141.439z M111.837,144.476
		c-7.45-1.463-16.274-5.557-18.218,0.506c33.983,7.007,70.839,13.402,105.259,20.242c3.854,0.766,11.1,4.675,12.651-1.518
		C180.796,157.2,144.205,150.83,111.837,144.476z M21.254,206.72c3.116-3.684,6.677-1.881,9.109-7.084
		c5.667-2.4,9.26-6.708,14.169-10.627c14.297-11.411,28.41-22.625,42.002-33.399c-0.331-3.042,0.667-7.414-0.506-9.615
		c-13.159,9.793-27.322,22.938-41.497,33.399c-0.625,1.638,1.638,0.387,1.012,2.024c-0.696-0.022-1.111,0.238-1.518,0.506
		c-0.079-0.595,0.087-1.437-0.506-1.518c-7.465,6.874-16.152,12.525-23.279,19.736c1.101,0.827-0.348,3.46,1.012,4.555
		c3.162-3.757,8.247-8.281,12.146-9.615C30.051,199.325,22.936,202.495,21.254,206.72z M161.936,169.272
		c1.213,0.201-0.28-2.305,1.519-1.518c13.827,0.849,27.181,4.869,39.979,5.061c-14.969-3.586-32.367-4.744-45.545-10.121
		c15.717,2.67,32.12,7.352,47.568,8.603c-19.354-5.78-41.916-8.352-62.75-12.651c-1.241-0.446-1.658-1.715-2.53-2.53
		c-2.354-0.668-1.693,1.68-4.049,1.012c0.422-1.625,0.432-1.049-0.506-2.024c-14.792-2.414-29.113-5.298-43.521-8.097
		c-0.915,2.346-0.498,7.035,0,8.097C114.76,160.446,138.726,164.481,161.936,169.272z M93.113,158.139
		c35.681,6.996,70.685,14.668,107.284,20.748c-35.206-8.146-72.252-14.453-108.296-21.76
		C92.159,157.744,92.252,158.325,93.113,158.139z M203.433,195.587c-1.897,2.09-0.334,3.354-1.519,5.061
		c-1.372-1.422-1.26-0.4-3.036,0c0.11,1.851,0.695,1.941,0,3.542c-1.594,0.567-1.146,0.046-3.036,0
		c-2.779,4.85-7.812,8.689-12.146,13.664c-2.683,3.079-10.372,11.077-11.133,14.675c-1.332,6.292,1.639,20.804,1.012,28.846
		c6.58-4.646,11.322-11.895,16.7-18.219c16.593-19.513,33.049-39.492,49.593-58.195c-0.73-9.054,1.618-21.186-1.519-27.833
		C228.125,169.442,213.716,184.253,203.433,195.587z M86.029,158.139c-10.106,7.605-20.048,15.375-29.351,23.784
		c39.686,7.471,76.735,17.69,117.91,23.785c0.419-1.431-0.713-1.311-0.506-2.53c1.248,0.066,2.438,0.077,3.036-0.506
		c0.445-1.626-1.668-0.693-1.518-2.024c1.98,0.294,2.938-0.436,4.048-1.012c0.626-1.638-1.637-0.387-1.012-2.024
		c1.599,0.081,3.054,0.018,3.542-1.012c-0.472-0.541-1.866-0.158-1.518-1.519c1.646,0.002,2.727,1.062,3.036-1.012
		c0.2-1.213-2.305,0.281-1.519-1.519c1.458-0.06,3.313,0.277,4.049-0.506c0.625-1.637-1.638-0.387-1.012-2.024
		c1.371,0.585,1.259,0.244,3.036,0c0.432-1.613-0.441-1.921-1.013-2.53c1.6,0.081,3.055,0.018,3.543-1.012
		c-0.901-0.28-2.102-0.26-2.53-1.012c1.522-1.249,3.674,0.764,4.048-1.012c-0.672-0.508-1.883-0.479-2.023-1.518
		c1.181,0,2.361,0,3.542,0c0.325-1.843-2.411-0.625-2.53-2.024c1.373-0.313,4.016,0.643,4.555-0.506
		C160.183,172.357,120.485,165.708,86.029,158.139z M213.554,167.248c-18.335,19.787-37.573,38.673-54.654,59.714
		c4.058,1.003,8.209,1.912,12.651,2.53c16.733-20.546,35.484-39.074,51.617-60.22C219.917,168.645,216.756,167.925,213.554,167.248z
		 M186.733,172.814c-6.453-2.255-16.447-3.313-22.772-4.048C169.734,171.279,180.617,174.012,186.733,172.814z M188.251,174.333
		c1.548-0.367,1.488,0.873,3.036,0.506c-0.58-1.592,0.795-1.23,1.012-2.024C190.307,172.678,188.784,173.009,188.251,174.333z
		 M198.878,175.851c0.505-2.866-2.874-1.85-4.555-2.53C192.955,175.75,196.195,176.006,198.878,175.851z M54.653,182.936
		c-10.628,9.107-22.306,17.167-31.881,27.327c40.076,9.001,82.105,17.669,121.453,26.314c2.26,0.497,5.257,2.66,7.591,1.012
		c-0.121-2.578-4.767-0.632-6.073-2.024c1.031-1.161,4.203-0.183,6.073-0.506c0.296-2.151-3.333-0.378-3.037-2.53
		c1.044-0.306,3.516,0.817,3.037-1.012c0.2-1.213-2.306,0.28-1.519-1.519c2.291,0.942,0.88-1.818,2.024-2.023
		c0.587,0.424,1.356,0.667,2.53,0.506c0.946-2.297-2.011-0.688-1.519-2.53c1.93-0.671,3.27,0.69,4.555-1.013
		c-0.968-0.213-2.179-0.183-2.024-1.518c1.181,0,2.361,0,3.543,0c0.486-1.837-2.274-0.426-2.024-2.024
		c1.875-1.138,4.594,0.991,5.061-2.024c-1.256,0.074-2.456,0.095-2.53-1.012c1.35,0,2.698,0,4.048,0
		c0.8-1.98-1.313-1.048-1.518-2.024c0.739-1.116,4.008,0.297,4.048-1.519c-0.472-0.54-1.866-0.157-1.518-1.518
		c1.965-0.227,3.174,1.268,3.542-1.013c0.2-1.212-2.305,0.281-1.519-1.518c1.345-0.005,2.891,0.191,3.543-0.506
		c0.785-2.136-2.81,0.11-2.024-2.024c0.89-0.292,2.974,0.611,3.036-0.506C132.769,199.283,93.662,191.159,54.653,182.936z
		 M227.723,202.166c0.025,39.241,1.009,75.892,3.036,113.862c4.354-5.43,8.188-11.38,12.146-17.206
		c0.082-18.733-1.124-36.422-1.518-52.629c-0.496-20.412,0.484-41.281-1.519-57.69c-0.028-0.309-0.076-0.599-0.506-0.506
		C235.733,192.969,230.488,196.327,227.723,202.166z M4.554,199.129c4.926-0.402,10.113,4.227,12.146-0.506
		C13.162,198.335,5.891,193.953,4.554,199.129z M2.024,201.153c0,0.506,0,1.012,0,1.518c1.339,31.293,0.867,69.64,2.53,106.271
		c0.748,16.469,1.853,26.939,1.518,44.026c3.585,1.477,7.811,2.312,12.146,3.036c-0.71-46.652-2.563-94.943-4.555-142.2
		c-0.166-3.947,2.209-11.689-3.542-11.133c0.419,1.447,3.137,4.952,2.024,9.615c-9.775,4.802-10.254-7.732-4.554-10.121
		C6.015,201.548,4.383,200.987,2.024,201.153z M16.7,203.178c-0.858,20.812,0.438,40.219,1.518,59.208
		c0.604,10.612-1.334,24.251,1.518,32.388c-2.27,3.053-0.088,4.26,1.012,7.084c-0.995,0.151-1.003-0.683-1.518-1.012
		c1.257,17.926-0.664,38.173,2.024,54.147c3.045-3.744,6.476-6.688,10.121-10.627c2.502-2.704,8.594-7.352,9.615-11.133
		c1.2-4.443-0.173-15.11-0.506-22.267c-0.197-4.237-1.668-8.443,0-11.64c-5.349-1.735-11.935-2.234-16.7-4.554
		c-2.56-10.562,0.644-17.422,8.097-20.242c2.236,0.799,4.513,1.56,7.591,1.518c-0.22-7.383-0.854-16.125-1.012-21.254
		c-5.033-1.229-11.869-2.714-15.688-3.542c0.068-6.793-0.398-7.202-0.506-13.664c4.235-3.658,9.25-9.479,15.182-7.085
		c-0.064-1.446,0.695-7.662-1.012-9.108c-8.311,0.798-9.527,8.691-16.7,10.627c-0.886-12.181-0.196-19.835-2.024-30.363
		C17.666,202.457,16.421,202.056,16.7,203.178z M215.578,215.829c0.209,35.323,1.974,66.066,2.024,101.21
		c2.615,1.637,8.037,1.895,10.121,2.53c0.02-20.898-0.07-41.251-1.012-57.184c-1.127-19.06-0.347-39.632-1.519-56.172
		c-0.309-0.029-0.599-0.076-0.506-0.506c-0.028-0.309-0.075-0.599-0.506-0.506C221.583,209.015,218.227,212.068,215.578,215.829z
		 M7.591,211.274c-0.04-2.144,1.345-3.801-0.506-5.566C5.029,206.513,4.994,211.052,7.591,211.274z M22.266,215.323
		c12.106,2.063,24.393,6.645,36.942,6.578c-13.383-2.136-25.707-5.331-38.46-8.097C20.656,214.908,21.162,215.415,22.266,215.323z
		 M204.951,228.986c3.655-0.112,5.715,1.37,9.109,1.518c-0.334-3.883,0.669-9.104-0.506-12.145
		C210.432,221.647,207.154,224.779,204.951,228.986z M20.748,222.914c0.892,1.539,1.567-1.382,2.024,0
		c0.691,2.209-1.959,1.076-1.518,3.036c-0.155,1.581,1.462-1.286,1.518,0.506c0.556,1.615-2.985,1.674-1.012,3.036
		c2.821-3.083,6.842-4.965,9.109-8.603c-2.895-1.153-6.454-1.644-10.121-2.024C22.27,220.672,22.092,220.87,20.748,222.914z
		 M63.762,222.914c-1.417-0.27-2.63-0.743-4.048-1.013C59.695,223.304,63.318,223.649,63.762,222.914z M39.472,231.517
		c12.523,2.152,24.049,5.302,36.436,7.591c0.014-3.051,0.158-6.23-0.506-8.604c-11.708-2.968-24.025-5.325-35.93-8.097
		C38.176,224.908,39.419,228.73,39.472,231.517z M82.992,229.492c-11.115-2.043-22.04-6.973-33.905-6.578
		C60.528,224.631,72.006,229.007,82.992,229.492z M84.511,228.986c1.212,0.2-0.281-2.305,1.518-1.519
		c0.13,2.087,3.478,3.715,4.048,1.013c0.927,0.591,1.097,1.939,2.024,2.53c-0.311,0.701-1.948,0.076-2.024,1.012
		c3.314-0.185,8.082,3.262,10.121,1.013c-0.604-2.771-6.007-0.741-6.579-3.543c18.468,3.292,35.176,8.345,53.642,11.64
		c-1.53-2.991-5.05-1.981-7.591-2.53c-18.349-3.969-37.952-9.369-57.184-12.651c-1.42,0.006,1.205,1.381-1.012,1.012
		c-3.972-3.019-11.312-2.578-17.206-3.542C71.008,225.282,77.935,226.959,84.511,228.986z M154.852,231.517
		c4.671-0.085,12.626,5.604,14.169-0.506C164.691,230.626,156.452,225.521,154.852,231.517z M200.397,234.553
		c4.99,0.407,8.175,2.621,13.663,2.53c-0.283-2.247-1.333-3.728-2.024-5.566C206.614,230.77,201.492,228.531,200.397,234.553z
		 M77.426,239.613c3.6,0.334,7.441,2.371,10.627,1.519c-0.56-2.139-0.583-4.815-0.506-7.591c-2.563-1.654-6.634-1.8-10.121-2.53
		C77.426,233.878,77.426,236.746,77.426,239.613z M26.821,236.577c41.638,9.473,83.245,18.978,125.501,27.833
		c0.062-2.088-0.88-3.169-0.506-5.566c-38.085-10.665-79.169-18.33-118.923-27.327C30.645,232.979,28.108,234.154,26.821,236.577z
		 M101.716,234.553c1.396-0.175,3.554,1.453,4.555,0C105.262,233.141,101.86,231.358,101.716,234.553z M90.077,234.047
		c-1.216,2.245,0.297,6.1,0.506,8.603c4.359,0.702,8.496,1.626,12.651,2.53c0-2.699,0-5.397,0-8.097
		C99.97,235.235,93.396,234.173,90.077,234.047z M153.839,235.564c1.115,19.31,0.904,53.754,2.024,77.933
		c1.457,31.446,0.725,52.07,2.024,77.932c3.842,1.219,7.43,2.691,12.146,3.036c-0.631-56.729-1.624-101.41-4.555-157.888
		C162.844,235.777,155.872,231.992,153.839,235.564z M172.057,265.422c1.1-3.291-1.869-2.516-2.023-4.555
		c1.323-0.591,2.177,1.562,2.023-0.506c-1.752-8.729,1.17-21.519-2.023-26.314c-2.635,4.373-1.519,9.976-1.519,14.676
		c0,5.086,0.317,10.062,0.506,14.675c1.665,40.747,1.303,89.744,4.555,129.55c5.409-7.41,10.778-14.862,16.193-22.267
		c0.462-27.438-1.733-44.737-1.518-70.341c0.538-1.888-1.898-0.802-1.519-2.53c2.837-7.345,0.442-17.264,0-27.327
		c-0.281-6.392,0.635-12.926-0.506-19.736C180.778,254.912,178.489,262.238,172.057,265.422z M104.752,245.686
		c15.953,3.113,32.596,8.221,48.075,10.121c0.046-3.917-0.112-5.393-0.506-8.097c-15.35-4.05-31.205-7.593-47.569-10.627
		C104.752,239.951,104.752,242.818,104.752,245.686z M116.392,237.083c-2.198-0.041-0.096,0.401,0.506,0.506
		c5.035,0.881,12.651,3.622,16.699,3.036C127.818,239.513,120.75,237.165,116.392,237.083z M192.806,243.662
		c7.226,0.366,13.811,4.066,20.241,3.542c-3.671-1.389-9.482-0.638-11.133-4.049c2.468-0.29,5.828,3.41,7.591,0.507
		c-3.138-2.43-9.497-1.637-12.651-4.049c4.157-1.384,8.997,3.429,13.663,1.519C204.978,238.954,193.87,235.284,192.806,243.662z
		 M24.796,250.24c28.661,6.089,60.023,13.861,90.077,20.242c1.167,1.175,1.632-0.937,3.542-0.506
		c-0.799,1.98,1.314,1.048,1.518,2.024c11.189,1.63,20.472,5.168,31.882,6.578c-3.379-4.044-13.309-1.536-16.7-5.566
		c4.218,0.069,8.427,2.611,12.146,1.519c-5.373-4.074-16.794-2.1-21.76-6.579c7.183,1.42,14.108,3.098,21.76,4.049
		c-9.055-5.284-24.18-4.497-33.399-9.615c11.505,1.511,22.72,5.92,33.399,6.579c-15.479-5.438-34.758-7.076-50.1-12.651
		c17.488,2.26,33.886,8.269,50.1,10.121c-40.304-9.965-81.801-18.735-122.971-27.833C24.315,241.163,23.818,247.111,24.796,250.24z
		 M146.755,243.662c-3.595-0.798-8.529-2.935-12.146-2.024C138.783,241.855,143.235,244.476,146.755,243.662z M40.99,277.062
		c38.03,8.357,74.443,18.333,112.849,26.314c0.322-9.035-0.568-13.812-0.506-22.267c-16.039-3.528-31.484-7.65-48.075-10.627
		c-5.369,5.259-9.985,11.27-15.688,16.193c-4.405-0.655-8.605-1.516-12.146-3.036c-0.516-7.744-0.552-13.708-1.012-19.735
		c-11.577-3.437-24.129-5.896-36.436-8.604C40.058,263.326,40.76,267.817,40.99,277.062z M78.944,282.628
		c3.518,0.569,7.715,2.455,10.627,2.024c-0.462-5.647-0.877-11.532-1.012-18.218c-3.021-0.698-7.255-2.856-10.627-1.519
		C78.35,268.704,78.055,274.746,78.944,282.628z M91.089,268.458c-0.994,5.147,1.186,11.106,0.506,13.157
		c1.18-3.558-1.907-10.908,1.518-12.145c-1.023,3.586,0.025,6.688,0,10.627c4.124-2.624,6.961-6.534,9.615-10.627
		c-3.876-0.848-7.848-1.6-11.639-2.53C91.089,267.446,91.089,267.952,91.089,268.458z M47.569,280.098
		c-8.536-2.009-17.518-6.645-20.242,1.012c41.489,10.634,84.244,20.003,126.007,30.363c0.249-2.272-0.257-3.792-0.506-5.566
		C121.503,296.834,81.905,288.179,47.569,280.098z M25.302,293.761c35.671,9.198,72.155,17.585,107.789,26.821
		c2.003,0.653,1.033-1.666,3.036-1.013c1.343-0.161-0.473,2.835,1.519,2.024c5.034,0.368,10.077,3.412,14.676,2.53
		c-13.213-5.342-30.035-7.075-43.015-12.651c8.011,1.529,17.185,4.433,25.809,6.072c4.139,0.787,10.014,2.66,13.663,0
		c-5.201-0.701-10.997-0.811-14.675-3.036c5.018-0.307,13.524,3.169,17.712,1.013c-18.611-3.318-36.478-7.381-52.63-13.157
		c17.379,2.36,31.912,10.253,49.593,10.627c-39.854-11.257-82.634-19.589-123.477-29.857
		C24.355,287.055,24.954,289.943,25.302,293.761z M148.779,321.088c-1.252-0.295-3.862-1.834-5.061-0.506
		C145.611,320.795,147.703,322.962,148.779,321.088z"/>
	<path fill-rule="evenodd" clip-rule="evenodd" fill="#DAC793" d="M89.065,52.374c3.757,6.254,0.431,18.958,1.518,28.845
		c2.281,0.755,4.935,1.138,8.097,1.012c-0.027,24.339,1.794,33.674,1.518,58.196c-2.18-2.543-1.379-8.067-1.518-12.651
		c-2.212,3.401-0.958,8.362,0,11.639c-3.326,0.436-5.959,3.548-9.109,5.566c-0.349,3.929,1.921,11.474,0,12.146
		c-2.784-0.273-1.458-3.8-1.519-5.061c-0.918-19.414-0.894-34.968,0-54.654C88.689,83.396,86.994,67.122,89.065,52.374z
		 M94.631,134.354c-1.695-11.026,3.919-27.603-0.506-36.436C95.963,108.926,92.008,121.795,94.631,134.354z M90.583,118.161
		c-1.438,4.492-1.835,13.951,0.506,17.712C89.817,127.689,91.765,127.413,90.583,118.161z"/>
	<path fill-rule="evenodd" clip-rule="evenodd" fill="#DAC793" d="M33.399,195.081c-3.899,1.334-8.984,5.858-12.146,9.615
		c-1.36-1.095,0.089-3.728-1.012-4.555c7.127-7.211,15.814-12.862,23.279-19.736c0.593,0.082,0.427,0.923,0.506,1.518
		c0.407-0.268,0.822-0.528,1.518-0.506c0.625-1.638-1.637-0.387-1.012-2.024c14.175-10.461,28.338-23.606,41.497-33.399
		c1.172,2.201,0.175,6.573,0.506,9.615c-13.593,10.775-27.705,21.989-42.002,33.399c-4.91,3.918-8.503,8.227-14.169,10.627
		c-2.432,5.204-5.993,3.401-9.109,7.084C22.936,202.495,30.051,199.325,33.399,195.081z M33.399,191.539
		c-5.017,2.405-8.993,5.852-12.146,10.121C25.551,198.534,29.909,195.47,33.399,191.539z"/>
	<path fill-rule="evenodd" clip-rule="evenodd" fill="#DAC793" d="M92.101,155.103c-0.498-1.062-0.915-5.75,0-8.097
		c14.408,2.798,28.729,5.683,43.521,8.097c0.938,0.975,0.928,0.4,0.506,2.024c2.355,0.668,1.694-1.68,4.049-1.012
		c0.872,0.815,1.289,2.084,2.53,2.53c20.834,4.3,43.396,6.872,62.75,12.651c-15.448-1.251-31.852-5.933-47.568-8.603
		c13.178,5.377,30.576,6.535,45.545,10.121c-12.798-0.192-26.151-4.211-39.979-5.061c-1.799-0.787-0.306,1.719-1.519,1.518
		C138.726,164.481,114.76,160.446,92.101,155.103z M149.286,162.693c1.574-0.091,4.438,1.658,5.566-0.506
		C152.458,162.926,149.871,160.681,149.286,162.693z"/>
	<path fill-rule="evenodd" clip-rule="evenodd" fill="#DAC793" d="M238.35,157.127c3.137,6.647,0.788,18.779,1.519,27.833
		c-16.544,18.703-33,38.683-49.593,58.195c-5.378,6.324-10.12,13.572-16.7,18.219c0.627-8.042-2.344-22.554-1.012-28.846
		c0.761-3.598,8.45-11.596,11.133-14.675c4.333-4.975,9.366-8.814,12.146-13.664c1.891,0.046,1.442,0.567,3.036,0
		c0.695-1.601,0.11-1.691,0-3.542c1.776-0.4,1.664-1.422,3.036,0c1.185-1.706-0.379-2.97,1.519-5.061
		C213.716,184.253,228.125,169.442,238.35,157.127z M237.338,170.79c-5.857-5.775-8.909,4.44-7.085,9.109
		c2.256,0.157,4.563,1.042,6.579,0C237.414,177.292,238.639,173.724,237.338,170.79z M219.121,185.972
		c0.793,1.186,4.123-0.934,2.53-2.024C221.082,184.897,219.689,185.022,219.121,185.972z M221.145,191.539
		c2.65-0.612,0.796-1.983,1.012-4.048c0.617-0.058,1.198-0.151,1.012-1.012c-0.506,0-1.012,0-1.518,0
		C222.005,188.688,220.79,189.328,221.145,191.539z M214.566,191.032c0.995-0.151,1.004,0.684,1.519,1.012
		c0.111-0.394,0.424-0.588,1.012-0.506c0.353-1.702-1.04-1.659-1.519-2.53C215.572,190.014,214.198,189.652,214.566,191.032z
		 M223.675,192.044c0.461-1.086,4.565-1.13,2.53-3.036C226.119,191.255,222.203,189.582,223.675,192.044z M225.699,195.587
		c2.299-0.916,5.344-3.752,5.061-5.566C229.254,192.058,226.922,193.268,225.699,195.587z M217.602,195.587
		c0.132-0.711,1.11-0.577,1.519-1.012c-1.137-1.345,0.757-2.577-0.506-3.542C218.861,192.826,216.573,194.687,217.602,195.587z
		 M207.987,195.081c-0.356-1.578,2.83-2.177,1.013-3.542C208.272,192.375,205.73,194.3,207.987,195.081z M210.011,195.081
		c0.901,0.303,2.102-1.483,2.53,0c-0.337,1.008-1.745,2.162,0,2.53c0.008-1.51,1.316-1.72,1.519-3.036
		C212.559,193.683,210.462,191.864,210.011,195.081z M204.951,197.105c-0.323,2.55,0.029,3.478-0.506,5.061
		c1.85-0.983,2.158-4.169,2.024-6.073C206.261,196.729,205.817,197.127,204.951,197.105z M210.011,199.635
		c0.58-1.476,0.766-2.993-0.506-3.542C209.123,197.312,209.104,198.543,210.011,199.635z M213.047,202.166
		c0.112-0.394,0.424-0.588,1.013-0.506c-0.086-0.757,0.181-1.867-0.506-2.024C213.406,200.234,211.516,201.547,213.047,202.166z
		 M209.505,213.805c-3.176,3.451-7.491,6.477-8.603,10.627c5.909-6.235,11.419-12.871,17.712-18.724
		c-0.303-0.901,1.482-2.102,0-2.53C216.092,206.895,212.726,210.305,209.505,213.805z M196.348,208.238
		c0.148-0.599,2.038-1.912,0.506-2.53C196.296,205.897,194.928,207.732,196.348,208.238z M197.36,211.78
		c-1.873-0.354-1.262,1.774-2.023,2.53c1.524,0.668,3.122,1.263,3.542,3.036c-5.133,5.912-7.128,14.736-12.146,20.749
		c-3.588,4.299-8.827,6.797-10.121,12.145c10.135-9.939,18.259-21.888,24.291-35.93C198.904,211.774,196.224,215.271,197.36,211.78z
		 M180.155,233.541c-1.722,2.052-5.618,3.929-4.049,6.072c2.721-5.041,9.421-8.794,10.121-14.169
		C184.015,227.966,182.392,230.874,180.155,233.541z"/>
	<path fill-rule="evenodd" clip-rule="evenodd" fill="#DAC793" d="M49.087,222.914c11.865-0.395,22.791,4.535,33.905,6.578
		C72.006,229.007,60.528,224.631,49.087,222.914z"/>
	<path fill-rule="evenodd" clip-rule="evenodd" fill="#DAC793" d="M186.227,250.746c1.141,6.811,0.225,13.345,0.506,19.736
		c0.442,10.063,2.837,19.982,0,27.327c-0.38,1.729,2.057,0.643,1.519,2.53c-0.216,25.604,1.979,42.902,1.518,70.341
		c-5.415,7.404-10.784,14.856-16.193,22.267c-3.252-39.806-2.89-88.803-4.555-129.55c-0.188-4.612-0.506-9.589-0.506-14.675
		c0-4.7-1.116-10.303,1.519-14.676c3.193,4.796,0.271,17.586,2.023,26.314c0.153,2.067-0.7-0.085-2.023,0.506
		c0.154,2.039,3.123,1.264,2.023,4.555C178.489,262.238,180.778,254.912,186.227,250.746z M171.045,264.916
		c2.094,15.112,6.074,28.337,8.603,43.015C178.756,292.888,174.608,277.883,171.045,264.916z M174.587,276.049
		c2.095,0.437,3.703,1.358,6.073,1.519c2.055-2.079,2.298-9.115,0-11.133C174.339,265.343,174.473,270.706,174.587,276.049z
		 M180.661,294.773c0.184-3.39-0.991-5.42-1.519-8.098C178.375,288.799,178.783,293.655,180.661,294.773z M182.178,292.243
		c0.697-0.022,1.111,0.238,1.519,0.506c-0.441-1.622,0.779-1.583,1.519-2.024c-0.64-1.554-0.768-3.618-2.53-4.049
		C181.806,289.008,183.737,289.666,182.178,292.243z M174.587,318.558c2.761,14.924,5.482,30.211,7.591,43.015
		c0.298,1.805-1.147,4.806,1.519,5.566c-2.46-15.115-3.822-30.954-7.591-43.521c2.189,0.003,3.211,1.175,5.566,1.012
		c2.64-2.578,3.743-11.898-3.036-10.627c-1.577,0.953-1.86,3.2-3.036,4.555c-2.659-7.697-2.482-19.094-4.049-27.327
		C170.626,300.226,172.976,309.842,174.587,318.558z M183.191,294.773c0.562,1.123,2.003,1.37,2.53,2.53
		c0.631-1.001-0.504-3.618-1.013-5.061C184.71,293.595,183.11,293.343,183.191,294.773z M183.697,301.857
		c0.079,0.596-0.087,1.437,0.506,1.519c1.45-1.819-0.885-3.235-2.024-4.049C181.485,301.371,183.085,301.119,183.697,301.857z
		 M185.215,337.281c0.52,3.271,1.498,7.349,3.036,9.109c-0.771-5.976-1.808-11.688-3.036-17.206
		C185.092,331.326,184.775,334.511,185.215,337.281z M176.612,379.284c2.573-9.518-2.924-19.075-2.53-31.882
		C172.358,357.013,176.678,368.091,176.612,379.284z"/>
	<path fill-rule="evenodd" clip-rule="evenodd" d="M230.253,257.831c2.225,0.475,2.789,2.609,3.036,5.061
		c1.657-2.94-1.446-4.684,0-7.085c2.766,9.684,3.56,21.066,2.53,32.388c-0.905-8.657-0.385-18.049-2.024-24.797
		c-0.475,1.887-1.181,3.543-1.518,5.567c-2.736-1.142-2.538-6.435-2.024-8.098c1.673,1.79,0.579,3.201,1.519,5.567
		C234.381,262.546,229.89,259.572,230.253,257.831z"/>
	<path fill-rule="evenodd" clip-rule="evenodd" fill="#DAC793" d="M76.92,31.626c0.956,0.379,0.351,1.51,1.518,0.506
		c-3.102-6.753-0.493-16.565-1.012-25.302c3.371,3.404-1.029,13.863,1.012,19.23c1.354-5.39,0.342-15.286,2.024-18.724
		c0.333,3.884-0.669,9.104,0.506,12.145c2.606-1.448-0.246-11.033,1.518-11.639c2.454-0.171-0.064,6.595,1.012,8.603
		c1.682-1.861-0.083-7.168,2.024-8.603c2.071,0.234-1.881,2.248-0.506,5.061c-0.445,1.626,1.668,0.694,1.518,2.024
		c0.109,40.623-0.62,70.67-2.53,107.789c-1.505-2.038,0.493-7.578-1.012-9.615c-2.247,0.958-0.421,5.989-1.012,8.603
		c-1.988-1.507,0.501-5.198-1.012-7.591c-1.26,2.324-1.458,3.991-1.012,7.085c-2.131-0.062-0.502-3.883-1.012-5.567
		c-1.592,0.77-1.035,3.688-1.518,5.567c-1.202-0.316,0.079-3.115-1.012-3.542c-1.433-0.083,0.42,3.12-1.012,3.036
		c-2.269-1.937-0.673-11.117-0.506-12.651C77.115,87.658,74.642,53.54,76.92,31.626z M80.462,28.083
		c-0.368-1.149,0.912-3.948-1.012-3.542C79.369,26.14,79.432,27.595,80.462,28.083z M82.486,103.991
		c0.107-0.611,0.562-0.311,1.012,0c-0.277-0.735,0.591-2.615-0.506-2.53c-0.107,0.612-0.562,0.312-1.012,0
		C82.257,102.196,81.389,104.077,82.486,103.991z M82.486,111.076c0.029-0.309,0.076-0.599,0.506-0.506
		c0.029,0.309,0.076,0.599,0.506,0.506c0-1.181,0-2.362,0-3.542c-0.697,0.022-1.111-0.238-1.518-0.506
		C82.289,108.238,81.345,110.699,82.486,111.076z M80.462,112.088c0.396-0.351,1.126-2.824,0-3.037
		C79.75,109.713,78.643,111.73,80.462,112.088z M78.944,113.606c-0.301-1.048,0.625-3.324-0.506-3.542
		C78.169,111.168,77.213,113.337,78.944,113.606z M76.414,115.125c0.696-0.649,0.881-3.026-0.506-3.036
		C76.199,112.978,75.296,115.062,76.414,115.125z"/>
	<path fill-rule="evenodd" clip-rule="evenodd" fill="#DAC793" d="M193.312,26.565c7.648,0.617,15.169,1.361,22.266,2.53
		c0.353,2.039-2.518,0.856-3.036,2.024c-0.083,1.433,3.12-0.421,3.036,1.012c0.017,1.535-1.775,1.261-3.036,1.519
		c0.18,1.338,2.579,0.458,3.036,1.518c0.579,2.265-2.035,1.338-3.036,2.024c-0.083,1.433,3.12-0.42,3.036,1.012
		c0.511,1.522-1.127,0.897-2.023,1.012c-0.416,1.934,2.439,0.596,2.023,2.53c-1.296,0.053-2.412,0.286-3.036,1.012
		c0.308,0.5,2.425,0.075,3.036,1.518c-0.741,1.906-1.341,1.022-3.542,1.012c-0.226,1.912,2.645,0.729,3.036,2.024
		c0.406,1.924-2.393,0.644-3.542,1.012c0.445,1.747,3.935,0.451,3.542,3.036c-1.181,0-2.361,0-3.542,0
		c-0.045,1.731,3.08,0.293,3.036,2.024c-0.015,2.58-1.97,0.285-3.542,1.518c1.003,1.021,4.12-0.072,3.542,2.53
		c-1.474,0.816-2.51,0.264-3.542,0c-0.483,2.338,3.291,0.42,3.036,2.53c0.466,1.863-2.669,0.92-3.036,0.506
		c-0.297,2.152,3.332,0.379,3.036,2.53c0.017,2.313-1.775,0.026-3.036,0.506c-0.226,1.912,2.644,0.729,3.036,2.024
		c0.213,1.955-1.516-0.27-2.024,1.519c-0.362,1.374,2.387-0.362,2.024,1.012c0.352,2.039-2.518,0.856-3.036,2.024
		c0.47,1.217,3.68-0.306,3.036,2.024c-1.911,0.473-2.376,0.028-3.543,0.506c0.52,1.168,3.389-0.015,3.037,2.024
		c-0.652,0.697-2.198,0.5-3.543,0.506c0.024,2,4.134-0.085,3.543,2.53c-1.203,0.948-2.91-0.621-4.049,1.012
		c0.068,1.449,3.474-0.438,3.542,1.012c-0.123,2.881-2.635,0.667-4.048,0.506c-0.682,2.559,4.896,1.484,3.542,3.036
		c0.047,2.282-1.528-0.221-3.036,0.506c-0.483,2.338,3.291,0.419,3.036,2.53c0.295,2.035-1.497-0.252-3.036,0.506
		c-0.483,2.338,3.291,0.42,3.036,2.53c-1.012,0-2.024,0-3.036,0c-0.274,1.961,2.937,0.438,3.036,2.024
		c0.406,1.924-2.393,0.644-3.542,1.012c-0.484,1.834,2.185,0.515,2.53,1.518c-0.157,0.687-1.268,0.42-2.024,0.506
		c-0.186,1.535,1.648,1.05,2.53,1.518c-6.327,0.926-14.079-1.1-20.242-2.024c-1.207-3.18-4.624-5.678-8.603-6.579
		c-11.632-2.631-33.775-4.169-48.581-6.072c-5.882-0.756-15.631-2.671-18.724,2.53c-7.039-2.238-16.723-1.832-23.785-4.049
		c0.92-16.429-0.14-41.691,1.012-63.256c5.893-0.289,14.042,1.449,21.254,1.518c4.927,7.663,13.429,8.218,27.327,9.615
		c8.673,0.872,18.277,2.226,26.314,3.036C178.389,31.66,188.572,33.763,193.312,26.565z M111.332,28.083
		c2.653-0.781,6.552,1.965,7.084,0C118.612,27.58,110.875,27.075,111.332,28.083z M186.227,39.217
		c-14.291,0.423-29.361-1.954-43.521-2.024c-6.244-0.031-12.73,2.076-18.724,2.53c-9.312,0.707-17.705-0.963-25.302-0.506
		c18.34,4.311,38.588-1.599,56.172-0.506c15.212,0.945,31.828,2.267,46.051,2.53C196.36,39.211,191.473,39.062,186.227,39.217z
		 M207.987,38.711c1.044-0.307,3.516,0.816,3.037-1.012c-1.013,0-2.024,0-3.037,0C207.987,38.036,207.987,38.374,207.987,38.711z
		 M159.913,50.35c-3.611,0.13-7.005,1.666-10.627,2.024c-15.637,1.545-31.389-5.315-47.569-1.518
		c16.553-1.652,32.132,4.082,47.569,2.53c3.878-0.39,7.707-1.987,11.639-2.024c11.499-0.11,23.312,3.86,35.93,2.024
		C184.428,53.68,171.943,49.917,159.913,50.35z M174.587,57.94c-2.938-0.308-6.185-1.984-8.097-0.506
		c9.452,2.188,23.596,2.38,32.388,3.542C192.642,58.467,182.423,58.762,174.587,57.94z M163.96,61.989
		c-17.932-0.105-36.778-1.478-53.641-1.012c-3.647,0.101-6.398-1.43-8.603,1.012c22.654-2.093,43.243,2.909,63.763,0
		c0.303-1.821-0.182-2.854-1.519-3.037C162.858,60.011,164.213,60.397,163.96,61.989z M180.661,67.556
		c0.231-1.581-1.081-1.618-2.53-1.518C177.899,67.619,179.211,67.655,180.661,67.556z M206.469,72.11
		c-8.163-1.791-16.209-6.393-25.303-5.567C190.083,67.582,198.113,72.199,206.469,72.11z M179.648,69.074
		c0.588,0.425,1.357,0.667,2.53,0.506C182.374,68.012,179.742,67.52,179.648,69.074z M104.752,70.086
		c22.689-2.519,51.864,4.719,78.438,2.53C155.717,72.987,127.885,65.766,104.752,70.086z M134.61,78.689
		c16.647,1.595,41.312,2.618,56.678,0.506c2.346,1.437,9.891,2.833,12.146,1.012c-20.054-3.008-47.638,0.664-69.836-2.53
		C133.655,78.294,133.749,78.875,134.61,78.689z"/>
	<path fill-rule="evenodd" clip-rule="evenodd" fill="#DAC793" d="M218.108,20.999c1.514,4.559-0.501,12.646,1.013,17.206
		c2.558-5.121-0.682-12.588,1.012-15.688c1.145,2.215,0.841,3.094,1.013,6.579c2.391-2.933,0.167-3.384,0.506-7.591
		c1.009,2.397,1.441,2.831,1.518,6.579c2.155-1.697-0.115-3.081,0.507-6.579c1.986,0.98,1.575,2.396,2.023,4.048
		c1.252,0.192-0.148-4.807,1.013-3.036c0.941,1.703,1.916,11.173-1.013,16.7c0.792,1.262,1.502,2.245,1.519,3.036
		c-0.987,23.714-2.026,51.234-2.53,80.462c0.092,1.94-0.414,0.184-1.519,0.506c1.774,18.34,0.065,25.359,1.519,44.533
		c-3.668-0.381-7.045-1.052-10.121-2.024c-1.096-4.977-0.23-11.915-0.506-17.711c3.153,0.22,5.21,1.537,8.603,1.518
		c-1.994-6.417-0.051-12.494-1.012-20.748c-1.635,3.711,0.492,14.232-1.519,18.724c-1.942-6.323-1.198-15.333-1.518-23.278
		c-1.39,1.948-0.985,5.333-1.013,8.097c-0.048,4.828,2.243,11.434-1.012,14.676c0.747-7.112-0.367-14.395-0.506-22.266
		c-3.258,5.412,1.778,15.209-1.519,21.76c-0.9-8.13-0.925-20.215,0.506-26.315c0.55,0.125,0.344,1.006,1.013,1.012
		c-0.11-2.822,2.146-5.933,0.506-8.603c-2.294-0.443-0.176,9.918-1.519,5.566c-0.128-27.443,1.729-61.975,2.53-95.644
		C216.598,21.35,217.729,21.955,218.108,20.999z M219.121,42.759c0.218-0.795,1.592-0.433,1.012-2.024c-0.506,0-1.012,0-1.518,0
		C218.701,41.492,218.434,42.603,219.121,42.759z M218.615,121.197c-0.317-1.538,0.647-4.359-0.507-5.061
		C218.042,118.322,217.465,119.473,218.615,121.197z M221.651,125.246c-0.326-2.204,0.66-5.721-0.506-7.085
		C220.463,119.705,218.766,124.735,221.651,125.246z"/>
	<path fill-rule="evenodd" clip-rule="evenodd" fill="#DAC793" d="M234.302,17.457c0.588-0.083,0.9,0.112,1.012,0.506
		c0.557,15.308,1.686,24.541,1.519,41.497c-1.377-1.322-3.404-1.994-5.566-2.53c-1.808,1.904-2.381,5.042-2.024,9.109
		c1.448,2.886,7.289,2.669,7.085-1.518c2.126,19.717,1.27,39.813,2.023,67.305c0.217,7.883,2.042,16.302,1.013,20.748
		c-1.453,6.272-9.546,10.01-12.146,14.676c-2.339-5.084-0.354-14.49-1.012-21.254c1.779,4.967,1.846,11.648,3.036,17.206
		c-1.699-19.134-3.734-42.651-2.024-62.245c0.515,0.329,0.523,1.164,1.519,1.012c1.681-1.071-1.52-1.47-1.013-3.037
		c-0.28-21.832,0.635-38.288,1.519-53.135c0-1.855,0-3.711,0-5.566c1.148,0.538,0.192,3.181,0.506,4.554
		c0.456,2.789-0.008,3.975,0.506,6.579c1.896-9.827-0.717-19.523-1.012-28.845C230.546,20.448,233.428,19.957,234.302,17.457z
		 M228.736,75.146c0.929-1.694-0.267,2.907,2.023,1.518c-0.263-1.93-1.116-3.27-2.023-4.554
		C228.339,72.461,227.609,74.934,228.736,75.146z M237.338,138.909c0.612-13.189-5.134-32.003-5.061-49.593
		c-0.696,0.022-1.111-0.238-1.519-0.506C232.746,106.158,234.631,121.652,237.338,138.909z M227.723,108.04
		c0.504,11.015,2.785,17.728,3.036,28.339c0.875,1.481,1.258,5.443,1.519,10.121c0.126,2.269-0.953,7.136,1.012,7.084
		c0.56-13.355-4.308-29.048-4.048-47.063c-0.506,0-1.013,0-1.519,0C227.723,107.028,227.723,107.534,227.723,108.04z"/>
	<path fill-rule="evenodd" clip-rule="evenodd" d="M91.089,135.873c-2.342-3.761-1.944-13.22-0.506-17.712
		C91.765,127.413,89.817,127.689,91.089,135.873z"/>
	<path fill-rule="evenodd" clip-rule="evenodd" fill="#DAC793" d="M195.842,180.405c-0.539,1.148-3.182,0.192-4.555,0.506
		c0.119,1.399,2.855,0.182,2.53,2.024c-1.181,0-2.361,0-3.542,0c0.141,1.04,1.352,1.01,2.023,1.518
		c-0.374,1.776-2.525-0.237-4.048,1.012c0.429,0.752,1.629,0.732,2.53,1.012c-0.488,1.03-1.943,1.093-3.543,1.012
		c0.571,0.609,1.444,0.917,1.013,2.53c-1.777,0.244-1.665,0.585-3.036,0c-0.626,1.637,1.637,0.387,1.012,2.024
		c-0.735,0.783-2.591,0.446-4.049,0.506c-0.786,1.799,1.719,0.306,1.519,1.519c-0.31,2.073-1.391,1.014-3.036,1.012
		c-0.349,1.361,1.046,0.978,1.518,1.519c-0.488,1.03-1.943,1.093-3.542,1.012c-0.625,1.638,1.638,0.387,1.012,2.024
		c-1.109,0.577-2.067,1.306-4.048,1.012c-0.15,1.331,1.963,0.398,1.518,2.024c-0.598,0.583-1.788,0.573-3.036,0.506
		c-0.207,1.219,0.925,1.1,0.506,2.53c-41.175-6.095-78.224-16.314-117.91-23.785c9.303-8.409,19.245-16.179,29.351-23.784
		C120.485,165.708,160.183,172.357,195.842,180.405z M91.595,166.742c-0.028-0.532-0.648-0.398-0.506,0.506
		c0.112,0.394,0.424,0.588,1.012,0.506c8.826,2.3,17.719,3.789,26.315,6.073c8.483,2.253,16.218,6.517,24.291,7.084
		C127.429,174.429,109.806,170.292,91.595,166.742z M110.825,179.393c0.95,0.965-0.3,0.916,0,2.53
		c1.646-0.041,2.727-0.647,3.037-2.024c-10-7.038-23.669-10.405-38.46-12.651C87.004,171.501,101.618,172.745,110.825,179.393z
		 M72.365,172.814c2.024-0.85,5.036,1.588,5.061-0.506C75.893,171.676,72.771,170.64,72.365,172.814z M69.329,176.357
		c1.258,3.296,7.032,2.077,10.627,3.036c0.061-1.457,2.775-0.261,2.53-2.024c-2.306,0.619-1.985-1.388-4.048-1.012
		c-0.2,0.871,0.751,1.297,0,1.518c-2.21,0.018-4.572,0.187-5.566-1.012c0.795-0.048,1.754,0.068,1.518-1.012
		C72.403,174.887,70.998,176.367,69.329,176.357z M94.125,180.405c0.675,0,1.35,0,2.024,0c-0.004-1.515-0.91-2.127-2.024-2.53
		C94.125,178.718,94.125,179.562,94.125,180.405z M173.07,183.948c-0.479-3.744-6.549-4.577-9.615-4.048
		C166.925,180.982,170.217,182.245,173.07,183.948z M72.365,180.405c-0.197,0.722-0.607,0.854,0,1.518
		c7.91,2.213,18.832,4.108,28.845,2.53c-6.988-1.626-14.631,0.23-20.749-2.53c3.791-0.371,10.783,2.852,12.651-0.506
		C85.713,181.871,78.113,179.928,72.365,180.405z M170.034,185.972c1.354,1.028,1.924,0.48,3.036,1.012
		c0.347-1.697-0.85-1.85-2.024-2.024C171.04,185.628,170.159,185.422,170.034,185.972z M140.682,189.008
		c1.837,1.071,5.862,0.652,6.579-1.012C145.207,187.663,142.208,187.958,140.682,189.008z M133.091,189.514
		c7.364,5.289,22.413,5.587,31.882,7.085c-8.364-3.635-25.938-2.24-28.846-8.097C134.851,189.873,135.932,190.083,133.091,189.514z
		 M179.648,189.514c-1.477-0.547-2.915-1.133-5.061-1.012C174.076,190.887,179.876,190.562,179.648,189.514z M166.997,199.129
		c0.675,0,1.35,0,2.024,0c-0.034-2.262-1.156-0.645-2.024-1.519C166.997,198.117,166.997,198.623,166.997,199.129z"/>
	<path fill-rule="evenodd" clip-rule="evenodd" d="M236.833,179.899c-2.016,1.042-4.323,0.157-6.579,0
		c-1.824-4.669,1.228-14.885,7.085-9.109C238.639,173.724,237.414,177.292,236.833,179.899z M235.314,177.369
		c1.123-1.398,0.965-2.571,0.506-4.555c-0.506,0-1.012,0-1.518,0C234.52,174.452,233.636,177.191,235.314,177.369z"/>
	<path fill-rule="evenodd" clip-rule="evenodd" fill="#DAC793" d="M239.363,187.996c0.43-0.093,0.478,0.197,0.506,0.506
		c2.003,16.41,1.022,37.278,1.519,57.69c0.394,16.207,1.6,33.896,1.518,52.629c-3.957,5.826-7.791,11.776-12.146,17.206
		c-2.027-37.97-3.011-74.621-3.036-113.862C230.488,196.327,235.733,192.969,239.363,187.996z M237.338,240.119
		c-1.086-12.631-4.68-24.627-5.566-33.399C231.731,218.775,234.874,229.222,237.338,240.119z M240.375,237.083
		c0.087-5.147-2.685-7.437-2.024-13.157c-0.696,0.021-1.111-0.238-1.518-0.506C237.53,228.457,238.254,233.469,240.375,237.083z
		 M232.784,254.289c0.024-3.739,3.958,0.13,5.566-2.024c0.761-4.38,1.531-7.069-1.012-10.627c-2.762-0.231-5.103-0.042-5.566,2.024
		c-1.483-4.928,0.008-12.828-2.53-16.7C230.352,236.363,229.451,246.334,232.784,254.289z M231.772,266.435
		c-0.939-2.366,0.154-3.777-1.519-5.567c-0.514,1.663-0.712,6.956,2.024,8.098c0.337-2.024,1.043-3.681,1.518-5.567
		c1.64,6.748,1.119,16.14,2.024,24.797c1.029-11.321,0.235-22.704-2.53-32.388c-1.446,2.401,1.657,4.145,0,7.085
		c-0.247-2.451-0.812-4.586-3.036-5.061C229.89,259.572,234.381,262.546,231.772,266.435z M238.856,289.206
		c-0.191,2.342-1.753,6.316,1.013,8.098c0.081-14.172,1.588-27.797-1.519-39.979C238.622,270.812,239.76,278.154,238.856,289.206z
		 M233.795,294.267c1.779-0.414,1.361-3.024,1.519-5.061c-0.646-0.027-0.701-0.648-1.519-0.506
		C233.795,290.556,233.795,292.411,233.795,294.267z M231.772,299.327c1.381-0.812,2.07-2.314,2.023-4.554
		c-0.696,0.021-1.11-0.238-1.518-0.507C232.577,296.422,231.914,297.614,231.772,299.327z"/>
	<path fill-rule="evenodd" clip-rule="evenodd" fill="#DAC793" d="M171.551,207.732c-0.062,1.118-2.146,0.215-3.036,0.506
		c-0.785,2.135,2.81-0.111,2.024,2.024c-0.652,0.697-2.198,0.501-3.543,0.506c-0.786,1.799,1.719,0.306,1.519,1.518
		c-0.368,2.28-1.577,0.786-3.542,1.013c-0.349,1.36,1.046,0.978,1.518,1.518c-0.04,1.815-3.309,0.402-4.048,1.519
		c0.204,0.977,2.317,0.044,1.518,2.024c-1.35,0-2.698,0-4.048,0c0.074,1.106,1.274,1.086,2.53,1.012
		c-0.467,3.016-3.186,0.887-5.061,2.024c-0.25,1.599,2.511,0.188,2.024,2.024c-1.182,0-2.362,0-3.543,0
		c-0.154,1.335,1.057,1.305,2.024,1.518c-1.285,1.703-2.625,0.342-4.555,1.013c-0.492,1.842,2.465,0.233,1.519,2.53
		c-1.174,0.161-1.943-0.082-2.53-0.506c-1.145,0.205,0.267,2.966-2.024,2.023c-0.787,1.799,1.719,0.306,1.519,1.519
		c0.479,1.829-1.993,0.706-3.037,1.012c-0.296,2.152,3.333,0.379,3.037,2.53c-1.87,0.323-5.042-0.655-6.073,0.506
		c1.307,1.393,5.952-0.554,6.073,2.024c-2.334,1.648-5.331-0.515-7.591-1.012c-39.348-8.646-81.377-17.313-121.453-26.314
		c9.576-10.161,21.253-18.22,31.881-27.327C93.662,191.159,132.769,199.283,171.551,207.732z M116.898,208.744
		c6.299,2.354,13.896,4.703,18.218,8.097c1.886,1.48,2.685,4.349,5.061,5.061c-2.194-7.479-12.702-10.08-21.76-13.663
		c-17.814-7.046-41.561-15.322-59.714-19.23C77.404,194.84,98.921,202.025,116.898,208.744z M106.271,217.347
		c-0.081,1.937-0.302,4.014,1.518,4.049c1.252-1.312-0.492-2.481,0-4.555c-18.652-9.519-41.823-17.217-63.257-22.266
		C65.321,201.957,88.059,207.389,106.271,217.347z M56.678,206.214c-4.752-4.525-14.661-3.895-21.76-6.073
		C40.307,204.029,50.598,203.016,56.678,206.214z M38.966,207.226C35.03,205.13,35.321,209.213,38.966,207.226L38.966,207.226z
		 M39.472,207.226c-0.003,0.139,6.156,1.159,6.072,1.012C44.973,205.853,39.486,206.449,39.472,207.226z M62.244,207.226
		c-0.225-0.835-3.823-0.835-4.048,0C59.045,207.43,62.73,208.908,62.244,207.226z M47.569,211.78
		c1.283-1.235-1.067-1.078-0.506-3.036c-0.506,0-1.012,0-1.518,0C46.148,209.827,46.5,211.163,47.569,211.78z M63.762,209.756
		c2.404-0.411,4.555,3.204,5.567,1.013C67.101,210.698,65.521,207.296,63.762,209.756z M35.93,211.274
		c1.751,0.61,3.797,0.926,6.073,1.012C41.931,210.239,36.056,210.073,35.93,211.274z M70.847,216.335c0.675,0,1.35,0,2.024,0
		c-0.183-3.108-1.449-2.01,0-3.542c-0.132-0.712-1.11-0.577-1.519-1.013C71.702,213.815,70.868,214.669,70.847,216.335z
		 M56.171,215.829c0.085-1.098-1.795-0.229-2.53-0.506C53.264,216.554,56.918,217.387,56.171,215.829z M68.317,216.841
		c0.073-1.423-1.239-1.459-2.53-1.518C65.993,217.5,67.518,215.995,68.317,216.841z M85.017,221.396
		c-0.674-2.025-3.892-1.506-6.073-2.024C79.371,221.643,82.946,220.767,85.017,221.396z M140.176,224.432
		c0.152-1.333-0.701-1.661-2.024-1.518C137.644,224.603,138.854,224.573,140.176,224.432z M104.752,226.962
		c0.346-1.566-2.899-2.107-3.542-1.012C102.335,226.344,103.184,227.013,104.752,226.962z M133.091,227.468
		c-0.958-1.066-2.487-1.561-4.048-2.023C128.694,227.506,131.77,228.756,133.091,227.468z M114.368,228.986
		c-0.04-1.647-2.293-1.08-3.542-1.519C110.787,229.193,112.7,228.967,114.368,228.986z M122.971,229.492
		c-1.693-0.838-3.271-1.79-6.073-1.518C117.398,229.684,121.663,230.271,122.971,229.492z M128.537,230.504
		c0.652,0.697,2.198,0.501,3.543,0.507C132.135,229.47,128.704,228.835,128.537,230.504z"/>
	<path fill-rule="evenodd" clip-rule="evenodd" d="M44.532,194.575c21.434,5.049,44.605,12.748,63.257,22.266
		c-0.492,2.073,1.252,3.242,0,4.555c-1.82-0.035-1.599-2.112-1.518-4.049C88.059,207.389,65.321,201.957,44.532,194.575z"/>
	<path fill-rule="evenodd" clip-rule="evenodd" d="M163.96,246.192c-2.212,0.317-2.937,2.124-6.072,1.518
		C149.345,239.868,167.063,230.005,163.96,246.192z M158.394,245.18c3.028-0.511,2.047-3.956,0.506-5.566
		C157.503,241.122,157.085,243.338,158.394,245.18z"/>
	<path fill-rule="evenodd" clip-rule="evenodd" fill="#DAC793" d="M210.517,241.132c-4.666,1.91-9.506-2.902-13.663-1.519
		c3.154,2.412,9.514,1.619,12.651,4.049c-1.763,2.903-5.123-0.797-7.591-0.507c1.65,3.411,7.462,2.66,11.133,4.049
		c-6.431,0.524-13.016-3.176-20.241-3.542C193.87,235.284,204.978,238.954,210.517,241.132z"/>
	<path fill-rule="evenodd" clip-rule="evenodd" d="M229.242,226.962c2.538,3.872,1.047,11.772,2.53,16.7
		c0.464-2.066,2.805-2.256,5.566-2.024c2.543,3.558,1.772,6.247,1.012,10.627c-1.608,2.154-5.542-1.715-5.566,2.024
		C229.451,246.334,230.352,236.363,229.242,226.962z M236.833,250.24c0.62-2.05,1.275-3.637,0-5.566
		C235.544,245.988,234.491,249.325,236.833,250.24z M233.29,249.229c0.831,0.083,0.831-3.119,0-3.036
		C232.434,246.189,231.241,249.484,233.29,249.229z"/>
	<path fill-rule="evenodd" clip-rule="evenodd" fill="#DAC793" d="M17.711,201.659c1.829,10.528,1.138,18.183,2.024,30.363
		c7.173-1.936,8.389-9.829,16.7-10.627c1.707,1.446,0.948,7.662,1.012,9.108c-5.932-2.394-10.947,3.427-15.182,7.085
		c0.107,6.462,0.574,6.871,0.506,13.664c3.819,0.828,10.655,2.313,15.688,3.542c0.158,5.129,0.792,13.871,1.012,21.254
		c-3.078,0.042-5.354-0.719-7.591-1.518c-7.453,2.82-10.657,9.681-8.097,20.242c4.765,2.319,11.351,2.818,16.7,4.554
		c-1.668,3.196-0.197,7.402,0,11.64c0.333,7.156,1.707,17.823,0.506,22.267c-1.021,3.781-7.113,8.429-9.615,11.133
		c-3.645,3.939-7.076,6.883-10.121,10.627c-2.688-15.975-0.767-36.222-2.024-54.147c0.515,0.329,0.523,1.163,1.518,1.012
		c-1.1-2.824-3.282-4.031-1.012-7.084c-2.853-8.137-0.915-21.775-1.518-32.388c-1.08-18.989-2.376-38.396-1.518-59.208
		C16.421,202.056,17.666,202.457,17.711,201.659z M23.278,275.543c-0.778-6.644-0.675-14.169-2.53-19.736
		C21.065,260.927,20.118,271.59,23.278,275.543z M21.254,292.749c0.697-0.022,1.111,0.238,1.518,0.506
		c0.272-1.79-0.429-2.607-1.518-3.036C21.254,291.062,21.254,291.905,21.254,292.749z M28.339,338.294
		c2.593-4.507-0.537-11.903,0.506-18.219c-2.362-3.343-1.362-13.144-4.554-17.205C25.818,313.106,28.687,324.684,28.339,338.294z
		 M22.772,346.391c2.474-11.326,2.691-31.05-1.518-40.484C23.701,317.604,23.091,332.882,22.772,346.391z M35.423,333.739
		c2.152-4.688-0.24-13.127-2.024-17.206C33.845,322.87,34.976,326.726,35.423,333.739z M28.845,345.378
		c0.24-1.589-0.631-2.067-1.518-2.53C27.339,344.185,26.854,346.019,28.845,345.378z"/>
	<path fill-rule="evenodd" clip-rule="evenodd" fill="#DAC793" d="M24.291,238.602c41.17,9.098,82.667,17.868,122.971,27.833
		c-16.214-1.853-32.611-7.861-50.1-10.121c15.341,5.575,34.621,7.213,50.1,12.651c-10.68-0.659-21.895-5.068-33.399-6.579
		c9.22,5.118,24.345,4.331,33.399,9.615c-7.652-0.951-14.577-2.629-21.76-4.049c4.966,4.479,16.387,2.505,21.76,6.579
		c-3.719,1.093-7.928-1.449-12.146-1.519c3.392,4.03,13.321,1.522,16.7,5.566c-11.41-1.41-20.692-4.948-31.882-6.578
		c-0.204-0.977-2.317-0.044-1.518-2.024c-1.911-0.431-2.375,1.681-3.542,0.506c-30.054-6.381-61.417-14.153-90.077-20.242
		C23.818,247.111,24.315,241.163,24.291,238.602z"/>
	<path fill-rule="evenodd" clip-rule="evenodd" d="M161.936,256.313c4.59,3.798,3.968,9.56-2.023,11.639
		C153.617,266.308,155.615,256.357,161.936,256.313z M158.9,265.422c2.468,0.106,2.035-2.688,2.024-5.061
		C157.636,257.97,156.937,264.067,158.9,265.422z"/>
	<path fill-rule="evenodd" clip-rule="evenodd" d="M180.661,266.435c2.298,2.018,2.055,9.054,0,11.133
		c-2.37-0.16-3.979-1.082-6.073-1.519C174.473,270.706,174.339,265.343,180.661,266.435z M179.648,275.037
		c0.537-1.176,1.945-4.094,0.507-5.566C178.752,269.78,178.717,274.072,179.648,275.037z"/>
	<path fill-rule="evenodd" clip-rule="evenodd" fill="#DAC793" d="M25.302,283.134c40.842,10.269,83.623,18.601,123.477,29.857
		c-17.681-0.374-32.213-8.267-49.593-10.627c16.152,5.776,34.019,9.839,52.63,13.157c-4.188,2.156-12.694-1.319-17.712-1.013
		c3.678,2.226,9.474,2.335,14.675,3.036c-3.649,2.66-9.524,0.787-13.663,0c-8.624-1.64-17.798-4.543-25.809-6.072
		c12.979,5.576,29.802,7.31,43.015,12.651c-4.599,0.882-9.642-2.162-14.676-2.53c-1.991,0.811-0.176-2.186-1.519-2.024
		c-2.003-0.653-1.033,1.666-3.036,1.013c-35.634-9.236-72.118-17.623-107.789-26.821C24.954,289.943,24.355,287.055,25.302,283.134z
		 M125.501,312.991c-8.331-2.297-16.267-4.987-25.303-6.579C107.331,309.271,118.561,313.299,125.501,312.991z M131.574,314.003
		c-0.588-0.425-1.357-0.667-2.53-0.506C128.974,314.938,131.607,315.431,131.574,314.003z"/>
	<path fill-rule="evenodd" clip-rule="evenodd" d="M171.551,291.23c1.566,8.233,1.39,19.63,4.049,27.327
		c1.176-1.354,1.459-3.602,3.036-4.555c6.779-1.271,5.676,8.049,3.036,10.627c-2.355,0.163-3.377-1.009-5.566-1.012
		c3.769,12.566,5.131,28.405,7.591,43.521c-2.666-0.761-1.221-3.762-1.519-5.566c-2.108-12.804-4.83-28.091-7.591-43.015
		C172.976,309.842,170.626,300.226,171.551,291.23z M181.167,322.1c0.685-0.862,1.821-3.875,0.506-5.061
		c-0.106,0.612-0.562,0.312-1.012,0C180.978,318.577,180.012,321.398,181.167,322.1z"/>
</g>
</svg>
