<?xml version="1.0" encoding="UTF-8" standalone="no"?>
<!-- Created with Inkscape (http://www.inkscape.org/) -->
<svg
   xmlns:svg="http://www.w3.org/2000/svg"
   xmlns="http://www.w3.org/2000/svg"
   version="1.0"
   width="618.95697"
   height="500.07101"
   viewBox="-108.978 -100.527 618.957 500.071"
   id="Layer_1"
   xml:space="preserve"><defs
   id="defs60" />
<polygon
   points="163.719,150.616 154.817,143.933 154.817,90.437 164.472,97.122 163.719,150.616 "
   id="polygon3"
   style="fill:#f1cd52;stroke:#e3bb45;stroke-width:3;stroke-linecap:round;stroke-linejoin:round" />
<title
   id="title5">peg d.aoi</title>
<polygon
   points="305.639,29.509 301.175,29.509 297.461,28.772 293.009,30.25 287.801,31.738 283.347,33.976 278.887,36.941 275.923,40.656 272.938,43.628 272.202,47.34 270.714,52.545 272.202,57.743 274.424,62.95 110.969,181.091 104.277,180.339 97.599,178.854 88.681,181.091 79.761,183.308 71.589,187.772 63.416,191.489 56.733,197.427 50.039,204.112 45.586,210.806 41.874,218.239 41.874,224.173 41.874,230.122 -30.201,283.619 -92.616,286.599 -107.478,273.22 136.975,102.327 146.628,109.751 164.472,97.122 154.817,90.437 427.494,-99.027 437.154,-93.829 305.639,29.509 "
   id="polygon7"
   style="fill:#eec446;stroke:#e3bb45;stroke-width:3;stroke-linecap:round;stroke-linejoin:round" />
<polygon
   points="46.319,282.877 46.319,276.939 46.319,270.985 50.039,263.559 53.75,256.876 60.448,250.93 67.131,244.981 74.557,240.525 82.739,236.817 91.657,234.577 99.825,232.361 105.771,233.095 112.453,233.841 110.969,181.091 104.277,180.339 97.599,178.854 88.681,181.091 79.761,183.308 71.589,187.772 63.416,191.489 56.733,197.427 50.039,204.112 45.586,210.806 41.874,218.239 41.874,224.173 41.874,230.122 46.319,282.877 "
   id="polygon9"
   style="fill:#d8b345;stroke:#e3bb45;stroke-width:3;stroke-linecap:round;stroke-linejoin:round" />
<polyline
   fill="#D8B345"
   stroke="#E3BB45"
   stroke-width="3"
   stroke-linecap="round"
   stroke-linejoin="round"
   points="  269.976,116.447 268.49,111.247 267.004,106.04 267.74,101.58 269.225,96.383 271.458,93.413 274.424,89.697 278.887,87.464   283.347,84.496 287.801,83.011 292.265,82.267 295.983,82.267 300.443,82.267 305.639,29.509 301.175,29.509 297.461,28.772   293.009,30.25 287.801,31.738 283.347,33.976 278.887,36.941 275.923,40.656 272.938,43.628 272.202,47.34 270.714,52.545   272.202,57.743 274.424,62.95 "
   id="polyline11"
   style="fill:#d8b345;stroke:#e3bb45;stroke-width:3;stroke-linecap:round;stroke-linejoin:round" />
<polygon
   points="-22.767,334.886 -82.217,338.603 -92.616,286.599 -30.201,283.619 -22.767,334.886 "
   id="polygon13"
   style="fill:#d8b345;stroke:#e3bb45;stroke-width:3;stroke-linecap:round;stroke-linejoin:round" />
<polygon
   points="-82.217,338.603 -97.074,325.232 -107.478,273.22 -92.616,286.599 -82.217,338.603 "
   id="polygon15"
   style="fill:#f1cd52;stroke:#e3bb45;stroke-width:3;stroke-linecap:round;stroke-linejoin:round" />
<polygon
   points="46.667,283.329 -22.767,334.886 -30.201,283.619 41.874,230.122 46.667,283.329 "
   id="polygon17"
   style="fill:#d8b345;stroke:#e3bb45;stroke-width:3;stroke-linecap:round;stroke-linejoin:round" />
<polygon
   points="269.976,116.447 112.453,233.841 110.969,181.091 274.424,62.95 269.976,116.447 "
   id="polygon19"
   style="fill:#d8b345;stroke:#e3bb45;stroke-width:3;stroke-linecap:round;stroke-linejoin:round" />
<polygon
   points="427.494,-40.333 300.443,82.267 305.639,29.509 437.154,-93.829 427.494,-40.333 "
   id="polygon21"
   style="fill:#d8b345;stroke:#e3bb45;stroke-width:3;stroke-linecap:round;stroke-linejoin:round" />
<polygon
   points="-18.318,398.044 -33.914,383.929 -42.094,332.662 -25.743,346.771 -18.318,398.044 "
   id="polygon23"
   style="fill:#f1cd52;stroke:#e3bb45;stroke-width:3;stroke-linecap:round;stroke-linejoin:round" />
<polygon
   points="224.651,194.452 206.819,207.829 209.049,155.084 226.874,141.71 224.651,194.452 "
   id="polygon25"
   style="fill:#d8b345;stroke:#e3bb45;stroke-width:3;stroke-linecap:round;stroke-linejoin:round" />
<polygon
   points="234.307,201.887 224.651,194.452 226.874,141.71 237.281,148.393 234.307,201.887 "
   id="polygon27"
   style="fill:#f1cd52;stroke:#e3bb45;stroke-width:3;stroke-linecap:round;stroke-linejoin:round" />
<polygon
   points="217.221,215.26 -18.318,398.044 -25.743,346.771 219.444,162.509 217.221,215.26 "
   id="polygon29"
   style="fill:#d8b345;stroke:#e3bb45;stroke-width:3;stroke-linecap:round;stroke-linejoin:round" />
<g
   id="g31">
	<g
   id="g33">
		<polygon
   points="294.494,27.279 301.928,28.772 308.608,31.738 313.071,35.454 314.56,40.656 313.808,45.118 310.095,48.825 304.149,51.802 296.724,52.545 289.289,51.802 283.347,48.825 278.887,45.118 276.656,40.656 278.142,35.454 281.858,30.995 287.801,28.772 294.494,27.279 "
   id="polygon35"
   style="fill:none;stroke:#000000;stroke-width:7;stroke-linecap:round;stroke-linejoin:round" />
		<polygon
   points="293.752,35.638 301.09,37.038 307.773,40.005 312.142,43.72 313.723,48.923 312.973,53.477 309.26,57.185 303.313,60.161 295.981,60.904 288.546,60.161 282.605,57.185 278.143,53.477 276.007,48.923 277.4,43.72 281.115,39.354 287.058,37.038 293.752,35.638 "
   id="polygon37"
   style="fill:none;stroke:#000000;stroke-width:7.375;stroke-linecap:round;stroke-linejoin:round" />
		<polygon
   points="293.008,43.996 300.253,45.303 306.938,48.271 311.213,51.986 312.885,57.189 312.137,61.835 308.425,65.544 302.477,68.52 295.237,69.263 287.804,68.52 281.863,65.544 277.4,61.835 275.357,57.189 276.657,51.986 280.374,47.714 286.315,45.303 293.008,43.996 "
   id="polygon39"
   style="fill:none;stroke:#000000;stroke-width:7.75;stroke-linecap:round;stroke-linejoin:round" />
		<polygon
   points="292.266,52.355 299.416,53.568 306.103,56.538 310.283,60.251 312.048,65.457 311.303,70.193 307.59,73.902 301.641,76.878 294.493,77.623 287.061,76.878 281.12,73.902 276.656,70.193 274.707,65.457 275.914,60.251 279.632,56.073 285.573,53.568 292.266,52.355 "
   id="polygon41"
   style="fill:none;stroke:#000000;stroke-width:8.125;stroke-linecap:round;stroke-linejoin:round" />
		<polygon
   points="291.523,60.713 298.578,61.833 305.268,64.804 309.355,68.517 311.211,73.723 310.467,78.552 306.754,82.262 300.805,85.237 293.75,85.981 286.319,85.237 280.378,82.262 275.912,78.552 274.057,73.723 275.172,68.517 278.891,64.433 284.829,61.833 291.523,60.713 "
   id="polygon43"
   style="fill:none;stroke:#000000;stroke-width:8.5;stroke-linecap:round;stroke-linejoin:round" />
		<polygon
   points="290.78,69.072 297.741,70.099 304.433,73.071 308.426,76.783 310.373,81.99 309.632,86.91 305.92,90.621 299.969,93.596 293.006,94.341 285.575,93.596 279.636,90.621 275.168,86.91 273.407,81.99 274.43,76.783 278.149,72.792 284.086,70.099 290.78,69.072 "
   id="polygon45"
   style="fill:none;stroke:#000000;stroke-width:8.875;stroke-linecap:round;stroke-linejoin:round" />
		<polygon
   points="290.037,77.431 296.905,78.364 303.598,81.337 307.496,85.049 309.536,90.257 308.797,95.269 305.084,98.98 299.133,101.954 292.263,102.7 284.832,101.954 278.894,98.98 274.425,95.269 272.758,90.257 273.688,85.049 277.406,81.151 283.344,78.364 290.037,77.431 "
   id="polygon47"
   style="fill:none;stroke:#000000;stroke-width:9.25;stroke-linecap:round;stroke-linejoin:round" />
		<polygon
   points="289.294,85.789 296.067,86.629 302.763,89.604 306.568,93.314 308.698,98.523 307.962,103.627 304.249,107.339 298.297,110.313 291.519,111.059 284.09,110.313 278.152,107.339 273.682,103.627 272.108,98.523 272.945,93.314 276.665,89.511 282.601,86.629 289.294,85.789 "
   id="polygon49"
   style="fill:none;stroke:#000000;stroke-width:9.625;stroke-linecap:round;stroke-linejoin:round" />
		<polygon
   points="281.858,94.895 288.551,94.147 295.23,94.895 301.928,97.87 305.639,101.58 307.862,106.79 307.127,111.985 303.414,115.698 297.461,118.672 290.776,119.418 283.347,118.672 277.409,115.698 272.938,111.985 271.458,106.79 272.202,101.58 275.923,97.87 281.858,94.895 "
   id="polygon51"
   style="fill:none;stroke:#000000;stroke-width:10;stroke-linecap:round;stroke-linejoin:round" />
	</g>
</g>
<polygon
   points="109.48,179.604 110.226,184.798 111.711,190.001 107.991,196.69 105.022,203.372 99.091,209.318 93.139,215.26 84.957,220.464 76.047,224.928 66.387,227.896 56.733,230.87 49.301,230.122 41.124,229.384 -31.688,282.13 -42.094,332.662 -25.743,346.771 219.444,162.509 209.049,155.084 226.874,141.71 237.281,148.393 508.479,-54.45 498.823,-59.65 320.504,39.169 321.24,42.144 321.987,45.118 320.504,47.34 319.014,51.061 315.293,54.028 311.582,57.743 307.127,59.976 301.928,61.462 295.23,62.95 287.801,63.692 280.373,62.95 272.938,62.205 109.48,179.604 "
   id="polygon53"
   style="fill:#eec446;stroke:#e3bb45;stroke-width:3;stroke-linecap:round;stroke-linejoin:round" />
<polygon
   points="496.592,-0.951 234.307,201.887 237.281,148.393 508.479,-54.45 496.592,-0.951 "
   id="polygon55"
   style="fill:#d8b345;stroke:#e3bb45;stroke-width:3;stroke-linecap:round;stroke-linejoin:round" />
<path
   d="M 221.635,189.338 C 221.635,189.338 223.354,135.405 223.495,131.819 C 223.636,128.233 225.057,122.713 225.96,121.23 C 226.863,119.747 278.142,35.454 278.142,35.454"
   id="path57"
   style="fill:none;stroke:#000000;stroke-width:7;stroke-linecap:round;stroke-linejoin:round" />
</svg>