<?xml version="1.0" encoding="UTF-8" standalone="no"?>
<!-- Created with Inkscape (http://www.inkscape.org/) -->

<svg
   xmlns:dc="http://purl.org/dc/elements/1.1/"
   xmlns:cc="http://creativecommons.org/ns#"
   xmlns:rdf="http://www.w3.org/1999/02/22-rdf-syntax-ns#"
   xmlns:svg="http://www.w3.org/2000/svg"
   xmlns="http://www.w3.org/2000/svg"
   xmlns:sodipodi="http://sodipodi.sourceforge.net/DTD/sodipodi-0.dtd"
   xmlns:inkscape="http://www.inkscape.org/namespaces/inkscape"
   width="1052.3622"
   height="744.09448"
   id="svg2"
   inkscape:label="Pozadí"
   version="1.1"
   inkscape:version="0.48.2 r9819"
   sodipodi:docname="Nový dokument 7">
  <defs
     id="defs4326" />
  <sodipodi:namedview
     id="base"
     pagecolor="#ffffff"
     bordercolor="#666666"
     borderopacity="1.0"
     inkscape:pageopacity="0.0"
     inkscape:pageshadow="2"
     inkscape:zoom="0.49497475"
     inkscape:cx="439.87164"
     inkscape:cy="422.75549"
     inkscape:document-units="px"
     inkscape:current-layer="layer1"
     showgrid="false"
     inkscape:window-width="1680"
     inkscape:window-height="981"
     inkscape:window-x="-2"
     inkscape:window-y="-3"
     inkscape:window-maximized="1" />
  <metadata
     id="metadata4329">
    <rdf:RDF>
      <cc:Work
         rdf:about="">
        <dc:format>image/svg+xml</dc:format>
        <dc:type
           rdf:resource="http://purl.org/dc/dcmitype/StillImage" />
        <dc:title></dc:title>
      </cc:Work>
    </rdf:RDF>
  </metadata>
  <g
     inkscape:label="Vrstva 1"
     inkscape:groupmode="layer"
     id="layer1"
     transform="translate(0,-308.2677)">
    <g
       id="g4986"
       transform="matrix(2.0263588,0,0,2.0263588,-858.35987,-941.17913)">
      <path
         inkscape:connector-curvature="0"
         id="path4934-6"
         d="m 808.14149,755.64378 c -4.27081,-4.29983 -9.45102,-7.53078 -16.27592,-10.15146 -2.42364,-0.93065 -4.41238,-1.83457 -4.41942,-2.0087 -0.007,-0.17414 1.18046,-0.81929 2.63886,-1.43368 6.81002,-2.86889 21.20601,-11.42228 27.14785,-16.12993 13.79919,-10.93291 22.95904,-23.43733 28.9852,-39.56866 3.3167,-8.8784 5.08084,-17.72721 5.77738,-28.97893 l 0.34022,-5.49607 2.7246,6.56599 c 3.50154,8.43835 7.42452,20.12198 8.44749,25.15873 0.47679,2.34758 0.7283,5.55373 0.62101,7.91638 -0.1527,3.36255 -0.3676,4.1702 -1.4028,5.27211 -1.96365,2.09022 -6.06079,1.50359 -8.9315,-1.27882 -1.46013,-1.41521 -3.76552,-2.10008 -4.52219,-1.34341 -0.57555,0.57555 0.46576,1.77024 2.52207,2.89354 1.50289,0.82099 2.85323,2.19203 4.21139,4.27594 2.34857,3.60356 3.29286,5.34031 2.9036,5.34031 -0.15422,0 -2.26459,-0.99036 -4.68972,-2.20081 -6.70619,-3.34723 -7.59292,-2.35709 -2.30487,2.57367 1.8585,1.73293 3.2468,3.28309 3.08509,3.44479 -0.1617,0.1617 -1.73643,-0.26961 -3.49939,-0.95846 -5.37754,-2.10121 -5.47823,-2.11181 -5.47823,-0.57666 0,0.95418 0.89268,2.27007 3.0979,4.56658 l 3.0979,3.22614 -1.4564,0.56116 c -0.80102,0.30864 -2.30872,0.44982 -3.35044,0.31374 -1.04172,-0.13608 -1.92813,-0.0418 -1.9698,0.20959 -0.23112,1.39422 -0.063,1.70103 1.08024,1.97091 0.69136,0.1632 1.77383,1.06364 2.40549,2.00096 l 1.14848,1.70423 -1.64788,1.41054 c -1.97449,1.69012 -2.69737,1.78354 -3.41564,0.44144 -1.0114,-1.88981 -1.62906,-1.1486 -1.26269,1.51523 0.19103,1.38896 0.19872,2.52538 0.0171,2.52538 -0.18163,0 -1.36475,-0.78991 -2.62916,-1.75536 -3.70755,-2.83092 -4.23889,-2.14475 -6.24809,8.06882 -0.60111,3.05571 -1.17647,5.64385 -1.27856,5.75143 -0.1021,0.10757 -0.89915,-0.56823 -1.77123,-1.5018 l -1.58559,-1.69738 -0.95465,1.17894 c -0.70382,0.86919 -0.95514,1.99364 -0.95653,4.27971 l -0.002,3.10078 -1.06655,-1.76777 c -0.58659,-0.97227 -1.17254,-1.88105 -1.30209,-2.01951 -0.52705,-0.56327 -1.66857,1.82719 -1.67376,3.505 -0.007,2.37401 -0.55123,5.58718 -0.94441,5.57932 -0.17199,-0.004 -0.8262,-0.79893 -1.45378,-1.76776 -0.62759,-0.96884 -1.34981,-1.76152 -1.60493,-1.76152 -0.25513,0 -1.25992,1.30689 -2.23288,2.90419 -0.97296,1.5973 -2.60317,3.69968 -3.62269,4.67196 -1.01951,0.97227 -2.00137,2.10869 -2.18189,2.52538 -0.24531,0.56623 -1.28516,-0.20582 -4.1163,-3.0562 z"
         style="fill:#512c03;fill-opacity:1;stroke:none" />
      <path
         sodipodi:nodetypes="csssssssssc"
         inkscape:connector-curvature="0"
         id="path4360"
         d="m 617.03189,814.23903 c -1.89882,3.35735 -0.64775,3.96354 -1.76777,7.3236 -2.23365,6.70096 -3.93518,15.44651 -7.07107,21.71828 -5.26909,10.53819 8.80723,26.83227 3.03046,38.3858 -1.3689,2.7378 -15.84415,18.40861 -15.65736,18.68782 3.5725,5.34026 8.08122,-4.21543 8.08122,-2.0203 0,3.22719 -1.29953,8.81526 4.8501,1.6109 1.56954,-1.83873 -1.05771,7.66142 4.24127,6.47031 2.38836,-0.53685 6.8542,-17.96587 11.11168,-22.22335 5.92792,-5.92792 -4.96097,-22.49275 -2.52538,-29.7995 3.70959,-11.12879 16.00755,-25.604 20.20305,-29.7995"
         style="fill:none;stroke:#000000;stroke-width:1px;stroke-linecap:butt;stroke-linejoin:miter;stroke-opacity:0.97231834" />
      <path
         sodipodi:nodetypes="csssssssc"
         inkscape:connector-curvature="0"
         id="path4370"
         d="m 721.73624,825.83548 c -4.83592,6.35288 9.09005,18.00908 8.08122,28.03173 -0.81559,8.10284 -46.39792,40.41992 -43.94164,42.93148 4.92009,5.03081 7.0272,-3.28299 9.59646,-3.28299 0.82138,0 -0.80665,4.46908 2.46714,4.84115 1.63689,0.18603 4.65016,1.62565 4.32891,-0.55496 -1.14673,-7.78397 7.32971,8.79523 6.841,-1.0032 -0.30717,-6.15862 -0.82922,-5.66517 0.75761,-8.83883 10.1787,-20.3574 44.975,-41.69032 44.975,-63.71666"
         style="fill:none;stroke:#000000;stroke-width:1px;stroke-linecap:butt;stroke-linejoin:miter;stroke-opacity:1" />
      <path
         inkscape:connector-curvature="0"
         id="path4376"
         d="m 779.82001,743.2555 c 29.49966,-13.34158 51.01402,-29.29837 61.61931,-61.11423 3.24526,-9.73578 4.54568,-20.01607 4.54568,-30.80965 0,-4.0998 -8.14041,-11.61675 -4.04061,-11.61675 0.38121,0 26.76787,52.52852 14.64721,58.58885 -3.52509,1.76254 -15.05285,-4.04062 -11.11167,-4.04062 2.2682,0 9.09137,10.64491 9.09137,12.62691 0,2.06949 -9.73771,-4.04061 -10.10153,-4.04061 -3.26893,0 7.86733,5.76974 5.55584,8.08122 -1.20038,1.20039 -8.03839,-3.07328 -8.58629,-2.52538 -1.35947,1.35947 7.26844,7.88384 6.56599,8.5863 -0.42657,0.42657 -7.57615,2.40664 -7.57615,1.51523 0,-2.39283 6.23768,3.86385 4.54569,5.55584 -9.14555,9.14555 -5.55584,-6.66368 -5.55584,6.56599 0,0.77406 -6.03483,-4.04061 -6.06091,-4.04061 -2.85915,0 -2.98762,14.09929 -5.05077,16.16244 -0.87111,0.87111 -2.56845,-4.01907 -3.53553,-3.53554 -2.77664,1.38833 0.17482,11.28651 -2.02031,9.09138 -0.66883,-0.66884 -2.18978,-4.88128 -2.52538,-4.54569 -1.56935,1.56935 0.17887,7.99179 -2.0203,9.09137 -1.13353,0.56676 -3.22084,-4.16493 -3.53554,-3.53553 -5.08793,10.17587 -7.57614,6.1809 -7.57614,12.62691"
         style="fill:none;stroke:#000000;stroke-width:1px;stroke-linecap:butt;stroke-linejoin:miter;stroke-opacity:1" />
      <path
         sodipodi:nodetypes="cc"
         inkscape:connector-curvature="0"
         id="path4350"
         d="m 494.46967,753.35703 c 13.21312,18.13625 44.31886,5.98677 52.52793,-5.55584"
         style="fill:none;stroke:#000000;stroke-width:1px;stroke-linecap:butt;stroke-linejoin:miter;stroke-opacity:1" />
      <path
         sodipodi:nodetypes="csc"
         inkscape:connector-curvature="0"
         id="path4348"
         d="m 523.7641,723.55753 c -18.69092,10.93159 -48.33205,11.01441 -38.3858,21.71828 17.58084,18.91999 39.24551,7.63632 53.53809,-0.50507"
         style="fill:none;stroke:#000000;stroke-width:1px;stroke-linecap:butt;stroke-linejoin:miter;stroke-opacity:1" />
      <path
         sodipodi:nodetypes="csc"
         inkscape:connector-curvature="0"
         id="path4352"
         d="m 523.7641,723.55753 c 18.50252,-18.3018 31.81799,-38.387 66.67006,-15.15229 7.89744,5.26496 19.73473,25.59824 26.76904,31.06219"
         style="fill:none;stroke:#000000;stroke-width:1px;stroke-linecap:butt;stroke-linejoin:miter;stroke-opacity:1" />
      <path
         sodipodi:nodetypes="cssc"
         inkscape:connector-curvature="0"
         id="path4354"
         d="m 547.50268,748.30627 c -0.27329,4.22019 17.14551,7.72645 20.70812,10.10152 8.05219,5.36813 7.45415,3.34827 12.62692,10.10153 4.54236,5.93024 7.44412,13.5383 10.35406,17.5514"
         style="fill:none;stroke:#000000;stroke-width:1px;stroke-linecap:butt;stroke-linejoin:miter;stroke-opacity:1" />
      <path
         sodipodi:nodetypes="csc"
         inkscape:connector-curvature="0"
         id="path4356"
         d="m 616.40054,738.85638 c 8.12775,5.66317 26.65986,6.1745 34.724,7.44989 46.92906,7.42212 55.20155,8.2536 93.94418,0.50507"
         style="fill:none;stroke:#000000;stroke-width:1px;stroke-linecap:butt;stroke-linejoin:miter;stroke-opacity:1" />
      <path
         sodipodi:nodetypes="cc"
         inkscape:connector-curvature="0"
         id="path4358"
         d="m 590.51538,785.19714 c 40.85111,60.17448 82.72159,39.90102 153.54318,39.90102"
         style="fill:none;stroke:#000000;stroke-width:1px;stroke-linecap:butt;stroke-linejoin:miter;stroke-opacity:1" />
      <path
         sodipodi:nodetypes="ccssssssssssssc"
         inkscape:connector-curvature="0"
         id="path4366"
         d="m 754.06112,777.09561 c -9.1442,3.73186 -24.51234,7.60842 -21.71828,20.20305 5.59592,24.6686 24.15954,46.88798 25.75889,48.48733 1.66504,1.66503 0.94611,6.94298 2.02031,9.09137 8.10877,16.21755 -8.96554,32.19905 -18.68783,41.92133 -1.81696,1.81697 -19.85275,13.81221 -15.15228,16.16244 2.83826,1.41913 4.32852,-1.80314 6.56599,-4.04061 0.21841,-0.21841 -0.79719,3.64202 0,4.04061 2.64644,1.32322 4.01871,-4.04061 5.05076,-4.04061 1.52455,0 -1.5831,3.46767 -0.50508,4.54569 3.46019,3.46019 5.33957,-5.05077 6.566,-5.05077 1.12938,0 7.82868,-8.5863 8.33375,-9.59645 4.15012,-8.30023 20.16941,-32.54376 27.02159,-39.39594 4.87472,-4.87473 -7.47496,-16.26364 -1.51523,-22.22336 14.53319,-14.53319 35.9716,-37.82986 32.32488,-56.06347"
         style="fill:none;stroke:#000000;stroke-width:1px;stroke-linecap:butt;stroke-linejoin:miter;stroke-opacity:1" />
      <path
         sodipodi:nodetypes="cscssc"
         inkscape:connector-curvature="0"
         id="path4374"
         d="m 744.33841,746.9173 c -4.16897,0.87087 3.40925,-0.90608 3.40925,-1.38895 0,-0.24822 1.32167,-0.27224 2.77793,-0.75762 6.06379,-2.02126 23.57112,-3.08627 29.7995,-1.01015 8.47189,2.82396 16.25351,6.15199 22.22335,12.12183 7.13609,7.13608 6.11844,17.46019 8.08122,27.27412"
         style="fill:none;stroke:#000000;stroke-width:1px;stroke-linecap:butt;stroke-linejoin:miter;stroke-opacity:1" />
      <path
         sodipodi:nodetypes="cssc"
         inkscape:connector-curvature="0"
         id="path4378"
         d="m 545.48237,699.81894 c -0.38273,13.66194 -1.38057,-23.2335 0.50508,-23.2335 3.61482,0 5.571,5.32605 7.57614,8.33375 2.88099,4.32149 4.95357,9.36302 5.55584,12.37437"
         style="fill:none;stroke:#000000;stroke-width:1px;stroke-linecap:butt;stroke-linejoin:miter;stroke-opacity:1" />
      <path
         sodipodi:nodetypes="csssc"
         inkscape:connector-curvature="0"
         id="path4380"
         d="m 578.56487,701.33417 c -2.68825,-8.83897 14.22915,-8.76031 17.42513,-15.15229 0.5324,-1.06479 -0.6854,-3.53553 0.50508,-3.53553 0.84179,0 0,1.68359 0,2.52538 0,11.32613 -6.0142,27.18069 -9.34392,33.84011"
         style="fill:none;stroke:#000000;stroke-width:1px;stroke-linecap:butt;stroke-linejoin:miter;stroke-opacity:1" />
      <path
         transform="translate(0,308.2677)"
         inkscape:connector-curvature="0"
         id="path4382"
         d="m 552.55344,411.24922 c -1.47783,2.68225 -1.01664,3.02721 1.01016,4.04061 15.1803,7.59015 -3.62282,-17.10393 -1.01016,-4.04061 z"
         style="fill:none;stroke:#000000;stroke-width:1px;stroke-linecap:butt;stroke-linejoin:miter;stroke-opacity:1" />
      <path
         transform="translate(0,308.2677)"
         inkscape:connector-curvature="0"
         id="path4384"
         d="m 489.92398,429.93704 c 2.78503,4.94307 1.05977,9.02523 -0.50507,11.11168"
         style="fill:none;stroke:#000000;stroke-width:1px;stroke-linecap:butt;stroke-linejoin:miter;stroke-opacity:1" />
      <path
         sodipodi:nodetypes="cssssssssssc"
         inkscape:connector-curvature="0"
         id="path4362"
         d="m 649.10423,788.73267 c -9.25783,26.12915 4.22723,44.31487 15.15229,66.16499 1.43846,2.87692 -6.05393,3.51457 -7.07107,6.566 -1.80438,5.41315 -17.92815,45.51301 -17.67767,45.96194 3.6475,6.53739 8.06399,-2.52538 8.5863,-2.52538 1.50585,0 0.95551,2.97581 2.0203,4.04061 2.32528,2.32527 4.26382,-3.75874 4.54569,-4.04061 1.19048,-1.19048 0.82982,6.24124 4.04061,3.03045 0.0519,-0.0519 6.16322,-34.65209 7.57614,-38.89087 1.83451,-5.50351 14.14214,-13.59467 14.14214,-18.18275 0,-2.47359 -4.66151,-7.34448 -3.03046,-10.6066 7.15242,-14.30483 21.71828,-37.03233 21.71828,-47.47717"
         style="fill:none;stroke:#000000;stroke-width:1px;stroke-linecap:butt;stroke-linejoin:miter;stroke-opacity:1" />
      <path
         transform="translate(0,308.2677)"
         inkscape:connector-curvature="0"
         id="path4916"
         d="m 691.31027,507.4427 c 5.5406,-10.91199 8.33638,-18.09424 8.33638,-21.41583 0,-1.48378 -0.13642,-1.60215 -2.14657,-1.86243 -2.75674,-0.35695 -46.18024,-3.82456 -47.8935,-3.82456 -1.11927,0 -1.40351,0.35669 -2.11304,2.65165 -2.95704,9.56446 -2.70708,21.72612 0.64691,31.47464 0.55065,1.60051 0.91995,2.99126 0.82066,3.09055 -0.0993,0.0993 -1.81466,-0.21166 -3.81194,-0.69101 -2.94879,-0.70771 -5.73967,-2.12623 -14.8468,-7.54617 -11.15003,-6.63574 -11.22024,-6.66842 -12.04882,-5.60767 -0.83049,1.06318 -0.84585,1.05694 -4.3309,-1.75885 -6.90243,-5.57691 -15.8163,-15.39868 -21.21964,-23.38091 -1.12826,-1.66675 -3.46701,-5.64422 -5.19723,-8.83883 -3.54054,-6.53713 -6.77203,-11.3058 -9.37339,-13.83221 -3.22378,-3.1309 -10.70706,-7.17576 -17.88679,-9.66818 -8.27243,-2.87175 -9.32477,-3.38277 -11.74877,-5.70526 l -1.89977,-1.82023 -1.5477,1.87763 c -3.35708,4.07272 -11.75745,8.93912 -19.5084,11.30135 -3.80114,1.15846 -5.34569,1.35266 -10.75222,1.3519 -5.17037,-7.2e-4 -6.83773,-0.19385 -9.2091,-1.06671 -3.12682,-1.15092 -6.59986,-3.34632 -8.21604,-5.19358 -1.01015,-1.15458 -1.01015,-1.15458 0,-0.74241 2.21742,0.90479 7.25109,1.75893 10.42454,1.76889 7.41837,0.0233 16.29405,-2.65664 26.19349,-7.90888 6.20526,-3.29226 5.88705,-3.06309 5.20306,-3.74708 -0.38058,-0.38058 -2.07005,0.27879 -5.7747,2.25379 -12.46915,6.64747 -22.9975,9.10801 -31.34957,7.3266 -3.03004,-0.64628 -7.47544,-2.49794 -9.78783,-4.07698 -1.51012,-1.0312 -1.53654,-1.11516 -0.90605,-2.87912 1.31664,-3.68365 0.29035,-10.04056 -1.50949,-9.3499 -0.65262,0.25043 -0.64948,0.51135 0.0256,2.12702 0.8324,1.9922 0.69329,6.33472 -0.23257,7.26059 -0.37328,0.37328 -1.19994,-0.13494 -2.76473,-1.69973 -2.86473,-2.86473 -3.17857,-4.04693 -1.57902,-5.94789 1.45786,-1.73257 5.68713,-3.45243 16.70793,-6.79437 18.40696,-5.58172 20.15432,-6.55162 30.95723,-17.18343 11.1813,-11.0042 15.77926,-14.17206 23.4659,-16.16737 7.87439,-2.04404 18.08569,0.35204 28.97592,6.7992 2.54749,1.50815 4.6318,3.05588 4.6318,3.4394 0,0.38352 -0.79083,2.5222 -1.7574,4.75264 -1.63354,3.76953 -1.82404,4.93547 -0.80637,4.93547 0.22388,0 1.15862,-1.76145 2.07719,-3.91434 0.91857,-2.15289 1.87788,-4.14163 2.13182,-4.41942 0.60761,-0.6647 2.71085,1.73745 12.16123,13.8896 10.17979,13.09009 12.24901,15.16709 16.75065,16.81354 5.06045,1.85085 9.33463,2.6922 21.01074,4.13589 5.66719,0.70072 14.62239,1.94478 19.90043,2.76459 22.41806,3.48206 25.79241,3.79586 40.91118,3.80452 15.16537,0.009 16.74601,-0.14551 34.34519,-3.35083 4.72246,-0.86009 9.20271,-1.8781 9.95611,-2.26223 3.60771,-1.83944 9.66441,-2.77449 19.84339,-3.06347 l 10.10152,-0.28678 5.53538,1.85545 c 10.11908,3.3919 17.97739,8.32928 21.7654,13.67521 2.24156,3.16348 3.50074,7.35584 4.64413,15.46229 l 0.89764,6.36416 -2.0266,-0.19201 c -1.11463,-0.1056 -13.27717,-0.98176 -27.02787,-1.94701 -13.75071,-0.96526 -25.48501,-1.86502 -26.07623,-1.99947 -1.44953,-0.32965 -12.40761,4.13526 -15.99804,6.51846 -5.07266,3.36704 -6.92405,6.38575 -6.90931,11.26572 0.0146,4.84318 3.51745,15.31896 8.31913,24.87967 1.25326,2.49539 2.27865,4.61907 2.27865,4.71931 0,0.10024 -4.94343,0.33249 -10.98541,0.51612 -6.04197,0.18363 -17.80394,0.787 -26.1377,1.34083 -8.33376,0.55383 -16.10096,1.00797 -17.26046,1.0092 l -2.10819,0.002 5.72897,-11.28298 z M 558.95003,417.21785 c 1.59972,-0.60821 1.70731,-2.27613 0.322,-4.99157 -1.19227,-2.33703 -4.73851,-5.62754 -6.06491,-5.62754 -1.12459,0 -1.35136,0.61225 -1.80884,4.88348 -0.31772,2.96638 -0.27083,3.15691 0.97839,3.97543 0.99233,0.6502 4.02688,1.95582 5.1844,2.2306 0.0514,0.0122 0.6764,-0.19949 1.38896,-0.4704 z"
         style="fill:none;stroke:none" />
      <path
         transform="translate(0,308.2677)"
         inkscape:connector-curvature="0"
         id="path4918"
         d="m 690.31738,509.66786 c 6.97378,-13.96711 9.14123,-19.40301 9.18839,-23.04411 l 0.0262,-2.0203 -1.01016,-0.30399 c -1.63901,-0.49324 -48.94505,-4.26311 -49.72754,-3.96284 -0.60033,0.23037 -1.02145,1.16439 -1.75492,3.89233 -1.01823,3.78699 -1.42497,6.62694 -1.59083,11.10737 -0.24534,6.62766 0.45686,12.1421 2.33912,18.3693 0.47184,1.56102 0.85789,3.00996 0.85789,3.21987 0,0.50234 -0.38895,0.48316 -3.09748,-0.15272 -2.86916,-0.6736 -7.0739,-2.78786 -15.84288,-7.96624 -10.16025,-5.99997 -10.86211,-6.30495 -11.67888,-5.07484 -0.35559,0.53555 -0.41891,0.54596 -1.1528,0.1894 -2.13583,-1.03769 -10.10707,-8.44623 -14.79685,-13.75231 -6.39578,-7.23628 -9.16969,-11.17366 -14.41774,-20.46508 -4.84231,-8.57309 -8.26845,-13.25541 -11.34907,-15.51021 -4.46613,-3.26889 -9.82014,-5.83907 -19.33564,-9.28203 -4.38833,-1.58781 -6.38175,-2.69201 -8.51721,-4.71785 l -1.82495,-1.73127 -0.67914,0.8472 c -4.03277,5.03073 -12.71199,10.18307 -21.38966,12.69776 -3.09393,0.89659 -6.9004,1.24698 -11.65695,1.07305 -5.32663,-0.19477 -7.45273,-0.76937 -11.32679,-3.06115 -1.77605,-1.05066 -4.98377,-3.84302 -4.07803,-3.54998 0.27779,0.0899 1.41421,0.37726 2.52538,0.63862 9.8804,2.32404 19.62603,0.42426 33.08249,-6.44896 5.83388,-2.97979 6.48266,-3.37398 6.38684,-3.88049 -0.18572,-0.98165 -1.52497,-0.60686 -6.27509,1.75613 -6.90886,3.43687 -10.29614,4.83838 -14.81691,6.13059 -7.30315,2.08752 -13.62899,2.17032 -19.2394,0.25185 -2.44716,-0.83681 -6.32795,-2.73621 -7.3406,-3.59276 l -0.78311,-0.66239 0.51541,-1.99756 c 0.61452,-2.38168 0.65871,-4.79301 0.12554,-6.85135 -0.45702,-1.76435 -1.07318,-2.51978 -1.85329,-2.27219 -0.66722,0.21177 -0.66666,0.5069 0.005,2.7187 0.4395,1.44696 0.51138,2.14738 0.38654,3.76628 -0.15591,2.02181 -0.47031,2.99462 -0.96781,2.99462 -0.15186,0 -1.21775,-0.94163 -2.36864,-2.09252 -2.58601,-2.586 -2.86811,-3.41599 -1.72113,-5.06385 1.4072,-2.02171 3.48619,-2.83894 23.8291,-9.36697 11.25714,-3.61241 14.20642,-5.43131 23.63741,-14.57786 9.0468,-8.77395 12.88007,-11.88958 17.47531,-14.20371 8.46686,-4.26384 17.83541,-3.92866 28.64803,1.02497 4.73483,2.16918 10.84543,5.89471 11.002,6.70774 0.043,0.22345 -0.61668,2.18729 -1.46603,4.36409 -1.60059,4.10216 -1.80186,5.30265 -0.88905,5.30265 0.39612,0 0.84091,-0.73614 2.14658,-3.55265 0.9058,-1.95396 1.84352,-3.82906 2.08381,-4.16688 l 0.4369,-0.61423 1.7232,1.80163 c 0.94776,0.99089 3.13764,3.59166 4.8664,5.77949 9.1279,11.55175 13.21335,16.59919 14.84464,18.34004 3.18154,3.39522 5.97804,4.9034 11.83206,6.38112 3.49777,0.88294 7.21787,1.48272 18.96543,3.05774 5.65485,0.75816 14.88405,2.06479 20.50934,2.90362 20.54754,3.06402 24.80179,3.39592 41.16372,3.21147 12.30976,-0.13877 13.56375,-0.25389 25.63262,-2.35321 8.25398,-1.43573 13.97614,-2.69669 16.03635,-3.53383 2.36072,-0.95925 5.02142,-1.55812 8.84325,-1.99047 3.93035,-0.44463 12.56352,-0.89298 17.20532,-0.89353 l 3.19403,-5e-4 4.38212,1.49903 c 13.05316,4.46524 21.17224,10.07796 24.1828,16.71757 1.30259,2.87286 2.69854,9.3964 3.70794,17.32814 0.15915,1.25045 0.137,1.32582 -0.38952,1.32582 -0.9087,0 -42.01709,-2.99025 -48.809,-3.55039 l -6.24444,-0.515 -2.7072,0.90589 c -4.91955,1.64618 -11.001,4.47421 -13.62555,6.33624 -2.20705,1.56581 -4.50912,4.1696 -5.19846,5.87976 -0.50044,1.24155 -0.57273,1.8603 -0.56469,4.8331 0.008,2.87909 0.11428,3.80199 0.68474,5.93465 1.57608,5.89204 3.59048,11.11037 7.15973,18.54738 1.29615,2.70068 2.31954,4.94741 2.27421,4.99273 -0.0453,0.0453 -5.29817,0.30796 -11.67301,0.58364 -6.37483,0.27567 -18.38687,0.89841 -26.69342,1.38385 -8.30655,0.48558 -15.64147,0.88276 -16.29982,0.88276 l -1.19702,0 4.44475,-8.90197 z M 558.92241,417.31283 c 1.598,-0.72545 1.77745,-2.32789 0.55268,-4.93529 -0.66863,-1.42344 -3.9304,-4.87147 -5.24293,-5.54234 -1.73604,-0.88733 -2.30574,-0.22308 -2.80413,3.2695 -0.40884,2.86505 -0.33842,4.34326 0.23419,4.91587 0.79566,0.79566 4.91401,2.70994 5.94327,2.76254 0.1389,0.007 0.73151,-0.20453 1.31692,-0.47028 l 0,0 z"
         style="fill:none;stroke:none" />
      <path
         transform="translate(0,308.2677)"
         inkscape:connector-curvature="0"
         id="path4920"
         d="m 641.82696,516.24344 c -0.34724,-0.15074 -0.74499,-0.30405 -0.88388,-0.3407 -0.1389,-0.0366 -4.51425,-1.8729 -9.723,-4.08056 -7.66445,-3.24848 -9.92522,-4.31972 -11.85513,-5.61739 -1.99218,-1.33953 -2.30243,-1.63387 -1.88499,-1.78829 0.27483,-0.10167 0.6517,-0.36802 0.83751,-0.5919 0.73509,-0.88574 1.45414,-0.553 11.13512,5.15284 7.42903,4.37857 9.82637,5.708 12.12183,6.72209 1.04172,0.46021 1.66675,0.83252 1.38896,0.82736 -0.27779,-0.005 -0.78918,-0.13271 -1.13642,-0.28345 z"
         style="fill:none;stroke:none" />
      <path
         transform="translate(0,308.2677)"
         inkscape:connector-curvature="0"
         id="path4922"
         d="m 667.44493,481.93288 c -10.12204,-0.82132 -18.41082,-1.49553 -18.4195,-1.49825 -0.009,-0.003 0.0268,-0.0181 0.0789,-0.0341 0.15326,-0.0471 0.87993,-0.0341 1.89403,0.0341 3.56604,0.23966 18.59621,1.40823 28.62236,2.22533 3.51945,0.28682 6.43508,0.5215 6.47918,0.5215 0.0725,0 0.0802,0.0121 0.0802,0.12627 l 0,0.12627 -0.16573,-0.004 c -0.0911,-0.002 -8.4474,-0.6759 -18.56944,-1.49722 z"
         style="fill:none;stroke:none" />
      <path
         transform="translate(0,308.2677)"
         inkscape:connector-curvature="0"
         id="path4924"
         d="m 646.5511,508.50631 c -0.0383,-0.12969 -0.22271,-1.12764 -0.35137,-1.90193 -1.16045,-6.98372 -0.95091,-14.4987 0.58358,-20.9291 0.53963,-2.26139 1.20629,-4.29252 1.5645,-4.76666 0.10327,-0.13669 0.11526,-0.18282 -0.21336,0.82075 -2.30356,7.03485 -3.08662,13.91996 -2.37494,20.88175 0.12725,1.24477 0.34111,2.74361 0.56751,3.97748 0.13518,0.73669 0.348,1.80618 0.38161,1.91771 0.0127,0.0423 -0.002,0.0552 -0.0623,0.0552 -0.0479,0 -0.0853,-0.0217 -0.0952,-0.0552 l 0,0 z"
         style="fill:none;stroke:none" />
      <path
         transform="translate(0,308.2677)"
         inkscape:connector-curvature="0"
         id="path4926"
         d="m 738.33087,604.74834 c -0.18174,-0.29408 -0.0388,-1.34128 0.3177,-2.3271 0.54975,-1.52032 0.53538,-1.86391 -0.0946,-2.26343 -0.55917,-0.35459 -1.26864,0.12045 -2.86996,1.92162 l -2.12717,2.39265 -0.0194,-2.76067 -0.0194,-2.76066 -2.66753,2.63439 c -2.63938,2.60657 -4.40356,3.35394 -4.40356,1.8655 0,-1.23524 3.8729,-5.11195 9.84899,-9.85869 13.20653,-10.48979 23.08133,-22.76613 25.7802,-32.04989 1.08846,-3.7442 0.76421,-10.44924 -0.68398,-14.1436 -0.54447,-1.38896 -1.14846,-3.91695 -1.34218,-5.61775 -0.37879,-3.32549 -0.80875,-4.13655 -5.03232,-9.4926 l -2.7549,-3.49359 0.78439,-1.80971 c 0.93428,-2.15553 1.96684,-6.03714 2.39599,-9.00704 0.24428,-1.69057 0.15283,-2.14658 -0.43052,-2.14658 -0.46563,0 -0.85261,0.70339 -1.04205,1.89404 -0.49661,3.12117 -1.37213,6.35 -2.13818,7.8854 l -0.7213,1.44567 -1.82894,-2.70836 c -8.15561,-12.07711 -15.62135,-29.24739 -16.15369,-37.15149 -0.21718,-3.22455 -0.10125,-3.87822 1.03013,-5.80837 2.22132,-3.78961 6.33765,-6.43462 15.64632,-10.05381 2.42967,-0.94466 4.41841,-2.00166 4.41942,-2.3489 0.003,-0.97266 -0.95124,-0.77887 -5.80901,1.17993 -6.63733,2.67639 -9.81621,4.3988 -12.5193,6.78334 -3.25407,2.87058 -4.3983,5.23646 -4.3983,9.09416 0,5.22245 3.97152,16.91833 9.00985,26.53345 l 1.89256,3.61174 -11.89093,0.29705 c -6.54001,0.16338 -19.23642,0.78726 -28.21424,1.38641 -8.97782,0.59915 -16.434,0.97866 -16.56929,0.84338 -0.13529,-0.13528 1.05869,-2.60091 2.65327,-5.47915 8.5178,-15.37472 13.1133,-28.21517 10.41509,-29.10116 -0.42183,-0.13851 -0.63135,0.36186 -0.63135,1.5078 0,3.87941 -4.33987,14.29854 -11.07095,26.57904 l -3.5634,6.50122 -2.34977,0.32207 c -5.1899,0.71136 -25.12141,0.0455 -29.18767,-0.97503 -0.96322,-0.24175 -1.40219,-1.06561 -2.49103,-4.67521 -2.18552,-7.24511 -2.48071,-9.14572 -2.48477,-15.9985 -0.003,-5.48942 0.21406,-7.39044 1.32542,-11.59427 0.86614,-3.27627 1.15723,-5.20036 0.83543,-5.52216 -0.70998,-0.70999 -0.82407,-0.48256 -1.98898,3.96494 -1.73555,6.62614 -2.21773,12.23746 -1.56918,18.26119 0.4796,4.45446 1.98178,11.01278 3.30407,14.42515 0.2466,0.63638 0.0985,0.79527 -0.59555,0.63888 -18.40166,-4.14652 -28.30489,-9.34524 -40.74116,-21.38719 -8.7344,-8.45744 -14.34325,-16.06739 -22.02232,-29.87926 -3.81746,-6.86625 -6.87151,-10.4493 -11.3925,-13.36583 -5.58836,-3.60509 -7.27376,-4.41582 -14.00561,-6.73706 -6.66016,-2.29652 -10.63521,-4.18907 -11.59571,-5.52081 -1.36098,-1.88698 -1.90897,-1.771 -4.696,0.99389 -7.9211,7.85819 -23.32686,13.1537 -33.62906,11.55952 -2.06674,-0.31981 -4.99189,-1.14568 -6.50033,-1.83526 -2.5623,-1.17134 -7.38007,-4.65654 -6.98421,-5.05241 0.0976,-0.0976 1.25314,0.14619 2.56779,0.54184 8.44313,2.54101 18.43137,0.95897 30.64509,-4.85387 7.57941,-3.60724 9.8116,-4.98079 9.15749,-5.6349 -0.38262,-0.38262 -2.13307,0.28846 -6.01955,2.30777 -9.85082,5.11821 -18.87624,7.94491 -25.29082,7.92091 -5.07805,-0.019 -12.47783,-2.37713 -15.89555,-5.06551 -1.23198,-0.96908 -1.25532,-1.08393 -0.55898,-2.75052 1.53782,-3.68051 -0.0107,-10.96742 -1.92406,-9.05407 -0.16156,0.16156 0.0279,1.06339 0.42089,2.00409 0.8624,2.064 0.90892,4.06517 0.14543,6.25533 l -0.56921,1.63282 -2.25684,-2.18879 c -2.79469,-2.71042 -3.25773,-3.80074 -2.36026,-5.55763 0.95869,-1.87672 4.35142,-3.356 15.90328,-6.93406 20.09977,-6.22567 20.62135,-6.50962 31.57164,-17.18762 13.40588,-13.07252 19.29451,-16.53717 28.99127,-17.05744 7.64367,-0.41011 14.71855,1.79708 24.90782,7.77064 4.52453,2.65255 4.4533,2.32081 1.79881,8.37769 -1.36286,3.10972 -1.5176,4.40849 -0.52525,4.40849 0.33489,0 2.34123,-4.3158 3.61849,-7.78366 l 0.54149,-1.47022 1.76043,1.70628 c 0.96823,0.93845 4.41024,5.12295 7.64891,9.29889 8.48713,10.94332 13.01794,16.53467 14.37073,17.73454 3.28364,2.91246 11.36464,5.08226 25.17555,6.75979 4.86136,0.59049 12.58902,1.64457 17.17259,2.34241 37.28713,5.67692 49.13945,6.04593 71.97337,2.24081 9.62326,-1.60365 15.43489,-2.85794 18.53698,-4.00072 4.92579,-1.81461 11.63976,-2.73177 20.35389,-2.78044 8.87669,-0.0496 10.3222,0.23037 18.43529,3.57016 10.43376,4.29511 16.73247,9.61112 19.19907,16.20369 1.09439,2.92504 2.72066,12.56722 3.30442,19.59206 1.05184,12.65767 -6.71373,26.44167 -27.36005,48.5645 -3.4235,3.66832 -6.37375,7.26417 -6.55611,7.99076 -0.52045,2.07365 0.10027,5.17405 2.04301,10.20444 2.51031,6.50002 2.42883,7.33534 -1.13006,11.58449 -5.7481,6.86297 -17.02565,23.29668 -22.47183,32.74608 -2.84284,4.93245 -5.55669,8.61457 -9.35207,12.68878 -1.58439,1.70078 -3.33528,3.84398 -3.89086,4.76268 -1.09728,1.81441 -1.99132,2.35304 -2.51073,1.51262 l 0,0 z M 560.18041,415.7382 c 0.3493,-3.02193 -4.43115,-9.19164 -6.9004,-8.90574 -1.25944,0.14582 -1.35949,0.35904 -1.72599,3.67818 -0.21398,1.93786 -0.27505,3.82048 -0.13571,4.18358 0.41843,1.09043 4.41967,2.60781 6.58568,2.49748 1.78339,-0.0909 2.03861,-0.26129 2.17642,-1.4535 l 0,0 z"
         style="fill:#854700;fill-opacity:1;stroke:none" />
      <path
         transform="translate(0,308.2677)"
         inkscape:connector-curvature="0"
         id="path4928"
         d="m 610.52389,596.63041 c -0.17609,-0.28493 -0.44859,-1.76228 -0.60554,-3.28299 -0.16542,-1.60274 -0.53247,-2.76494 -0.87324,-2.76494 -0.32333,0 -1.3589,0.7955 -2.30126,1.76777 -0.94237,0.97227 -1.89609,1.76777 -2.11939,1.76777 -0.2233,0 -0.40599,-1.12301 -0.40599,-2.49558 0,-1.37256 -0.19035,-2.61322 -0.423,-2.757 -0.23265,-0.14379 -1.30156,0.6383 -2.37535,1.73796 -1.76896,1.81158 -3.5947,2.50905 -4.41654,1.68721 -0.1717,-0.1717 2.35317,-3.4105 5.61082,-7.19734 3.25764,-3.78684 6.68854,-7.86826 7.62422,-9.06983 4.14859,-5.32752 4.10558,-10.12358 -0.22048,-24.58437 -0.99725,-3.3335 -1.93684,-7.53826 -2.08798,-9.34391 -0.2516,-3.00567 -0.0824,-3.79499 2.00341,-9.34391 2.5216,-6.70838 6.12769,-18.94686 6.62256,-22.4759 0.50189,-3.57907 0.72946,-3.6786 3.83244,-1.67609 3.70241,2.38935 11.02248,5.87208 15.4853,7.36757 l 3.62368,1.21428 -3.77507,4.50207 c -5.11077,6.09501 -10.80885,14.67632 -13.35973,20.11975 -1.99912,4.26602 -2.09149,4.67043 -1.84409,8.07371 0.14324,1.9705 1.09641,6.53743 2.11815,10.14873 1.1376,4.02081 1.8925,7.83858 1.94747,9.84898 0.0839,3.06852 -0.0449,3.4847 -1.97205,6.37037 -1.134,1.69805 -3.04347,5.44824 -4.24327,8.33376 -4.39891,10.5794 -5.4301,12.56999 -6.51168,12.56999 -0.55726,0 -1.15729,-0.23313 -1.33339,-0.51806 l 0,0 z"
         style="fill:#854700;fill-opacity:1;stroke:none" />
      <path
         transform="translate(0,308.2677)"
         inkscape:connector-curvature="0"
         id="path4930"
         d="m 641.06697,599.89981 c -0.53969,-0.6503 -0.42828,-1.4049 0.65253,-4.41942 2.58717,-7.21595 16.19126,-42.03531 16.6547,-42.62732 0.26105,-0.33347 1.6569,-1.27354 3.1019,-2.08904 4.69922,-2.65208 4.90331,-1.46573 -2.89741,-16.84251 -3.81254,-7.51529 -6.84288,-13.75317 -6.73409,-13.86196 0.10879,-0.10879 3.67289,0.0558 7.92023,0.36571 4.24733,0.30993 11.10148,0.4811 15.23144,0.38036 4.12996,-0.10073 7.50902,-0.16287 7.50902,-0.1381 0,0.0248 -1.36371,2.58422 -3.03046,5.68766 -1.92357,3.58163 -3.03031,6.24143 -3.03006,7.28203 2.2e-4,0.90168 0.68207,3.08034 1.51523,4.84149 0.83316,1.76114 1.51483,3.71788 1.51483,4.3483 0,1.23846 -2.0475,3.79941 -8.09684,10.12729 -4.94942,5.17732 -5.39848,5.91158 -6.5411,10.69559 -0.88543,3.70713 -5.63354,28.56962 -6.37541,33.38351 -0.45068,2.92438 -1.09803,3.13239 -2.06751,0.66434 -0.44602,-1.13547 -1.10037,-2.0645 -1.45411,-2.0645 -0.35374,0 -1.17601,0.96596 -1.82728,2.14658 -1.41333,2.5621 -2.46154,2.74041 -3.03776,0.51673 -0.75184,-2.90147 -1.93649,-2.92955 -4.37073,-0.10357 -2.22094,2.57835 -3.51769,3.05566 -4.63712,1.70683 l 0,0 z"
         style="fill:#854700;fill-opacity:1;stroke:none" />
      <path
         transform="translate(0,308.2677)"
         inkscape:connector-curvature="0"
         id="path4932"
         d="m 705.34116,588.51373 c -2.45863,-2.32019 -3.32183,-2.33423 -3.54731,-0.0577 -0.14725,1.4867 -0.25569,1.56516 -1.76776,1.27893 -2.69649,-0.51043 -3.30736,-1.04915 -3.47454,-3.06414 -0.22675,-2.73308 -1.45814,-2.70885 -4.29144,0.0844 -2.45765,2.42293 -4.46972,3.00529 -5.06087,1.46478 -0.40191,-1.04737 0.86234,-2.22661 18.13974,-16.91999 14.66918,-12.47524 22.94003,-20.409 24.32953,-23.33793 0.68656,-1.44721 0.87405,-2.74415 0.71485,-4.94503 -0.18074,-2.49875 -0.90017,-4.35088 -4.42932,-11.40307 -3.16536,-6.32524 -4.22494,-8.94813 -4.25943,-10.54377 -0.0253,-1.16821 0.14307,-2.31352 0.37405,-2.54512 0.23098,-0.23161 5.06786,-0.53475 10.74862,-0.67364 l 10.32866,-0.25254 3.56139,5.71519 3.56138,5.71519 -1.6831,2.77936 c -2.62745,4.33881 -7.61687,10.26967 -16.88541,20.07149 -14.09847,14.90964 -18.8245,20.59204 -21.85092,26.27275 -1.45191,2.72528 -1.5851,3.3725 -1.5851,7.70242 0,2.59992 -0.17047,4.72144 -0.37881,4.71449 -0.20834,-0.007 -1.35324,-0.93219 -2.54421,-2.05612 z"
         style="fill:#854700;fill-opacity:1;stroke:none" />
      <path
         transform="translate(0,308.2677)"
         inkscape:connector-curvature="0"
         id="path4934"
         d="m 802.71344,447.11508 c -4.27081,-4.29983 -9.45102,-7.53078 -16.27592,-10.15146 -2.42364,-0.93065 -4.41238,-1.83457 -4.41942,-2.0087 -0.007,-0.17414 1.18046,-0.81929 2.63886,-1.43368 6.81002,-2.86889 21.20601,-11.42228 27.14785,-16.12993 13.79919,-10.93291 22.95904,-23.43733 28.9852,-39.56866 3.3167,-8.8784 5.08084,-17.72721 5.77738,-28.97893 l 0.34022,-5.49607 2.7246,6.56599 c 3.50154,8.43835 7.42452,20.12198 8.44749,25.15873 0.47679,2.34758 0.7283,5.55373 0.62101,7.91638 -0.1527,3.36255 -0.3676,4.1702 -1.4028,5.27211 -1.96365,2.09022 -6.06079,1.50359 -8.9315,-1.27882 -1.46013,-1.41521 -3.76552,-2.10008 -4.52219,-1.34341 -0.57555,0.57555 0.46576,1.77024 2.52207,2.89354 1.50289,0.82099 2.85323,2.19203 4.21139,4.27594 2.34857,3.60356 3.29286,5.34031 2.9036,5.34031 -0.15422,0 -2.26459,-0.99036 -4.68972,-2.20081 -6.70619,-3.34723 -7.59292,-2.35709 -2.30487,2.57367 1.8585,1.73293 3.2468,3.28309 3.08509,3.44479 -0.1617,0.1617 -1.73643,-0.26961 -3.49939,-0.95846 -5.37754,-2.10121 -5.47823,-2.11181 -5.47823,-0.57666 0,0.95418 0.89268,2.27007 3.0979,4.56658 l 3.0979,3.22614 -1.4564,0.56116 c -0.80102,0.30864 -2.30872,0.44982 -3.35044,0.31374 -1.04172,-0.13608 -1.92813,-0.0418 -1.9698,0.20959 -0.23112,1.39422 -0.063,1.70103 1.08024,1.97091 0.69136,0.1632 1.77383,1.06364 2.40549,2.00096 l 1.14848,1.70423 -1.64788,1.41054 c -1.97449,1.69012 -2.69737,1.78354 -3.41564,0.44144 -1.0114,-1.88981 -1.62906,-1.1486 -1.26269,1.51523 0.19103,1.38896 0.19872,2.52538 0.0171,2.52538 -0.18163,0 -1.36475,-0.78991 -2.62916,-1.75536 -3.70755,-2.83092 -4.23889,-2.14475 -6.24809,8.06882 -0.60111,3.05571 -1.17647,5.64385 -1.27856,5.75143 -0.1021,0.10757 -0.89915,-0.56823 -1.77123,-1.5018 l -1.58559,-1.69738 -0.95465,1.17894 c -0.70382,0.86919 -0.95514,1.99364 -0.95653,4.27971 l -0.002,3.10078 -1.06655,-1.76777 c -0.58659,-0.97227 -1.17254,-1.88105 -1.30209,-2.01951 -0.52705,-0.56327 -1.66857,1.82719 -1.67376,3.505 -0.007,2.37401 -0.55123,5.58718 -0.94441,5.57932 -0.17199,-0.004 -0.8262,-0.79893 -1.45378,-1.76776 -0.62759,-0.96884 -1.34981,-1.76152 -1.60493,-1.76152 -0.25513,0 -1.25992,1.30689 -2.23288,2.90419 -0.97296,1.5973 -2.60317,3.69968 -3.62269,4.67196 -1.01951,0.97227 -2.00137,2.10869 -2.18189,2.52538 -0.24531,0.56623 -1.28516,-0.20582 -4.1163,-3.0562 z"
         style="fill:#854700;fill-opacity:1;stroke:none" />
      <path
         transform="translate(0,308.2677)"
         inkscape:connector-curvature="0"
         id="path4936"
         d="m 589.57125,398.66697 c -0.69448,-0.50739 -3.30825,-2.02816 -5.80837,-3.3795 -3.69727,-1.99839 -4.57374,-2.69643 -4.69599,-3.73996 -0.25785,-2.20113 1.68699,-3.89145 7.90937,-6.87428 3.2329,-1.54976 6.5287,-3.27672 7.32402,-3.83768 l 1.44603,-1.01994 -0.34557,2.22161 c -0.5282,3.39561 -2.63646,12.0087 -3.65637,14.9377 l -0.91043,2.61458 -1.26269,-0.92253 z"
         style="fill:#854700;fill-opacity:1;stroke:none" />
      <path
         transform="translate(0,308.2677)"
         inkscape:connector-curvature="0"
         id="path4938"
         d="m 545.85558,390.78703 c -0.43273,-3.4635 -0.063,-20.74911 0.45487,-21.267 0.70756,-0.70755 2.09354,0.65414 4.75196,4.66869 3.21349,4.85277 6.58218,11.56352 6.78974,13.52583 0.14599,1.38017 0.006,1.47854 -3.63624,2.55597 -2.08343,0.61631 -4.73811,1.61468 -5.89927,2.21861 l -2.1112,1.09805 -0.34986,-2.80015 0,0 z"
         style="fill:#673a07;fill-opacity:1;stroke:none" />
      <path
         transform="translate(0,308.2677)"
         inkscape:connector-curvature="0"
         id="path4942"
         d="m 610.23908,593.61294 c -0.68853,-3.49976 -1.18457,-3.69799 -3.7084,-1.48205 l -1.76354,1.54842 -0.33941,-2.55857 c -0.18667,-1.40721 -0.5159,-2.55856 -0.73162,-2.55856 -0.21572,0 -1.34437,0.79549 -2.5081,1.76776 -2.31582,1.93482 -3.92174,2.39601 -3.07773,0.88389 0.27135,-0.48614 3.2272,-4.14161 6.56856,-8.12327 8.61814,-10.26962 8.38338,-9.80599 8.35444,-16.4992 -0.0214,-4.95965 -0.2577,-6.39593 -2.2016,-13.38452 -3.34158,-12.01343 -3.3492,-11.81135 0.95253,-25.25382 2.00017,-6.25032 4.05263,-13.259 4.56104,-15.57486 0.5084,-2.31585 1.07,-4.35627 1.24798,-4.53425 0.17798,-0.17798 1.38941,0.31057 2.69206,1.08568 3.73819,2.22429 12.23599,6.19154 15.39554,7.1875 1.58555,0.4998 2.88282,1.09519 2.88282,1.32309 0,0.22789 -1.62894,2.40241 -3.61987,4.83225 -4.621,5.63974 -10.09547,13.89082 -12.64942,19.06511 -1.94754,3.94571 -1.9888,4.14145 -1.75681,8.33376 0.13066,2.36123 0.92993,7.02056 1.77615,10.35407 0.84623,3.3335 1.69447,7.46772 1.88499,9.18715 0.33788,3.04926 0.29053,3.22338 -1.92263,7.07107 -1.24796,2.16966 -3.67584,7.12681 -5.39528,11.0159 -1.71944,3.88908 -3.45883,7.58245 -3.86532,8.20749 -1.28208,1.97138 -2.12966,1.39317 -2.77638,-1.89404 z"
         style="fill:#673a07;fill-opacity:1;stroke:none" />
      <path
         transform="translate(0,308.2677)"
         inkscape:connector-curvature="0"
         id="path4944"
         d="m 705.36938,588.1966 c -2.24467,-1.85904 -3.67119,-1.93099 -3.67119,-0.18516 0,1.41587 -0.7743,1.71707 -2.74342,1.0672 -1.38706,-0.45777 -1.7976,-0.92105 -2.15484,-2.4316 -0.60545,-2.56009 -1.6938,-2.5928 -4.77017,-0.14336 -2.63021,2.09421 -4.47371,2.64328 -4.47371,1.33246 0,-0.39932 6.73677,-6.57214 14.97061,-13.71738 17.23419,-14.95566 24.2437,-21.54241 26.46716,-24.87086 1.45848,-2.1833 1.55851,-2.61161 1.37569,-5.89005 -0.17639,-3.16289 -0.61235,-4.4139 -4.13635,-11.86929 -4.31838,-9.13598 -5.0379,-11.70846 -3.50441,-12.52916 0.52094,-0.2788 5.26602,-0.67132 10.54462,-0.87227 l 9.59745,-0.36535 3.14252,5.0489 c 1.72838,2.7769 3.2833,5.41577 3.45536,5.86417 0.62599,1.6313 -4.08463,7.73343 -16.20325,20.98966 -21.61213,23.64094 -24.94183,28.07987 -25.04552,33.38908 -0.0243,1.24607 -0.1948,3.32026 -0.37881,4.60931 l -0.33456,2.34371 -2.13718,-1.77001 z"
         style="fill:#673a07;fill-opacity:1;stroke:none" />
      <path
         transform="translate(0,308.2677)"
         inkscape:connector-curvature="0"
         id="path4964"
         d="m 554.72099,414.90657 c -1.7405,-0.85757 -1.76501,-0.91367 -1.58909,-3.63754 0.0983,-1.5216 0.26733,-2.85985 0.37571,-2.9739 0.62076,-0.65325 5.25399,5.40702 5.25399,6.87223 0,0.90806 -1.91982,0.78415 -4.04061,-0.26079 z"
         style="fill:#000000;fill-opacity:1;stroke:none" />
      <path
         transform="translate(0,308.2677)"
         inkscape:connector-curvature="0"
         id="path4966"
         d="m 487.22822,436.92391 c -2.92968,-3.06154 -3.04045,-3.69862 -0.99812,-5.74095 0.94589,-0.9459 1.93384,-1.71981 2.19544,-1.71981 1.17871,0 2.09147,6.52149 1.22095,8.72345 -0.30369,0.76819 -0.6458,0.58955 -2.41827,-1.26269 z"
         style="fill:#000000;fill-opacity:1;stroke:none" />
      <path
         inkscape:connector-curvature="0"
         id="path4936-3"
         d="m 588.73476,705.49891 c -0.50547,-0.36929 -2.40785,-1.47615 -4.22751,-2.4597 -2.69098,-1.45449 -3.32891,-1.96254 -3.41788,-2.72205 -0.18767,-1.60205 1.22784,-2.83232 5.75668,-5.00331 2.353,-1.12796 4.75178,-2.3849 5.33064,-2.79318 l 1.05246,-0.74235 -0.25151,1.61696 c -0.38444,2.47143 -1.9189,8.74029 -2.66122,10.87211 l -0.66264,1.90297 -0.91902,-0.67145 z"
         style="fill:#5f3504;fill-opacity:1;stroke:none" />
    </g>
  </g>
</svg>
