<?xml version="1.0" encoding="UTF-8" standalone="no"?>
<!-- Created with Inkscape (http://www.inkscape.org/) -->
<svg
   xmlns:dc="http://purl.org/dc/elements/1.1/"
   xmlns:cc="http://web.resource.org/cc/"
   xmlns:rdf="http://www.w3.org/1999/02/22-rdf-syntax-ns#"
   xmlns:svg="http://www.w3.org/2000/svg"
   xmlns="http://www.w3.org/2000/svg"
   xmlns:xlink="http://www.w3.org/1999/xlink"
   xmlns:sodipodi="http://sodipodi.sourceforge.net/DTD/sodipodi-0.dtd"
   xmlns:inkscape="http://www.inkscape.org/namespaces/inkscape"
   width="744.09448"
   height="350"
   id="svg2"
   sodipodi:version="0.32"
   inkscape:version="0.44.1"
   sodipodi:docbase="D:\Works\POVAR\newpack-2006\tortelloni\ryba\podklady"
   sodipodi:docname="treska.svg"
   version="1.0">
  <defs
     id="defs4">
    <linearGradient
       id="linearGradient1469">
      <stop
         id="stop1471"
         offset="0"
         style="stop-color:#abcaff;stop-opacity:1;" />
      <stop
         id="stop1473"
         offset="1"
         style="stop-color:#d4e4ff;stop-opacity:1;" />
    </linearGradient>
    <linearGradient
       inkscape:collect="always"
       id="linearGradient3775">
      <stop
         style="stop-color:#11264a;stop-opacity:1"
         offset="0"
         id="stop3777" />
      <stop
         style="stop-color:#374c72;stop-opacity:1"
         offset="1"
         id="stop3779" />
    </linearGradient>
    <linearGradient
       inkscape:collect="always"
       id="linearGradient3767">
      <stop
         style="stop-color:#5474ab;stop-opacity:1"
         offset="0"
         id="stop3769" />
      <stop
         style="stop-color:#39527c;stop-opacity:1"
         offset="1"
         id="stop3771" />
    </linearGradient>
    <linearGradient
       inkscape:collect="always"
       id="linearGradient3759">
      <stop
         style="stop-color:#ffffff;stop-opacity:1;"
         offset="0"
         id="stop3761" />
      <stop
         style="stop-color:#ffffff;stop-opacity:0;"
         offset="1"
         id="stop3763" />
    </linearGradient>
    <linearGradient
       inkscape:collect="always"
       id="linearGradient3724">
      <stop
         style="stop-color:#000000;stop-opacity:1;"
         offset="0"
         id="stop3726" />
      <stop
         style="stop-color:#000000;stop-opacity:0;"
         offset="1"
         id="stop3728" />
    </linearGradient>
    <linearGradient
       inkscape:collect="always"
       id="linearGradient3693">
      <stop
         style="stop-color:#969aa4;stop-opacity:1;"
         offset="0"
         id="stop3695" />
      <stop
         style="stop-color:#cdcdcf;stop-opacity:1"
         offset="1"
         id="stop3697" />
    </linearGradient>
    <linearGradient
       inkscape:collect="always"
       id="linearGradient3667">
      <stop
         style="stop-color:#000000;stop-opacity:1;"
         offset="0"
         id="stop3669" />
      <stop
         style="stop-color:#000000;stop-opacity:0;"
         offset="1"
         id="stop3671" />
    </linearGradient>
    <linearGradient
       inkscape:collect="always"
       id="linearGradient3631">
      <stop
         style="stop-color:#000000;stop-opacity:1;"
         offset="0"
         id="stop3633" />
      <stop
         style="stop-color:#000000;stop-opacity:0;"
         offset="1"
         id="stop3635" />
    </linearGradient>
    <linearGradient
       inkscape:collect="always"
       id="linearGradient3567">
      <stop
         style="stop-color:#000000;stop-opacity:1;"
         offset="0"
         id="stop3569" />
      <stop
         style="stop-color:#000000;stop-opacity:0;"
         offset="1"
         id="stop3571" />
    </linearGradient>
    <linearGradient
       inkscape:collect="always"
       id="linearGradient3514">
      <stop
         style="stop-color:#000000;stop-opacity:0"
         offset="0"
         id="stop3516" />
      <stop
         style="stop-color:#000000;stop-opacity:1"
         offset="1"
         id="stop3518" />
    </linearGradient>
    <linearGradient
       inkscape:collect="always"
       id="linearGradient3445">
      <stop
         style="stop-color:#969aa4;stop-opacity:1;"
         offset="0"
         id="stop3447" />
      <stop
         style="stop-color:#d5d5d5;stop-opacity:1"
         offset="1"
         id="stop3449" />
    </linearGradient>
    <linearGradient
       inkscape:collect="always"
       id="linearGradient3368">
      <stop
         style="stop-color:#969aa4;stop-opacity:1;"
         offset="0"
         id="stop3370" />
      <stop
         style="stop-color:#d6d6d6;stop-opacity:1"
         offset="1"
         id="stop3372" />
    </linearGradient>
    <linearGradient
       inkscape:collect="always"
       id="linearGradient3354">
      <stop
         style="stop-color:#969aa4;stop-opacity:1;"
         offset="0"
         id="stop3356" />
      <stop
         style="stop-color:#d7d7d7;stop-opacity:1"
         offset="1"
         id="stop3358" />
    </linearGradient>
    <linearGradient
       inkscape:collect="always"
       id="linearGradient2306">
      <stop
         style="stop-color:#969aa4;stop-opacity:1"
         offset="0"
         id="stop2308" />
      <stop
         style="stop-color:#d8d8d8;stop-opacity:1"
         offset="1"
         id="stop2310" />
    </linearGradient>
    <linearGradient
       inkscape:collect="always"
       id="linearGradient2274">
      <stop
         style="stop-color:#000000;stop-opacity:1;"
         offset="0"
         id="stop2276" />
      <stop
         style="stop-color:#000000;stop-opacity:0;"
         offset="1"
         id="stop2278" />
    </linearGradient>
    <linearGradient
       inkscape:collect="always"
       id="linearGradient2248">
      <stop
         style="stop-color:#a8afbb;stop-opacity:1"
         offset="0"
         id="stop2250" />
      <stop
         style="stop-color:#e1e1e1;stop-opacity:1"
         offset="1"
         id="stop2252" />
    </linearGradient>
    <linearGradient
       inkscape:collect="always"
       id="linearGradient2224">
      <stop
         style="stop-color:#243044;stop-opacity:1"
         offset="0"
         id="stop2226" />
      <stop
         style="stop-color:#3d5f94;stop-opacity:1"
         offset="1"
         id="stop2228" />
    </linearGradient>
    <linearGradient
       id="linearGradient2208">
      <stop
         style="stop-color:#ffff00;stop-opacity:1;"
         offset="0"
         id="stop2210" />
      <stop
         style="stop-color:#ffffff;stop-opacity:1;"
         offset="1"
         id="stop2212" />
    </linearGradient>
    <linearGradient
       id="linearGradient2200">
      <stop
         style="stop-color:#ffef00;stop-opacity:1;"
         offset="0"
         id="stop2202" />
      <stop
         style="stop-color:#ffef00;stop-opacity:1;"
         offset="1"
         id="stop2204" />
    </linearGradient>
    <radialGradient
       inkscape:collect="always"
       xlink:href="#linearGradient2208"
       id="radialGradient2214"
       cx="142.93222"
       cy="425.0593"
       fx="142.93222"
       fy="425.0593"
       r="11.805615"
       gradientUnits="userSpaceOnUse"
       gradientTransform="matrix(-0.30774,1.166842,-1.044041,-0.27533,619.6395,374.3587)" />
    <linearGradient
       inkscape:collect="always"
       xlink:href="#linearGradient2274"
       id="linearGradient2429"
       gradientUnits="userSpaceOnUse"
       gradientTransform="translate(112.8183,-178.6055)"
       x1="260.90012"
       y1="558.75702"
       x2="323.54266"
       y2="553.61053" />
    <linearGradient
       inkscape:collect="always"
       xlink:href="#linearGradient3693"
       id="linearGradient3738"
       gradientUnits="userSpaceOnUse"
       gradientTransform="matrix(-0.138252,0.225503,0.722454,-0.108768,-251.2058,529.4699)"
       x1="251.96013"
       y1="562.48187"
       x2="277.76328"
       y2="590.94122" />
    <linearGradient
       inkscape:collect="always"
       xlink:href="#linearGradient3693"
       id="linearGradient3942"
       gradientUnits="userSpaceOnUse"
       gradientTransform="matrix(0.276504,0,-0.518581,0.534815,357.1774,234.092)"
       x1="251.96013"
       y1="562.48187"
       x2="277.76328"
       y2="590.94122" />
    <linearGradient
       inkscape:collect="always"
       xlink:href="#linearGradient3693"
       id="linearGradient3944"
       gradientUnits="userSpaceOnUse"
       gradientTransform="translate(-4.553496,0.758916)"
       x1="251.96013"
       y1="562.48187"
       x2="277.76328"
       y2="590.94122" />
    <linearGradient
       inkscape:collect="always"
       xlink:href="#linearGradient3693"
       id="linearGradient3946"
       gradientUnits="userSpaceOnUse"
       x1="251.96013"
       y1="562.48187"
       x2="277.76328"
       y2="590.94122" />
    <linearGradient
       inkscape:collect="always"
       xlink:href="#linearGradient3368"
       id="linearGradient3948"
       gradientUnits="userSpaceOnUse"
       gradientTransform="matrix(0.999044,6.415167e-2,-3.758326e-2,-0.862868,21.30428,932.7547)"
       x1="471.61212"
       y1="495.37201"
       x2="503.05295"
       y2="474.77286" />
    <linearGradient
       inkscape:collect="always"
       xlink:href="#linearGradient3667"
       id="linearGradient3950"
       gradientUnits="userSpaceOnUse"
       gradientTransform="matrix(0.999044,6.415167e-2,-3.758326e-2,-0.862868,21.30428,932.7547)"
       x1="472.69629"
       y1="494.5589"
       x2="495.19272"
       y2="473.41766" />
    <linearGradient
       inkscape:collect="always"
       xlink:href="#linearGradient3354"
       id="linearGradient3952"
       gradientUnits="userSpaceOnUse"
       gradientTransform="matrix(1.067377,-2.251623e-3,-0.163928,-0.974627,45.09665,1023.786)"
       x1="379.72906"
       y1="477.21222"
       x2="410.62778"
       y2="446.58456" />
    <linearGradient
       inkscape:collect="always"
       xlink:href="#linearGradient3631"
       id="linearGradient3954"
       gradientUnits="userSpaceOnUse"
       gradientTransform="matrix(1.067377,-2.251623e-3,-0.163928,-0.974627,45.09647,1023.785)"
       x1="379.72906"
       y1="473.68869"
       x2="399.24405"
       y2="444.68726" />
    <linearGradient
       inkscape:collect="always"
       xlink:href="#linearGradient3767"
       id="linearGradient3956"
       gradientUnits="userSpaceOnUse"
       x1="200.9351"
       y1="499.04086"
       x2="545.82373"
       y2="520.03412" />
    <linearGradient
       inkscape:collect="always"
       xlink:href="#linearGradient3759"
       id="linearGradient3958"
       gradientUnits="userSpaceOnUse"
       x1="353.49603"
       y1="577.46967"
       x2="348.12387"
       y2="524.02228" />
    <linearGradient
       inkscape:collect="always"
       xlink:href="#linearGradient3368"
       id="linearGradient3960"
       gradientUnits="userSpaceOnUse"
       x1="471.61212"
       y1="495.37201"
       x2="503.05295"
       y2="474.77286" />
    <linearGradient
       inkscape:collect="always"
       xlink:href="#linearGradient3354"
       id="linearGradient3962"
       gradientUnits="userSpaceOnUse"
       x1="379.72906"
       y1="477.21222"
       x2="410.62778"
       y2="446.58456" />
    <linearGradient
       inkscape:collect="always"
       xlink:href="#linearGradient2306"
       id="linearGradient3964"
       gradientUnits="userSpaceOnUse"
       x1="278.90164"
       y1="452.0596"
       x2="306.98154"
       y2="423.60025" />
    <linearGradient
       inkscape:collect="always"
       xlink:href="#linearGradient2224"
       id="linearGradient3966"
       gradientUnits="userSpaceOnUse"
       x1="144.49762"
       y1="503.59"
       x2="817.58026"
       y2="503.05875" />
    <radialGradient
       inkscape:collect="always"
       xlink:href="#linearGradient2208"
       id="radialGradient3968"
       gradientUnits="userSpaceOnUse"
       gradientTransform="matrix(-0.30774,1.166842,-1.044041,-0.27533,619.6395,374.3587)"
       cx="142.93222"
       cy="425.0593"
       fx="142.93222"
       fy="425.0593"
       r="11.805615" />
    <linearGradient
       inkscape:collect="always"
       xlink:href="#linearGradient2248"
       id="linearGradient3970"
       gradientUnits="userSpaceOnUse"
       x1="246.26826"
       y1="518.84418"
       x2="316.08853"
       y2="508.9783" />
    <linearGradient
       inkscape:collect="always"
       xlink:href="#linearGradient3724"
       id="linearGradient3972"
       gradientUnits="userSpaceOnUse"
       x1="253.15271"
       y1="508.9241"
       x2="280.52789"
       y2="528.98114" />
    <linearGradient
       inkscape:collect="always"
       xlink:href="#linearGradient3775"
       id="linearGradient3974"
       gradientUnits="userSpaceOnUse"
       x1="244.42107"
       y1="486.29498"
       x2="659.78693"
       y2="519.60742" />
    <linearGradient
       inkscape:collect="always"
       xlink:href="#linearGradient3567"
       id="linearGradient3976"
       gradientUnits="userSpaceOnUse"
       x1="272.83035"
       y1="445.98825"
       x2="316.87064"
       y2="438.13382" />
    <linearGradient
       inkscape:collect="always"
       xlink:href="#linearGradient3631"
       id="linearGradient3978"
       gradientUnits="userSpaceOnUse"
       x1="379.72906"
       y1="473.68869"
       x2="399.24405"
       y2="444.68726" />
    <linearGradient
       inkscape:collect="always"
       xlink:href="#linearGradient3667"
       id="linearGradient3980"
       gradientUnits="userSpaceOnUse"
       x1="472.69629"
       y1="494.5589"
       x2="495.19272"
       y2="473.41766" />
    <linearGradient
       inkscape:collect="always"
       xlink:href="#linearGradient3445"
       id="linearGradient3982"
       gradientUnits="userSpaceOnUse"
       x1="621.021"
       y1="516.32806"
       x2="567.39746"
       y2="516.32806" />
    <linearGradient
       inkscape:collect="always"
       xlink:href="#linearGradient3514"
       id="linearGradient3984"
       gradientUnits="userSpaceOnUse"
       x1="613.58362"
       y1="516.10938"
       x2="563.87463"
       y2="516.10938" />
    <linearGradient
       inkscape:collect="always"
       xlink:href="#linearGradient3514"
       id="linearGradient3990"
       gradientUnits="userSpaceOnUse"
       x1="613.58362"
       y1="516.10938"
       x2="563.87463"
       y2="516.10938"
       gradientTransform="translate(0,215.1995)" />
    <linearGradient
       inkscape:collect="always"
       xlink:href="#linearGradient3445"
       id="linearGradient3993"
       gradientUnits="userSpaceOnUse"
       x1="621.021"
       y1="516.32806"
       x2="567.39746"
       y2="516.32806"
       gradientTransform="translate(0,215.1995)" />
    <linearGradient
       inkscape:collect="always"
       xlink:href="#linearGradient3667"
       id="linearGradient3996"
       gradientUnits="userSpaceOnUse"
       x1="472.69629"
       y1="494.5589"
       x2="495.19272"
       y2="473.41766"
       gradientTransform="translate(0,215.1995)" />
    <linearGradient
       inkscape:collect="always"
       xlink:href="#linearGradient3631"
       id="linearGradient3999"
       gradientUnits="userSpaceOnUse"
       x1="379.72906"
       y1="473.68869"
       x2="399.24405"
       y2="444.68726"
       gradientTransform="translate(0,215.1995)" />
    <linearGradient
       inkscape:collect="always"
       xlink:href="#linearGradient3567"
       id="linearGradient4002"
       gradientUnits="userSpaceOnUse"
       x1="272.83035"
       y1="445.98825"
       x2="316.87064"
       y2="438.13382"
       gradientTransform="translate(0,215.1995)" />
    <linearGradient
       inkscape:collect="always"
       xlink:href="#linearGradient3775"
       id="linearGradient4005"
       gradientUnits="userSpaceOnUse"
       x1="244.42107"
       y1="486.29498"
       x2="659.78693"
       y2="519.60742"
       gradientTransform="translate(0,215.1995)" />
    <linearGradient
       inkscape:collect="always"
       xlink:href="#linearGradient3724"
       id="linearGradient4017"
       gradientUnits="userSpaceOnUse"
       x1="253.15271"
       y1="508.9241"
       x2="280.52789"
       y2="528.98114"
       gradientTransform="translate(0,215.1995)" />
    <linearGradient
       inkscape:collect="always"
       xlink:href="#linearGradient2248"
       id="linearGradient4020"
       gradientUnits="userSpaceOnUse"
       x1="246.26826"
       y1="518.84418"
       x2="316.08853"
       y2="508.9783"
       gradientTransform="translate(0,215.1995)" />
    <linearGradient
       inkscape:collect="always"
       xlink:href="#linearGradient2224"
       id="linearGradient4025"
       gradientUnits="userSpaceOnUse"
       x1="144.49762"
       y1="503.59"
       x2="817.58026"
       y2="503.05875"
       gradientTransform="translate(0,215.1995)" />
    <linearGradient
       inkscape:collect="always"
       xlink:href="#linearGradient2306"
       id="linearGradient4028"
       gradientUnits="userSpaceOnUse"
       x1="278.90164"
       y1="452.0596"
       x2="306.98154"
       y2="423.60025"
       gradientTransform="translate(0,215.1995)" />
    <linearGradient
       inkscape:collect="always"
       xlink:href="#linearGradient3354"
       id="linearGradient4031"
       gradientUnits="userSpaceOnUse"
       x1="379.72906"
       y1="477.21222"
       x2="410.62778"
       y2="446.58456"
       gradientTransform="translate(0,215.1995)" />
    <linearGradient
       inkscape:collect="always"
       xlink:href="#linearGradient3368"
       id="linearGradient4034"
       gradientUnits="userSpaceOnUse"
       x1="471.61212"
       y1="495.37201"
       x2="503.05295"
       y2="474.77286"
       gradientTransform="translate(0,215.1995)" />
    <linearGradient
       inkscape:collect="always"
       xlink:href="#linearGradient3759"
       id="linearGradient4037"
       gradientUnits="userSpaceOnUse"
       x1="353.49603"
       y1="577.46967"
       x2="348.12387"
       y2="524.02228"
       gradientTransform="translate(0,215.1995)" />
    <linearGradient
       inkscape:collect="always"
       xlink:href="#linearGradient3767"
       id="linearGradient4040"
       gradientUnits="userSpaceOnUse"
       x1="200.9351"
       y1="499.04086"
       x2="545.82373"
       y2="520.03412"
       gradientTransform="translate(0,215.1995)" />
    <linearGradient
       inkscape:collect="always"
       xlink:href="#linearGradient3631"
       id="linearGradient4043"
       gradientUnits="userSpaceOnUse"
       gradientTransform="matrix(1.067377,-2.251623e-3,-0.163928,-0.974627,45.09647,1238.985)"
       x1="379.72906"
       y1="473.68869"
       x2="399.24405"
       y2="444.68726" />
    <linearGradient
       inkscape:collect="always"
       xlink:href="#linearGradient3354"
       id="linearGradient4046"
       gradientUnits="userSpaceOnUse"
       gradientTransform="matrix(1.067377,-2.251623e-3,-0.163928,-0.974627,45.09665,1238.986)"
       x1="379.72906"
       y1="477.21222"
       x2="410.62778"
       y2="446.58456" />
    <linearGradient
       inkscape:collect="always"
       xlink:href="#linearGradient3667"
       id="linearGradient4049"
       gradientUnits="userSpaceOnUse"
       gradientTransform="matrix(0.999044,6.415167e-2,-3.758326e-2,-0.862868,21.30428,1147.954)"
       x1="472.69629"
       y1="494.5589"
       x2="495.19272"
       y2="473.41766" />
    <linearGradient
       inkscape:collect="always"
       xlink:href="#linearGradient3368"
       id="linearGradient4052"
       gradientUnits="userSpaceOnUse"
       gradientTransform="matrix(0.999044,6.415167e-2,-3.758326e-2,-0.862868,21.30428,1147.954)"
       x1="471.61212"
       y1="495.37201"
       x2="503.05295"
       y2="474.77286" />
    <linearGradient
       inkscape:collect="always"
       xlink:href="#linearGradient3693"
       id="linearGradient4055"
       gradientUnits="userSpaceOnUse"
       x1="251.96013"
       y1="562.48187"
       x2="277.76328"
       y2="590.94122"
       gradientTransform="translate(0,215.1995)" />
    <linearGradient
       inkscape:collect="always"
       xlink:href="#linearGradient3693"
       id="linearGradient4058"
       gradientUnits="userSpaceOnUse"
       gradientTransform="translate(-4.553496,215.9584)"
       x1="251.96013"
       y1="562.48187"
       x2="277.76328"
       y2="590.94122" />
    <linearGradient
       inkscape:collect="always"
       xlink:href="#linearGradient3693"
       id="linearGradient4061"
       gradientUnits="userSpaceOnUse"
       gradientTransform="matrix(0.276504,0,-0.518581,0.534815,357.1774,449.2915)"
       x1="251.96013"
       y1="562.48187"
       x2="277.76328"
       y2="590.94122" />
    <linearGradient
       inkscape:collect="always"
       xlink:href="#linearGradient3514"
       id="linearGradient2375"
       gradientUnits="userSpaceOnUse"
       x1="613.58362"
       y1="516.10938"
       x2="563.87463"
       y2="516.10938"
       gradientTransform="translate(0,52.81252)" />
    <linearGradient
       inkscape:collect="always"
       xlink:href="#linearGradient3445"
       id="linearGradient2378"
       gradientUnits="userSpaceOnUse"
       x1="621.021"
       y1="516.32806"
       x2="567.39746"
       y2="516.32806"
       gradientTransform="translate(0,52.81252)" />
    <linearGradient
       inkscape:collect="always"
       xlink:href="#linearGradient3667"
       id="linearGradient2381"
       gradientUnits="userSpaceOnUse"
       x1="472.69629"
       y1="494.5589"
       x2="495.19272"
       y2="473.41766"
       gradientTransform="translate(0,52.81252)" />
    <linearGradient
       inkscape:collect="always"
       xlink:href="#linearGradient3631"
       id="linearGradient2384"
       gradientUnits="userSpaceOnUse"
       x1="379.72906"
       y1="473.68869"
       x2="399.24405"
       y2="444.68726"
       gradientTransform="translate(0,52.81252)" />
    <linearGradient
       inkscape:collect="always"
       xlink:href="#linearGradient3567"
       id="linearGradient2387"
       gradientUnits="userSpaceOnUse"
       x1="272.83035"
       y1="445.98825"
       x2="316.87064"
       y2="438.13382"
       gradientTransform="translate(0,52.81252)" />
    <linearGradient
       inkscape:collect="always"
       xlink:href="#linearGradient3775"
       id="linearGradient2390"
       gradientUnits="userSpaceOnUse"
       x1="244.42107"
       y1="486.29498"
       x2="659.78693"
       y2="519.60742"
       gradientTransform="translate(0,52.81252)" />
    <linearGradient
       inkscape:collect="always"
       xlink:href="#linearGradient3724"
       id="linearGradient2402"
       gradientUnits="userSpaceOnUse"
       gradientTransform="matrix(1.087299,0,0,1,-21.09082,52.81252)"
       x1="253.15271"
       y1="508.9241"
       x2="280.27502"
       y2="529.80597" />
    <linearGradient
       inkscape:collect="always"
       xlink:href="#linearGradient2248"
       id="linearGradient2405"
       gradientUnits="userSpaceOnUse"
       x1="246.26826"
       y1="518.84418"
       x2="316.08853"
       y2="508.9783"
       gradientTransform="translate(0,52.81252)" />
    <linearGradient
       inkscape:collect="always"
       xlink:href="#linearGradient2224"
       id="linearGradient2410"
       gradientUnits="userSpaceOnUse"
       x1="144.49762"
       y1="503.59"
       x2="817.58026"
       y2="503.05875"
       gradientTransform="translate(0,52.81252)" />
    <linearGradient
       inkscape:collect="always"
       xlink:href="#linearGradient2306"
       id="linearGradient2413"
       gradientUnits="userSpaceOnUse"
       x1="278.90164"
       y1="452.0596"
       x2="306.98154"
       y2="423.60025"
       gradientTransform="translate(0,52.81252)" />
    <linearGradient
       inkscape:collect="always"
       xlink:href="#linearGradient3354"
       id="linearGradient2416"
       gradientUnits="userSpaceOnUse"
       x1="379.72906"
       y1="477.21222"
       x2="410.62778"
       y2="446.58456"
       gradientTransform="translate(0,52.81252)" />
    <linearGradient
       inkscape:collect="always"
       xlink:href="#linearGradient3368"
       id="linearGradient2419"
       gradientUnits="userSpaceOnUse"
       x1="471.61212"
       y1="495.37201"
       x2="503.05295"
       y2="474.77286"
       gradientTransform="translate(0,52.81252)" />
    <linearGradient
       inkscape:collect="always"
       xlink:href="#linearGradient3759"
       id="linearGradient2422"
       gradientUnits="userSpaceOnUse"
       x1="353.49603"
       y1="577.46967"
       x2="350.81839"
       y2="519.71106"
       gradientTransform="translate(0,52.81252)" />
    <linearGradient
       inkscape:collect="always"
       xlink:href="#linearGradient3767"
       id="linearGradient2425"
       gradientUnits="userSpaceOnUse"
       x1="200.9351"
       y1="499.04086"
       x2="545.82373"
       y2="520.03412"
       gradientTransform="translate(0,52.81252)" />
    <linearGradient
       inkscape:collect="always"
       xlink:href="#linearGradient3631"
       id="linearGradient2428"
       gradientUnits="userSpaceOnUse"
       gradientTransform="matrix(1.067377,-2.251623e-3,-0.163928,-0.974627,45.09647,1076.598)"
       x1="379.72906"
       y1="473.68869"
       x2="399.24405"
       y2="444.68726" />
    <linearGradient
       inkscape:collect="always"
       xlink:href="#linearGradient3354"
       id="linearGradient2431"
       gradientUnits="userSpaceOnUse"
       gradientTransform="matrix(1.067377,-2.251623e-3,-0.163928,-0.974627,45.09665,1076.599)"
       x1="379.72906"
       y1="477.21222"
       x2="410.62778"
       y2="446.58456" />
    <linearGradient
       inkscape:collect="always"
       xlink:href="#linearGradient3667"
       id="linearGradient2434"
       gradientUnits="userSpaceOnUse"
       gradientTransform="matrix(0.999044,6.415167e-2,-3.758326e-2,-0.862868,21.30428,985.5672)"
       x1="472.69629"
       y1="494.5589"
       x2="495.19272"
       y2="473.41766" />
    <linearGradient
       inkscape:collect="always"
       xlink:href="#linearGradient3368"
       id="linearGradient2437"
       gradientUnits="userSpaceOnUse"
       gradientTransform="matrix(0.999044,6.415167e-2,-3.758326e-2,-0.862868,21.30428,985.5672)"
       x1="471.61212"
       y1="495.37201"
       x2="503.05295"
       y2="474.77286" />
    <linearGradient
       inkscape:collect="always"
       xlink:href="#linearGradient3693"
       id="linearGradient2440"
       gradientUnits="userSpaceOnUse"
       x1="251.96013"
       y1="562.48187"
       x2="277.76328"
       y2="590.94122"
       gradientTransform="translate(0,52.81252)" />
    <linearGradient
       inkscape:collect="always"
       xlink:href="#linearGradient3693"
       id="linearGradient2443"
       gradientUnits="userSpaceOnUse"
       gradientTransform="translate(-4.553496,53.57144)"
       x1="251.96013"
       y1="562.48187"
       x2="277.76328"
       y2="590.94122" />
    <linearGradient
       inkscape:collect="always"
       xlink:href="#linearGradient3693"
       id="linearGradient2446"
       gradientUnits="userSpaceOnUse"
       gradientTransform="matrix(0.276504,0,-0.518581,0.534815,357.1774,286.9045)"
       x1="251.96013"
       y1="562.48187"
       x2="277.76328"
       y2="590.94122" />
    <linearGradient
       inkscape:collect="always"
       xlink:href="#linearGradient3775"
       id="linearGradient2460"
       x1="134.18695"
       y1="414.17441"
       x2="134.18695"
       y2="573.2807"
       gradientUnits="userSpaceOnUse" />
  </defs>
  <sodipodi:namedview
     id="base"
     pagecolor="#ffffff"
     bordercolor="#666666"
     borderopacity="1.0"
     inkscape:pageopacity="0.0"
     inkscape:pageshadow="2"
     inkscape:zoom="0.66944976"
     inkscape:cx="272.42307"
     inkscape:cy="479.33223"
     inkscape:document-units="px"
     inkscape:current-layer="layer2"
     inkscape:window-width="1277"
     inkscape:window-height="1107"
     inkscape:window-x="5"
     inkscape:window-y="10"
     showguides="true"
     inkscape:guide-bbox="true"
     height="350px"
     width="744.09448px" />
  <metadata
     id="metadata7">
    <rdf:RDF>
      <cc:Work
         rdf:about="">
        <dc:format>image/svg+xml</dc:format>
        <dc:type
           rdf:resource="http://purl.org/dc/dcmitype/StillImage" />
        <dc:title>fish</dc:title>
        <dc:date>08 11 2006</dc:date>
        <dc:creator>
          <cc:Agent>
            <dc:title>Lumen Design Studio</dc:title>
          </cc:Agent>
        </dc:creator>
        <cc:license
           rdf:resource="http://web.resource.org/cc/PublicDomain" />
        <dc:subject>
          <rdf:Bag>
            <rdf:li>fish</rdf:li>
            <rdf:li>sea</rdf:li>
            <rdf:li>animal</rdf:li>
            <rdf:li>profile</rdf:li>
            <rdf:li>eye</rdf:li>
            <rdf:li>blue</rdf:li>
          </rdf:Bag>
        </dc:subject>
        <dc:description>A fish</dc:description>
      </cc:Work>
      <cc:License
         rdf:about="http://web.resource.org/cc/PublicDomain">
        <cc:permits
           rdf:resource="http://web.resource.org/cc/Reproduction" />
        <cc:permits
           rdf:resource="http://web.resource.org/cc/Distribution" />
        <cc:permits
           rdf:resource="http://web.resource.org/cc/DerivativeWorks" />
      </cc:License>
    </rdf:RDF>
  </metadata>
  <g
     inkscape:label="Layer 1"
     inkscape:groupmode="layer"
     id="layer1"
     style="display:inline" />
  <g
     inkscape:groupmode="layer"
     id="layer2"
     inkscape:label="treska"
     style="display:inline">
    <g
       id="g2033"
       transform="matrix(1.340376,0,0,1.340376,-131.9003,-573.5797)">
      <path
         style="fill:url(#linearGradient2446);fill-opacity:1;fill-rule:evenodd;stroke:black;stroke-width:1.25;stroke-linecap:butt;stroke-linejoin:miter;stroke-miterlimit:4;stroke-dasharray:none;stroke-opacity:1"
         d="M 142.42358,586.84938 C 134.05959,592.10303 130.48668,598.53121 128.53883,603.55581 C 126.91269,600.24814 128.14939,594.01033 133.93837,586.10573 L 142.42358,586.84938 z "
         id="path3732"
         sodipodi:nodetypes="cccc" />
      <path
         style="fill:url(#linearGradient2443);fill-opacity:1;fill-rule:evenodd;stroke:black;stroke-width:1.25;stroke-linecap:butt;stroke-linejoin:miter;stroke-miterlimit:4;stroke-dasharray:none;stroke-opacity:1"
         d="M 253.0985,613.39711 C 256.68901,627.78158 266.42863,637.01491 272.83031,649.82508 C 254.59095,638.32794 245.02904,628.81385 229.5721,611.49982 L 253.0985,613.39711 z "
         id="path3701"
         sodipodi:nodetypes="cccc" />
      <path
         sodipodi:nodetypes="cccc"
         id="path3691"
         d="M 259.54929,612.63819 C 263.1398,627.02266 272.87942,637.01491 283.45514,646.40995 C 265.97469,640.22523 249.58254,628.05493 234.1256,610.7409 L 259.54929,612.63819 z "
         style="fill:url(#linearGradient2440);fill-opacity:1;fill-rule:evenodd;stroke:black;stroke-width:1.25;stroke-linecap:butt;stroke-linejoin:miter;stroke-miterlimit:4;stroke-dasharray:none;stroke-opacity:1" />
      <path
         style="fill:url(#linearGradient2437);fill-opacity:1;fill-rule:evenodd;stroke:black;stroke-width:1.25;stroke-linecap:butt;stroke-linejoin:miter;stroke-miterlimit:4;stroke-dasharray:none;stroke-opacity:1"
         d="M 442.23752,587.9836 C 456.26066,599.87676 471.38568,611.28647 495.15895,618.90169 C 505.21179,611.10641 517.52395,605.03334 520.75419,592.79218 C 514.73376,588.75183 503.88043,584.40115 505.65318,580.86121 C 479.86104,581.45442 462.78738,585.38418 442.23752,587.9836 z "
         id="path3683"
         sodipodi:nodetypes="ccccc" />
      <path
         id="path3685"
         style="fill:url(#linearGradient2434);fill-opacity:1;fill-rule:evenodd;stroke:none;stroke-width:1px;stroke-linecap:butt;stroke-linejoin:miter;stroke-opacity:1"
         d="M 494.77166,614.5944 C 478.75119,607.25646 464.46584,598.78947 451.94662,589.17687 L 452.57288,588.54485 C 465.0172,598.09993 479.19684,606.53437 495.14346,613.83849 L 494.77166,614.5944 z M 499.97895,610.49206 C 485.3772,603.5488 471.7701,596.22638 461.34475,587.65611 L 461.97336,587.07802 C 472.27005,595.54253 485.81619,602.83839 500.38315,609.76512 L 499.97895,610.49206 z M 505.4684,606.43472 C 492.37035,600.43309 480.18852,594.07516 471.25415,586.43706 L 471.9128,585.83401 C 480.69828,593.34483 492.80968,599.69581 505.87142,605.68082 L 505.4684,606.43472 z M 509.8534,602.03757 C 499.22046,596.72131 488.69698,591.35336 481.464,584.96841 L 482.12501,584.4193 C 489.18701,590.65331 499.66123,595.99906 510.28882,601.31264 L 509.8534,602.03757 z M 513.99989,597.16799 C 505.21324,593.18477 498.15774,588.86895 494.30457,583.85693 L 495.09633,583.45066 C 498.75614,588.21116 505.66415,592.46473 514.37169,596.41208 L 513.99989,597.16799 z " />
      <path
         style="fill:url(#linearGradient2431);fill-opacity:1;fill-rule:evenodd;stroke:black;stroke-width:1.25;stroke-linecap:butt;stroke-linejoin:miter;stroke-miterlimit:4;stroke-dasharray:none;stroke-opacity:1"
         d="M 319.00587,618.99585 C 335.62357,635.11875 353.45279,650.41717 378.6881,660.67559 C 403.33261,645.92888 431.03024,633.59326 447.55632,612.43532 C 437.96406,606.18947 432.0244,600.73917 426.87386,595.46074 L 319.00587,618.99585 z "
         id="path3675"
         sodipodi:nodetypes="ccccc" />
      <path
         id="path3677"
         style="fill:url(#linearGradient2428);fill-opacity:1;fill-rule:evenodd;stroke:none;stroke-width:1px;stroke-linecap:butt;stroke-linejoin:miter;stroke-opacity:1"
         d="M 378.57925,655.68101 C 361.88552,645.45213 345.84886,634.14086 330.98333,621.07847 L 331.67628,620.43717 C 346.47353,633.43958 362.43515,644.68899 379.07982,654.88779 L 378.57925,655.68101 z M 385.15907,651.95004 C 368.5929,641.57319 352.50404,631.03262 340.21052,619.20046 L 340.94195,618.58956 C 353.10719,630.29823 369.14724,640.81994 385.69811,651.18721 L 385.15907,651.95004 z M 391.69028,647.73169 C 374.8856,637.53224 360.84394,627.30605 349.43008,617.07873 L 350.12304,616.43743 C 361.46241,626.59804 375.47505,636.77267 392.2242,646.9384 L 391.69028,647.73169 z M 397.43621,644.00248 C 381.19269,634.32048 369.25617,624.62098 359.17821,614.92541 L 359.90965,614.31451 C 369.93082,623.95546 381.78285,633.58068 397.93677,643.20927 L 397.43621,644.00248 z M 403.84139,640.82031 C 391.02747,632.18713 378.10481,623.56091 368.62615,612.77272 L 369.43454,612.2226 C 378.76093,622.83748 391.56381,631.42246 404.38044,640.05747 L 403.84139,640.82031 z M 410.36748,636.57151 C 397.69599,628.32127 385.84601,619.9213 377.58649,610.89528 L 378.36154,610.34522 C 386.47946,619.21651 398.26321,627.57678 410.90652,635.80867 L 410.36748,636.57151 z M 416.77266,633.38934 C 404.98114,625.83077 394.37929,617.78955 386.17231,608.77489 L 386.9807,608.22475 C 395.07699,617.11785 405.577,625.10437 417.31171,632.6265 L 416.77266,633.38934 z M 422.47761,629.41647 C 411.2904,622.14858 401.59185,614.65994 395.61512,606.59173 L 396.50559,606.13285 C 402.32551,613.98936 411.88626,621.42265 423.01666,628.65363 L 422.47761,629.41647 z M 427.92847,625.71836 C 416.79218,618.75543 408.50768,611.77458 404.27014,604.68447 L 405.17598,604.31695 C 409.24611,611.12693 417.41414,618.01719 428.46239,624.92506 L 427.92847,625.71836 z M 433.84904,621.44036 C 425.41757,615.78326 416.72353,610.16537 413.09981,602.22841 L 414.05948,601.98265 C 417.49219,609.50122 425.98484,615.04393 434.42655,620.70791 L 433.84904,621.44036 z M 439.24662,615.64008 C 431.58491,610.81279 425.02508,605.80557 422.54774,600.07574 L 423.5459,599.86035 C 425.83994,605.1662 432.1879,610.09025 439.78566,614.87724 L 439.24662,615.64008 z " />
      <path
         sodipodi:nodetypes="csssccccssccsc"
         id="path1318"
         d="M 263.3125,510.78127 C 256.60622,510.85698 250.43871,511.34574 244.90625,512.31252 C 177.96325,524.01063 150.76712,538.24977 120.0625,557.46877 C 116.88127,559.45999 115.08334,567.52535 122.75861,573.54211 C 126.9447,576.82366 137.80094,578.18393 142.32206,581.12109 C 136.32333,580.05244 129.6323,579.84671 128.47587,581.30317 C 127.88238,582.70671 128.9645,583.93132 130.6875,585.62502 C 130.6875,585.62502 180.94856,612.80601 308.65625,623.34377 C 329.97388,625.11754 392.62327,610.7957 440.65625,595.65627 C 482.87821,582.34842 520.09378,579.25003 520.09375,579.25002 C 557.98896,590.40609 596.41727,608.96658 633.78125,614.31252 C 620.00505,587.90822 605.54361,569.04126 633.25,524.00002 C 607.0789,523.42623 567.66996,540.62272 520.625,556.93752 C 494.8508,565.87581 342.44664,509.88795 263.3125,510.78127 z "
         style="fill:url(#linearGradient2425);fill-opacity:1;fill-rule:evenodd;stroke:none;stroke-width:1px;stroke-linecap:butt;stroke-linejoin:miter;stroke-opacity:1" />
      <path
         sodipodi:nodetypes="csccccccs"
         id="path3745"
         d="M 528.25702,571.34313 C 495.18202,572.89856 180.3947,557.27012 161.78168,580.12909 C 150.83802,593.56919 182.50451,601.78364 175.16985,600.85028 C 185.33481,605.35939 215.58569,610.36536 234.29801,614.27055 C 265.30312,618.36411 296.641,625.19103 327.99367,622.35713 C 379.24458,616.06163 427.86666,598.00544 477.78967,585.9542 C 497.11105,583.0989 517.61274,574.77434 536.251,584.38448 C 547.66959,588.77612 576.86199,602.8384 568.33459,578.21232 C 556.72132,569.04686 542.33479,570.68109 528.25702,571.34313 z "
         style="fill:url(#linearGradient2422);fill-opacity:1;fill-rule:evenodd;stroke:none;stroke-width:1px;stroke-linecap:butt;stroke-linejoin:miter;stroke-opacity:1" />
      <path
         sodipodi:nodetypes="ccccc"
         id="path3366"
         d="M 439.90027,546.28724 C 453.45623,533.5118 468.13936,521.38045 491.66918,514.30435 C 502.10068,524.11405 514.7247,532.09085 518.50229,546.55828 C 512.63584,550.8046 501.93186,555.05091 503.86605,559.29723 C 477.95088,556.68303 460.64114,550.8418 439.90027,546.28724 z "
         style="fill:url(#linearGradient2419);fill-opacity:1;fill-rule:evenodd;stroke:black;stroke-width:1.25;stroke-linecap:butt;stroke-linejoin:miter;stroke-miterlimit:4;stroke-dasharray:none;stroke-opacity:1" />
      <path
         sodipodi:nodetypes="ccccc"
         id="path3352"
         d="M 328.61065,521.56826 C 341.63413,504.99554 355.92214,489.26584 377.94019,478.6895 C 403.34379,493.76142 431.22698,506.35376 450.03722,528.01905 C 442.03751,534.44599 437.3333,540.04905 433.34106,545.47412 L 328.61065,521.56826 z "
         style="fill:url(#linearGradient2416);fill-opacity:1;fill-rule:evenodd;stroke:black;stroke-width:1.25;stroke-linecap:butt;stroke-linejoin:miter;stroke-miterlimit:4;stroke-dasharray:none;stroke-opacity:1" />
      <path
         sodipodi:nodetypes="cccc"
         id="path2292"
         d="M 246.10563,514.03331 C 262.26269,490.29522 284.20151,467.76166 317.66057,447.62815 C 316.43866,472.58692 319.96848,496.75374 327.41807,520.26726 C 293.22229,513.26598 267.94542,511.66006 246.10563,514.03331 z "
         style="fill:url(#linearGradient2413);fill-opacity:1;fill-rule:evenodd;stroke:black;stroke-width:1.25;stroke-linecap:butt;stroke-linejoin:miter;stroke-miterlimit:4;stroke-dasharray:none;stroke-opacity:1" />
      <path
         sodipodi:nodetypes="csssss"
         id="path2234"
         d="M 239.06939,571.8085 C 246.78697,572.21298 293.92234,546.68281 310.24488,549.49637 C 315.09064,550.33165 325.57194,566.56707 281.0483,589.32863 C 277.87162,590.95262 254.37759,586.32089 245.43345,586.15202 C 241.27025,586.07342 247.14914,581.21635 245.96469,578.71464 C 244.26163,575.11755 235.8319,571.63882 239.06939,571.8085 z "
         style="fill:url(#linearGradient2405);fill-opacity:1;fill-rule:evenodd;stroke:black;stroke-width:1.25;stroke-linecap:butt;stroke-linejoin:miter;stroke-miterlimit:4;stroke-dasharray:none;stroke-opacity:1" />
      <path
         d="M 307.61317,552.31252 L 241.59375,574.56252 L 241.96751,575.50002 L 307.98693,553.25002 L 307.61317,552.31252 z M 306.72974,556.65627 L 244.85565,577.25002 L 245.19543,578.18752 L 307.1035,557.59377 L 306.72974,556.65627 z M 301.76894,564.50002 L 246.04488,578.87502 L 246.35068,579.84377 L 302.04076,565.46877 L 301.76894,564.50002 z M 295.3131,571.81252 L 245.50123,581.56252 L 245.73908,582.56252 L 295.51697,572.78127 L 295.3131,571.81252 z M 287.70201,579.12502 L 244.37995,583.46877 L 244.48189,584.46877 L 287.80395,580.12502 L 287.70201,579.12502 z M 281.55198,584.28127 L 244.10813,585.37502 L 244.14211,586.34377 L 281.58596,585.28127 L 281.55198,584.28127 z "
         style="fill:url(#linearGradient2402);fill-opacity:1;fill-rule:evenodd;stroke:none;stroke-width:1px;stroke-linecap:butt;stroke-linejoin:miter;stroke-opacity:1"
         id="path2236" />
      <path
         id="path3310"
         d="M 218.8369,552.22487 C 215.73701,573.5998 197.31857,590.00612 175.0869,590.00612 C 173.42604,590.00612 171.79383,589.90323 170.18065,589.72487 L 170.18065,590.88112 C 171.79207,591.05463 173.42973,591.16237 175.0869,591.16237 C 197.94327,591.16236 216.91088,574.22851 220.0244,552.22487 L 218.8369,552.22487 z "
         style="fill:black;fill-opacity:1;stroke:none;stroke-width:1;stroke-linecap:butt;stroke-linejoin:miter;stroke-miterlimit:4;stroke-dashoffset:0;stroke-opacity:1" />
      <path
         id="path3330"
         d="M 215.125,538.43752 L 214.28125,539.34377 C 228.74823,543.70166 242.10317,550.44578 237.3125,560.75002 C 233.98394,566.44952 231.54351,571.51964 230.09375,575.84377 C 217.86495,589.80038 201.79702,593.51038 186.21875,599.28127 C 180.77239,601.29885 172,600.03127 172,600.03127 L 171.28125,599.93752 L 171.28125,600.65627 L 171.28125,600.84377 L 171.875,600.84377 L 171.8125,601.28127 C 171.8125,601.28127 180.65703,602.69116 186.65625,600.46877 C 202.13412,594.73508 218.54859,590.93828 231.0625,576.65627 L 231.125,576.56252 L 231.1875,576.43752 C 232.62876,572.06691 235.14239,566.86786 238.65625,560.90627 L 238.96875,560.37502 L 238.46875,560.06252 C 241.603,552.50682 233.4293,543.28199 215.125,538.43752 z "
         style="fill:black;fill-opacity:1;fill-rule:evenodd;stroke:none;stroke-width:1.25;stroke-linecap:butt;stroke-linejoin:miter;stroke-miterlimit:4;stroke-dasharray:none;stroke-opacity:1"
         sodipodi:nodetypes="ccccsccccccsccccccc" />
      <path
         id="path3332"
         d="M 233.46875,567.56252 L 229.25,581.56252 C 221.52564,591.73851 213.12234,594.78551 203.375,600.31252 C 197.44599,603.38552 193.26988,602.99294 188.03125,604.31252 L 188.34375,605.53127 C 193.36787,604.26572 197.78978,604.60883 203.96875,601.40627 L 203.96875,601.37502 C 213.64088,595.89066 222.37972,592.74238 230.3125,582.25002 L 230.375,582.15627 L 230.40625,582.06252 L 234.65625,567.90627 L 233.46875,567.56252 z "
         style="fill:black;fill-opacity:1;fill-rule:evenodd;stroke:none;stroke-width:1.25;stroke-linecap:butt;stroke-linejoin:miter;stroke-miterlimit:4;stroke-dasharray:none;stroke-opacity:1" />
      <path
         id="path3334"
         d="M 211.3125,589.62502 C 207.65318,594.4225 203.16777,598.85272 196.96875,602.62502 L 197.59375,603.68752 C 203.93629,599.82789 208.54819,595.26918 212.28125,590.37502 L 211.3125,589.62502 z "
         style="fill:black;fill-opacity:1;fill-rule:evenodd;stroke:none;stroke-width:1.25;stroke-linecap:butt;stroke-linejoin:miter;stroke-miterlimit:4;stroke-dasharray:none;stroke-opacity:1" />
      <path
         id="path3336"
         d="M 217.64629,575.55972 C 217.64629,576.75664 216.67488,577.72805 215.47796,577.72805 C 214.28104,577.72805 213.30962,576.75664 213.30962,575.55972 C 213.30962,574.3628 214.28104,573.39139 215.47796,573.39139 C 216.67488,573.39139 217.64629,574.3628 217.64629,575.55972 z "
         style="fill:#405c89;fill-opacity:1;stroke:none;stroke-width:1;stroke-linecap:butt;stroke-linejoin:miter;stroke-miterlimit:4;stroke-dashoffset:0;stroke-opacity:1" />
      <path
         id="path3338"
         d="M 209.24399,583.69092 C 209.24399,584.88784 208.27258,585.85925 207.07566,585.85925 C 205.87874,585.85925 204.90733,584.88784 204.90733,583.69092 C 204.90733,582.494 205.87874,581.52259 207.07566,581.52259 C 208.27258,581.52259 209.24399,582.494 209.24399,583.69092 z "
         style="fill:#405c89;fill-opacity:1;stroke:none;stroke-width:1;stroke-linecap:butt;stroke-linejoin:miter;stroke-miterlimit:4;stroke-dashoffset:0;stroke-opacity:1" />
      <path
         id="path3340"
         d="M 199.21549,589.65382 C 199.21549,590.85074 198.24408,591.82215 197.04716,591.82215 C 195.85024,591.82215 194.87883,590.85074 194.87883,589.65382 C 194.87883,588.4569 195.85024,587.48549 197.04716,587.48549 C 198.24408,587.48549 199.21549,588.4569 199.21549,589.65382 z "
         style="fill:#405c89;fill-opacity:1;stroke:none;stroke-width:1;stroke-linecap:butt;stroke-linejoin:miter;stroke-miterlimit:4;stroke-dashoffset:0;stroke-opacity:1" />
      <path
         id="path3342"
         d="M 189.18699,592.90632 C 189.18699,594.10324 188.21558,595.07465 187.01866,595.07465 C 185.82174,595.07465 184.85033,594.10324 184.85033,592.90632 C 184.85033,591.7094 185.82174,590.73799 187.01866,590.73799 C 188.21558,590.73799 189.18699,591.7094 189.18699,592.90632 z "
         style="fill:#405c89;fill-opacity:1;stroke:none;stroke-width:1;stroke-linecap:butt;stroke-linejoin:miter;stroke-miterlimit:4;stroke-dashoffset:0;stroke-opacity:1" />
      <path
         id="path3344"
         d="M 179.4295,593.99052 C 179.4295,595.18744 178.45809,596.15885 177.26117,596.15885 C 176.06425,596.15885 175.09283,595.18744 175.09283,593.99052 C 175.09283,592.7936 176.06425,591.82219 177.26117,591.82219 C 178.45809,591.82219 179.4295,592.7936 179.4295,593.99052 z "
         style="fill:#405c89;fill-opacity:1;stroke:none;stroke-width:1;stroke-linecap:butt;stroke-linejoin:miter;stroke-miterlimit:4;stroke-dashoffset:0;stroke-opacity:1" />
      <path
         sodipodi:nodetypes="cccsccsc"
         id="path3346"
         d="M 256.71875,535.81252 C 245.15325,536.19532 241.51963,536.17982 231.79933,537.97987 C 229.57282,538.72783 229.9501,542.53315 232.61183,542.32362 C 270.57087,535.29418 313.53613,539.78527 401.375,559.00002 C 489.66616,578.31369 527.18215,572.66156 570.87883,572.09529 C 573.78832,571.64138 572.86334,567.85779 570.84758,567.68904 C 526.69972,568.26115 490.08989,573.92006 402.3125,554.71877 C 336.25797,540.26934 291.41526,534.66412 256.71875,535.81252 z "
         style="fill:url(#linearGradient2390);fill-opacity:1;fill-rule:evenodd;stroke:none;stroke-width:4.4000001;stroke-linecap:butt;stroke-linejoin:miter;stroke-miterlimit:4;stroke-dasharray:none;stroke-opacity:1" />
      <path
         d="M 313.71875,453.50002 C 292.28097,469.36025 271.32983,486.1759 254.9375,510.75002 L 255.78125,511.28127 C 272.07208,486.85929 292.89581,470.15714 314.3125,454.31252 L 313.71875,453.50002 z M 313.71875,461.43752 C 295.22411,475.44327 278.04381,491.12942 263.65625,510.31252 L 264.46875,510.93752 C 278.78435,491.85036 295.86714,476.21845 314.3125,462.25002 L 313.71875,461.43752 z M 314.28125,470.34377 C 299.23521,481.97029 284.66902,494.25937 273.15625,510.53127 L 273.96875,511.09377 C 285.38852,494.95333 299.88248,482.73432 314.90625,471.12502 L 314.28125,470.34377 z M 315.09375,479.25002 C 302.20515,488.04472 290.7435,498.47409 281.46875,510.90627 L 282.28125,511.50002 C 291.48068,499.16882 302.84437,488.80486 315.65625,480.06252 L 315.09375,479.25002 z M 316.4375,487.56252 C 306.76191,494.5712 297.25466,502.55078 289.625,511.65627 L 290.40625,512.31252 C 297.95799,503.30003 307.39575,495.35466 317.03125,488.37502 L 316.4375,487.56252 z M 317.8125,495.50002 C 309.86559,500.77191 303.14991,506.81046 297.78125,512.59377 L 298.5,513.28127 C 303.82266,507.54752 310.50595,501.56401 318.375,496.34377 L 317.8125,495.50002 z M 319.78125,504.18752 C 313.81615,507.26064 310.56572,510.93307 307.125,513.93752 L 307.78125,514.68752 C 311.28755,511.62581 314.44029,508.05559 320.25,505.06252 L 319.78125,504.18752 z M 322.125,511.34377 C 319.61904,512.60678 317.85518,514.25817 316.40625,515.46877 L 317.0625,516.25002 C 318.54863,515.00834 320.20279,513.40807 322.5625,512.21877 L 322.125,511.34377 z "
         style="fill:url(#linearGradient2387);fill-opacity:1;fill-rule:evenodd;stroke:none;stroke-width:1px;stroke-linecap:butt;stroke-linejoin:miter;stroke-opacity:1"
         id="path3526" />
      <path
         d="M 378.625,483.81252 C 364.60186,494.34009 351.36461,505.9764 339.5,519.40627 L 340.25,520.06252 C 352.0601,506.69435 365.23683,495.12163 379.21875,484.62502 L 378.625,483.81252 z M 385.375,487.62502 C 371.49465,498.30408 358.0871,509.15004 348.4375,521.31252 L 349.21875,521.93752 C 358.76765,509.90196 372.13245,499.07547 386,488.40627 L 385.375,487.62502 z M 392.15625,491.93752 C 378.02457,502.43514 366.48479,512.95421 357.40625,523.46877 L 358.15625,524.12502 C 367.17555,513.67906 378.69627,503.21294 392.78125,492.75002 L 392.15625,491.93752 z M 398.125,495.75002 C 384.43736,505.7157 374.78618,515.69001 366.875,525.65627 L 367.65625,526.28127 C 375.52285,516.37116 385.10661,506.47322 398.71875,496.56252 L 398.125,495.75002 z M 404.625,499.00002 C 393.98412,507.88254 383.2403,516.75814 376.0625,527.84377 L 376.90625,528.40627 C 383.96874,517.49873 394.60688,508.66567 405.25,499.78127 L 404.625,499.00002 z M 411.40625,503.34377 C 400.83844,511.83321 391.0636,520.47444 384.75,529.75002 L 385.5625,530.31252 C 391.76787,521.19595 401.48694,512.59558 412.03125,504.12502 L 411.40625,503.34377 z M 417.90625,506.59377 C 408.05361,514.37187 399.39118,522.64244 393.125,531.90627 L 393.96875,532.46877 C 400.15042,523.32987 408.72609,515.11564 418.53125,507.37502 L 417.90625,506.59377 z M 423.875,510.65627 C 414.54254,518.13493 406.63905,525.83678 402.3125,534.12502 L 403.21875,534.59377 C 407.43179,526.52299 415.21494,518.8782 424.5,511.43752 L 423.875,510.65627 z M 429.5625,514.43752 C 420.2297,521.60328 413.57054,528.78125 410.71875,536.06252 L 411.625,536.43752 C 414.36412,529.44392 420.92848,522.35912 430.1875,515.25002 L 429.5625,514.43752 z M 435.78125,518.81252 C 428.77594,524.63308 421.51853,530.41399 419.375,538.56252 L 420.3125,538.81252 C 422.34303,531.09353 429.42367,525.39016 436.4375,519.56252 L 435.78125,518.81252 z M 441.75,524.75002 C 435.33488,529.71779 429.98007,534.86774 428.5625,540.75002 L 429.53125,540.96877 C 430.84393,535.52176 436.01342,530.45758 442.375,525.53127 L 441.75,524.75002 z "
         style="fill:url(#linearGradient2384);fill-opacity:1;fill-rule:evenodd;stroke:none;stroke-width:1px;stroke-linecap:butt;stroke-linejoin:miter;stroke-opacity:1"
         id="path3575" />
      <path
         d="M 491.46875,519.28127 C 475.70879,526.6137 461.73984,535.38777 449.59375,545.62502 L 450.25,546.40627 C 462.32342,536.23027 476.18768,527.48615 491.875,520.18752 L 491.46875,519.28127 z M 496.875,524.43752 C 482.52184,531.41713 469.18365,538.91161 459.09375,548.09377 L 459.75,548.81252 C 469.71538,539.74368 482.99354,532.27551 497.3125,525.31252 L 496.875,524.43752 z M 502.5625,529.56252 C 489.67753,535.56001 477.72782,542.03995 469.09375,550.25002 L 469.78125,551.00002 C 478.27143,542.92677 490.15075,536.44964 503,530.46877 L 502.5625,529.56252 z M 507.15625,535.00002 C 496.71571,540.38495 486.3873,545.83812 479.40625,552.71877 L 480.09375,553.40627 C 486.90978,546.68827 497.18972,541.25723 507.625,535.87502 L 507.15625,535.00002 z M 511.53125,540.96877 C 502.88567,544.94226 495.9923,549.43147 492.34375,554.96877 L 493.15625,555.50002 C 496.62171,550.24059 503.36976,545.81273 511.9375,541.87502 L 511.53125,540.96877 z "
         style="fill:url(#linearGradient2381);fill-opacity:1;fill-rule:evenodd;stroke:none;stroke-width:1px;stroke-linecap:butt;stroke-linejoin:miter;stroke-opacity:1"
         id="path3639" />
      <path
         sodipodi:nodetypes="ccssscccc"
         id="path3439"
         d="M 631.6875,523.96877 C 610.35214,524.05929 580.63049,535.28353 545.375,548.09377 C 547.52801,548.37602 550.30124,549.25938 554,550.90627 C 563.28316,555.03965 573.96807,563.10442 576.21875,566.87502 C 577.53665,569.08295 577.16864,571.3518 574.59375,574.46877 C 569.4517,580.69341 562.65104,586.64963 553.6875,590.50002 C 580.53821,600.18328 607.42842,610.54203 633.78125,614.31252 C 624.95416,595.33189 621.7657,547.87005 633.25,524.00002 C 632.73885,523.98881 632.20871,523.96656 631.6875,523.96877 z "
         style="fill:url(#linearGradient2378);fill-opacity:1;fill-rule:evenodd;stroke:none;stroke-width:2.875;stroke-linecap:butt;stroke-linejoin:miter;stroke-miterlimit:4;stroke-dasharray:none;stroke-opacity:1" />
      <path
         sodipodi:nodetypes="cccccccccccccccccccccccccccccccccccccccccccccccccc"
         d="M 626.21875,528.18752 L 552.90232,550.43284 L 554.42815,551.09377 L 626.53125,529.15627 L 626.21875,528.18752 z M 621.65625,537.93752 L 560.21949,553.93752 L 561.46875,554.90627 L 621.90625,538.90627 L 621.65625,537.93752 z M 617.34375,548.50002 L 564.34917,556.62502 L 565.75,557.62502 L 617.5,549.50002 L 617.34375,548.50002 z M 615.21875,556.62502 L 569.67028,559.87502 L 570.59375,560.87502 L 615.3125,557.62502 L 615.21875,556.62502 z M 614.15625,564.21877 L 574.57185,564.7547 L 575.7094,566.16956 L 614.1875,565.21877 L 614.15625,564.21877 z M 576.67889,568.53595 L 577,569.81252 L 614.15625,572.53127 L 614.21875,571.53127 L 576.67889,568.53595 z M 575.5219,573.29923 L 574.78125,574.43752 L 615.15625,582.00002 L 615.34375,581.03127 L 575.5219,573.29923 z M 572.03125,577.53127 L 570.92028,578.33048 L 618.375,592.84377 L 618.65625,591.87502 L 572.03125,577.53127 z M 566.90625,582.12502 L 565.90232,583.23206 L 622.4375,601.78127 L 622.75,600.84377 L 566.90625,582.12502 z M 560.65625,586.46877 L 559.51403,587.40627 L 627.5625,609.65627 L 627.875,608.68752 L 560.65625,586.46877 z "
         style="fill:url(#linearGradient2375);fill-opacity:1;fill-rule:evenodd;stroke:none;stroke-width:1px;stroke-linecap:butt;stroke-linejoin:miter;stroke-opacity:1"
         id="path3455" />
      <path
         sodipodi:nodetypes="ccsssssccccsssssscc"
         id="path3829"
         d="M 548.51753,546.91866 L 543.84617,548.70583 C 545.77365,548.95851 549.77691,550.60279 553.40625,552.21877 C 557.91768,554.22751 562.86651,557.23681 566.90625,560.18752 C 570.94599,563.13823 574.1566,566.21207 575,567.62502 C 575.5177,568.49235 575.64929,569.13785 575.46875,570.03127 C 575.28821,570.92469 574.69979,572.11014 573.5,573.56252 C 568.46754,579.6545 561.83685,585.44525 553.125,589.18752 L 552.0512,589.90276 L 555.42674,591.26241 L 557.96875,589.87502 C 565.32919,585.99287 571.18853,580.82119 575.6875,575.37502 C 577.0626,573.71043 577.96354,572.19725 578.28125,570.62502 C 578.59896,569.05279 578.2377,567.46562 577.4375,566.12502 C 576.03022,563.76737 572.77992,560.93269 568.59375,557.87502 C 564.40758,554.81735 559.36548,551.71841 554.59375,549.59377 C 552.96677,548.86935 551.57449,548.33033 550.25,547.87502 C 550.25784,547.87253 550.24218,547.84635 550.25,547.84377 L 548.51753,546.91866 z "
         style="fill:black;fill-opacity:1;fill-rule:evenodd;stroke:none;stroke-width:2.875;stroke-linecap:butt;stroke-linejoin:miter;stroke-miterlimit:4;stroke-opacity:1" />
      <path
         sodipodi:nodetypes="csscccccssscsc"
         id="path2216"
         d="M 263.3125,510.78127 C 256.60622,510.85698 250.43871,511.34574 244.90625,512.31252 C 177.96325,524.01063 150.76712,538.24977 120.0625,557.46877 C 118.73633,558.29886 117.61408,559.84537 117.3125,562.12502 C 122.35417,561.2842 127.39583,559.59444 132.4375,560.65627 C 141.02946,562.89913 150.39583,568.2396 159.375,572.03127 C 166.28198,573.98758 184.3584,573.35493 186.3125,556.09377 C 187.28418,549.60346 184.36866,545.14178 182.90625,540.15627 C 182.15351,538.06054 212.6841,522.79336 248.15625,519.65627 C 291.22672,515.84719 289.8125,521.36165 355.9375,532.93752 C 421.87839,544.48116 449.27512,556.70315 512.65625,561.40627 C 531.64983,562.83275 548.1875,547.06252 548.1875,547.06252 C 539.33731,550.28237 530.14748,553.63521 520.625,556.93752 C 494.8508,565.87581 342.44664,509.88795 263.3125,510.78127 z "
         style="fill:url(#linearGradient2410);fill-opacity:1;fill-rule:evenodd;stroke:none;stroke-width:1px;stroke-linecap:butt;stroke-linejoin:miter;stroke-opacity:1" />
      <path
         transform="matrix(1.167329,0,0,1.167329,9.605973,54.57678)"
         d="M 146.09133 427.35687 A 11.421686 11.421686 0 1 1  123.24796,427.35687 A 11.421686 11.421686 0 1 1  146.09133 427.35687 z"
         sodipodi:ry="11.421686"
         sodipodi:rx="11.421686"
         sodipodi:cy="427.35687"
         sodipodi:cx="134.66965"
         id="path1320"
         style="fill:url(#radialGradient2214);fill-opacity:1;stroke:none;stroke-width:1.07082069;stroke-linecap:butt;stroke-linejoin:miter;stroke-miterlimit:4;stroke-dasharray:none;stroke-dashoffset:0;stroke-opacity:1"
         sodipodi:type="arc" />
      <path
         id="path2195"
         d="M 165.06551,545.25332 C 162.03515,545.4456 159.49834,547.41464 158.45499,550.12718 L 162.99272,552.39604 L 158.17488,554.80496 C 159.03035,558.07662 162.03111,560.49114 165.5697,560.49113 C 169.77526,560.49113 173.18859,557.07779 173.1886,552.87223 C 173.1886,548.66666 169.77526,545.25331 165.5697,545.25332 C 165.40542,545.25332 165.22722,545.24306 165.06551,545.25332 z "
         style="fill:black;fill-opacity:1;stroke:none;stroke-width:1;stroke-linecap:butt;stroke-linejoin:miter;stroke-miterlimit:4;stroke-dasharray:none;stroke-dashoffset:0;stroke-opacity:1" />
      <path
         id="path3813"
         d="M 166.79412,539.49254 C 159.09621,539.49254 152.85913,545.72963 152.85913,553.42753 C 152.85913,561.12544 159.09621,567.39899 166.79412,567.399 C 174.49202,567.399 180.76558,561.12544 180.76559,553.42753 C 180.76559,545.72963 174.49202,539.49255 166.79412,539.49254 z M 166.79412,540.73283 C 173.8157,540.73284 179.5253,546.40595 179.5253,553.42753 C 179.52529,560.44911 173.8157,566.15871 166.79412,566.15871 C 159.77254,566.1587 154.09942,560.44911 154.09942,553.42753 C 154.09942,546.40595 159.77254,540.73283 166.79412,540.73283 z "
         style="fill:black;fill-opacity:1;stroke:none;stroke-width:1.07082069;stroke-linecap:butt;stroke-linejoin:miter;stroke-miterlimit:4;stroke-dasharray:none;stroke-dashoffset:0;stroke-opacity:1" />
      <path
         id="path3783"
         d="M 263.3125,510.28127 C 256.58539,510.35722 250.37888,510.83981 244.8125,511.81252 C 177.82435,523.51852 150.53553,537.80075 119.8125,557.03127 C 118.00045,558.16548 116.72599,560.83514 116.84375,564.00002 C 116.96151,567.1649 118.49957,570.85052 122.4375,573.93752 C 124.66931,575.68706 128.4745,576.81885 132.28125,577.93752 C 134.87793,578.70059 137.26951,579.47148 139.34375,580.31252 C 137.35343,580.06745 135.29521,579.75198 133.59375,579.75002 C 132.28973,579.74852 131.12079,579.85295 130.1875,580.03127 C 129.25421,580.20959 128.53243,580.44753 128.09375,581.00002 L 128.03125,581.03127 L 128,581.09377 C 127.64048,581.94398 127.82089,582.8498 128.28125,583.62502 C 128.74161,584.40024 129.47661,585.11637 130.34375,585.96877 L 130.375,586.03127 L 130.4375,586.06252 C 130.4375,586.06252 143.09402,592.87803 171.65625,601.00002 C 200.21848,609.12201 244.7414,618.57243 308.625,623.84377 C 319.43497,624.74323 340.401,621.59879 364.75,616.34377 C 389.099,611.08875 416.77968,603.69988 440.8125,596.12502 C 482.87464,582.86754 519.88557,579.76481 520.0625,579.75002 C 557.8622,590.89348 596.28186,609.45615 633.71875,614.81252 L 634.6875,614.93752 L 634.21875,614.09377 C 627.32005,600.87131 619.87097,546.71104 633.6875,524.25002 L 634.125,523.53127 L 633.25,523.50002 C 606.84903,522.92119 567.49262,540.16128 520.46875,556.46877 C 517.39537,557.53459 512.22733,557.6708 505.46875,557.00002 C 498.71017,556.32924 490.34621,554.86203 480.78125,552.87502 C 461.65133,548.901 437.703,542.79076 412.09375,536.40627 C 360.87526,523.63728 303.00109,509.83324 263.3125,510.28127 z M 263.3125,511.28127 C 302.75805,510.83598 360.63308,524.60798 411.84375,537.37502 C 437.44909,543.75854 461.3947,549.89313 480.5625,553.87502 C 490.1464,555.86597 498.55652,557.29205 505.375,557.96877 C 512.19348,558.64549 517.41108,558.57502 520.78125,557.40627 C 567.33306,541.26249 606.39483,524.3809 632.34375,524.56252 C 618.88466,546.70355 626.15445,600.84069 632.875,613.62502 C 595.92699,608.11592 557.87261,589.85709 520.25,578.78127 L 520.15625,578.75002 L 520.0625,578.75002 C 520.0625,578.75002 482.78108,581.86104 440.5,595.18752 C 416.49984,602.75209 388.84459,610.09645 364.53125,615.34377 C 340.21791,620.59109 319.19516,623.71808 308.6875,622.84377 C 244.86341,617.57735 200.40147,608.16546 171.90625,600.06252 C 143.44879,591.97032 131.00183,585.20541 130.96875,585.18752 C 130.96281,585.18165 130.94342,585.19338 130.9375,585.18752 C 130.13691,584.39577 129.50267,583.67712 129.15625,583.09377 C 128.81414,582.51767 128.75083,582.10343 128.9375,581.59377 C 129.10347,581.41757 129.57679,581.15253 130.375,581.00002 C 131.20898,580.84068 132.33062,580.74857 133.59375,580.75002 C 136.12001,580.75293 139.24553,581.09534 142.21875,581.62502 L 142.59375,580.68752 C 142.54613,580.65658 142.45504,580.65557 142.40625,580.62502 C 140.01254,579.12608 136.28481,578.06263 132.5625,576.96877 C 128.76432,575.85262 125.01678,574.68825 123.0625,573.15627 C 119.32516,570.22651 117.95053,566.83856 117.84375,563.96877 C 117.73697,561.09898 118.94332,558.76328 120.3125,557.90627 C 150.99871,538.69879 178.10215,524.50274 245,512.81252 C 250.49854,511.85167 256.62705,511.35674 263.3125,511.28127 z "
         style="fill:black;fill-opacity:1;fill-rule:evenodd;stroke:none;stroke-width:1.25;stroke-linecap:butt;stroke-linejoin:miter;stroke-miterlimit:4;stroke-dasharray:none;stroke-opacity:1"
         sodipodi:nodetypes="cssssscsscccscccscsscccccccssssccsssscccccsscsssscssccssssssc" />
      <path
         sodipodi:nodetypes="csssscccscsssccssc"
         id="path2462"
         d="M 118.28125,567.46875 C 118.38063,567.89774 118.72667,568.74206 119.3125,569.875 C 119.32492,569.89374 119.33119,569.91877 119.34375,569.9375 C 119.35519,569.95949 119.3634,569.9778 119.375,570 C 120.19865,571.2153 121.31327,572.40498 122.75,573.53125 C 126.37448,576.37255 135.00382,577.79997 140.1875,580.03125 L 140.1875,580.78125 C 134.82908,580.02817 129.4887,580.02792 128.46875,581.3125 C 128.33892,581.61953 128.29226,581.92277 128.3125,582.21875 C 128.31395,582.23989 129.01175,583.96354 129.0139,583.98466 C 130.9379,585.95488 132.37365,586.06968 134.6875,587.53125 C 134.70049,587.53713 134.70569,587.5566 134.71875,587.5625 C 134.72468,587.56623 134.74407,587.55877 134.75,587.5625 C 134.77413,587.5734 134.78814,587.61401 134.8125,587.625 C 138.85772,585.25495 147.78511,586.63616 156.5625,587.90625 C 164.12695,589.51083 163.39932,578.18517 158.375,577.78125 C 157.01988,577.6723 120.08092,568.55137 118.3125,567.46875 C 118.30654,567.46466 118.28607,567.47258 118.28125,567.46875 z "
         style="fill:none;fill-opacity:0.75;fill-rule:evenodd;stroke:black;stroke-width:1px;stroke-linecap:butt;stroke-linejoin:miter;stroke-opacity:1" />
      <path
         sodipodi:nodetypes="csc"
         id="path2464"
         d="M 135.78662,572.26887 C 135.78662,572.26887 147.75585,576.73105 153.96597,579.45301 C 160.17609,582.17498 161.72258,585.42074 161.72258,585.42074"
         style="fill:none;fill-opacity:0.75;fill-rule:evenodd;stroke:black;stroke-width:0.95975566px;stroke-linecap:butt;stroke-linejoin:miter;stroke-opacity:1" />
    </g>
  </g>
</svg>
