<?xml version="1.0" encoding="UTF-8" standalone="no"?>
<!-- Created with Inkscape (http://www.inkscape.org/) -->

<svg
   xmlns:dc="http://purl.org/dc/elements/1.1/"
   xmlns:cc="http://creativecommons.org/ns#"
   xmlns:rdf="http://www.w3.org/1999/02/22-rdf-syntax-ns#"
   xmlns:svg="http://www.w3.org/2000/svg"
   xmlns="http://www.w3.org/2000/svg"
   xmlns:xlink="http://www.w3.org/1999/xlink"
   xmlns:sodipodi="http://sodipodi.sourceforge.net/DTD/sodipodi-0.dtd"
   xmlns:inkscape="http://www.inkscape.org/namespaces/inkscape"
   width="222.44212"
   height="224.8551"
   id="svg2"
   version="1.1"
   inkscape:version="0.48.1 r9760"
   sodipodi:docname="Froggy.svg"
   inkscape:export-filename="C:\Users\Maw\Documents\Frogy.png"
   inkscape:export-xdpi="365.91107"
   inkscape:export-ydpi="365.91107">
  <defs
     id="defs4" />
  <sodipodi:namedview
     id="base"
     pagecolor="#ffffff"
     bordercolor="#666666"
     borderopacity="1.0"
     inkscape:pageopacity="0.0"
     inkscape:pageshadow="2"
     inkscape:zoom="0.35355339"
     inkscape:cx="316.83435"
     inkscape:cy="-217.38939"
     inkscape:document-units="px"
     inkscape:current-layer="layer5"
     showgrid="false"
     showguides="true"
     inkscape:guide-bbox="true"
     fit-margin-top="0"
     fit-margin-left="0"
     fit-margin-right="0"
     fit-margin-bottom="0"
     inkscape:window-width="1918"
     inkscape:window-height="1017"
     inkscape:window-x="0"
     inkscape:window-y="27"
     inkscape:window-maximized="0" />
  <metadata
     id="metadata7">
    <rdf:RDF>
      <cc:Work
         rdf:about="">
        <dc:format>image/svg+xml</dc:format>
        <dc:type
           rdf:resource="http://purl.org/dc/dcmitype/StillImage" />
        <dc:title />
      </cc:Work>
    </rdf:RDF>
  </metadata>
  <g
     inkscape:label="Capa 1"
     inkscape:groupmode="layer"
     id="layer1"
     style="display:none"
     sodipodi:insensitive="true"
     transform="translate(-26.014102,35.086844)">
    <text
       xml:space="preserve"
       style="font-size:144px;font-style:normal;font-weight:normal;line-height:125%;letter-spacing:0px;word-spacing:0px;fill:#000000;fill-opacity:1;stroke:none;font-family:Sans"
       x="-540"
       y="-390.49496"
       id="text2993"
       sodipodi:linespacing="125%"><tspan
         sodipodi:role="line"
         x="-540"
         y="-390.49496"
         id="tspan3007" /></text>
    <image
       y="-849.92352"
       x="-390.28574"
       id="image3812"
       xlink:href="file:///C:/Users/Maw/Documents/IMGP0031.JPG"
       height="2816"
       width="2112" />
  </g>
  <g
     inkscape:groupmode="layer"
     id="layer2"
     inkscape:label="Capa"
     style="display:inline"
     transform="translate(-26.014102,35.086844)">
    <path
       style="fill:#445500;stroke:none"
       d="M 110.36512,67.108239 C 73.04493,61.217197 70.208491,20.075498 88.249559,9.5575008 100.73947,27.114756 129.44795,13.983411 122.9507,-7.9982241 c 4.5747,-1.33259 11.43739,-1.7069081 17.32314,-0.4174246 -4.09786,22.5409507 22.86977,31.6847487 36.19491,13.8746143 22.19574,13.3807714 10.91639,60.2113114 -22.48162,60.4183524 13.44139,7.537413 14.08503,18.331161 23.15925,21.158224 11.7052,-3.294666 22.82262,-11.935089 29.49804,-14.401163 -1.38702,-3.638397 1.22292,-9.973807 2.22627,-10.087773 -1.12606,-3.818637 -4.98968,-5.29079 -8.62679,-6.957083 3.53419,0.264131 5.60835,-2.685207 7.23537,-5.843951 -0.74568,3.699298 0.46885,7.153571 4.17425,10.296484 7.29683,1.07527 6.68848,-6.794791 7.23536,-13.3576 2.62393,1.735075 5.61722,0.515252 8.62679,-0.834851 -4.42805,4.342101 -7.04204,6.359721 -5.84395,15.583868 4.58508,4.418187 7.36981,-0.598925 10.50519,-2.643692 1.10227,4.230041 3.71122,3.939999 5.91352,4.869959 -5.00391,1.3577 -9.90846,3.084437 -13.63588,9.18335 -3.13089,5.865848 -7.08735,6.282862 -11.13133,6.122235 -6.24871,6.839712 -23.79866,25.217885 -38.95967,21.984385 1.3419,5.65843 1.20903,11.31686 -0.41743,16.97528 30.75242,-8.24008 18.24623,13.39154 12.44824,35.02994 4.6092,-2.79726 6.75733,-6.4807 7.72731,-11.09757 1.14034,2.73933 3.8764,2.51078 8.3485,0.55657 -3.3466,4.19163 -10.29079,8.27346 -5.28739,16.97528 7.31608,0.31576 13.3723,-4.0075 15.30559,-12.80103 1.12204,3.40484 4.12306,3.37153 6.77912,3.70835 -2.49803,1.46515 -7.84889,9.0127 -6.92815,19.86712 5.96495,0.35289 10.59478,-1.52007 14.42007,-6.89246 l 7.84259,1.51778 c -3.82977,3.10569 -4.30556,5.59084 -10.65581,10.62398 -13.53679,10.72911 -40.6058,17.78017 -48.46951,12.63944 -6.87651,-4.49537 -2.78283,-24.48893 -2.78283,-24.48893 -25.48991,24.67264 -49.92475,24.02366 -73.188525,-4.73081 0,0 4.245615,24.41957 -5.078673,28.66318 -8.971891,4.08324 -30.402454,-11.54877 -30.402454,-11.54877 -6.704976,-3.09192 -10.239715,-12.86547 -18.439751,-13.39934 0.08684,-3.43068 -0.523987,-6.31387 -3.405492,-9.00246 6.511657,3.53191 12.749631,8.34102 20.314685,6.95708 -3.462008,-5.11146 -5.572204,-10.62846 -11.409619,-15.0273 2.436436,0.28469 3.406087,-1.76022 3.617684,-5.00909 4.135806,9.73066 13.085369,11.68526 20.314686,16.41871 -1.005897,-6.02947 -1.374273,-12.05894 -5.565667,-18.08841 3.874926,2.12544 5.948362,1.29129 7.235367,-0.83486 -0.230667,3.57069 1.929548,9.70276 8.626783,11.68791 0,0 -12.413128,-25.92157 -4.452533,-34.22886 2.9634,-3.09246 12.801034,1.11314 12.801034,1.11314 -3.157815,-8.75021 -1.543159,-14.93063 0,-21.149537 0,0 -6.976745,3.782545 -10.574768,3.061115 C 72.930608,96.408808 58.875956,78.965325 58.875956,78.965325 48.609209,77.445278 45.761524,67.622567 45.518354,64.494591 44.564009,61.86731 37.878928,60.199236 36.056721,59.763773 c 2.641516,-1.433295 2.900412,-3.377151 2.991547,-5.356955 0.470804,2.418376 7.047255,4.855861 10.366055,7.304939 0.543924,-3.988728 0.09535,-7.977458 -2.504552,-11.966185 4.008803,2.034992 5.879637,0.122968 7.513651,-2.226267 -1.195752,3.803206 -2.346302,7.606412 -0.278284,11.409617 1.043187,-0.970599 3.914844,-1.213447 5.009101,-0.208711 3.635271,-1.33081 6.006004,-4.684881 7.791934,-8.974639 0.399504,3.421239 2.014022,5.296097 4.452534,6.122235 -3.224921,0.796384 -6.306518,1.95108 -8.070218,6.400516 1.631302,1.800859 1.97419,4.890133 1.947983,8.348501 0,0 6.08229,7.231896 13.135339,11.008293 6.672056,3.572401 14.453413,3.889842 15.945271,1.792741 3.10595,-4.366021 11.155778,-13.428845 16.008038,-16.309619 z"
       id="path3816"
       inkscape:connector-curvature="0"
       sodipodi:nodetypes="ccccccccccccccccccccccccccccccssccsscccccccccsccscccccccccccccssc" />
    <path
       sodipodi:type="arc"
       style="fill:#ffdd55;fill-opacity:1;stroke:#aa8800;stroke-width:4.05072451;stroke-miterlimit:4.0999999;stroke-opacity:1;stroke-dasharray:none"
       id="path3831"
       sodipodi:cx="11.923077"
       sodipodi:cy="580.0545"
       sodipodi:rx="32.692307"
       sodipodi:ry="54.615383"
       d="m 44.615383,580.0545 c 0,30.16325 -14.636844,54.61539 -32.692306,54.61539 -18.0554627,0 -32.692307,-24.45214 -32.692307,-54.61539 0,-30.16324 14.6368443,-54.61538 32.692307,-54.61538 18.055462,0 32.692306,24.45214 32.692306,54.61538 z"
       transform="matrix(0.12444959,0.10176037,-0.10176037,0.12444959,91.860186,-18.783022)" />
    <path
       transform="matrix(0.04857682,0.15324218,-0.15324218,0.04857682,138.90666,15.430148)"
       d="m 44.615383,580.0545 c 0,30.16325 -14.636844,54.61539 -32.692306,54.61539 -18.0554627,0 -32.692307,-24.45214 -32.692307,-54.61539 0,-30.16324 14.6368443,-54.61538 32.692307,-54.61538 18.055462,0 32.692306,24.45214 32.692306,54.61538 z"
       sodipodi:ry="54.615383"
       sodipodi:rx="32.692307"
       sodipodi:cy="580.0545"
       sodipodi:cx="11.923077"
       id="path3833"
       style="fill:#ffdd55;fill-opacity:1;stroke:#aa8800;stroke-width:4.05072451;stroke-miterlimit:4.0999999;stroke-opacity:1;stroke-dasharray:none"
       sodipodi:type="arc" />
    <path
       sodipodi:type="arc"
       style="fill:#ffdd55;fill-opacity:1;stroke:#aa8800;stroke-width:4.31892729;stroke-miterlimit:4.0999999;stroke-opacity:1;stroke-dasharray:none"
       id="path3835"
       sodipodi:cx="11.923077"
       sodipodi:cy="580.0545"
       sodipodi:rx="32.692307"
       sodipodi:ry="54.615383"
       d="m 44.615383,580.0545 c 0,30.16325 -14.636844,54.61539 -32.692306,54.61539 -18.0554627,0 -32.692307,-24.45214 -32.692307,-54.61539 0,-30.16324 14.6368443,-54.61538 32.692307,-54.61538 18.055462,0 32.692306,24.45214 32.692306,54.61538 z"
       transform="matrix(0.14231015,-0.0498066,0.0498066,0.14231015,41.020103,-31.015466)" />
    <path
       transform="matrix(-0.08214888,-0.13818261,0.13818261,-0.08214888,122.25262,99.221833)"
       d="m 44.615383,580.0545 c 0,30.16325 -14.636844,54.61539 -32.692306,54.61539 -18.0554627,0 -32.692307,-24.45214 -32.692307,-54.61539 0,-30.16324 14.6368443,-54.61538 32.692307,-54.61538 18.055462,0 32.692306,24.45214 32.692306,54.61538 z"
       sodipodi:ry="54.615383"
       sodipodi:rx="32.692307"
       sodipodi:cy="580.0545"
       sodipodi:cx="11.923077"
       id="path3837"
       style="fill:#ffdd55;fill-opacity:1;stroke:#aa8800;stroke-width:4.05072451;stroke-miterlimit:4.0999999;stroke-opacity:1;stroke-dasharray:none"
       sodipodi:type="arc" />
    <path
       sodipodi:type="arc"
       style="fill:#ffdd55;fill-opacity:1;stroke:#aa8800;stroke-width:4.05072451;stroke-miterlimit:4.0999999;stroke-opacity:1;stroke-dasharray:none"
       id="path3839"
       sodipodi:cx="11.923077"
       sodipodi:cy="580.0545"
       sodipodi:rx="32.692307"
       sodipodi:ry="54.615383"
       d="m 44.615383,580.0545 c 0,30.16325 -14.636844,54.61539 -32.692306,54.61539 -18.0554627,0 -32.692307,-24.45214 -32.692307,-54.61539 0,-30.16324 14.6368443,-54.61538 32.692307,-54.61538 18.055462,0 32.692306,24.45214 32.692306,54.61538 z"
       transform="matrix(0.0131574,0.16021784,-0.16021784,0.0131574,316.05006,33.145784)" />
    <path
       transform="matrix(-0.07596345,0.1302399,-0.1302399,-0.07596345,313.91624,100.9985)"
       d="m 44.615383,580.0545 c 0,30.16325 -14.636844,54.61539 -32.692306,54.61539 -18.0554627,0 -32.692307,-24.45214 -32.692307,-54.61539 0,-30.16324 14.6368443,-54.61538 32.692307,-54.61538 18.055462,0 32.692306,24.45214 32.692306,54.61538 z"
       sodipodi:ry="54.615383"
       sodipodi:rx="32.692307"
       sodipodi:cy="580.0545"
       sodipodi:cx="11.923077"
       id="path3841"
       style="fill:#ffdd55;fill-opacity:1;stroke:#aa8800;stroke-width:4.31892729;stroke-miterlimit:4.0999999;stroke-opacity:1;stroke-dasharray:none"
       sodipodi:type="arc" />
    <path
       transform="matrix(0.13773266,-0.16844252,0.16844252,0.13773266,-62.764677,77.191848)"
       d="m 44.615383,580.0545 c 0,30.16325 -14.636844,54.61539 -32.692306,54.61539 -18.0554627,0 -32.692307,-24.45214 -32.692307,-54.61539 0,-30.16324 14.6368443,-54.61538 32.692307,-54.61538 18.055462,0 32.692306,24.45214 32.692306,54.61538 z"
       sodipodi:ry="54.615383"
       sodipodi:rx="32.692307"
       sodipodi:cy="580.0545"
       sodipodi:cx="11.923077"
       id="path3843"
       style="fill:#ffdd55;fill-opacity:1;stroke:#aa8800;stroke-width:2.99277759;stroke-miterlimit:4.0999999;stroke-opacity:1;stroke-dasharray:none"
       sodipodi:type="arc" />
    <path
       sodipodi:type="arc"
       style="fill:#ffdd55;fill-opacity:1;stroke:#aa8800;stroke-width:2.89155078;stroke-miterlimit:4.0999999;stroke-opacity:1;stroke-dasharray:none"
       id="path3845"
       sodipodi:cx="11.923077"
       sodipodi:cy="580.0545"
       sodipodi:rx="32.692307"
       sodipodi:ry="54.615383"
       d="m 44.615383,580.0545 c 0,30.16325 -14.636844,54.61539 -32.692306,54.61539 -18.0554627,0 -32.692307,-24.45214 -32.692307,-54.61539 0,-30.16324 14.6368443,-54.61538 32.692307,-54.61538 18.055462,0 32.692306,24.45214 32.692306,54.61538 z"
       transform="matrix(-0.15678608,0.16166036,-0.16166036,-0.15678608,140.88331,225.55954)" />
    <path
       transform="matrix(0.16907364,-0.11604303,0.11604303,0.16907364,-0.15285162,34.323859)"
       d="m 44.615383,580.0545 c 0,30.16325 -14.636844,54.61539 -32.692306,54.61539 -18.0554627,0 -32.692307,-24.45214 -32.692307,-54.61539 0,-30.16324 14.6368443,-54.61538 32.692307,-54.61538 18.055462,0 32.692306,24.45214 32.692306,54.61538 z"
       sodipodi:ry="54.615383"
       sodipodi:rx="32.692307"
       sodipodi:cy="580.0545"
       sodipodi:cx="11.923077"
       id="path3847"
       style="fill:#ffdd55;fill-opacity:1;stroke:#aa8800;stroke-width:3.17548728;stroke-miterlimit:4.0999999;stroke-opacity:1;stroke-dasharray:none"
       sodipodi:type="arc" />
    <path
       sodipodi:type="arc"
       style="fill:#ffdd55;fill-opacity:1;stroke:#aa8800;stroke-width:2.79365563;stroke-miterlimit:4.0999999;stroke-opacity:1;stroke-dasharray:none"
       id="path3849"
       sodipodi:cx="11.923077"
       sodipodi:cy="580.0545"
       sodipodi:rx="32.692307"
       sodipodi:ry="54.615383"
       d="m 44.615383,580.0545 c 0,30.16325 -14.636844,54.61539 -32.692306,54.61539 -18.0554627,0 -32.692307,-24.45214 -32.692307,-54.61539 0,-30.16324 14.6368443,-54.61538 32.692307,-54.61538 18.055462,0 32.692306,24.45214 32.692306,54.61538 z"
       transform="matrix(-0.14754975,-0.18044851,-0.18044851,0.14754975,343.58476,75.620252)" />
    <path
       transform="matrix(0.16796124,0.17318294,0.17318294,-0.16796124,120.73841,235.03816)"
       d="m 44.615383,580.0545 c 0,30.16325 -14.636844,54.61539 -32.692306,54.61539 -18.0554627,0 -32.692307,-24.45214 -32.692307,-54.61539 0,-30.16324 14.6368443,-54.61538 32.692307,-54.61538 18.055462,0 32.692306,24.45214 32.692306,54.61538 z"
       sodipodi:ry="54.615383"
       sodipodi:rx="32.692307"
       sodipodi:cy="580.0545"
       sodipodi:cx="11.923077"
       id="path3851"
       style="fill:#ffdd55;fill-opacity:1;stroke:#aa8800;stroke-width:2.69916391;stroke-miterlimit:4.0999999;stroke-opacity:1;stroke-dasharray:none"
       sodipodi:type="arc" />
    <path
       sodipodi:type="arc"
       style="fill:#ffdd55;fill-opacity:1;stroke:#aa8800;stroke-width:2.96420884;stroke-miterlimit:4.0999999;stroke-opacity:1;stroke-dasharray:none"
       id="path3853"
       sodipodi:cx="11.923077"
       sodipodi:cy="580.0545"
       sodipodi:rx="32.692307"
       sodipodi:ry="54.615383"
       d="m 44.615383,580.0545 c 0,30.16325 -14.636844,54.61539 -32.692306,54.61539 -18.0554627,0 -32.692307,-24.45214 -32.692307,-54.61539 0,-30.16324 14.6368443,-54.61538 32.692307,-54.61538 18.055462,0 32.692306,24.45214 32.692306,54.61538 z"
       transform="matrix(-0.18112461,-0.12431417,-0.12431417,0.18112461,276.70697,30.28711)" />
  </g>
  <g
     inkscape:groupmode="layer"
     id="layer5"
     inkscape:label="Capa#3"
     style="display:inline"
     transform="translate(-26.014102,35.086844)">
    <path
       style="fill:#a1bb2b;fill-opacity:1;stroke:none"
       d="m 131.50638,-7.2183383 c -17.13687,0.1913827 -40.909422,9.6066701 -49.773532,25.6642563 -2.695852,4.883609 -2.933511,11.101084 -2.552283,16.949569 1.608724,24.679669 30.582355,32.094242 50.541975,32.10902 13.08983,0.0097 27.18464,-0.971113 37.90166,-6.821857 9.88805,-5.398184 16.90064,-15.236824 17.59542,-25.485367 0.38735,-5.713887 1.3275,-16.043115 -3.2107,-21.831785 C 170.79306,-0.94083788 148.65518,-7.4098512 131.50638,-7.2183383 z"
       id="path3882"
       inkscape:connector-curvature="0"
       sodipodi:nodetypes="ssssssas" />
    <path
       style="fill:#a1bb2b;fill-opacity:1;stroke:none"
       d="m 111.82468,66.966201 c 0,0 -6.55448,5.594278 -12.446497,11.673068 -3.188632,3.289715 -4.10657,5.469102 -5.821357,6.580809 C 89.911588,87.583304 81.415346,84.708206 76.520638,81.834273 70.332366,78.20082 65.065777,71.792135 65.065777,71.792135 c -0.298825,3.247029 -3.174556,6.861105 -5.435939,6.882243 4.451196,4.593925 17.068426,18.58187 23.915419,18.93889 3.412749,0.177951 6.914663,-1.153883 10.486816,-3.440862 5.420455,-3.553551 9.480277,-6.832892 9.480277,-6.832892 -2.24499,3.630926 -4.455397,4.604161 -8.425566,7.545014 -3.668823,7.804642 -1.907133,19.171042 0.405488,22.653122 10.893768,8.11093 19.751578,18.40167 23.219578,25.38411 -18.39864,-25.02296 -33.510908,-29.81332 -37.296056,-26.94843 -1.530021,1.15803 -2.983744,6.15565 -2.132924,12.16552 0.942395,6.65672 4.41226,14.61845 7.201353,21.35598 0.385285,0.67203 -0.538443,0.69709 -0.09048,1.35523 4.673586,6.86636 10.402873,16.36191 12.932763,24.15438 0.556517,-11.46415 -1.278672,-27.98731 -8.753639,-43.10214 3.722973,8.5145 7.919582,15.60289 8.879518,24.80815 24.282695,29.03231 47.668955,29.53605 72.585765,5.49537 -0.0261,-8.62234 1.17743,-17.24468 4.20971,-25.86702 -4.48762,19.47321 -3.19572,24.1264 -2.76178,25.73228 0.0689,0.2551 -0.66236,6.54522 -1.00518,9.77675 3.61876,-6.01847 6.77319,-11.34314 12.05253,-16.28321 4.90328,-17.3457 12.49992,-34.95955 4.81692,-37.63752 -7.55506,-2.63337 -25.39115,1.0485 -38.56401,23.22367 3.08138,-7.68578 8.63203,-15.05043 21.89134,-22.87521 0.96256,-3.78267 2.02584,-13.24644 0.11382,-17.7541 -5.53363,-1.112912 -10.73077,-8.065227 -13.93734,-12.696998 16.96249,22.681488 35.0697,10.154967 53.78098,-9.235036 -1.94702,-0.02236 -4.85755,-2.883044 -5.9644,-4.736063 -10.29227,5.417333 -24.35905,15.220295 -29.71318,14.364653 -10.32378,-1.649838 -11.80691,-15.151928 -24.00668,-21.251815 -12.62458,2.610114 -26.43049,2.980881 -41.1262,0 z"
       id="path3884"
       inkscape:connector-curvature="0"
       sodipodi:nodetypes="csssccscccccsscscccccsccsccccccscc" />
    <path
       style="fill:#ffdd55;stroke:#aa8800;stroke-width:0.72353673;stroke-miterlimit:4;stroke-opacity:1;stroke-dasharray:none;display:inline"
       d="m 164.61725,117.22929 c 0,2.2666 1.44991,5.38587 -0.32024,6.68034 -6.16719,4.50994 -10.76133,10.47737 -13.508,17.23202 -5.15907,12.6873 -5.05568,21.20434 -15.92025,21.20434 -9.22667,0 -11.18803,-9.59193 -16.16233,-19.42301 -3.91538,-7.73826 -11.85086,-15.73771 -14.59507,-18.10392 -1.88087,-1.62179 -0.4318,-5.00257 -0.4318,-7.58977 0,-24.667506 13.64279,-44.664477 30.47203,-44.664477 16.82923,0 30.46566,19.996971 30.46566,44.664477 z"
       id="path3855"
       inkscape:connector-curvature="0"
       sodipodi:nodetypes="sssssssss" />
    <path
       style="fill:#a1bb2b;fill-opacity:1;stroke:none"
       d="m 48.818794,51.600742 c 0.984553,3.837132 1.866479,6.923768 1.011597,10.760901 l -9.845704,-5.570936 c -0.549672,0.970514 -1.531315,1.901165 -2.415331,2.829885 2.304719,0.67503 7.241517,2.249225 8.264022,4.499737 0.624208,2.199837 1.608046,6.892264 4.999878,10.084065 3.556894,3.347128 8.556645,4.671426 10.636438,2.61045 4.872175,-4.82809 3.340439,-13.017176 1.396641,-14.509395 1.049136,-3.162635 3.08916,-4.59194 5.268574,-6.009236 -0.75689,-1.13509 -1.271809,-2.289419 -1.877223,-3.500247 -2.106085,2.687852 -3.86838,4.825348 -7.154225,7.007589 -1.650061,-1.622784 -3.424347,-1.13372 -5.24408,0.127903 -1.771344,-3.346833 -1.303455,-5.779407 -1.100434,-9.12624 -1.171008,0.470173 -2.397468,0.750827 -3.940153,0.795524 z"
       id="path3890"
       inkscape:connector-curvature="0"
       sodipodi:nodetypes="cccccssccccccc" />
    <path
       style="fill:#a1bb2b;fill-opacity:1;stroke:none"
       d="m 194.60222,143.60381 c -1.63266,4.34685 -3.59699,7.16851 -7.67427,10.17753 -0.20662,0.20548 -1.06555,0.94852 -1.95742,2.03335 -3.21747,3.91361 -9.9725,11.72296 -11.89708,19.12838 -0.91888,3.53568 -0.1117,8.69376 2.03933,10.97426 2.66804,2.82861 5.63863,2.98106 10.10152,2.75589 7.687,-0.38787 19.74209,-3.46859 27.87263,-7.71138 10.25111,-5.34938 16.19337,-11.54419 16.19337,-11.54419 -1.35363,-0.91636 -2.77332,-1.76666 -3.31,-3.49996 -3.16506,2.84653 -7.09464,5.0759 -14.38148,5.32032 -0.87491,-11.44888 2.94658,-16.88807 5.66847,-20.25412 -1.06318,-0.32762 -3.59674,-1.00512 -4.50769,-2.73897 -2.08698,6.5019 -6.24936,11.45261 -15.95702,12.02755 -3.4236,-7.01299 -1.93889,-10.64344 2.92581,-15.55636 -2.15386,0.52618 -3.9824,0.4017 -5.11617,-1.1123 z"
       id="path3898"
       inkscape:connector-curvature="0"
       sodipodi:nodetypes="ccssssscccccccc" />
    <path
       style="fill:#a1bb2b;fill-opacity:1;stroke:none"
       d="m 75.922894,140.69399 c 2.297283,5.7679 5.346581,7.78021 9.656785,9.85776 1.143089,2.88299 3.713352,5.93073 5.703239,9.25353 5.282004,8.82017 9.516982,18.61042 5.616302,23.74581 -6.080143,8.00472 -20.382144,-0.54529 -30.928058,-7.20196 -2.144437,-1.35359 -3.949317,-2.8293 -5.524704,-4.3734 -5.4446,-5.33648 -9.285585,-8.99179 -13.685773,-9.84863 0.802588,-1.57749 0.36022,-3.15497 0.127905,-4.73246 7.231599,4.00451 11.813947,4.03515 16.755479,4.60455 -2.224416,-5.24408 -6.032562,-10.5786 -9.954599,-15.82268 0.920049,-0.84971 1.417345,-1.47823 1.640811,-2.21184 6.864203,8.49438 13.728409,9.8888 20.592613,14.4532 -0.917512,-5.75874 -1.591155,-11.51748 -3.645276,-17.27622 1.420407,0.26141 2.585139,0.0115 3.645276,-0.44766 z"
       id="path3900"
       inkscape:connector-curvature="0"
       sodipodi:nodetypes="ccsssscccccccc" />
    <path
       style="fill:#a1bb2b;fill-opacity:1;stroke:none"
       d="m 209.60813,62.581392 c -0.92019,-2.987569 -2.64612,-4.774882 -6.94143,-6.557052 2.14645,-0.560461 2.83949,-1.258035 3.77596,-2.351494 1.58701,4.668875 3.62769,6.41249 5.42653,7.190146 8.36831,0.326997 6.64666,-7.128421 7.86846,-12.607971 1.38116,0.511128 2.77476,0.475508 4.17037,0.207373 -1.89344,2.726742 -4.08509,3.601903 -2.99463,13.214577 3.9433,4.383724 7.88426,1.240207 10.25648,-1.388136 1.00373,1.828862 2.4868,2.769183 4.65938,3.565838 -3.50331,1.117544 -6.32521,2.019198 -8.83104,4.729013 -2.61508,2.827972 -4.62971,7.572658 -8.19152,9.072441 -2.03791,0.858116 -5.58042,0.801995 -8.47502,-0.965769 -3.08214,-2.402965 -3.59361,-5.429521 -3.1785,-8.065639 0.31416,-1.994899 1.33983,-4.025176 2.45496,-6.043327 z"
       id="path3902"
       inkscape:connector-curvature="0"
       sodipodi:nodetypes="cccccccccsscsc" />
    <path
       style="fill:#445500;fill-opacity:1;stroke:none"
       d="m 165.51995,122.98834 c -6.78096,5.67761 -8.85213,7.68339 -13.55787,16.30782 3.69255,-6.41809 7.8471,-11.43568 13.87763,-15.86015 z"
       id="path3906"
       inkscape:connector-curvature="0"
       sodipodi:nodetypes="cccc" />
    <path
       style="opacity:0.625;fill:none;stroke:#aa8800;stroke-width:0.5482403;stroke-linecap:round;stroke-linejoin:miter;stroke-miterlimit:4;stroke-opacity:1;stroke-dasharray:none"
       d="m 33.809552,54.596759 c 0.01124,0.240303 -0.305284,0.328033 -0.383248,0.258282 -0.211284,-0.189013 0.05358,-0.758472 0.345906,-1.057087 0.522907,-0.534149 1.054941,-0.431434 1.18709,0.02394 0.19393,0.668292 -0.365389,1.771818 -1.075066,2.372462 -0.94589,0.800564 -1.828281,0.577389 -1.990926,-0.306186 -0.204673,-1.111886 0.677458,-2.799286 1.804224,-3.68784 1.364659,-1.076149 2.607428,-0.727241 2.794763,0.588425 0.220765,1.550469 -0.989306,3.830008 -2.53338,5.00321 -1.782695,1.354513 -3.388509,0.878467 -3.598604,-0.870652 -0.238723,-1.987465 1.30105,-4.862022 3.262537,-6.318586 2.200493,-1.634052 4.170465,-1.030308 4.402443,1.152887 0.257539,2.423761 -1.612747,5.894686 -3.991696,7.633965"
       id="path3908"
       inkscape:connector-curvature="0" />
    <path
       inkscape:connector-curvature="0"
       id="path3911"
       d="m 51.151391,45.62581 c 0.112816,-0.212472 0.429852,-0.126625 0.461376,-0.02688 0.08544,0.270308 -0.432684,0.625248 -0.836392,0.733165 -0.722138,0.193038 -1.127523,-0.166507 -1.00912,-0.625646 0.173775,-0.673815 1.217446,-1.338161 2.134165,-1.493211 1.221846,-0.206659 1.867266,0.435099 1.556847,1.278189 -0.390628,1.060938 -2.009629,2.063089 -3.431939,2.25326 -1.722598,0.230316 -2.613988,-0.7033 -2.104578,-1.930726 0.600325,-1.446478 2.803281,-2.79093 4.729708,-3.0133 2.224138,-0.25674 3.363075,0.971299 2.65232,2.58325 -0.80761,1.831604 -3.597503,3.519939 -6.027481,3.773349 -2.726073,0.284294 -4.113228,-1.239221 -3.200054,-3.235783 1.013796,-2.216565 4.392014,-4.24953 7.325255,-4.533399"
       style="opacity:0.625;fill:none;stroke:#aa8800;stroke-width:0.5482403;stroke-linecap:round;stroke-linejoin:miter;stroke-miterlimit:4;stroke-opacity:1;stroke-dasharray:none" />
    <path
       style="opacity:0.625;fill:none;stroke:#aa8800;stroke-width:0.5482403;stroke-linecap:round;stroke-linejoin:miter;stroke-miterlimit:4;stroke-opacity:1;stroke-dasharray:none"
       d="m 71.641531,51.238472 c 0.218026,0.101671 0.148698,0.422725 0.05071,0.459368 -0.265525,0.09931 -0.6468,-0.39975 -0.775461,-0.797334 -0.230148,-0.711182 0.107939,-1.134628 0.572589,-1.040143 0.681906,0.138676 1.399367,1.146572 1.601644,2.054041 0.269606,1.209514 -0.337894,1.887278 -1.195918,1.620901 -1.07973,-0.335207 -2.164313,-1.900183 -2.427827,-3.310747 -0.319143,-1.708373 0.567095,-2.646878 1.819237,-2.201664 1.475604,0.524673 2.932248,2.655108 3.254003,4.567449 0.371486,2.207872 -0.795973,3.408829 -2.442544,2.782436 -1.870941,-0.71175 -3.701377,-3.410542 -4.080188,-5.824152 -0.424973,-2.707712 1.024722,-4.171842 3.06586,-3.363205 2.266056,0.897743 4.471104,4.166238 4.906373,7.080861"
       id="path3913"
       inkscape:connector-curvature="0" />
    <path
       inkscape:connector-curvature="0"
       id="path3915"
       d="m 201.19718,49.860713 c -0.10012,0.218738 -0.42166,0.151713 -0.459,0.05399 -0.1012,-0.264824 0.39514,-0.649639 0.79179,-0.781131 0.70952,-0.235202 1.13538,0.09985 1.04419,0.565162 -0.1338,0.682887 -1.13656,1.407509 -2.04257,1.616235 -1.20756,0.278221 -1.88963,-0.324434 -1.62938,-1.184334 0.32751,-1.082096 1.88471,-2.177802 3.29336,-2.451359 1.70607,-0.3313 2.65086,0.548233 2.21457,1.803508 -0.51413,1.4793 -2.63414,2.951087 -4.54414,3.286463 -2.20517,0.387206 -3.41441,-0.771652 -2.79977,-2.422644 0.6984,-1.875964 3.38408,-3.725588 5.79492,-4.121585 2.70462,-0.444273 4.17904,0.994954 3.38498,3.041815 -0.88158,2.272385 -4.13428,4.50067 -7.04572,4.956692"
       style="opacity:0.625;fill:none;stroke:#aa8800;stroke-width:0.5482403;stroke-linecap:round;stroke-linejoin:miter;stroke-miterlimit:4;stroke-opacity:1;stroke-dasharray:none" />
    <path
       style="opacity:0.625;fill:none;stroke:#aa8800;stroke-width:0.60683137;stroke-linecap:round;stroke-linejoin:miter;stroke-miterlimit:4;stroke-opacity:1;stroke-dasharray:none"
       d="m 222.73237,42.151943 c -0.22663,0.139775 -0.48137,-0.119606 -0.45565,-0.232503 0.0697,-0.305969 0.76308,-0.355008 1.20901,-0.232159 0.79766,0.219742 0.98363,0.789948 0.61361,1.16217 -0.54299,0.546276 -1.91145,0.596706 -2.8737,0.231799 -1.28249,-0.486354 -1.53978,-1.460401 -0.77155,-2.091855 0.96674,-0.794617 3.07368,-0.845725 4.53839,-0.231444 1.77398,0.743987 2.10283,2.134397 0.92951,3.021529 -1.38272,1.045472 -4.23892,1.096699 -6.20308,0.231085 -2.26775,-0.999396 -2.66826,-2.809492 -1.08748,-3.951193 1.79622,-1.297265 5.40535,-1.348479 7.86778,-0.23073 2.7625,1.253934 3.23473,3.485121 1.2454,4.880877 -2.2085,1.549525 -6.57232,1.600652 -9.53245,0.23036"
       id="path3917"
       inkscape:connector-curvature="0" />
    <path
       inkscape:connector-curvature="0"
       id="path3919"
       d="m 237.45719,57.541376 c -0.26626,0.0022 -0.3499,-0.351552 -0.26945,-0.434822 0.218,-0.225704 0.83665,0.09135 1.15455,0.427331 0.56866,0.600979 0.43255,1.185096 -0.0767,1.311973 -0.74738,0.18623 -1.94427,-0.479133 -2.57858,-1.289519 -0.84541,-1.080089 -0.56123,-2.046632 0.42295,-2.18912 1.23849,-0.179307 3.06752,0.867813 4.0026,2.151691 1.13252,1.554973 0.69398,2.914779 -0.76914,3.066278 -1.72426,0.178555 -4.19436,-1.256385 -5.42661,-3.013879 -1.42271,-2.029123 -0.82822,-3.78509 1.11531,-3.943426 2.20838,-0.179887 5.32265,1.644887 6.85065,3.876063 1.7142,2.503044 0.96304,4.656403 -1.46155,4.820572 -2.6917,0.182246 -6.45158,-2.033332 -8.27463,-4.738248"
       style="opacity:0.625;fill:none;stroke:#aa8800;stroke-width:0.60683137;stroke-linecap:round;stroke-linejoin:miter;stroke-miterlimit:4;stroke-opacity:1;stroke-dasharray:none" />
    <path
       inkscape:connector-curvature="0"
       id="path4209"
       d="m 36.406753,155.72542 c 0.39189,0.005 0.50378,0.54902 0.382721,0.67371 -0.327967,0.33789 -1.228332,-0.16727 -1.685539,-0.69145 -0.817785,-0.93758 -0.598941,-1.82617 0.154538,-2.0034 1.105781,-0.26008 2.846058,0.79665 3.753829,2.05656 1.209904,1.67928 0.761019,3.14769 -0.691827,3.33314 -1.828288,0.23335 -4.486734,-1.42792 -5.822147,-3.42172 -1.61732,-2.41478 -0.928856,-4.47939 1.229144,-4.66283 2.543137,-0.2162 6.132697,2.05911 7.890408,4.78685 2.029367,3.14926 1.098768,5.81452 -1.766405,5.99254 -3.255608,0.20231 -7.780787,-2.69027 -9.958725,-6.15199 -2.443306,-3.88351 -1.269573,-7.15115 2.303721,-7.32225 3.967016,-0.18999 9.429914,3.32141 12.027017,7.51711"
       style="opacity:0.625;fill:none;stroke:#aa8800;stroke-width:0.9104706;stroke-linecap:round;stroke-linejoin:miter;stroke-miterlimit:4;stroke-opacity:1;stroke-dasharray:none" />
    <path
       style="opacity:0.625;fill:none;stroke:#aa8800;stroke-width:0.9104706;stroke-linecap:round;stroke-linejoin:miter;stroke-miterlimit:4;stroke-opacity:1;stroke-dasharray:none"
       d="m 45.232159,137.05138 c 0.391889,0.005 0.503779,0.54902 0.38272,0.6737 -0.327966,0.33789 -1.228332,-0.16726 -1.685538,-0.69145 -0.817785,-0.93757 -0.598942,-1.82617 0.154538,-2.0034 1.105781,-0.26007 2.846057,0.79665 3.753828,2.05656 1.209905,1.67928 0.76102,3.1477 -0.691826,3.33314 -1.828288,0.23336 -4.486734,-1.42792 -5.822148,-3.42171 -1.61732,-2.41479 -0.928856,-4.4794 1.229144,-4.66284 2.543138,-0.2162 6.132698,2.05912 7.890409,4.78685 2.029367,3.14927 1.098768,5.81452 -1.766405,5.99255 -3.255607,0.2023 -7.780787,-2.69027 -9.958725,-6.152 -2.443306,-3.8835 -1.269573,-7.15115 2.30372,-7.32225 3.967017,-0.18999 9.429915,3.32141 12.027018,7.51712"
       id="path4211"
       inkscape:connector-curvature="0" />
    <path
       inkscape:connector-curvature="0"
       id="path4213"
       d="m 68.876337,131.69897 c 0.348412,0.14703 0.223309,0.61686 0.06342,0.671 -0.433209,0.14676 -1.029385,-0.58026 -1.221318,-1.16054 -0.34331,-1.03791 0.220267,-1.65881 0.967548,-1.52355 1.096674,0.19852 2.215739,1.66711 2.506098,2.99207 0.386991,1.76596 -0.622361,2.76016 -1.998555,2.37611 -1.731829,-0.48331 -3.421847,-2.76381 -3.790895,-4.82363 -0.446908,-2.49473 1.023519,-3.87166 3.029579,-3.22864 2.364087,0.75777 4.63271,3.86239 5.075641,6.65516 0.511399,3.22437 -1.424243,4.98661 -4.060557,4.0812 -2.995569,-1.02879 -5.845491,-4.96171 -6.360429,-8.48672 -0.577682,-3.95451 1.824785,-6.10307 5.091573,-4.93373 3.626761,1.29817 7.059212,6.0614 7.645213,10.31825"
       style="opacity:0.625;fill:none;stroke:#aa8800;stroke-width:0.84259576;stroke-linecap:round;stroke-linejoin:miter;stroke-miterlimit:4;stroke-opacity:1;stroke-dasharray:none" />
    <path
       style="opacity:0.625;fill:none;stroke:#aa8800;stroke-width:0.84259576;stroke-linecap:round;stroke-linejoin:miter;stroke-miterlimit:4;stroke-opacity:1;stroke-dasharray:none"
       d="m 203.13917,134.15879 c 0.0611,-0.3732 0.54716,-0.36196 0.63733,-0.21924 0.24441,0.38661 -0.32225,1.13687 -0.8412,1.45973 -0.92825,0.57747 -1.66415,0.17551 -1.7082,-0.58264 -0.0646,-1.11263 1.10005,-2.54532 2.31975,-3.13875 1.62566,-0.79096 2.82912,-0.0434 2.77905,1.38455 -0.063,1.79689 -1.88279,3.97527 -3.7983,4.8178 -2.31996,1.02035 -4.00375,-0.0855 -3.84989,-2.18649 0.18129,-2.47595 2.66622,-5.4103 5.27683,-6.4968 3.01406,-1.25441 5.18165,0.21318 4.92076,2.9884 -0.29642,3.15341 -3.44993,6.84734 -6.75539,8.17581 -3.70821,1.49034 -6.36095,-0.34027 -5.9916,-3.79033 0.41001,-3.83021 4.2338,-8.28539 8.23393,-9.85484"
       id="path4215"
       inkscape:connector-curvature="0" />
    <path
       inkscape:connector-curvature="0"
       id="path4217"
       d="m 223.74805,139.99052 c 0.12564,-0.46541 0.73032,-0.45138 0.82382,-0.27341 0.25354,0.48212 -0.55253,1.41771 -1.2425,1.82033 -1.23411,0.72014 -2.09852,0.21887 -2.05296,-0.72657 0.0669,-1.38749 1.70919,-3.1741 3.30888,-3.91413 2.1321,-0.98635 3.53377,-0.0541 3.28205,1.72659 -0.31678,2.24078 -2.87486,4.9573 -5.37524,6.00796 -3.02835,1.27242 -4.98148,-0.10665 -4.51113,-2.72663 0.55429,-3.0876 4.04206,-6.74683 7.4416,-8.10173 3.92491,-1.5643 6.43341,0.26583 5.74021,3.72663 -0.78764,3.93241 -5.20983,8.53888 -9.50796,10.19553 -4.82181,1.85851 -7.8872,-0.42433 -6.96929,-4.72667 1.01898,-4.77641 6.37796,-10.33219 11.57431,-12.28934"
       style="opacity:0.625;fill:none;stroke:#aa8800;stroke-width:1.05074704;stroke-linecap:round;stroke-linejoin:miter;stroke-miterlimit:4;stroke-opacity:1;stroke-dasharray:none" />
    <path
       style="opacity:0.625;fill:none;stroke:#aa8800;stroke-width:0.91874868;stroke-linecap:round;stroke-linejoin:miter;stroke-miterlimit:4;stroke-opacity:1;stroke-dasharray:none"
       d="m 237.5366,159.74111 c 0.10985,-0.40694 0.63857,-0.39466 0.72031,-0.23906 0.22171,0.42157 -0.4831,1.23962 -1.08639,1.59167 -1.0791,0.62966 -1.8349,0.19138 -1.79507,-0.6353 0.0585,-1.21319 1.49448,-2.77536 2.8932,-3.42244 1.86427,-0.86243 3.08985,-0.0473 2.86975,1.5097 -0.27697,1.95928 -2.51371,4.33455 -4.69999,5.25322 -2.64791,1.11256 -4.35567,-0.0933 -3.94441,-2.38411 0.48464,-2.69971 3.53428,-5.89926 6.50675,-7.08395 3.43186,-1.36779 5.62524,0.23242 5.01912,3.25847 -0.6887,3.43841 -4.55536,7.46621 -8.31355,8.91475 -4.21607,1.62503 -6.89637,-0.37103 -6.09377,-4.13292 0.89096,-4.17638 5.57673,-9.0342 10.12031,-10.7455"
       id="path4219"
       inkscape:connector-curvature="0" />
  </g>
  <g
     inkscape:groupmode="layer"
     id="layer3"
     inkscape:label="Capa#1"
     style="display:inline"
     transform="translate(-26.014102,35.086844)">
    <path
       sodipodi:type="arc"
       style="fill:#000000;stroke:none"
       id="path3819"
       sodipodi:cx="453.90817"
       sodipodi:cy="164.94318"
       sodipodi:rx="108.51369"
       sodipodi:ry="108.51369"
       d="m 562.42186,164.94318 c 0,59.93045 -48.58323,108.51368 -108.51369,108.51368 -59.93045,0 -108.51368,-48.58323 -108.51368,-108.51368 0,-59.93046 48.58323,-108.513691 108.51368,-108.513691 59.93046,0 108.51369,48.583231 108.51369,108.513691 z"
       transform="matrix(0.18088418,0,0,0.18088418,23.177076,-30.117622)" />
    <path
       transform="matrix(0.18088418,0,0,0.18088418,76.774449,-32.900455)"
       d="m 562.42186,164.94318 c 0,59.93045 -48.58323,108.51368 -108.51369,108.51368 -59.93045,0 -108.51368,-48.58323 -108.51368,-108.51368 0,-59.93046 48.58323,-108.513691 108.51368,-108.513691 59.93046,0 108.51369,48.583231 108.51369,108.513691 z"
       sodipodi:ry="108.51369"
       sodipodi:rx="108.51369"
       sodipodi:cy="164.94318"
       sodipodi:cx="453.90817"
       id="path3823"
       style="fill:#000000;stroke:none"
       sodipodi:type="arc" />
  </g>
  <g
     inkscape:groupmode="layer"
     id="layer4"
     inkscape:label="Capa#2"
     style="display:inline"
     transform="translate(-26.014102,35.086844)">
    <path
       transform="matrix(0.16742055,0,0,0.16998505,29.357896,-28.389456)"
       d="m 562.42186,164.94318 c 0,59.93045 -48.58323,108.51368 -108.51369,108.51368 -59.93045,0 -108.51368,-48.58323 -108.51368,-108.51368 0,-59.93046 48.58323,-108.513691 108.51368,-108.513691 59.93046,0 108.51369,48.583231 108.51369,108.513691 z"
       sodipodi:ry="108.51369"
       sodipodi:rx="108.51369"
       sodipodi:cy="164.94318"
       sodipodi:cx="453.90817"
       id="path3857"
       style="fill:#ffffff;stroke:none;display:inline"
       sodipodi:type="arc" />
    <path
       sodipodi:type="arc"
       style="fill:#ffffff;stroke:none;display:inline"
       id="path3864"
       sodipodi:cx="453.90817"
       sodipodi:cy="164.94318"
       sodipodi:rx="108.51369"
       sodipodi:ry="108.51369"
       d="m 562.42186,164.94318 c 0,59.93045 -48.58323,108.51368 -108.51369,108.51368 -59.93045,0 -108.51368,-48.58323 -108.51368,-108.51368 0,-59.93046 48.58323,-108.513691 108.51368,-108.513691 59.93046,0 108.51369,48.583231 108.51369,108.513691 z"
       transform="matrix(0.16742055,0,0,0.17062618,82.7883,-31.34761)" />
    <path
       style="fill:#000000;stroke:none"
       d="m 159.58064,-14.084629 c -0.48218,0 -0.94583,0.124253 -1.38489,0.350463 0.85855,0.643627 1.45838,2.109733 1.45838,3.8155254 0,2.2998066 -1.09149,4.1659887 -2.43629,4.1659887 -0.99818,0 -1.85686,-1.0285038 -2.23279,-2.4984627 -0.13315,0.7531348 -0.20349,1.5523173 -0.20349,2.3797575 0,4.5339035 2.1479,8.2076196 4.79908,8.2076196 2.65118,0 4.80474,-3.6737161 4.80474,-8.2076196 0,-4.5339039 -2.15356,-8.2132719 -4.80474,-8.2132719 z"
       id="path3868"
       inkscape:connector-curvature="0" />
    <path
       style="fill:#000000;stroke:none"
       d="M 80.568142,-19.978322 C 90.39191,-30.365788 100.51719,-37.964256 112.7423,-26.13933 97.809651,-35.447065 89.670305,-26.412886 80.568142,-19.978322 z"
       id="path3875"
       inkscape:connector-curvature="0"
       sodipodi:nodetypes="ccc" />
    <path
       sodipodi:nodetypes="ccc"
       inkscape:connector-curvature="0"
       id="path3877"
       d="m 180.0607,-24.556645 c -10.26619,-9.53795 -20.57957,-16.272398 -31.22149,-3.482443 13.44159,-10.505612 21.98439,-2.176881 31.22149,3.482443 z"
       style="fill:#000000;stroke:none" />
    <path
       inkscape:connector-curvature="0"
       id="path3880"
       d="m 105.66401,-11.526541 c -0.48219,0 -0.94583,0.124254 -1.3849,0.350464 0.85855,0.643626 1.45838,2.1097337 1.45838,3.8155258 0,2.2998066 -1.09148,4.1659887 -2.43628,4.1659887 -0.99818,0 -1.85686,-1.0285038 -2.23279,-2.4984627 -0.13316,0.7531348 -0.2035,1.5523173 -0.2035,2.3797575 0,4.5339035 2.1479,8.2076196 4.79909,8.2076196 2.65118,0 4.80473,-3.6737161 4.80473,-8.2076196 0,-4.5339036 -2.15355,-8.2132733 -4.80473,-8.2132733 z"
       style="fill:#000000;stroke:none" />
    <path
       sodipodi:type="arc"
       style="fill:#000000;stroke:none"
       id="path3892"
       sodipodi:cx="572"
       sodipodi:cy="372.36218"
       sodipodi:rx="6"
       sodipodi:ry="17"
       d="m 578,372.36218 c 0,9.38884 -2.68629,17 -6,17 -3.31371,0 -6,-7.61116 -6,-17 0,-9.38884 2.68629,-17 6,-17 3.31371,0 6,7.61116 6,17 z"
       transform="matrix(0.18088418,0,0,0.18088418,24.744503,-28.740189)" />
    <path
       d="m 578,372.36218 c 0,9.38884 -2.68629,17 -6,17 -3.31371,0 -6,-7.61116 -6,-17 0,-9.38884 2.68629,-17 6,-17 3.31371,0 6,7.61116 6,17 z"
       sodipodi:ry="17"
       sodipodi:rx="6"
       sodipodi:cy="372.36218"
       sodipodi:cx="572"
       id="path3894"
       style="fill:#000000;stroke:none"
       sodipodi:type="arc"
       transform="matrix(0.18088418,0,0,0.18088418,30.351912,-29.101958)" />
    <path
       style="fill:#000000;stroke:none"
       d="m 115.72924,48.56287 c 0.0872,0.784764 19.09884,7.98571 29.84589,-1.808842 -8.24776,8.733953 -20.43734,7.968892 -29.84589,1.808842 z"
       id="path3896"
       inkscape:connector-curvature="0"
       sodipodi:nodetypes="ccc" />
    <path
       style="fill:#445500;fill-opacity:1;stroke:none"
       d="m 102.88675,123.62786 c 5.00469,4.76766 11.36537,12.49738 14.33479,17.25377 -4.42331,-5.17314 -5.99711,-8.81728 -14.85511,-16.37002 z"
       id="path3904"
       inkscape:connector-curvature="0"
       sodipodi:nodetypes="cccc" />
  </g>
</svg>
