<?xml version="1.0" encoding="utf-8"?>
<!-- Generator: Adobe Illustrator 13.0.2, SVG Export Plug-In . SVG Version: 6.00 Build 14948)  -->
<!DOCTYPE svg PUBLIC "-//W3C//DTD SVG 1.1//EN" "http://www.w3.org/Graphics/SVG/1.1/DTD/svg11.dtd" [
	<!ENTITY ns_extend "http://ns.adobe.com/Extensibility/1.0/">
	<!ENTITY ns_ai "http://ns.adobe.com/AdobeIllustrator/10.0/">
	<!ENTITY ns_graphs "http://ns.adobe.com/Graphs/1.0/">
	<!ENTITY ns_vars "http://ns.adobe.com/Variables/1.0/">
	<!ENTITY ns_imrep "http://ns.adobe.com/ImageReplacement/1.0/">
	<!ENTITY ns_sfw "http://ns.adobe.com/SaveForWeb/1.0/">
	<!ENTITY ns_custom "http://ns.adobe.com/GenericCustomNamespace/1.0/">
	<!ENTITY ns_adobe_xpath "http://ns.adobe.com/XPath/1.0/">
]>
<svg version="1.1" id="small_eyed_horse_xA0_Image_1_" xmlns:x="&ns_extend;" xmlns:i="&ns_ai;" xmlns:graph="&ns_graphs;"
	 xmlns="http://www.w3.org/2000/svg" xmlns:xlink="http://www.w3.org/1999/xlink" x="0px" y="0px" width="147.006px"
	 height="113.758px" viewBox="0 0 147.006 113.758" enable-background="new 0 0 147.006 113.758" xml:space="preserve">
<metadata>
	<sfw  xmlns="&ns_sfw;">
		<slices></slices>
		<sliceSourceBounds  x="64.924" y="151.368" width="147.006" height="113.757" bottomLeftOrigin="true"></sliceSourceBounds>
	</sfw>
</metadata>
<g>
	<path fill-rule="evenodd" clip-rule="evenodd" d="M137.396,8.206c-1.28-0.079-1.023-1.696-2.88-1.2
		c-0.409,1.22,2.677,2.034,1.92,3.6c-1.93-0.87-3.764-1.835-4.8-3.6c-1.655-0.425-3.034-1.125-4.319-1.92
		c2.257-1.459,3.855,1.687,6.239,1.68c0.159-1.553-1.596-1.237-2.399-1.68c-2.092-1.152-4.121-3.016-6.48-3.84
		c-4.596,1.002-7.366,1.481-12,1.92c-1.115,0.105-1.684,0.574-2.64,0.72c-3.13,0.478-4.627,2.246-7.44,3.6
		c-0.687,0.331-1.639,0.393-2.399,0.72c-0.715,0.308-1.517,0.617-2.16,0.96c-0.93,0.495-1.622,1.375-2.88,1.68
		c-1.402,0.339-3.037-0.623-4.08,0.72c-1.021,0.141-0.465-1.296-1.681-0.96c-2.351,0.553-4.44,1.718-6.479,2.64
		c-1.068,0.483-2.145,0.942-3.12,1.44c-1.664,0.849-3.052,1.918-5.28,2.4c-0.57,0.123-1.298-0.085-1.92,0
		c-3.397,0.464-6.567,1.265-10.32,0.96c-1.022-0.083-2.328-0.043-3.36-0.24c-2.266-0.432-4.115-2.104-6.24-2.88
		c-4.591-1.678-9.015-2.44-14.64-1.68c-3.856,0.521-9.45,1.843-12,3.84c-0.716,0.561-1.396,1.389-2.16,2.16
		c-1.083,1.093-2.017,2.536-3.6,3.12c-1.188,0.438-3.483,0.004-4.56,1.2c-0.565,0.005-0.707-0.413-1.44-0.24
		c-2.393,0.851-4.266,2.519-5.76,4.56c-0.523,0.714-1.823,1.814-2.4,2.64c-1.724,2.466-2.397,6.257-5.76,7.2
		c-1.05-1.231,0.488-2.508,1.2-3.36c1.668-1.997,3.091-4.025,4.8-6.24c1.247-1.616,1.812-2.827,3.36-4.08
		c1.133-0.917,3.457-1.929,5.52-2.4c1.186-0.271,2.437-0.011,3.6-0.48c1.063-0.429,1.992-1.637,3.12-2.64
		c2.811-2.498,4.612-4.15,9.12-5.52c4.548-1.382,12.556-2.449,18.24-0.96c1.726,0.452,3.468,1.312,5.04,1.92
		c0.847,0.328,1.834,0.545,2.64,0.96c0.695,0.359,1.259,1.212,1.92,1.44c0.307,0.105,2.062-0.46,2.16,0.48
		c8.016-0.227,16.445-1.463,21.359-5.52c2.392-0.128,3.256-1.81,5.521-2.16c1.952-0.302,4.34,0.566,6.96,0
		c0.562-0.122,0.987-0.713,1.92-1.2c1.392-0.727,2.879-1.192,4.32-1.92c0.639-0.323,1.448-0.459,1.92-0.72
		c0.992-0.549,1.286-1.278,2.16-1.68c0.774-0.357,1.862-0.4,2.88-0.72c2.053-0.645,4.665-1.436,7.68-1.68
		c0.825-0.067,1.929,0.121,2.88,0c2.393-0.305,4.866-1.883,7.44-0.96c1.092,0.391,1.846,1.785,3.12,2.64
		c2.304,0.336,3.854,1.427,5.04,2.88c0.64,0,1.279,0,1.92,0C136.678,6.524,137.449,6.953,137.396,8.206z"/>
	<path fill-rule="evenodd" clip-rule="evenodd" d="M107.156,8.926c-1.899,2.049-4.935,4.147-8.4,3.84
		c-0.309-1.958,1.984-1.173,2.88-1.44c1.904-0.568,3.457-1.892,4.8-2.64C106.823,8.618,106.849,8.913,107.156,8.926z"/>
	<path fill-rule="evenodd" clip-rule="evenodd" d="M131.156,16.846c-0.171,0.949-0.634,1.606-1.2,2.16
		c-2.996-0.604-4.172-3.028-6.72-4.08c-0.43,0.068-0.493-0.227-0.24-0.24c-0.089-0.408,0.188-0.453,0.479-0.48
		C125.569,15.552,127.744,16.818,131.156,16.846z"/>
	<path fill-rule="evenodd" clip-rule="evenodd" d="M141.476,17.326c0.24,0,0.48,0,0.721,0c-0.136,1.065-0.069,2.331-1.2,2.4
		C140.929,18.699,141.729,18.539,141.476,17.326z"/>
	<path fill-rule="evenodd" clip-rule="evenodd" d="M138.116,18.526c0.771-0.21,0.497,0.623,0.96,0.72
		c-0.355,2.08-1.051,2.939-0.96,5.04c-0.801,0.374-1.63-0.156-1.92-0.96c-0.01-1.45,1.434-1.446,1.92-2.4
		C137.974,20.061,137.711,19.316,138.116,18.526z"/>
	<path fill-rule="evenodd" clip-rule="evenodd" d="M47.636,19.246c0.24,0,0.48,0,0.72,0c1.775,2.544,2.67,5.97,5.76,7.2
		c0.324,2.404-1.568,2.592-2.64,3.6c-1.038-0.002-0.948-1.132-1.68-1.44c-1.549,1.011-1.443,3.677-3.6,4.08
		c-0.621-2.244,2.448-3.966,2.88-6.48C49.563,23.371,48.549,21.651,47.636,19.246z M49.556,27.166c-0.246,1.368,1.935,0.379,1.2,0
		C50.694,27.728,49.702,27.304,49.556,27.166z"/>
	<path fill-rule="evenodd" clip-rule="evenodd" d="M140.996,19.966c-0.306,0.975-0.935,1.626-1.68,2.16
		C139.325,20.855,139.785,20.036,140.996,19.966z"/>
	<path fill-rule="evenodd" clip-rule="evenodd" d="M136.196,20.686c-0.312,1.288-1.112,2.088-2.4,2.4
		C133.932,21.622,134.731,20.821,136.196,20.686z"/>
	<path fill-rule="evenodd" clip-rule="evenodd" d="M101.876,25.966c-0.381,1.024,1.157,1.982,1.2,3.36
		C102.014,29.104,99.914,26.183,101.876,25.966z"/>
	<path fill-rule="evenodd" clip-rule="evenodd" d="M136.436,26.206c0.146,0.874,0.203,0.883,0.96,1.44
		c-1.075,0.239-0.726,0.654-0.96,1.44c-0.876-0.003-1.077-0.682-1.68-0.96C134.66,26.83,134.974,25.943,136.436,26.206z"/>
	<path fill-rule="evenodd" clip-rule="evenodd" d="M49.556,30.766c0.595,0.125,0.854,0.585,1.2,0.96
		c-0.291,2.637-1.041,5.525-0.48,8.16c0.276,1.299,1.521,2.143,1.2,3.36C48.044,41.537,48.78,34.624,49.556,30.766z"/>
	<path fill-rule="evenodd" clip-rule="evenodd" d="M134.516,32.926c0.279-0.039,0.428,0.053,0.48,0.24
		c-1.166,3.154-2.978,5.663-3.84,9.12c-1.062-0.851,0.111-3.113,0.72-3.84c-0.531-0.509-2.11,0.03-1.92-1.2
		c0.318-0.641,1.604-0.315,2.16-0.72C133.348,35.758,133.479,33.89,134.516,32.926z"/>
	<path fill-rule="evenodd" clip-rule="evenodd" d="M9.956,33.406c-0.051,2.111-0.657,5.742-1.44,7.92
		c-0.561-0.079-0.992-0.289-1.44-0.48C7.652,37.982,8.465,35.355,9.956,33.406z"/>
	<path fill-rule="evenodd" clip-rule="evenodd" d="M6.596,35.806c0.388-0.068,0.414,0.227,0.72,0.24
		c-0.409,0.951-0.017,2.703-1.44,2.64C5.143,37.589,6.657,36.997,6.596,35.806z"/>
	<path fill-rule="evenodd" clip-rule="evenodd" d="M86.756,44.206c0.569,0.133,0.996,0.928,0.48,1.44
		C86.27,45.573,86.17,44.626,86.756,44.206z"/>
	<path fill-rule="evenodd" clip-rule="evenodd" d="M47.636,47.566c1.77-0.249,0.845,2.195,2.88,1.68
		c0.198,0.678-0.338,0.622-0.24,1.2c0.427,0.367,0.515-0.406,0.96-0.48c0.034-0.005,1.59,0.336,1.44,0.24
		c0.422,0.269-0.145,1.563,0.72,0.72c0.158,0.878-0.52,0.921-0.48,1.68c1.25,0.92,1.85-0.862,2.4-1.44
		c0.645,1.088,0.479,0.245,1.44,0c0.735,1.098-0.466,2.005-0.96,2.64c0.029,0.61,0.349,0.931,0.96,0.96
		c-1.158,0.52-1.65-0.99-1.68-1.92c-0.281,0.039-0.203,0.438-0.24,0.72c-2.591,0.111-2.618-2.342-5.04-2.4
		C49.699,49.343,47.795,49.327,47.636,47.566z"/>
	<path fill-rule="evenodd" clip-rule="evenodd" d="M84.596,49.726c0,0.64,0,1.28,0,1.92c0.389,0.75,0.299-0.954,1.2-0.48
		c-1.068,2.015-3.491,1.574-5.76,1.68c-1.789,0.083-3.414,0.764-5.04,0.48c0.986-1.333,4.56-0.08,4.8-2.16
		c0.771-0.211,0.329,0.791,0.96,0.72c0.356-0.204,0.516-0.604,0.48-1.2c0.612,0.027,0.476,0.804,0.479,1.44
		C82.812,51.574,83.105,49.101,84.596,49.726z"/>
	<path fill-rule="evenodd" clip-rule="evenodd" d="M97.796,63.646c0.24,0,0.48,0,0.72,0c-0.025,2.79-0.574,7.094-1.92,9.359
		c-0.043,1.236,0.276,2.837-0.96,2.88c0.166-1.205-0.143-1.937-0.479-2.64C97.006,71.016,97.488,67.419,97.796,63.646z"/>
	<path fill-rule="evenodd" clip-rule="evenodd" d="M16.196,77.086c0.24,0,0.48,0,0.72,0c0.28,3.759,0.595,6.71,0.48,11.28
		c-0.025,0.993,0.397,2.36-0.48,3.12c-1.509-0.48-0.659-2.263-0.48-3.601C16.843,84.834,16.299,79.58,16.196,77.086z"/>
	<path fill-rule="evenodd" clip-rule="evenodd" d="M35.636,84.766c-0.062,0.703,0.543,0.737,0.48,1.44
		c-1.091,0.052-1.183-0.896-1.44-1.68C34.89,84.713,35.218,84.784,35.636,84.766z"/>
	<path fill-rule="evenodd" clip-rule="evenodd" d="M93.236,85.726c0.178,2.119-0.156,5.044-0.48,7.921
		c-0.104,0.932,0.559,2.681-0.72,2.88C91.969,93.404,92.495,88.836,93.236,85.726z"/>
	<path fill-rule="evenodd" clip-rule="evenodd" d="M70.436,88.366c0.608,0.555,0.603,0.812,1.68,0.479
		c0.47,0.938-0.092,1.977,0.96,1.92c0.109,0.75-0.513,0.768-1.2,0.721c-0.575-0.096,0.133,1.093-0.72,0.72
		C71.888,90.7,70.328,89.986,70.436,88.366z"/>
	<path fill-rule="evenodd" clip-rule="evenodd" d="M66.116,90.526c0.694,0.105,1.094,0.506,1.2,1.199
		c1.089-0.298-0.415-0.697,0.24-1.199c0.574,0.306,0.977,0.782,0.96,1.68c-0.49-0.419-0.471,0.179-0.96-0.24
		c-0.005,0.565,0.413,0.707,0.24,1.44C66.783,93.224,66.537,91.624,66.116,90.526z"/>
	<path fill-rule="evenodd" clip-rule="evenodd" d="M65.396,91.966c0.159,0.842,2.249,2.796,0.24,2.88
		C66.28,93.884,64.529,93.093,65.396,91.966z"/>
	<path fill-rule="evenodd" clip-rule="evenodd" d="M34.676,95.806c-1.14,0.834,0.269,2.793-0.48,3.841
		C32.533,99.305,32.718,94.742,34.676,95.806z"/>
	<path fill-rule="evenodd" clip-rule="evenodd" d="M8.036,100.126c-1.241-0.622-0.647-2.614,0.24-3.12
		C10.014,97.181,9.393,99.83,8.036,100.126z"/>
	<path fill-rule="evenodd" clip-rule="evenodd" d="M103.556,98.686c0.989,0.291,1.253,1.309,1.681,2.16
		c-0.602-0.029-0.752-0.458-0.96,0.24C103.732,100.639,103.104,99.373,103.556,98.686z"/>
	<path fill-rule="evenodd" clip-rule="evenodd" d="M91.316,103.006c0.029-0.53,1.018-0.102,1.439-0.24
		c0.966,1.323,1.091,3.072,0.24,4.561c-0.557,0.076-0.922-0.039-1.2-0.24C92.69,105.654,93.063,103.822,91.316,103.006z"/>
	<path fill-rule="evenodd" clip-rule="evenodd" d="M90.116,103.726c2.789,0.447,1.09,3.308,0,4.32
		C88.028,107.126,91.258,105.247,90.116,103.726z"/>
	<path fill-rule="evenodd" clip-rule="evenodd" d="M67.796,56.926c0.729-0.23,0.522-1.397,0.96-1.92
		c1.206,0.195-0.528,1.923,0.72,2.16c0.631-0.409-0.222-2.302,0.96-2.16c0.325,0.708,0.3,1.486-0.24,1.92
		c0.105,0.356,0.307-0.094,0.72,0c0.575-0.305-0.084-1.844,0.96-1.68c0.476,0.454,0.117,1.134,0,1.68
		c1.197,0.397,0.435-1.165,0.96-1.44c0.861,0.199,1.161-0.541,1.68,0c-0.101,0.459-0.087,1.033-0.72,0.96
		c0.901,1.755,1.938-1.709,2.4,0.24c0.397-0.243,0.261-1.02,0.479-1.44c0.856,0.204,0.029,0.591,0.24,1.44
		c0.977,0.017,1.033-0.887,0.96-1.92c1.266,0.049,0.291,1.089,0.72,1.68c1.225,0.265,0.216-1.704,1.44-1.44
		c0.17,0.89-0.41,1.03-0.24,1.92c0.697-0.342,0.542-1.538,1.44-1.68c-0.336,0.625-0.477,1.443-0.721,2.16
		c-1.49-0.191-3.351-0.901-4.08,0c1.56,0.161,3.411,0.9,4.561,0.72c-0.976-0.513,0.109-0.331,0.479-0.96
		c0.263-0.446,0.137-1.329,0.48-1.92c0.57-0.982,1.385-1.343,2.399-1.92c3.152,0.208,4.951,1.769,4.801,5.28
		c0.033,0.686,1.001,0.438,1.68,0.479c1.4,1.263,0.357,3.921,1.68,5.521c-0.427,1.751,0.294,3.311,0.24,5.279
		c-0.062,2.251-0.984,4.527-0.96,6.721c0.019,1.652,0.969,3.273,0,4.8c0.082,1.278,0.993,1.727,0.96,3.12
		c-0.597-0.026-0.743-0.45-1.2,0c0.117,0.546,0.477,1.226,0,1.68c0.513,0.112,0.457-0.343,0.48-0.72
		c1.116,1.556-0.522,3.853-0.96,6.239c-0.523,2.853-0.061,6.088-1.2,8.4c0.661,1.32,0.058,1.486,0,3.12
		c-0.789-0.171-0.808-1.112-1.68-1.2c-0.158,0.878,0.519,0.921,0.479,1.68c-1.133,0.014-1.401-0.838-2.16-1.199
		c-0.587,0.904,0.929,2.594,0,3.84c-2.432-0.048-1.668-3.292-2.88-4.561c-0.281,0.907,0.315,1.524,0.24,2.88
		c-1.7-0.059-1.041-2.479-1.92-3.359c-0.53,0.029-0.103,1.018-0.24,1.439c-0.558-0.082-1.125-0.155-0.96-0.96
		c-0.543,0.498-0.749,1.331-0.96,2.16c-0.638-0.002-1.371,0.091-1.68-0.24c-0.278-1.196,0.933-2.601,0.239-4.319
		c-1.734,0.397-0.599,2.709-1.199,3.84c-0.776-0.511-1.112-3.618,0.239-3.84c-0.998-1.159,1.084-3.114-0.239-3.84
		c0.233,1.071-1.005,2.214-0.721,4.08c-0.355-0.204-0.516-0.604-0.479-1.2c-1.325,1.112,0.903,4.179-0.96,5.279
		c-0.222-1.884-0.846-3.467,0-4.8c-0.127-0.192-0.25-0.39-0.24-0.72c-0.4,0.827-0.445,0.666-0.96,0
		c-0.724,1.133,0.267,2.606,0.48,3.6c-2.091,0.235-0.415-3.41-2.4-2.64c-0.04-0.76,0.638-0.802,0.48-1.68
		c0.592,0.031,1.156,0.036,1.44-0.24c-1.022-1.05,0.026-1.987,0.24-3.12c0.871-0.23,0.201,1.078,0.96,0.96
		c0.541-0.179,0.094-1.346,0.24-1.92c2.224,0.609-0.836,3.178,0.24,5.04c1.832-0.984,0.286-3.985,2.4-4.8
		c-0.174-1.214,0.265-1.816,0.72-2.4c0.955-0.175,0.965-0.175,1.92,0c0.17,0.891-0.41,1.03-0.239,1.92
		c0.982-0.057,0.442-1.637,1.92-1.2c0.19,0.907-1.183,2.122-1.92,2.881c-0.099,0.578,0.438,0.521,0.239,1.199
		c0.388-0.492,0.363-1.396,0.96-1.68c1.096,0.457,2.246,4.045,0.721,4.8c0.118-1.558-0.207-2.673-0.48-3.84
		c-1.441,2.281-0.184,5.067,0.96,6.72c0.233-0.806,0.975-1.104,1.44-1.68c-0.768-0.883-0.903-3.234-0.48-4.56
		c0.778,0.102,0.478,1.282,0.96,1.68c0.547-0.493,0.008-2.072,0.48-2.64c0.966,0.312,0.589,0.474,1.439,0
		c0.186,1.018,0.086,2.08-0.239,3.359c-0.796-0.084-0.377-1.383-0.48-2.16c-0.872-0.072-0.32,1.28-0.72,1.681
		c0.298,0.832,0.698,0.441,1.2,0.72c-0.245,1.364,0.593,1.647,1.439,1.92c0.481-1.198,0.791-2.568,1.2-3.84
		c-0.776-0.297-0.184,0.776-0.96,0.479c1.428-3.896-0.114-7.993,0.479-12c0.058-0.387,0.076-0.469,0.48-0.479
		c-1.462-0.851-1.152-2.427-1.68-3.84c1.233-2.951,0.628-6.607,0.479-9.84c-0.06-1.293,0.357-2.665,0.24-3.841
		c-0.071-0.716-0.672-1.364-0.72-2.159c-0.075-1.23,0.081-2.866-0.721-4.08c-0.545,0.175-1.872-0.433-1.68,0.479
		c-0.716-0.004-0.816-0.624-1.44-0.72c-3.091-0.598-6.261-0.846-9.6-1.2c-1.63-0.173-2.599-0.239-4.56,0
		c-2.807,0.344-6.152-0.081-8.88-0.72c-0.413-0.097-0.707-0.598-1.2-0.72c-1.146-0.285-3.228,0.117-3.6-1.44c-0.56,0-1.12,0-1.68,0
		c-0.844-0.973-2.201-1.556-3.36-2.16c-1.234-0.643-2.527-1.182-3.84-1.68c0.083,2.301-0.206,7.184-2.64,8.16
		c-0.274,0.109-0.673-0.077-0.96,0c-2.726,0.73-5.695,3.094-8.16,3.359c-0.174,2.227-0.915,3.886-1.92,5.28c0,0.8,0,1.6,0,2.4
		c-0.244,0.155-0.249,0.552-0.72,0.479c0.253,2.376,1.486,4.416,2.4,6.24c0.32,0.638,0.757,1.563,1.44,1.92
		c0.217,1.863,0.896,3.265,1.92,4.32c0.603,2.197,1.402,4.197,3.12,5.279c0.911,2.273,0.06,4.596-1.2,6
		c1.765,1.005-0.575,3.565,0.48,5.28c1.088-0.145,1.759,0.185,1.92-1.2c0.771-0.21,0.498,0.623,0.96,0.721
		c0.542-0.262,0.636-1.693,1.44-0.96c0.389-0.651,0.728-1.353,1.44-1.681c0.775-0.215,0.337,0.783,0.72,0.96
		c0.265-0.288,1.432-1.024,1.2,0.24c0.872-0.408,0.56-2.001,1.2-2.64c0.611,0.029,0.931,0.349,0.96,0.96
		c0.73-0.07,0.331-1.27,0.96-1.44c0.624-0.144,0.864,0.097,0.72,0.72c0.812,0.093,0.377-1.062,1.44-0.72
		c0.127,0.673,0.352,1.248,0.48,1.92c-0.193-0.127-0.39-0.25-0.72-0.24c-0.454,0.718,0.462,3.465-1.44,3.36
		c-0.097-1.137,0.429-1.651,0.24-2.88c-1.159,0.084-0.2,1.751-0.96,2.64c-0.855,0.055-1.255-0.345-1.2-1.199
		c-0.382,0.737-0.275,1.964-0.72,2.64c-0.8-0.16-1.303-0.617-1.2-1.68c-0.366,0.369-1.646,0.427-1.44-0.48
		c-1.058,0.463-1.83,1.21-2.16,2.4c-0.812-0.09-1.854-0.649-1.68,0.72c-0.997-0.259-1.319,0.199-1.92-0.24
		c-0.721,0.079-0.282,1.318-0.96,1.44c-0.704,0.59-0.631-0.601-1.2-0.721c-0.177-0.037-0.557,0.394-0.96,0.24
		c-0.885-0.336-1.486-1.505-3.12-1.2c-0.138-0.501-0.595-0.685-0.48-1.439c0.365,0.178,1.659,1.104,1.44-0.24
		c0.589,0.211,1.384,0.216,1.44,0.96c0.769-0.554-0.511-1.07-0.24-1.92c0.605,0.436,0.683,1.397,1.44,1.68
		c0.158-1.278-0.445-1.795-0.96-2.399c0.645-0.783,0.862,0.882,1.44,0.96c0.43-1.475-1.328-2.829-2.16-3.84
		c1.397-0.671,1.218,2.297,2.64,2.399c-0.261-0.59-1.784-3.933-2.64-4.08c-0.602-0.103-0.237,1.848-1.44,0.96
		c-0.812-1.312,0.611-2.196,1.2-2.88c0.179-0.738-0.659-0.461-0.48-1.2c0.502,0.102,0.636-0.164,0.96-0.239
		c1.169,0.031,0.967,1.433,1.68,1.92c-0.061,0.819-1.271,0.488-1.44,1.2c0.437,1.563,1.549,2.45,2.64,3.359
		c-0.212-0.827-0.45-1.63-1.2-1.92c0.054-0.666,0.761-0.679,0.96-1.2c-0.189-0.899-0.839-0.015-1.2-0.479
		c0.208-0.352,0.359-0.761,0.96-0.72c-0.23-0.491-0.49-0.95-0.72-1.44c0.016-1.121,0.549,0.281,0.96,0.24
		c0.092-0.892-0.973-0.628-0.72-1.681c0.479,0.241,0.378,1.062,1.2,0.96c-0.765-2.194-2.025-3.895-3.84-5.04
		c0.296-0.729,0.825,0.261,1.44,0c0.034-1.073-0.972-1.107-0.96-2.159c-0.48,0-0.96,0-1.44,0c-0.845-1.315-2.015-2.306-2.4-4.08
		c-0.175-0.545-0.722-0.718-1.2-0.96c-0.052-1.495-0.396-2.292-1.2-1.92c-0.088-0.408,0.188-0.453,0.48-0.48
		c-0.084-0.315-0.422-0.377-0.48-0.72c-0.477,0.003-0.305,0.654-0.96,0.479c0.097,2.588,1.735,2.305,2.88,3.601
		c-0.51,0.725-0.894-0.688-1.44-0.721c0.191,1.201,1.088,2.127,2.16,2.641c-1.295,2.346,4.83,4.457,4.8,7.439
		c-1.154-0.846-1.86-2.14-2.88-3.12c-1.067,0.368,0.312,1.001,0.48,1.44c0.136,0.353-0.351,0.473-0.24,0.72
		c0.234,0.521,1.641,1.219,0.72,1.44c-0.054-0.666-0.761-0.679-0.96-1.2c-0.388-0.067-0.413,0.227-0.72,0.24
		c-0.2,1.4,0.965,1.435,1.2,2.399c-0.756,0.116-0.543-0.736-1.44-0.479c-0.3-0.82-0.172-2.067-0.72-2.64
		c0.192-0.952,0.835-1.823,0.24-2.881c-2.935-4.265-5.295-9.104-8.16-13.439c0.158-1.358-0.173-2.228-0.72-2.88
		c-1.041,0.239-0.982,1.577-0.96,2.88c-0.141,1.827-2.013,2.763-3.12,4.32c-0.647,0.91-1.184,2.624-1.2,4.319
		c-0.037,3.948,0.217,8.948,1.44,12.24c-0.154,3.595,2.323,4.557,3.12,7.2c0.517-0.204,0.849-0.591,0.72-1.44
		c0.655-0.175,0.483,0.478,0.96,0.48c0.006-0.807-0.331-1.27-0.72-1.681c0.895-0.443,0.885,0.423,1.92-0.239
		c0.221,0.979,0.524,1.876,1.2,2.399c0.964-0.252-0.031-0.975,0.24-1.92c0.645-0.165,0.464,0.496,0.72,0.72
		c0.489-1.203,1.173-0.734,2.16-1.439c0.32,1.76,1.366,2.794,1.92,4.32c-1.545,0.134-2.837,0.522-4.08,0.96
		c-0.281-0.359-0.298-0.982-0.72-1.2c-0.269,0.738-0.758,1.256-1.68,0.72c-0.072,0.633,0.333,0.788,0.96,0.72
		c0.088,1.849-0.362,3.158-1.44,3.841c-1.574-0.347-2.489-1.351-3.36-2.4c-0.121-1.001,0.701-1.059,0.48-2.16
		c0.135-0.974-0.93-1.104-1.2-1.92c-0.138-0.419,0.18-1.04,0-1.44c-0.725-1.612-2.73-2.8-2.4-5.279
		c-1.597-2.66-0.101-9.169-1.2-12.48c0.47-2.97,1.208-5.673,2.88-7.439c-0.074-0.566-0.833-0.447-0.72-1.2
		c0.763-0.997,1.308-2.212,1.92-3.36c0.821-0.22,1.72-0.36,2.4-0.72c2.231-2.169,5.065-3.735,6.72-6.48
		c-0.168-0.738-0.168-0.461,0-1.199c1.481-1.239,3.861-1.579,5.28-2.88c-0.705-0.972-0.194-1.499,0.48-2.161
		c-0.965-0.768,0.41-2.16,0.48-2.64c0.05-0.35-0.565-0.695-0.48-0.96c0.786-2.445,5.961-7.259,9.12-4.8
		c-0.343,1.944,2.211,2.205,2.88,3.84c-0.56,0-1.12,0-1.68,0c1.135,1.464,2.997,0.801,4.08,2.4c2.124,0.516,3.31,1.97,5.52,2.4
		c0.382-0.748-0.366-3.184,1.44-3.12c-0.077,1.462-1.514,1.402-0.48,2.88c1.048-0.472,1.205-1.834,1.92-2.64
		c0.592,0.764-0.496,1.895-0.72,2.64c0.039,0.281,0.438,0.203,0.72,0.24c0.34-1.155,1.109-2.975,2.16-2.64
		c-0.412,1.029-0.939,1.941-1.44,2.88c0.058,0.422,0.413,0.547,0.96,0.48c0.317-1.282,0.768-2.432,1.44-3.36
		c1.2,0.745-0.687,1.846-0.24,3.36c2.177,2.117,1.71-2.188,2.64-2.88c0.524,0.036,0.515,0.605,0.48,1.2
		c0.298,0.686,0.698-1.043,1.2-0.24C67.299,55.72,66.219,56.927,67.796,56.926z M65.636,55.246c-0.044,1.083-0.449,1.354,0.48,1.68
		c-0.556,0.077-0.921-0.038-1.2-0.24c-0.399,1.466,2.147,1.108,2.16,0.24C66.117,57.157,66.316,55.874,65.636,55.246z
		 M39.716,50.686c0.16,0,0.32,0,0.48,0c0.373-0.591-0.815-0.706-0.72-0.24C39.623,50.459,39.76,50.482,39.716,50.686z
		 M83.636,55.966c1.285-0.824,0.752,1.224,1.44,1.681c-0.082-1.202,0.914-1.326,0.72-2.641c-0.457-0.103-0.603-0.517-1.2-0.48
		C84.255,54.985,83.685,55.214,83.636,55.966z M87.716,55.726c-0.378-0.022-0.188-0.612-0.72-0.48
		C86.785,55.74,87.618,56.324,87.716,55.726z M82.436,58.606c-0.46-1.348,1.518-2.523,0.24-3.121
		C82.305,56.112,80.932,58.349,82.436,58.606z M60.356,56.926c0.029-1.429-0.8-0.594-1.92-0.96
		C58.509,56.853,59.936,56.387,60.356,56.926z M86.276,58.126c-0.139-0.422,0.29-1.41-0.24-1.44c-1.078,1.35,0.237,1.741,0.24,2.88
		c2.025-0.097,2.006-3.026,0.239-3.36C86.48,56.915,87.214,57.9,86.276,58.126z M83.876,58.846c0.194,0.096,0.082-1.499-0.24-1.68
		C83.823,57.759,82.765,58.827,83.876,58.846z M87.956,59.806c0.104-0.377,0.755-0.205,0.479-0.96c-0.239,0-0.479,0-0.72,0
		C87.757,59.205,87.63,59.731,87.956,59.806z M36.356,61.486c0.128-0.832,0.642-1.278,0.72-2.16c-0.307-0.014-0.333-0.308-0.72-0.24
		C36.605,59.945,35.402,60.924,36.356,61.486z M40.196,60.766c0.595,0.036,1.165,0.045,1.2-0.479
		c-0.325-0.075-0.458-0.342-0.96-0.24C40.446,60.376,40.323,60.573,40.196,60.766z M33.956,62.446c0,0.16,0,0.319,0,0.479
		c0.146,0.014,0.284,0.036,0.24,0.24c0.16,0,0.32,0,0.48,0c0.014-0.146,0.036-0.284,0.24-0.24c0-0.16,0-0.319,0-0.479
		c-0.146-0.014-0.284-0.036-0.24-0.24c-0.16,0-0.32,0-0.48,0C34.182,62.353,34.16,62.49,33.956,62.446z M33.476,65.086
		c1.034-0.222,0.364-0.757,0.72-1.439c-0.33,0.01-0.527-0.113-0.72-0.24C33.476,63.966,33.476,64.526,33.476,65.086z M89.636,65.086
		c0.592,0.031,1.156,0.036,1.44-0.24c0.098-0.578-0.438-0.521-0.24-1.199c-0.871-0.231-0.201,1.078-0.96,0.96
		c-0.093-0.278-1.166-0.278-0.48,0C89.583,64.659,89.675,64.807,89.636,65.086z M89.396,66.526c-0.307-0.014-0.332-0.308-0.72-0.24
		C88.303,66.877,89.491,66.992,89.396,66.526z M30.836,67.966c-0.072,0.472,0.324,0.477,0.48,0.72
		c0.001,0.241-0.194,0.286-0.24,0.48c0.818,0.019,0.71-0.89,0.72-1.68C31.02,67.189,31.612,68.263,30.836,67.966z M25.316,69.886
		c0.583,2.857,3.293,3.587,3.84,6.48c1.541-0.255,0.981-1.365,2.4-1.92c-0.431,0.03-0.562-0.238-0.48-0.721
		c-0.796,0.254-1.042,0.712-1.44-0.239c0.856,0.033,0.856-0.522,0-0.96c0.144,0.623-0.096,0.863-0.72,0.72
		c-0.229,0.447,0.719,0.802,0,0.96c-0.125-0.596-0.585-0.854-0.96-1.2c0.021-0.378,0.612-0.188,0.48-0.72
		c-0.331-0.011-0.527,0.113-0.72,0.24c0.174-0.734-0.414-0.706-0.24-1.44c0.24,0,0.48,0,0.72,0c0-0.32,0-0.64,0-0.96
		c-1.587,0.467-0.527-1.713-1.2-2.16C26.387,68.486,26.134,70.341,25.316,69.886z M32.756,77.086c0.21-0.494-0.623-1.078-0.72-0.479
		C32.414,76.628,32.224,77.218,32.756,77.086z M33.716,79.006c-0.623-0.417-0.441-1.639-1.68-1.439
		C31.971,78.521,33.454,79.174,33.716,79.006z M34.916,81.406c-0.601-0.03-0.751-0.458-0.96,0.24c0.895,0.022,0.016,0.937,0.48,0.96
		c0.46-0.599,0.92,0.823,1.68,0.72c-1.06-0.938-0.652-3.291-1.92-3.36C34.58,80.303,34.809,80.793,34.916,81.406z M90.596,82.606
		c-0.053-0.987,0.194-2.274-0.72-2.4C90.022,81.1,89.422,82.74,90.596,82.606z M40.676,91.726c-0.15-1.929-1.417-2.742-2.4-3.84
		C38.905,89.337,39.61,90.712,40.676,91.726z M90.596,89.086c0.494,0.211,1.078-0.622,0.48-0.72c-0.014,0.146-0.036,0.284-0.24,0.24
		c-0.037-0.283,0.041-0.682-0.24-0.721C90.288,88.201,90.288,88.771,90.596,89.086z M79.076,96.286
		c-0.313-2.153,0.923-2.757,0.96-4.561c-0.307-0.013-0.333-0.308-0.72-0.239C78.877,92.733,77.62,95.296,79.076,96.286z
		 M39.476,93.406c0.578,0.098,0.521-0.438,1.2-0.24c0.068-0.628-0.087-1.032-0.72-0.96C39.711,92.521,39.721,93.091,39.476,93.406z
		 M80.276,100.606c-0.474-1.202,1.139-4.291-0.48-5.28c-0.756,1.517,0.081,3.139-0.479,4.8
		C80.068,99.729,79.992,101.322,80.276,100.606z M78.596,99.166c-0.021-1.214,0.676-2.438-0.72-2.64
		C77.944,97.578,77.628,99.015,78.596,99.166z M50.996,98.446c0.065-0.327-0.149-0.938-0.24-0.48
		C50.69,98.293,50.905,98.903,50.996,98.446z M48.836,98.926c-0.017,0.003,0.015,0.224,0,0.24
		C47.696,100.469,49.988,98.723,48.836,98.926z M86.276,100.846c-0.438,0.008,0.457-1.207-0.48-1.199
		C85.72,100.15,85.76,101.725,86.276,100.846z M84.116,101.806c0.865,0.102,1.345-1.907,0.239-1.68
		C84.269,100.986,83.712,101.005,84.116,101.806z M89.396,100.846c-0.316-0.003-0.219-0.42-0.479-0.479
		C88.331,100.644,89.184,101.496,89.396,100.846z M87.716,102.766c-0.331-0.972,0.521-0.759,0.48-1.439
		c-0.355-0.125-0.605-0.355-0.96-0.48C86.844,101.309,86.83,102.848,87.716,102.766z M39.236,103.246
		c0.04-0.785,0.555-1.552-0.48-1.68C38.091,102.024,38.152,103.276,39.236,103.246z M86.276,102.526
		c0.066-0.548-0.059-0.902-0.48-0.96C85.851,101.991,85.554,102.768,86.276,102.526z M25.076,103.246
		c0.067-0.547-0.058-0.902-0.48-0.96C24.529,102.833,24.654,103.188,25.076,103.246z"/>
	<path fill-rule="evenodd" clip-rule="evenodd" d="M72.356,97.486c-0.284,0.276-0.848,0.271-1.44,0.239
		c-0.634-0.748,0.617-2.041-0.72-1.439c0.532-1.427-0.005-2.75-0.72-3.601c-0.702,1.587,0.314,3.522,0.48,5.04
		c-1.059-0.621-1.372-1.987-2.16-2.88c-0.264,1.628,1.426,3.372,2.4,4.561c0.011,0.613-0.178,0.292-0.48,0.24
		c0.008,1.031,1.275,0.805,0.96,2.159c-3.054,1.844-3.854-3.272-6.48-4.08c-0.047,1.728,1.431,1.93,2.4,2.641
		c-0.803,1.264,1.305,2.118,0.48,3.359c-2.069-0.365-0.925-3.826-3.12-4.56c-0.883,0.183-0.499,1.917,0.24,1.92
		c-0.407,0.232-0.617,0.663-0.48,1.44c-2.006,0.245-0.899-2.621-2.16-3.12c-0.307,0.966-0.397,3.183-1.92,2.16
		c0.15-0.74,1.297-1.729,0.48-2.641c-0.858,0.102-0.675,1.245-0.72,2.16c-0.739,0.168-0.461,0.168-1.2,0c0-0.96,0-1.92,0-2.88
		c-1.386,0.134-0.233,2.807-1.92,2.64c-0.381-0.658-0.339-1.741-0.72-2.399c-0.795,0.862,0.098,2.467-0.96,3.359
		c-1.524-0.411-0.329-2.181-0.96-3.6c1.547,1.116,0.197-2.443,1.92-1.92c-0.144,1.184,0.624,1.456,0.48,2.64
		c0.474,0.125,0.64-1.415,0.72-0.24c0.302-0.446-0.49-2.497,1.2-2.159c0.328,0.472,0.229,1.37,0.48,1.92
		c0.999-0.922,1.382-2.458,2.88-2.88c0.185,0.904-0.293,1.146-0.24,1.92c0.361,0.065,1.297,0.488,1.2,1.68
		c2.321-2.375-1.332-5.23-1.68-7.92c0.346-0.135,0.586-0.374,0.72-0.72c0.619,0.82,1.423,1.457,1.68,2.64
		c-0.906-0.16,0.117,1.114-0.24,1.92c0.176,0.225,0.437,0.363,0.72,0.48c0.348-0.288,0.321-1.141,0.96-0.48c0-0.4,0-0.8,0-1.2
		c1.083,0.116,0.863,1.537,0.96,2.641c-0.646,0.165-0.464-0.496-0.72-0.721c-0.613,0.027-0.476,0.804-0.48,1.44
		c1.679,1.281,3.08,2.84,4.8,4.08c0.11-0.678-1.242-1.953-1.92-2.641c0.104-0.355,0.307,0.095,0.72,0
		c-0.158-0.882-0.885-1.194-1.44-1.68c0.326-1.025,1.083,0.335,1.68,0.48c-0.151-1.196-1.46-2.289-0.96-3.36
		c0.928,0.032,0.946,0.974,1.68,1.2c0.14-1.301-0.506-3.387,0.96-3.36c0.56,0.881,0.982,1.898,1.2,3.12
		c0.48-0.319,0.535-1.065,0.72-1.68c0.422,0.596,0.439,0.393,0.72-0.24c0.682,0.117,0.849,0.751,0.96,1.44
		c-0.315-0.085-0.377-0.423-0.72-0.48C72.695,95.627,71.879,96.233,72.356,97.486z M69.716,100.366
		c-0.833,0.112-0.138-1.303-0.72-1.44c-0.106,1.199-0.506-0.529-1.2-0.24C68.271,99.26,69.171,100.66,69.716,100.366z
		 M60.596,98.206c0.383-0.36-0.006-1.011-0.48-1.2C59.733,97.366,60.123,98.017,60.596,98.206z M59.156,99.646
		c0.039-0.168-0.083-1.397-0.24-0.721C58.705,99.84,59.045,100.128,59.156,99.646z"/>
	<path fill-rule="evenodd" clip-rule="evenodd" d="M93.956,97.966c0.756-4.439,0.614-9.96,1.68-14.64
		c1.913,0.745-0.397,3.543,0.48,4.8c-0.675,1.082-0.653,2.613-0.721,3.84c-0.121,2.225-0.09,4.507-0.239,6.48
		c1.367,0.053,0.133-1.247,0.72-1.681c0.538,0.343,0.458,1.303,0.96,1.681c0.496-1.237,0.538-0.186,1.44,0
		c0.948-0.012-0.041-1.961,1.199-1.681c0,0.721,0,1.44,0,2.16c0.566,0.588,0.447-0.358,1.2-0.24c-0.062,0.703,0.543,0.738,0.48,1.44
		c0.479-0.241,0.379-1.062,1.199-0.96c-1.06,1.782,0.572,2.786,0.48,4.32c0.271-0.79,0.525-1.566,0-2.88
		c1.024-0.354,2.396,1.612,2.64,3.119c0.106,0.655,0.106,1.99-0.479,2.16c-0.297,0.777,0.776,0.184,0.479,0.96
		c-1.999-0.08-2.034-2.125-3.6-2.64c-0.223,2.611,1.878,3.947,1.2,6.24c-1.272-0.775-1.521,1.204-2.641,0
		c-0.156,1.036,0.415,1.345,0.721,1.92c-0.962,2.64-3.492,0.711-5.761,0.72c-0.926,0.004-1.686,0.411-2.399-0.24
		c-0.312-0.595,0.535-1.164,0-1.199c2.062-0.332,5.079,1.482,7.2,0c-0.846-4.195-4.398-5.683-5.761-9.36
		c0.527-0.913,0.353-2.528,0.721-3.601C94.796,98.406,94.569,97.993,93.956,97.966z M99.716,104.446
		c0.726-1.146-1.478-3.701-0.479-4.32c-0.049-0.454-0.619-1.591-0.96-0.96C98.331,100.713,98.677,103.181,99.716,104.446z
		 M96.596,101.806c-0.518,0.576-0.74,1.713-0.479,2.4C96.961,104.163,97.561,102.166,96.596,101.806z M97.316,102.526
		c1.149-0.488,0.531-2.377-0.48-2.641C97.151,100.61,97.001,101.802,97.316,102.526z M100.676,103.726
		c-0.213-1.732,0.854-0.407,1.44-0.239c-0.035-1.285-0.974-2.028-1.44-2.88c-0.164-0.3,0.14-0.891-0.479-0.721
		C99.71,100.942,99.838,103.218,100.676,103.726z M104.276,104.686c-0.45-0.27-0.511-0.93-0.96-1.199
		C103.319,104.062,103.998,105.179,104.276,104.686z M97.316,103.966c0.105,0.854,0.868,1.052,1.199,1.681
		c0.239-0.893,0.513-0.628,0.24-1.681C98.001,104.086,97.817,103.442,97.316,103.966z M101.636,106.126
		c0.044-0.523-0.196-0.764-0.72-0.72C100.751,106.052,101.412,105.87,101.636,106.126z M100.916,107.326
		c-0.188-0.053-0.279-0.201-0.24-0.48c-0.494-0.21-1.077,0.623-0.479,0.721C100.223,106.716,100.989,108.076,100.916,107.326z"/>
	<path fill-rule="evenodd" clip-rule="evenodd" d="M35.396,89.086c0.058-0.868,1.66,0.472,1.68,1.2
		C36.145,90.258,36.333,89.108,35.396,89.086z"/>
	<path fill-rule="evenodd" clip-rule="evenodd" d="M64.196,101.806c0.623-0.837,0.717,0.865,1.44,0.721
		C65.125,103.251,64.742,101.839,64.196,101.806z"/>
	<path fill-rule="evenodd" clip-rule="evenodd" d="M141.476,6.286c0.857,0.922-0.172,2.233,0,3.84c0.46,0.5,0.92,1,1.681,1.2
		c1.311-0.689,0.489-3.511,2.64-3.36c-0.158,1.683,0.538,4.541,0.48,6.48c-1.264-0.336-0.544-2.656-1.2-3.6
		c-0.71,0.74-1.003,1.123-0.721,2.4c-0.278-0.039-0.427,0.053-0.479,0.24c-0.807,0.058-1.24-0.891-0.72-1.44
		c-0.078-0.562-1.047-0.233-1.2-0.72c-0.96,0.4-0.272,2.447-0.48,3.6c-1.874,0.277-0.792-1.605-0.72-2.64
		c0.104-1.481,0.064-2.983,0.24-4.08c-1.59,0.89-2.464,2.496-3.36,4.08c0.34,1.156,1.414,2.67,0.96,3.84
		c-2.025-0.03-0.771-2.702-1.92-3.12c-0.163-3.763,2.79-4.41,4.08-6.72C140.996,6.286,141.236,6.286,141.476,6.286z"/>
	<path fill-rule="evenodd" clip-rule="evenodd" d="M145.076,14.926c1.142,0.312,0.355,1.706,1.68,2.16
		c0.834,2.181-0.702,3.604-0.479,5.04c-0.279,0.202-0.644,0.316-1.2,0.24c-0.067,2.095-0.217,5.415,0.72,7.2
		c-1.786,1.813-3.233,3.966-4.56,6.24c0,0.56,0,1.12,0,1.68c-0.867,2.062-2.277,4.405-3.12,6.72c-0.303,0.829-0.156,1.852-0.48,2.64
		c-0.986,2.399-2.852,3.778-5.28,5.04c-2.061,1.071-3.605,1.418-6.72,0.72c-0.116-0.545-1.7-2.085-1.92-2.88
		c-0.138-0.5-0.465-4.186-0.24-5.04c0.312-1.182,1.368-1.256,1.92-2.16c-0.767-3.557,0.562-6.208-1.199-8.88
		c0.319-1.471,0.599-2.399-0.24-3.6c0.297-1.543,0.953-2.727,0.96-4.56c-1.764,1.087-3.032-0.223-4.561,0
		c-1.183,0.173-2.922,1.717-3.6,3.12c-0.189,0.394-0.061,1.155-0.24,1.68c-0.173,0.506-0.635,0.872-0.72,1.2
		c-0.419,1.609-0.036,3.722-2.16,3.84c0.409,0.643-0.517,1.612-1.2,1.92c0.188,1.628-0.514,2.366-0.96,3.36
		c-0.106,1.466,0.77,1.951,1.2,2.88c0.004,2.004,0.054,4.054-1.439,4.56c0.001,1.6-0.107,2.991-0.24,5.04
		c-1.929,1.579-4.001,4.067-4.561,6.24c-0.757,1.403-1.936,2.384-3.6,2.88c-0.399,0.754,0.893,0.98,0.24,1.2
		c-0.842,4.758-2.748,8.452-4.561,12.24c-0.346,2.613-0.523,5.396-1.68,7.199c-1.73,0.026-1.311-2.504-0.24-2.88
		c0.077-3.058,1.18-7.13,3.12-9.12c0.931-3.789,2.095-7.346,2.88-11.279c0.547-0.067,0.902,0.058,0.96,0.479
		c2.686-2.915,3.736-7.463,6-10.8c-0.587-1.069-0.646-2.653-0.239-4.08c-1.307-1.156-1.295-3.74-1.921-6
		c-0.955-3.451-2.771-6.327-3.84-9.12c0.644,0.396,0.862,1.218,1.44,1.68c-0.133-2.336-1.074-4.779-1.92-7.2
		c-0.846-2.418-2.693-4.391-2.88-6.48c2.222,1.538,3.014,4.506,4.56,6.72c-0.091,2.893,1.643,5.412,2.88,7.2
		c-0.223,3.42,0.316,5.854,1.2,8.64c2.133-3.789-0.387-9.386,0.72-14.16c0.082-0.351,0.592-1.644,0.96-2.4
		c0.341-0.699,0.668-1.961,1.681-1.68c0.491,0.922-0.048,2.592-0.721,3.12c-0.52,2.878-1.149,7.552-0.479,10.56
		c2.202-2.678,4.096-5.664,5.04-9.6c2.003-2.733,5.326-2.068,9.12-2.4c0.227-1.907-2.019-1.341-2.4-2.64
		c1.621-0.182,2.775,0.104,3.6,0.72c-0.37,3.922-2.39,8.33,0,11.04c0.374,0.853-0.814,0.145-0.72,0.72
		c0.123,0.677,0.581,1.019,0.72,1.68c-0.777,2.63-0.133,4.44-0.239,7.68c-0.39,0.89-1.399,1.161-1.92,1.92
		c1.137,1.732-0.628,4.92,1.439,5.76c0.08-1.886,0.769-3.837,1.681-5.52c1.762,1.18-3.048,5.661,0.96,6.48
		c1.085-1.475,1.61-3.509,1.92-5.76c0.727-0.073,0.857-0.743,1.92-0.48c0.516,0.661-0.14,1.002,0.239,1.68
		c-0.714-0.318-1.217-0.246-1.68,0.24c0.127,1.359,0.127,1.521,0,2.88c2.123-0.197,2.546-2.094,4.08-2.88
		c-0.076-0.563-0.379-0.901-0.24-1.68c2.874-4.886,3.736-11.784,5.521-17.76c0.157-0.878-0.52-0.921-0.48-1.68
		c0.772-0.667,0.866-2.013,1.681-2.64c-0.077-0.949-0.743,0.178-0.96-0.48c0.409-3.011,6.082-3.115,3.84-7.2
		C144.278,15.568,144.913,15.483,145.076,14.926z M144.836,20.206c1.192,0.061,1.696-2.542,0.72-3.12
		C145.585,18.433,144.153,18.922,144.836,20.206z M144.355,22.606c-0.202-0.854,0.695-1.438-0.239-1.68
		C143.911,21.576,143.19,22.409,144.355,22.606z M135.956,47.086c-0.394-0.972,1.27-1.104,0.479-1.68
		C136.063,45.775,135,46.83,135.956,47.086z M108.836,52.606c0.835,0.279,1.532-1.609,0.48-1.68
		C109.05,51.38,109.01,52.06,108.836,52.606z"/>
	<path fill-rule="evenodd" clip-rule="evenodd" d="M14.996,72.286c0.546-0.493,0.829-1.251,0.72-2.4
		c1.836-1.524,2.53-4.189,4.8-5.279c-0.228,2.905-3.773,4.536-4.08,8.159c-0.827,0.454-1.169,1.391-2.16,1.681
		c0.64,3.887,1.549,9.804,1.2,14.399c-0.125,1.648-1.051,3.213-0.72,4.561c0.39,1.589,2.347,1.905,2.88,3.12
		c-0.043,2.356-0.597,4.202-1.2,6c-2.671-0.268-0.727-3.939,0-5.04c-0.189-2.079-3.035-2.63-3.36-4.561
		c-0.176-1.041,0.533-1.566,0.72-2.88c0.513-3.604-0.082-9.094-0.24-13.2c-0.037-0.938,0.307-1.878,0.24-2.64
		c-0.147-1.662-1.173-3.334-0.96-4.56c0.375-2.16,3.913-4.198,5.04-6.961c0.711-1.742,1.372-4.327,1.2-6.72
		c-0.125-1.732-1.346-2.797-1.68-4.56c-0.185-0.976,0.304-2.171,0.24-3.12c-0.178-2.633-0.739-5.215-1.68-7.92
		c-0.914,0.895,0.86,1.181,0.24,3.12c-0.594,0.846-1.837,1.043-1.92,2.4c-2.405-0.997-0.347-3.776-1.68-5.04
		c-0.948,0.252-0.307,2.093-1.44,2.16c-1.445-1.562,0.83-3.315,1.2-5.04c0.05-0.232-0.029-0.803,0-1.2
		c0.149-2.014,0.434-3.939,0.72-6.72c0.722-0.242,0.425,0.535,0.48,0.96c1.155-1.245,1.713-3.086,2.64-4.56
		c1.205,0.211,2.04-1.074,2.88-1.92c0.714,0.086,1.217,0.382,1.68,0.72c0.472,2.792-2.469,2.17-2.64,4.32
		c-0.966,0.347-0.803-0.381-0.48,0.96c-0.469,0.811-0.59,1.97-1.2,2.64c-0.165,1.764,0.557,3.638,0.72,5.52
		c0.086,0.999-0.203,1.708,0.24,2.88c0.653,1.726,1.659,4.749,1.92,7.44c0.226,2.328-0.254,4.815,1.2,6.72
		c0.314,2.364-0.705,3.534,0,5.04c-0.128,1.058-1.324,1.399-1.92,2.4c-0.353,0.593-0.283,1.499-0.72,2.16
		C16.394,67.571,13.394,68.884,14.996,72.286z M16.436,31.006c-0.037-1.562,1.643-2.67,1.2-3.84c-1.111,0.409-0.682,2.358-1.92,2.64
		c-0.054-0.187-0.006-0.474-0.24-0.48C15.748,29.934,15.875,30.687,16.436,31.006z M14.516,34.606
		C14.806,34.63,14.664,34.257,14.516,34.606L14.516,34.606z M13.316,38.446c1.034-0.313,0.759,0.681,1.2,0.96
		c0.389-0.845-0.198-1.421,0.72-1.92c-0.915,0.519-0.489-0.482-1.68-0.24C13.354,37.524,13.239,37.89,13.316,38.446z"/>
	<path fill-rule="evenodd" clip-rule="evenodd" d="M86.516,35.086c0.24,0,0.48,0,0.721,0c1.268,2.598-0.553,5.914-1.2,8.16
		c-2.186-1.122-0.029-5.35,0.479-7.44C86.516,35.566,86.516,35.326,86.516,35.086z"/>
	<path fill-rule="evenodd" clip-rule="evenodd" d="M46.916,37.006c-0.634,1.537-1.574,3.186-1.68,4.56
		c0.204,0.566,0.591-0.661,1.44-0.24c0.439,1.014,1.263,1.767,0.72,3.12c-1.67-1.601-2.978-0.552-5.52-0.48
		c1.324-2.436,3.127-4.393,4.32-6.96C46.436,37.006,46.676,37.006,46.916,37.006z M44.996,42.286c0.067-0.547-0.058-0.902-0.48-0.96
		C44.071,41.749,44.578,42.069,44.996,42.286z"/>
	<path fill-rule="evenodd" clip-rule="evenodd" d="M19.796,30.046c0.388-0.067,0.413,0.227,0.72,0.24
		c-0.498,3.495-1.161,6.341,0.24,9.6c-0.073,3.846,2.06,7.312,4.08,9.84c0.927-0.047,1.769-0.009,2.4,0.24
		c0.316,1.996-1.196,2.164-2.4,2.64c0.088,1.557,0.305,2.549-0.24,3.84c-1.408,0.049-0.611-2.108-1.68-2.4c0-1.04,0-2.08,0-3.12
		C19.808,46.173,17.77,36.954,19.796,30.046z"/>
	<path fill-rule="evenodd" clip-rule="evenodd" d="M106.676,97.726c1.051,0.149,0.926,1.475,1.2,2.4
		c0.796-0.084,0.377-1.383,0.479-2.16c1.054,0.243,0.396,2.528-0.239,2.641c0.836,0.666,0.831,1.265,0.96,2.64
		c0.885-0.075,0.564-1.355,0.96-1.92c0.771-0.211,0.329,0.791,0.96,0.72c0.616-0.023,0.343-0.937,0.96-0.96
		c0.77-0.209,0.751,0.369,0.96,0.72c0.505-0.375,0.919-0.841,1.2-1.439c0.737,0.062,1.079,0.521,1.68,0.72
		c0.192,1.713-0.614,2.426-1.92,2.64c0-0.479,0-0.96,0-1.439c-0.502,0.298-0.902,0.698-1.2,1.2c-0.517-0.204-0.849-0.592-0.72-1.44
		c-0.987,0.133-1.346,0.895-1.2,2.16c-0.349,0.371-1.229,0.211-1.92,0.24c-0.333-0.388-0.203-1.237-0.72-1.44
		c-0.719,0.158,0.229,0.513,0,0.96c-1.167,0.047-0.691-1.549-1.44-1.92c-0.551,0.443,0.358,0.942,0.24,2.16
		c-1.423,0.223-0.388-2.013-1.44-2.16c1.113-1.068-0.961-2.694-0.239-4.08c0.856,0.183,0.967,1.112,1.199,1.92
		C106.83,99.26,106.482,98.847,106.676,97.726z"/>
</g>
</svg>
