<?xml version="1.0" encoding="UTF-8" standalone="no"?>
<!-- Created with Inkscape (http://www.inkscape.org/) -->

<svg
   xmlns:dc="http://purl.org/dc/elements/1.1/"
   xmlns:cc="http://creativecommons.org/ns#"
   xmlns:rdf="http://www.w3.org/1999/02/22-rdf-syntax-ns#"
   xmlns:svg="http://www.w3.org/2000/svg"
   xmlns="http://www.w3.org/2000/svg"
   xmlns:sodipodi="http://sodipodi.sourceforge.net/DTD/sodipodi-0.dtd"
   xmlns:inkscape="http://www.inkscape.org/namespaces/inkscape"
   width="220.89836"
   height="253.18233"
   id="svg2"
   version="1.1"
   inkscape:version="0.48.1 r9760"
   sodipodi:docname="Piggy.svg">
  <defs
     id="defs4" />
  <sodipodi:namedview
     id="base"
     pagecolor="#ffffff"
     bordercolor="#666666"
     borderopacity="1.0"
     inkscape:pageopacity="0.0"
     inkscape:pageshadow="2"
     inkscape:zoom="0.33163487"
     inkscape:cx="614.90439"
     inkscape:cy="-321.05124"
     inkscape:document-units="px"
     inkscape:current-layer="layer1"
     showgrid="false"
     showguides="true"
     inkscape:guide-bbox="true"
     fit-margin-top="0"
     fit-margin-left="0"
     fit-margin-right="0"
     fit-margin-bottom="0"
     inkscape:window-width="1920"
     inkscape:window-height="1022"
     inkscape:window-x="0"
     inkscape:window-y="27"
     inkscape:window-maximized="1" />
  <metadata
     id="metadata7">
    <rdf:RDF>
      <cc:Work
         rdf:about="">
        <dc:format>image/svg+xml</dc:format>
        <dc:type
           rdf:resource="http://purl.org/dc/dcmitype/StillImage" />
        <dc:title />
      </cc:Work>
    </rdf:RDF>
  </metadata>
  <g
     inkscape:label="Capa 1"
     inkscape:groupmode="layer"
     id="layer1"
     transform="translate(242.85715,389.15898)">
    <path
       style="fill:#ff8080;fill-opacity:1;stroke:none"
       d="m -47.041391,-264.06665 c 0,0 -7.429954,-35.45308 2.526851,-48.01013 8.44636,-10.65215 8.491198,3.86255 14.37922,-8.39063 2.862355,-5.95666 5.365089,-6.23212 6.445179,-5.47453 3.380825,2.37137 1.065675,2.2639 -0.670724,10.7235 -3.192003,15.5512 -4.144329,0.0782 -13.742815,12.72329 -11.781868,15.52147 -3.884009,72.54096 -7.042572,54.85302 -3.158559,-17.68794 -1.895139,-16.42452 -1.895139,-16.42452 z"
       id="path3041"
       inkscape:connector-curvature="0"
       sodipodi:nodetypes="cssssssc" />
    <path
       style="fill:#ffd5d5;fill-opacity:1;stroke:none"
       d="m -52.315279,-210.61472 c 0,0 4.861084,27.64609 -0.281828,31.00882 -6.271333,4.10056 -20.205351,-10.90019 -20.205351,-10.90019 z"
       id="path3037"
       inkscape:connector-curvature="0"
       sodipodi:nodetypes="cscc" />
    <path
       sodipodi:nodetypes="ccc"
       inkscape:connector-curvature="0"
       id="path3039"
       d="m -76.900215,-194.76207 c 23.140391,25.02887 33.461931,24.72459 25.071902,-13.24455 2.333592,25.06483 -1.75866,37.54294 -25.071902,13.24455 z"
       style="fill:#ff8080;fill-opacity:1;stroke:none" />
    <path
       sodipodi:nodetypes="cscc"
       inkscape:connector-curvature="0"
       id="path3035"
       d="m -99.379856,-178.31086 c 0,0 -2.784894,37.24703 -10.518984,39.89959 -9.43105,3.23459 -22.48886,-20.67524 -22.48886,-20.67524 z"
       style="fill:#ffd5d5;fill-opacity:1;stroke:none" />
    <path
       style="fill:#ffd5d5;fill-opacity:1;stroke:none"
       d="m -207.47149,-185.92806 c 0,0 2.7849,37.24703 10.51899,39.8996 9.43105,3.23458 22.48886,-20.67525 22.48886,-20.67525 z"
       id="path3033"
       inkscape:connector-curvature="0"
       sodipodi:nodetypes="cscc" />
    <path
       sodipodi:nodetypes="cccccc"
       inkscape:connector-curvature="0"
       id="path3023"
       d="m -42.439763,-343.59679 -28.694164,-21.4711 2.947082,34.63301 -45.998905,-25.50261 42.859576,-33.22149 z"
       style="fill:#ff8080;fill-opacity:1;stroke:none" />
    <path
       sodipodi:nodetypes="csssssssc"
       inkscape:connector-curvature="0"
       id="path3043"
       d="m -47.041391,-264.06665 c 0,0 -6.341783,-32.55129 3.615023,-45.10834 8.446359,-10.65215 8.593475,2.97559 14.550721,-9.83139 2.787289,-5.99216 3.110294,-6.23418 4.487051,-5.58992 1.703589,0.7972 -0.718917,3.38852 -1.506157,8.19174 -1.340872,8.18109 -3.669628,6.74504 -7.456137,7.15071 -1.572539,0.16848 -3.749864,0.14639 -6.566407,3.85691 -11.781866,15.52147 -2.070392,75.44275 -5.228955,57.75481 -3.158559,-17.68794 -1.895139,-16.42452 -1.895139,-16.42452 z"
       style="fill:#ffd5d5;fill-opacity:1;stroke:none" />
    <path
       sodipodi:type="arc"
       style="fill:#ff8080;fill-opacity:1;stroke:none"
       id="path2989"
       sodipodi:cx="242.85715"
       sodipodi:cy="226.6479"
       sodipodi:rx="485.71429"
       sodipodi:ry="485.71429"
       d="m 728.57144,226.6479 c 0,268.2526 -217.4617,485.7143 -485.71429,485.7143 -268.2526,0 -485.7143,-217.4617 -485.7143,-485.7143 0,-268.252594 217.4617,-485.71429 485.7143,-485.71429 268.25259,0 485.71429,217.461696 485.71429,485.71429 z"
       transform="matrix(0.20992907,0,0,0.20992907,-191.87437,-307.4632)" />
    <path
       sodipodi:nodetypes="ccccc"
       inkscape:connector-curvature="0"
       id="path3025"
       d="m -83.830635,-375.80447 10.350307,7.76984 1.34227,33.53279 c -12.449249,-10.67158 -24.898498,-16.95556 -37.347752,-20.88942 z"
       style="fill:#ffd5d5;fill-opacity:1;stroke:none" />
    <path
       d="m 728.57144,226.6479 c 0,268.2526 -217.4617,485.7143 -485.71429,485.7143 -268.2526,0 -485.7143,-217.4617 -485.7143,-485.7143 0,-268.252594 217.4617,-485.71429 485.7143,-485.71429 268.25259,0 485.71429,217.461696 485.71429,485.71429 z"
       sodipodi:ry="485.71429"
       sodipodi:rx="485.71429"
       sodipodi:cy="226.6479"
       sodipodi:cx="242.85715"
       id="path2993"
       style="fill:#ffd5d5;fill-opacity:1;stroke:none"
       sodipodi:type="arc"
       transform="matrix(0.19819774,0,0,0.19819774,-189.86505,-306.06389)" />
    <path
       style="fill:#ff8080;fill-opacity:1;stroke:none"
       d="m -240.56305,-343.59679 28.69417,-24.01017 -2.94709,37.17208 45.99891,-25.50261 -42.85958,-33.22149 z"
       id="path3015"
       inkscape:connector-curvature="0"
       sodipodi:nodetypes="cccccc" />
    <path
       transform="matrix(0.20992907,0,0,0.20992907,-23.493012,-328.35262)"
       d="m -530.70412,155.29128 c 0,47.46218 -31.05056,85.93788 -69.35338,85.93788 -38.30281,0 -69.35337,-38.4757 -69.35337,-85.93788 0,-47.46219 31.05056,-85.937894 69.35337,-85.937894 38.30282,0 69.35338,38.475704 69.35338,85.937894 z"
       sodipodi:ry="85.937889"
       sodipodi:rx="69.353378"
       sodipodi:cy="155.29128"
       sodipodi:cx="-600.0575"
       id="path3005"
       style="fill:#000000;fill-opacity:1;stroke:none"
       sodipodi:type="arc" />
    <path
       sodipodi:type="arc"
       style="fill:#000000;fill-opacity:1;stroke:none"
       id="path2999"
       sodipodi:cx="-600.0575"
       sodipodi:cy="155.29128"
       sodipodi:rx="69.353378"
       sodipodi:ry="85.937889"
       d="m -530.70412,155.29128 c 0,47.46218 -31.05056,85.93788 -69.35338,85.93788 -38.30281,0 -69.35337,-38.4757 -69.35337,-85.93788 0,-47.46219 31.05056,-85.937894 69.35337,-85.937894 38.30282,0 69.35338,38.475704 69.35338,85.937894 z"
       transform="matrix(0.20992907,0,0,0.20992907,-79.198124,-330.88467)" />
    <path
       style="fill:#ff5555;fill-opacity:1;stroke:none"
       d="m -191.87437,-213.14432 33.54967,0.63302 c 0,0 -16.66727,19.30318 -25.32051,18.99038 -8.39768,-0.30357 -8.22916,-19.6234 -8.22916,-19.6234 z"
       id="path3013"
       inkscape:connector-curvature="0"
       sodipodi:nodetypes="ccsc" />
    <path
       d="m 728.57144,226.6479 c 0,268.2526 -217.4617,485.7143 -485.71429,485.7143 -268.2526,0 -485.7143,-217.4617 -485.7143,-485.7143 0,-268.252594 217.4617,-485.71429 485.7143,-485.71429 268.25259,0 485.71429,217.461696 485.71429,485.71429 z"
       sodipodi:ry="485.71429"
       sodipodi:rx="485.71429"
       sodipodi:cy="226.6479"
       sodipodi:cx="242.85715"
       id="path2995"
       style="fill:#ff8080;fill-opacity:1;stroke:none"
       sodipodi:type="arc"
       transform="matrix(0.09133229,0,0,0.09393881,-202.31908,-271.67906)" />
    <path
       sodipodi:type="arc"
       style="fill:#ffffff;fill-opacity:1;stroke:none"
       id="path3007"
       sodipodi:cx="-600.0575"
       sodipodi:cy="155.29128"
       sodipodi:rx="69.353378"
       sodipodi:ry="85.937889"
       d="m -530.70412,155.29128 c 0,47.46218 -31.05056,85.93788 -69.35338,85.93788 -38.30281,0 -69.35337,-38.4757 -69.35337,-85.93788 0,-47.46219 31.05056,-85.937894 69.35337,-85.937894 38.30282,0 69.35338,38.475704 69.35338,85.937894 z"
       transform="matrix(0.08839119,0,0,0.08839119,-101.68027,-315.07906)" />
    <path
       transform="matrix(0.07971212,0,0,0.08608277,-199.86237,-270.46214)"
       sodipodi:type="arc"
       style="fill:#ffd5d5;fill-opacity:1;stroke:none"
       id="path2997"
       sodipodi:cx="242.85715"
       sodipodi:cy="226.6479"
       sodipodi:rx="485.71429"
       sodipodi:ry="485.71429"
       d="m 728.57144,226.6479 c 0,268.2526 -217.4617,485.7143 -485.71429,485.7143 -268.2526,0 -485.7143,-217.4617 -485.7143,-485.7143 0,-268.252594 217.4617,-485.71429 485.7143,-485.71429 268.25259,0 485.71429,217.461696 485.71429,485.71429 z" />
    <path
       transform="matrix(0.08839119,0,0,0.08839119,-157.38539,-317.61111)"
       d="m -530.70412,155.29128 c 0,47.46218 -31.05056,85.93788 -69.35338,85.93788 -38.30281,0 -69.35337,-38.4757 -69.35337,-85.93788 0,-47.46219 31.05056,-85.937894 69.35337,-85.937894 38.30282,0 69.35338,38.475704 69.35338,85.937894 z"
       sodipodi:ry="85.937889"
       sodipodi:rx="69.353378"
       sodipodi:cy="155.29128"
       sodipodi:cx="-600.0575"
       id="path3003"
       style="fill:#ffffff;fill-opacity:1;stroke:none"
       sodipodi:type="arc" />
    <path
       sodipodi:type="arc"
       style="fill:#ff5555;fill-opacity:1;stroke:none"
       id="path3009"
       sodipodi:cx="-360.33606"
       sodipodi:cy="221.62929"
       sodipodi:rx="43.722786"
       sodipodi:ry="73.876427"
       d="m -316.61327,221.62929 c 0,40.80082 -19.57536,73.87642 -43.72279,73.87642 -24.14743,0 -43.72279,-33.0756 -43.72279,-73.87642 0,-40.80083 19.57536,-73.87643 43.72279,-73.87643 24.14743,0 43.72279,33.0756 43.72279,73.87643 z"
       transform="matrix(0.1303008,0,0,0.22278187,-149.35339,-302.3991)" />
    <path
       transform="matrix(0.1303008,0,0,0.22278187,-127.10091,-302.3991)"
       d="m -316.61327,221.62929 c 0,40.80082 -19.57536,73.87642 -43.72279,73.87642 -24.14743,0 -43.72279,-33.0756 -43.72279,-73.87642 0,-40.80083 19.57536,-73.87643 43.72279,-73.87643 24.14743,0 43.72279,33.0756 43.72279,73.87643 z"
       sodipodi:ry="73.876427"
       sodipodi:rx="43.722786"
       sodipodi:cy="221.62929"
       sodipodi:cx="-360.33606"
       id="path3011"
       style="fill:#ff5555;fill-opacity:1;stroke:none"
       sodipodi:type="arc" />
    <path
       style="fill:#ffd5d5;fill-opacity:1;stroke:none"
       d="m -208.96571,-384.50984 -1.89904,50.008 c 12.44925,-10.67158 24.89849,-16.95556 37.34774,-20.88942 z"
       id="path3019"
       inkscape:connector-curvature="0"
       sodipodi:nodetypes="cccc" />
    <path
       style="fill:#ffd5d5;fill-opacity:1;stroke:none"
       d="m -211.67562,-385.8683 -20.07855,33.00909 19.62339,-17.72435 z"
       id="path3021"
       inkscape:connector-curvature="0"
       sodipodi:nodetypes="cccc" />
    <path
       sodipodi:nodetypes="cccc"
       inkscape:connector-curvature="0"
       id="path3027"
       d="m -71.327192,-385.50558 20.07855,32.64637 -30.505099,-25.34155 z"
       style="fill:#ffd5d5;fill-opacity:1;stroke:none" />
    <path
       style="fill:#ff8080;fill-opacity:1;stroke:none"
       d="m -136.27871,-165.91745 c 21.64697,39.85814 35.05825,42.84607 36.672727,-8.87027 -5.199207,33.09022 -14.563597,47.84294 -36.672727,8.87027 z"
       id="path3029"
       inkscape:connector-curvature="0"
       sodipodi:nodetypes="ccc" />
    <path
       sodipodi:nodetypes="ccc"
       inkscape:connector-curvature="0"
       id="path3031"
       d="m -170.14215,-174.31462 c -21.64697,39.85815 -35.05825,42.84607 -36.67272,-8.87026 5.19921,33.09022 14.56359,47.84293 36.67272,8.87026 z"
       style="fill:#ff8080;fill-opacity:1;stroke:none" />
  </g>
</svg>
