<?xml version="1.0" encoding="iso-8859-1"?>
<!-- Generator: Adobe Illustrator 13.0.2, SVG Export Plug-In . SVG Version: 6.00 Build 14948)  -->
<!DOCTYPE svg PUBLIC "-//W3C//DTD SVG 1.1//EN" "http://www.w3.org/Graphics/SVG/1.1/DTD/svg11.dtd">
<svg version="1.1" id="ox_and_sheep_xA0_Image_1_" xmlns="http://www.w3.org/2000/svg" xmlns:xlink="http://www.w3.org/1999/xlink"
	 x="0px" y="0px" width="346.435px" height="349.962px" viewBox="0 0 346.435 349.962"
	 style="enable-background:new 0 0 346.435 349.962;" xml:space="preserve">
<g>
	<path style="fill-rule:evenodd;clip-rule:evenodd;" d="M59.367,13.925c3.542-0.314,4.304,2.199,7.419,2.321
		c-0.479,0.672-0.752,1.555-0.57,2.9C62.104,19.264,59.154,18.201,59.367,13.925z M61.649,16.246
		C64.956,19.575,66.833,17.369,61.649,16.246L61.649,16.246z"/>
	<path style="fill-rule:evenodd;clip-rule:evenodd;" d="M51.947,22.045c0.518,2.146,4.354,3.182,6.278,6.381
		c-1.806,0.796-1.907,0.126-3.995,0c-0.996-1.183,0.425-1.137-0.571-2.32c-0.919-0.249-1.915,2.163-0.57,2.32
		c-0.419,0.542-1.038,0.879-1.712,1.16c-1.834,0.509-0.783-1.913-2.283-1.74c-1.289,0.624-1.663,2.177-2.854,2.9
		c1.515,1.669,3.445-1.49,5.137,0c-2.321,0.542-3.369,2.377-6.278,2.32c-0.657-0.686-0.646-2.05-0.57-3.48
		c1.528-0.381,2.17-1.662,3.424-2.321c-1.131-2.601-0.646-6.752,1.142-8.121c2.116,1.61,3.341-1.514,5.136,0
		C53.786,20.092,52.992,23.625,51.947,22.045z"/>
	<path style="fill-rule:evenodd;clip-rule:evenodd;" d="M63.932,20.305c5.897,3.94,1.164,10.531-1.712,16.242
		c-1.915,3.802-4.223,7.375-6.277,8.701c-2.262-0.993,3.353-5.828,4.565-7.542C60.838,31.403,67.809,27.198,63.932,20.305z"/>
	<path style="fill-rule:evenodd;clip-rule:evenodd;" d="M73.634,22.045c4.193,0.225,6.825,4.726,4.566,8.122
		C76.999,27.135,75.374,24.532,73.634,22.045z"/>
	<path style="fill-rule:evenodd;clip-rule:evenodd;" d="M115.867,31.907c-2.049-1.592-5.527-1.731-7.419-3.48
		c-5.574,1.541-6.844,10.623-13.697,11.021c-3.761,0.219-7.855-2.255-10.273-5.8c3.362,0.682,5.28,4.116,8.561,4.06
		c2.74-0.046,3.771-2.759,6.848-2.9c1.161-1.527,1.961-3.42,2.853-5.22C105.949,26.25,114.624,26.892,115.867,31.907z"/>
	<path style="fill-rule:evenodd;clip-rule:evenodd;" d="M97.604,33.067c1.016,0.426,0.083,1.055,0,1.74
		c-6.226,1.624-13.085-0.96-14.838-5.801C86.818,30.726,92.447,38.017,97.604,33.067z"/>
	<path style="fill-rule:evenodd;clip-rule:evenodd;" d="M51.947,31.327c0.086-1.443,1.933-0.169,2.283,0
		C54.145,32.771,52.297,31.496,51.947,31.327z"/>
	<path style="fill-rule:evenodd;clip-rule:evenodd;" d="M94.751,33.067c0.704-0.831,1.962-1.099,3.424-1.16
		C97.424,33.435,96.302,33.686,94.751,33.067z"/>
	<path style="fill-rule:evenodd;clip-rule:evenodd;" d="M53.089,33.067c0.489,2.193-2.555,2.053-3.424,1.16
		C49.729,32.745,51.576,33.076,53.089,33.067z"/>
	<path style="fill-rule:evenodd;clip-rule:evenodd;" d="M23.412,42.349c0.766,0.381,1.063,1.24,1.142,2.319c-0.57,0-1.142,0-1.712,0
		C22.6,43.456,23.232,43.133,23.412,42.349z"/>
	<path style="fill-rule:evenodd;clip-rule:evenodd;" d="M21.699,43.508c0.087,1.69-2.313,1.763-2.853,1.16
		C19.33,43.807,20.684,43.829,21.699,43.508z"/>
	<path style="fill-rule:evenodd;clip-rule:evenodd;" d="M53.089,45.829c-0.517,2.375-3.194,2.553-3.995,4.64
		c0.914,2.577-1.649,6.811,0.57,6.96c-1.705,2.522-2.858-2.804-2.854-4.061c0.014-3.672,3.436-6.422,4.566-8.121
		C52.299,45.085,52.359,45.797,53.089,45.829z"/>
	<path style="fill-rule:evenodd;clip-rule:evenodd;" d="M13.139,48.729c0.419-1.032,1.038-0.084,1.712,0
		c0.791,5.445-3.362,5.864-6.278,7.541c-0.742-1.76-3.607-1.36-2.853-4.641c0.508-0.256,1.021-0.508,1.141-1.16
		c2.083-0.377,3.04,0.391,3.996,1.16C12.235,51.631,14.505,49.598,13.139,48.729z"/>
	<path style="fill-rule:evenodd;clip-rule:evenodd;" d="M44.528,52.79c2.733,2.175-2.128,6.22-2.283,9.28
		c-0.425,1.786,1.566,1.115,1.142,2.901c-6.015-2.873,1.297-7.625-1.142-11.022C43.257,53.817,45.103,54.534,44.528,52.79z"/>
	<path style="fill-rule:evenodd;clip-rule:evenodd;" d="M104.453,62.65c1.9,0.969,2.969,2.783,2.853,5.801
		C106.228,67.671,105.007,65.476,104.453,62.65z"/>
	<path style="fill-rule:evenodd;clip-rule:evenodd;" d="M105.024,70.772c0.761,0,1.521,0,2.282,0
		c-1.494,4.148,0.401,3.669-0.57,8.12C105.027,76.191,105.347,73.994,105.024,70.772z"/>
	<path style="fill-rule:evenodd;clip-rule:evenodd;" d="M38.821,74.252c0.67,0.165,2.372,2.555,2.283,0
		c2.981,2.119-1.027,1.31-1.142,2.9C37.669,77.235,38.453,75.665,38.821,74.252z"/>
	<path style="fill-rule:evenodd;clip-rule:evenodd;" d="M331.025,201.287c-0.921,0.164-0.982-0.548-1.712-0.579
		c0.108-0.471,0.572-0.579,0.571-1.161c0.38,0,0.761,0,1.141,0C331.025,200.127,331.025,200.708,331.025,201.287z"/>
	<path style="fill-rule:evenodd;clip-rule:evenodd;" d="M331.025,201.287c0.381,0,0.761,0,1.143,0
		c0.266,1.238-0.815,1.105-1.713,1.161C330.562,201.978,331.028,201.869,331.025,201.287z"/>
	<path style="fill-rule:evenodd;clip-rule:evenodd;" d="M232.292,212.89c0.841-2.032,3.962,3.604,4.566,0
		c1.558-0.423,1.149,1.151,2.282,1.159C237.782,217.616,233.473,214.638,232.292,212.89z"/>
	<path style="fill-rule:evenodd;clip-rule:evenodd;" d="M222.591,218.689c0.701,0.253,1.172,0.743,1.141,1.74
		C223.03,220.177,222.56,219.688,222.591,218.689z"/>
	<path style="fill-rule:evenodd;clip-rule:evenodd;" d="M207.753,226.23c0.846,0.492,1.226,1.46,1.141,2.899
		C208.047,228.638,207.666,227.671,207.753,226.23z"/>
	<path style="fill-rule:evenodd;clip-rule:evenodd;" d="M199.191,227.971c1.15,0.765,1.931,1.904,2.282,3.48
		C199.705,231.315,199.693,229.395,199.191,227.971z"/>
	<path style="fill-rule:evenodd;clip-rule:evenodd;" d="M216.313,228.551c1.09,0.244,2.456,0.21,2.281,1.74
		C217.505,230.047,216.139,230.081,216.313,228.551z"/>
	<path style="fill-rule:evenodd;clip-rule:evenodd;" d="M170.085,235.512c-1.375-0.237-1.24,1.059-2.854,0.579
		c-0.267-1.237,0.815-1.104,1.712-1.159c-2.936-0.884-6.035-1.6-6.278-5.221c2.207,0.077,2.251,2.353,3.996,2.899
		c1.298-0.42,0.17-3.307,2.282-2.899C168.432,232.552,170.827,232.436,170.085,235.512z"/>
	<path style="fill-rule:evenodd;clip-rule:evenodd;" d="M209.465,230.291c0.835,0.505,1.808,0.868,1.712,2.319
		C210.341,232.106,209.368,231.742,209.465,230.291z"/>
	<path style="fill-rule:evenodd;clip-rule:evenodd;" d="M253.979,245.372c0.951,0,1.902,0,2.854,0
		c0.587,1.949-1.775,0.904-2.854,1.161C253.979,246.146,253.979,245.76,253.979,245.372z"/>
	<path style="fill-rule:evenodd;clip-rule:evenodd;" d="M256.262,247.112c0.381,0,0.762,0,1.143,0c0,0.388,0,0.774,0,1.161
		c-0.381,0-0.762,0-1.143,0C256.262,247.887,256.262,247.5,256.262,247.112z"/>
	<path style="fill-rule:evenodd;clip-rule:evenodd;" d="M263.11,253.494c0.232-1.444,2.214-0.035,1.714,1.16
		C263.558,254.974,264.011,253.547,263.11,253.494z"/>
	<path d="M343.581,187.365c-0.454-1.083-0.953-2.123-1.141-3.48c3.586-7.523,2.922-11.635,3.994-23.203
		c-1.349-2.495-3.386-4.292-4.565-6.96c2.125-6.879-1.079-12.761-1.712-16.822c-0.233-1.498,0.359-2.972,0-4.061
		c-1.012-3.062-3.636-5.171-4.565-8.121c-0.346-1.097,0.19-2.477,0-3.48c-0.635-3.334-3.172-5.361-3.424-8.701
		c-2.058-0.23-3.638-0.946-3.996-2.901c0.982-0.229,1.463,0.862,1.713,0c-2.613-0.56-3.631-4.501-5.708-2.319
		c-1.354-3.846-5.567-4.783-6.277-9.281c-3.23-0.583-4.635-3.023-8.561-2.9c-2.677-4.193-7.472-7.833-13.127-9.281
		c-2.088-0.535-4.685,1.128-6.277-1.16c-5.788,3.404-11.04-2.704-17.121-1.74c-1.43,0.226-3.045,1.69-4.565,1.74
		c-2.295,0.074-4.431-1.425-6.849-1.74c-3.79-0.495-9.123-0.535-13.127,0c-5.09,0.678-8.392,4.06-13.126,3.48
		c-1.171-0.143-2.238-1.136-3.424-1.161c-3.061-0.062-6.345,1.31-9.703,1.74c-5.737,0.735-10.485,0.079-14.838,2.321
		c0.038-1.064-0.307-0.909-1.142-1.16c-4.862-1.462-13.36,0.105-17.122-2.901c-4.205,1.14-8.544,2.144-13.126,2.901
		c-4.271-3.587-15.826,0.23-19.404-4.061c-12.635,1.887-17.103-7.644-30.818-6.38c-3.648-3.253-7.417-6.384-11.985-8.701
		c2.199-5.814-2.294-7.506-3.995-11.022c3.895-3.802-0.387-8.104-1.142-12.181c3.627-0.762,5.195-3.614,6.278-6.961
		c2.746-1.917,5.78-5.082,4.565-9.281c-4.479-3.762-10.918-7.305-19.404-5.221c-0.146-6.811-4.398-9.451-8.561-12.182
		c1.224,2.976,3.295,9.753,0,12.182c-4.097,0.542-6.961-4.547-9.702-1.74c3.772,3.127,10.993,2.749,16.551,4.061
		c5.384-3.532,13.47-0.916,18.263,1.16c0.111,1.82,2.257,1.572,1.712,4.061c-4.736,3.516-5.337,10.654-10.273,12.761
		c-4.821,2.058-13.375,0.876-16.551-1.16c-2.945-1.887-4.266-6.982-8.561-6.38c3.671,3.851,7.573,8.907,13.126,10.441
		c0.777,0.214,2.162-0.394,2.854,0c1.708,0.973,2.391,3.174,3.794,4.451c-0.69-0.808,2.191-0.4,1.913,0.77
		c0.137-1.02,0.981-1.322,2.283-1.161c0.007,1.153,1.557,0.738,1.142,2.32c-0.964,4.434-5.933,4.798-6.278,9.862
		c2.03-0.645,1.879-3.505,4.566-3.482c2.669,3.005,2.861,4.949,3.424,9.862c0.35,0.804,2.196,0.086,2.282,1.16
		c0.213,3.483,3.044,3.32,3.995,5.801c0.986,2.572,0.601,4.773,0,8.701c1.799,0.794,1.11-3.809,2.283-1.74
		c0.148,3.245-2.855,3.286-2.854,6.38c5.473-1.652,3.904-13.064,2.283-15.662c3.068,2.04,4.896,1.859,5.708,5.801
		c-1.411,0.218-1.689-3.624-2.854-1.74c1.066,3.1,0.553,9.824-1.142,13.341c3.103-1.232,3.809-6.217,2.854-9.861
		c1.35,0.402,5.105,1.341,6.278,0c-0.593-1.331-4.075,0.274-4.566-1.16c5.688-4.815,13.197,2.022,18.263,3.48
		c0.691,1.424,2.659,1.55,2.854,3.48c2.28-0.525,3.216-1.976,5.137-2.321c4.292-0.772,7.707,1.78,11.984,2.321
		c1.155,0.146,2.562-0.529,3.995-0.581c7.332-0.261,15.423,3.152,19.975-0.581c1.078,0.064,0.396,1.919,1.712,1.74
		c0.497-0.849,0.854-1.839,2.284-1.74c1.428,0.482,2.24,1.589,3.993,1.74c15.333,3.429,29.63-3.206,45.087-0.579
		c7.537-4.79,20.444-3.459,30.248-1.74c4.979-4.145,11.83,0.696,17.692,1.16c2.294,0.181,4.776-0.855,6.849-0.581
		c3.743,0.498,5.796,3.256,9.131,3.48c2.664,6.287,10.759,5.767,14.268,11.021c0.504,0.754,0.443,2.777,1.142,4.061
		c0.661,1.215,1.797,1.801,2.283,2.9c2.423,5.487,3.591,11.433,4.566,17.982c2.991,1.407,3.959,4.869,3.994,9.282
		c-2.021-0.194-1.403-1.597-3.425-0.581c1.586,3.422,4.337,8.732,3.996,12.181c-2.049-2.172-2.267-6.204-5.137-7.541
		c1.101,1.639-2.047,5.569,0.571,7.541c1.588,0.262-0.448-3.161,1.141-2.899c0.666,0.869,1.649,1.418,1.712,2.899
		c-3.277,2.514-0.166,7.135-2.853,11.021c1.504,0.623,3.406,3.852,1.712,5.8c0.887-1.428-1.939-1.704-1.712-0.579
		c1.464,1.906,0.096,5.876-1.143,6.961c-2.32-0.542-0.423-5.371-3.994-4.642c-1.028,2.192,4.736,5.103,2.282,8.701
		c0.759-1.984-1.271-4.048-2.282-2.319c1.267,1.14,3.094,6.208,0.57,7.54c-1.638-0.462-0.358-3.889-2.854-3.48
		c0.416,2.864,1.635,4.912,1.142,8.701c-0.771-0.182-1.09-0.825-2.283-0.579c1.504,2.959,3.48,4.924,3.425,8.701
		c-0.03,2.012-2.919,8.641-3.425,9.86c-0.29-1.444,0.019-3.499-1.713-3.48c-1.268,1.14,0.748,3.847,0,6.382
		c-1.716,0.979-4.031,4.385-2.281,6.961c0.525-1.999,1.833-6.23,3.424-5.221c-0.719,5.264-4.757,7.153-7.991,9.86
		c1.646,3.335-1.424,5.189,0,8.12c-3.003-0.345-3.285,2.075-3.993,4.062c1.301,0.797,2.145-1.495,2.281,0
		c-1.367,1.672-3.145,2.033-5.706,1.159c0.651,1.702,0.336,2.155-1.143,2.901c-1.64,0.12-2.897-0.146-3.424-1.161
		c1.079-0.256,3.439,0.79,2.854-1.159c-2.385,0.489-2.695-1.128-4.566-1.16c-1.405,0.686,1.169,2.19-0.57,2.9
		c-1.987,1.143-6.626,0.762-7.99-0.581c-0.366,2.113,2.719,0.718,2.854,2.321c-1.062,0.08-1.906,0.382-2.283,1.159
		c2.883,0.654,7.263,2.254,9.702,0c1.408,1.082,2.981,1.999,4.566,2.901c3.123,0.274,3.979-1.757,4.565-4.061
		c-3.719-1.629-5.268,3.981-8.561,0c4.109,2.125,6.155-4.074,9.701-2.321c-0.249,1.995,0.227,3.252,0.571,4.642
		c-2.061,0.031-1.183,3.053-2.283,4.06c1.585,5.351,2.543,11.338,8.561,12.183c1.733,3.298,4.93,3.558,5.708,6.961
		c1.418,6.203-4.741,14.375-3.425,22.042c-1.027-3.046,1.192-5.822-1.141-7.541c-0.462,15.744,2.987,27.515,5.707,40.025
		c-1.079,0.064-0.396,1.918-1.713,1.74c-0.91-0.43,0.13-2.839-1.712-2.32c-0.375,2.121,1.234,2.225,1.142,4.061
		c-0.845-0.302-1.438-0.858-2.283-1.161c2.042,4.471,1.804,7.767,5.137,11.022c-1.311,1.274-0.927,1.927,0,3.48
		c-3.197,4.487-9.716,8.682-15.409,8.7c2.177-3.395,3.057-8.107,5.137-11.601c-5.064-0.507-1.965,7.284-6.277,7.54
		c-0.855-7.296,6.445-10.441,6.848-17.402c0.074-1.275-0.963-2.674-1.142-4.06c-0.13-1.006,0.889-3.85,0.571-4.641
		c-0.259-0.646-1.018,0.207-1.142-1.16c-0.788-8.656-1.465-18.885-3.995-24.943c-2.281-5.464-5.097-10.479-6.849-15.662
		c-5.109-3.314-7.825-9.061-10.844-14.502c-2.273-1.942-5.599-2.572-8.561-4.64c-2.498-1.744-3.368-5.076-6.277-3.48
		c-1.45-2.909-4.437-4.505-6.277-6.961c-0.279-0.37,0.262-1.356,0-1.74c-0.354-0.515-1.574-1.452-2.283-2.32
		c-0.796-0.974-1.497-2.163-2.283-2.9c-4.034-3.779-13.347-5.827-17.692-10.441c-1.618-1.719-1.662-3.727-4.565-3.479v-2.321
		c-3.619,0.822-5.429,1.264-7.989-0.58c0.625,3.574,4.998,3.208,7.418,3.48c-6.248,3.548-9.095-4.216-12.555-3.48
		c1.972,2.055,4.967,3.071,6.277,5.801c-1.875,0.027-2.806,1.017-3.425,2.32c-2.137,0.588-3.669-2.405-4.564-1.16
		c1.844,1.253,3.968,2.881,0.569,3.479c4.793,3.857,9.812-0.874,13.697,0c0.828-1.091,0.84-3.014,2.283-3.479
		c1.071,1.025-0.68,1.693,0.571,2.9c-3.645,0.752-6.085,5.792-9.132,5.221c-0.115-1.929,3.046-2.057,1.712-3.48
		c-0.737,1.73-7.271,1.232-4.565,2.9c-3.772,0.343-5.672-4.272-8.561-2.9c0.854,0.874,3.254,0.174,2.854,2.319
		c-4.178,0.766-4.021-2.873-6.849-3.48c-1.372,1.896,4.825,2.522,2.854,5.221c3.959-0.417,5.688-1.756,8.561,0.581
		c-0.277,0.686-0.609,1.314-1.142,1.74c-0.597-1.904-1.81-0.346-2.853-2.321c-1.438,1.636-4.229,1.892-7.42,1.74
		c-2.104-0.969-3.802-5.396-5.708-4.64c0.311,2.081,3.821,3.09,2.284,5.221c1.424-0.409,2.345-0.571,3.424,0.58
		c-1.923,2.639-4.851-2.901-5.137,0c0.406,1.521,3.258,0.556,3.425,2.319c-2.749,2.199-4.102,0.057-6.849-0.579
		c-0.171,1.14,0.771,1.15,1.141,1.74c-1.003-0.333-3.353,0.701-3.424-0.58c2.091-0.196,2.56-2.04,3.995-2.9
		c-1.362-0.202-4.136-1.932-4.565-1.161c0.507,0.171,2.498,1.569,1.142,1.74c-4.358-1.177-8.707-2.365-11.985-4.64
		c-0.288,1.821,1.346,2.37-0.571,2.899c-1.036-1.852-3.242-2.521-4.564-4.06c-0.753-0.874,0.058-3.38-2.284-2.32
		c0.458,5.143,4.492,6.649,7.99,8.701c1.348-0.718,2.971-3.072,4.566-1.74c-3.083,4.81-11.844,0.653-14.269-2.321
		c-1.115,2.514,3.511,3.62,4.565,5.802c-4.425-0.718-12.075,1.476-14.267-1.16c4.476-0.514,8.785,1.06,11.984-0.58
		c-4.287,0.877-3.964-2.932-6.278-4.062c-1.791,1.093,1.38,3.016,0,3.48c-3.193-0.04-1.943-4.598-5.135-4.64
		c-1.646,3.36,1.892,2.665,1.14,4.061c-3.094-0.143-3.113-3.409-6.277-3.48c-0.064,2.001,2.349,1.48,2.283,3.48
		c-2.021-0.129-3.045,2.305-5.707,2.9c-3.869,0.865-9.175,0.096-11.985-1.16c3.212-1.119,7.448,2.193,8.561-0.58
		c-1.42-1.649-4.248-1.869-5.137-4.062c-1.397,0.771,0.628,2.159-0.57,2.321c-1.892-0.011-0.579-3.278-1.712-4.062
		c-3.221-0.953-6.487,3.586-7.99,0.581c1.016-0.419,5.032-0.982,5.707-3.48c-2.957,0.861-5.276,2.372-9.702,1.74
		c-0.791,0.355-0.086,2.232-1.142,2.32c-4.474-0.937-5.564-2.16-10.272-1.161c1.23-4.114-3.645-2.064-1.712-7.54
		c-1.935,0.161-1.279,2.954-2.854,3.48c-1.124,0.792-3.26,0.554-4.566,1.16c-1.172,0.549-0.484,2.989-2.283,2.899
		c0.222,2.288,0.406,1.774,1.142,4.062c-0.734,1.38-2.558,1.654-3.995,2.32c0.176-3.6-1.096,0.473-3.424-0.58
		c3.165-3.55,5.776-7.664,5.707-14.502c-1.807,1.587-4.494-1.167-5.136,1.16c0.35,0.804,2.196,0.087,2.282,1.16
		c-0.514,9.407-10.907,10.854-16.551,5.221c-1.126,4.263,2.931,6.649,3.996,10.441c-1.131-0.305-0.62-0.668-1.142,0.58
		c-1.346,3.225-1.445,11.5-2.854,15.662h-1.712c-0.213,2.876-1.578,4.583-2.853,6.38c1.007,5.381-0.89,10.452,2.853,13.343
		c0.49,7.651-3.372,10.88-6.849,14.501c0.102-5.415,2.612-9.507-0.57-13.922c-1.233,1.238,0.861,2.273,0.57,3.48
		c-0.111,0.463-1.064-0.084-1.141,1.161c-0.117,1.886,0.537,4.755,0,7.54c-0.661,3.428-6.011,13.648-2.284,16.242
		c-0.063,1.097-1.886,0.403-1.712,1.74c1.001,0.53,1.983,1.078,1.712,2.9c-1.144,6.765,0.071,15.926-2.282,21.462
		c-2.95,0.933-4.16,2.305-3.995,5.221c0.071,1.254,1.339,2.103,1.141,3.48c-1.066,7.431-9.466,9.79-17.692,9.281
		c3.284-2.85,6.291-5.98,7.99-10.441c-4.156,1.578-4.156,7.378-8.561,8.701c4.783-3.646,4.408-12.534,11.414-13.921
		c0.825-2.166-0.467-5.189,0-8.701c1.907-4.362,4.979-8.382,5.708-13.922c1.03-7.825-0.576-16.43-1.712-23.783
		c-0.416-2.688-0.958-6.18-0.571-9.28c0.501-4.017,3.461-7.921,3.996-12.182c1.242-9.916-2.403-20.365,1.712-28.424
		c3.302-2.058,6.227-4.498,6.849-9.281c-2.013,0.487-1.939,3.439-4.566,1.74c-1.188,4.196-7.22,5.746-10.843,2.899
		c2.197-1.258,6.257-3.679,4.565-6.961c-0.857,2.047-3.602,5.213-5.707,4.062c0.316-0.365,2.319-1.752,0.57-2.321
		c-2.144,2.6-6.003,2.288-9.131,0.581c3.595-2.73,0.321-10.361,1.142-13.341c-0.162,1.517,0.208,2.494,1.712,2.319
		c-0.201-2.481,0.496-6.591,1.712-9.28c-3.024-0.947-2.46,1.753-3.424,2.899c-1.501,0.172-0.45-2.251-2.283-1.74
		c-0.101,1.831-0.401,3.46-2.283,3.48c-0.462-2.209,1.673-1.78,1.712-3.48c-3.105,0.132-3.02,3.504-5.708,4.062
		c0.761-0.967-0.207-3.692,1.712-3.48c0.425-1.786-1.566-1.115-1.141-2.901c-7.144-2.986-10.309-10.019-11.414-19.143
		c2.434-2.258-0.451-6.074,0-8.7c0.208-1.336,2.498-0.555,2.282-2.321c-0.058-1.486-2.126-0.931-2.853-1.74
		c-1.133,0.783,0.18,4.051-1.712,4.062c-3.988-4.321-5.239-15.278-1.712-20.883c0.729,0.031,0.79,0.743,1.712,0.58
		c0.49-3.508,4.75-0.896,4.565-5.801c-2.736-0.654-2.009,2.212-3.424,2.9c-1.033-0.885,0.109-3.978-2.282-3.48
		c-0.34,1.201,0.706,3.811-0.571,4.061c-0.667-2.609-1.142-5.414-2.854-6.961c-0.752,1.798,1.691,3.218,0,4.061
		c-1.606-3.009-2.5-6.741-7.42-6.381c-3.228-7.354-7.651-13.491-7.419-24.363c-1.989-0.491-2.879-2.101-3.424-4.061
		c0.918-1.667,2.516-3.876,1.712-6.38c-1.731-5.4-2.542-9.266,1.712-13.341c0.667-4.352-1.522-5.8-1.142-9.862
		c0.474-1.451,1.563-2.277,1.712-4.06c-3.994-4.611-0.14-11.195,2.854-13.921c3.906-1.818,3.057,4.205,5.136,2.319
		c-1.028-1.601,0.778,0.686,1.712,0.581c-0.468-2.618-3.374-2.76-3.424-5.801c-4.178-1.626-5.512,0.668-7.99,1.161
		c-0.756,0.149-1.006-1.167-1.712-1.161c-1.526,0.012-0.771,2.597-2.283,1.161c0.265-1.816-0.496-2.59-2.283-2.321
		c-0.41,1.297-0.94,2.392,0.57,3.48c-2.33-0.302-3.282,2.552-5.707,2.9c-4.244,0.609-7.998-1.42-8.562-5.801
		c3.42,0.005,4.53,2.359,7.99,2.321c1.041-1.457,3.694-1.272,3.424-4.06C12.554,63.16,5.339,65.35,1.725,61.491
		c-0.049-4.304,2.67-5.794,1.712-11.021c12.659-11.496,33.27-14.911,36.526-35.964c-1.429-0.767-1.787,2.293-2.283,0.579
		c3.881-9.206,15.977-1.06,21.687-6.96c-1.417-0.754-2.369,1.702-2.854,0c0.848-0.685,2.55-0.502,2.283-2.32
		c-2.739,0.116-4.18,1.552-7.419,1.16c-0.819-1.764-0.583-3.957,1.142-4.641c2.296,0.756,1.401,1.146,3.424,0
		c1.679,0.807,1.941,3.054,4.565,2.901c-0.118-1.667,0.145-2.947,1.142-3.48c2.128-0.617,0.903,2.175,2.854,1.74
		c5.64-1.692,7.64,2.285,11.985,3.48c0.288-1.822-1.345-2.37,0.57-2.9c4.887-0.713,6.206,2.2,6.278,6.381
		c2.029,0.902,0.345-1.97,1.712-1.74c1.985,1.27,3.939,2.57,6.278,3.48c-1.1-4.103-6.959-3.368-7.419-8.121
		c-2.983-1.547-7.177-1.256-10.273,0c-2.257-2.025-6.041-3.632-9.131-1.74c-0.853-0.68-0.673-2.411-2.284-2.32
		c-2.094-0.003-2.187,2.03-3.424,2.9c-2.718-2.099-6.663-3.306-9.131-0.58c-0.77,2.745,1.193,5.71,0.57,6.381
		c-9.104-1.542-10.402,3.116-14.838,5.221c0.362,2.936-1.157,4.731-4.565,5.221c2.157,1.094,2.048,4.493,3.424,6.38
		c-1.004,0.141-1.301,0.998-1.142,2.321C24.337,36.521,12.005,41.583,2.295,49.31c-0.013,5.595-2.491,8.683-2.283,14.502
		c4.827,1.28,8.973,3.254,10.273,8.121c6.765,3.358,11.348-2.844,17.692-3.48c3.187,3.529-3.834,8.786,0,14.502
		c-1.64,4.476-1.229,6.535-0.571,11.601c-0.572,0.001-0.68-0.47-1.142-0.581c1.433,3.904-2.762,7.331-2.282,11.602
		c0.265,2.369,2.214,3.415,2.282,6.38c-0.255,2.448-2.449,2.925-1.712,6.38c1.021,1.09,2.039,2.183,2.854,3.48
		c0.482,3.844,1.083,10.81,3.995,13.923c1.254,6.073,2.875,11.772,9.131,12.761c2.507,2.42,2.008,6.355,3.996,8.121
		c-3.562,7.367-0.087,18.274,4.566,23.782c-1,14.551,5.882,21.092,12.555,27.844c-0.082,1.852-2.11,1.723-2.283,3.48
		c0.727,2.073,1.861,1.527,3.995,1.161c0.055,0.911-0.076,2.011,1.142,1.74c2.239-0.432,2.747-2.622,3.995-4.062
		c0.877,3.749,0.481,8.792,2.283,11.602c-0.817,1.876-2.293,3.085-2.854,5.22c1.058,1.827,4.863,3.298,7.419,1.74
		c0.992,1.507,3.897,1.066,3.424,4.062c2.324,0.732,4.669,1.443,6.278,2.899c-1.375,4.421-1.361,10.01-1.142,15.663
		c0.033,2.59-0.048,1.847,0,2.9c1.959,10.545-5.427,20.333-2.854,32.483c0.481,2.275,0.516,3.247,0.571,5.22
		c0.043,1.546,1.136,2.875,1.142,4.062c0.005,1.322-1.344,3.918-1.142,6.382c0.078,0.948,1.136,1.862,1.142,2.899
		c0.023,4.578-0.802,8.123-3.424,8.701c2.783,1.959-2.506,7.765-2.854,10.441c-0.146,1.116,0.384,1.847,0.57,2.899
		c0.796,4.481-2.349,2.379-5.136,5.801c-1.211,1.488-0.721,3.89-1.712,5.802c-1.343,2.589-4.92,4.948-5.707,7.54
		c2.25-0.739,1.482,1.588,2.282,2.32c5.521,2.156,9.747-0.891,14.241-1.73c2.637-2.062,6.224-3.617,6.662-7.254
		c-0.132-0.086-0.265-0.171-0.357-0.297c0.28-2.604-0.29-4.346-0.571-6.381c2.708-1.695,4.28-4.544,6.278-6.96
		c-0.449-8.881,0.141-18.755,1.141-23.782c0.295-1.484-0.276-3.163,0-4.062c1.357-4.398,5.945-7.639,3.996-12.182
		c4.745-2.632,6.596-10.972,3.424-16.822c4.533-7.171,7.603-17.659,9.131-26.104c0.786-0.024,1.253,0.273,1.712,0.581
		c0.61-2.167-1.417-1.653-1.141-3.48c1.92-0.05,5.789-2.548,7.419,0.579c1.671,0.152,1.753-1.311,3.424-1.159
		c-0.706,1.876,1.846,0.443,1.142,2.32c-1.671,0.521-1.753,0.521-3.424,0c0.67,2.297-0.699,4.517,1.141,6.38
		c0.348-1.387-0.717-4.208,0.571-4.64c1.814,2.235,1.082,6.696,3.424,6.961c-0.025,6.398-2.95,13.163,1.141,16.242
		c0.786,0.024,1.253-0.273,1.713-0.581c-0.424-3.27-2.848-6.527,0-9.281c0.487,2.666-0.313,6.101,1.141,6.382
		c2.523,0.144-1.061-5.59,1.142-6.961c0.397,2.512,1.891,6.952,0.57,9.28c-0.127-0.449-0.015-1.144-0.57-1.16
		c-0.996,3.781-3.641,15.904-1.142,15.662c-1.604,0.497-1.098,3.138-1.141,5.221c3.054,2.918,1.175,14.75,5.707,17.982
		c0.243,2.669,1.407,5.94-1.142,6.961c-1.528-0.381-2.17-1.661-3.425-2.32v8.121c5.745,9.332-7.795,15.625-15.409,15.082
		c2.911-4.196,5.774-8.438,7.99-13.342c-3.133,1.455-3.528,5.695-6.278,7.54c0.513-7.193,6.139-9.156,6.849-15.081
		c0.213-1.777-1.083-3.571-1.142-5.221c-0.121-3.463,1.988-6.878,1.712-10.441c-0.083-1.072-1.324-2.668-1.712-4.061
		c-0.749-2.688-0.958-5.879-1.712-8.12c-1.39-4.136-4.139-8.025-5.136-11.603c-1.758-6.309,1.356-11.639,2.283-17.402
		c-0.674-0.281-1.294-0.618-1.712-1.159c0.38-1.565-1.033-6.284-2.283-8.122c3.579,8.851-1.535,18.371,0.571,24.364
		c-1.172,0.161-1.139,1.548-1.712,2.319c3.991,3.493,7.224,11.323,8.561,17.402c1.821,8.284-0.994,17.872,0,24.942
		c-4.032,5.388-8.903,13.404-8.561,19.723c6.613,1.787,11.547-2.694,17.397-3.911c0.989-1.389,2.14-2.638,2.995-4.137
		c0.737-1.294,1.128-2.499,1.324-3.812c-0.007-0.021-0.022-0.035-0.027-0.06c-0.163-0.66-0.326-1.322-0.488-1.984
		c-0.027-0.005-0.058-0.012-0.085-0.017c0.014-0.116,0-0.205,0.004-0.311c-0.037-0.153-0.075-0.306-0.112-0.459
		c-0.04-0.16-0.014-0.297,0.037-0.418c-0.332-1.368-1.493-1.896-1.07-4.033c2.515,0.43,2.338-1.878,3.995-2.32
		c2.184-8.612-2.549-15.555-2.854-23.783c-0.306-8.265,1.604-16.681,1.142-24.942c-0.543-9.69-2.649-19.459,0-30.164
		c9.596-2.057,19.331,5.827,30.247,5.801c2.867-0.007,5.756-1.698,8.562-1.74c3.561-0.054,7.33,1.733,10.844,1.74
		c2.694,0.005,4.982,0.098,6.849,0c4.794-0.252,8.824-2.612,12.556-1.74c5.442,1.271,9.801,2.901,14.267,2.319
		c7.216-0.938,13.333-7.775,19.976-7.54c-1.077,1.162,0.7,2.696,2.282,2.9c0.34-1.202-0.706-3.811,0.571-4.062
		c4.011-0.403-0.587,7.945,3.424,7.542c-0.248-3.839-3.294-8.877,1.712-9.861c-0.848,2.978-0.765,9.966,2.283,12.182
		c-0.125-3.173-2.185-7.43-1.142-9.862c1.235,4.353,1.173,10.023,4.566,12.183c-0.053-1.772-1.627-3.885-2.283-6.381
		c-0.727-2.767-2.543-9.362,0.571-9.282c-1.24,7.355,2.492,12.937,3.424,17.402c1.49-0.225,3.131-0.297,3.994-1.16
		c-0.932,0.262-0.932-3.161,0-2.899c2.183,8.124,3.659,12.776,3.995,21.463c0.611-5.007,3.122-7.859,0.571-10.441
		c1.795-0.29,2.23,1.264,3.425,0v-2.32c0.174-1.812-1.649,1.474-1.712-0.581c4.125-2.638,1.682,5.878,4.564,6.382
		c2.246,0.929,0.199-2.506,1.713-2.32c1.568,6.596-3.486,11.028-5.137,16.242c-0.129-1.028,0.575-2.905-1.141-2.321
		c0.127,2.451-0.881,3.746-1.142,5.802c0.98,0.229,1.463-0.861,1.711,0c-0.312,0.842,0.668,2.997-0.569,2.899
		c-0.277-0.686-0.609-1.314-1.142-1.74c-0.073,11.969-4.047,23.758-3.424,39.445c-1.998,0.963-4.488,2.406-6.279,0
		c-1.461,0.642-1.12,3.114-1.141,5.221c0.745,1.176,3.021,0.796,3.424,2.319c-1.562,7.89-10.756,11.107-18.833,10.441
		c0.539-3.301,7.045-7.803,3.994-10.441c-1.104,1.222-1.886,5.788-3.424,4.642c1.33-4.062,3.844-6.921,6.848-9.281v-4.061
		c8.427-11.747,10.197-32.592,6.849-49.307c-0.619-3.096-2.096-5.275-2.853-6.961c-2.29-5.093-4.878-11.004-6.277-15.081
		c-0.533-1.55,0.278-4.904-2.283-5.221c1.097,6.547,0.794,9.684,5.136,13.341c0.075,1.431,0.087,2.795-0.571,3.48
		c0.672,0.091,1.621-0.1,1.713,0.581c4.398,11.407,5.751,26.587,3.424,42.345c-1.534-0.399-1.103,1.199-1.712,1.74
		c1.712,6.082-2.885,10.384-5.137,15.082c-0.375,0.783,0.294,2.076,0,2.9c-0.707,1.99-2.898,2.707-3.994,3.48
		c-1.467,6.244-5.713,9.663-6.849,16.241c9.272-0.625,16.449-3.378,24.089-5.662c1.715-1.843,3.132-3.947,3.772-6.455
		c0.471-1.849,0.236-3.932,0.93-5.714c-0.283-0.021-0.561-0.06-0.825-0.15c0.134-1.797,1.587-2.254,2.281-3.48
		c0.672-14.322,1.598-29.885,6.849-42.345c2.256-5.354,5.958-11.004,3.996-17.402c-2.934-2.246-5.354-8.086-4.565-12.183
		c4.058,4.384,8.726,8.146,13.126,12.183c2.304-2.236,3.781,3.327,6.848,1.74c0.733,1.86,3.621,5.429,1.713,6.381
		c4.042,0.348,5.653,5.473,7.419,7.541c0.558,0.652,0.066,1.498,0.57,2.319c1.259,2.049,3.526,3.976,4.566,6.382
		c0.641,1.482,0.497,3.57,1.141,4.64c0.347,0.575,1.335,0.248,1.713,1.16c1.224,2.961,1.182,6.301,2.853,8.7
		c-2.129,1.033,0.33,1.687,0,4.062c-0.05,0.914-1.455,0.454-1.141,1.74c1.188-0.722,2.156,4.964,0.571,5.221
		c3.314,3.983,3.021,12.438,2.853,19.142c-5.87,4.568-6.87,16.01-6.849,22.044c4.992-2.987,11.287-4.649,17.183-6.721
		c0.056-0.087,0.132-0.166,0.256-0.221c3.871-1.723,3.496-6.515,3.427-10.209c-0.711-2.262-1.631-2.552-3.173-4.894
		c5.856-5.168,2.568-15.541,1.142-21.463c-0.684-2.838-0.2-5.982-0.57-9.28c-0.892-7.949-1.849-16.581,0-24.362
		c0.771-0.183,1.09-0.826,2.282-0.581c-0.256-2.095-1.463-2.808-0.571-4.64c1.463-0.062,0.966-2.914,0-4.061
		c-0.096,0.676-0.901,0.629-1.711,0.58c-1.281-3.932-5.71-5.066-7.99-8.701c-3.074-4.901-2.938-11.36-3.996-17.403
		c0.446-0.127,0.665-0.484,0.571-1.159c2.133,0.62,1.627-1.441,3.425-1.16c1.26-3.126,3.9-8.52,1.141-12.181
		c4.396-0.174,3.942-5.276,6.278-7.542c0.926,0.872,4.212,0.872,5.137,0c2.438,3.533,7.893,3.782,11.414,1.74
		c3.016-1.749,2.734-7.396,6.278-6.961C345.307,199.687,342.461,193.315,343.581,187.365z M97.604,20.886
		c-1.196-0.525-0.203-3.274-1.712-3.48C96.666,16.101,98.187,18.895,97.604,20.886z M94.18,24.947
		c-0.604-1.446,0.561-4.156,0.571-5.801c0.882,0.843,1.198,2.263,1.141,4.061c0.202,0.812,1.005,0.05,1.142-0.581
		c1.078,0.064,0.396,1.917,1.712,1.74C98.2,26.167,94.022,23.86,94.18,24.947z M107.306,58.589
		c-1.348-0.161,0.655-1.548,0.571-2.319C109.627,56.84,107.222,57.817,107.306,58.589z M110.73,64.971
		c-0.668-0.093-0.481-1.057-0.57-1.74c0.97-0.214,1.077,0.452,1.142,1.16C110.816,64.284,110.763,64.617,110.73,64.971z
		 M117.009,74.252c-2.004,0.103-1.877-1.959-3.424-2.32C114.23,70.94,117.532,72.134,117.009,74.252z M290.506,236.091
		c1.577-0.714,3.055-1.534,5.136-1.74C294.505,235.517,293.029,236.337,290.506,236.091z M232.292,225.07h-1.141
		c-0.16-0.938,0.538-0.999,0.571-1.74h1.141C233.023,224.267,232.324,224.329,232.292,225.07z M240.283,221.59
		c-2.463,0.011-2.104,2.89-4.566,2.9c0.559-2.14,2.699-2.67,3.424-4.641c0.463,0.11,0.569,0.582,1.143,0.58V221.59z M91.897,229.13
		c-0.22,2.098-1.841,2.771-2.854,4.062C88.409,232.507,90.084,229.25,91.897,229.13z M34.826,67.292
		c-0.177,0.787-1.429,0.48-2.283,0.579C32.72,67.084,33.972,67.39,34.826,67.292z M93.039,295.838
		c-1.851-1.918,1.252-3.725,1.141-5.8h1.712C96.233,293.285,93.746,293.658,93.039,295.838z M101.6,263.355
		c0.162-5.254,3.647-12.146,4.566-18.563C107.517,251.585,103.779,258.219,101.6,263.355z M110.73,233.771
		c2.271-1.559,6.543-1.085,7.42-4.061C118.926,229.567,114.274,238.143,110.73,233.771z M130.705,272.637
		c-0.264,1.165-1.071,0.468-0.57-1.74C130.507,269.26,130.797,272.232,130.705,272.637z M114.155,327.742
		c1.016,0.426,0.083,1.055,0,1.74C113.139,329.057,114.073,328.428,114.155,327.742z M138.125,230.291
		c1.023-0.073,1.204,0.709,2.283,0.579C140.59,231.895,137.21,231.906,138.125,230.291z M153.534,230.87
		c1.548-0.647,3.935-1.133,3.425,1.74C155.258,232.601,153.481,232.666,153.534,230.87z M202.045,235.512
		c0.761-1.649,2.538,0.446,3.424,0.579C204.668,237.781,203.503,235.062,202.045,235.512z M217.454,235.512
		c0.303-0.466,0.596-0.941,0.571-1.74h1.141c-0.104,0.493,0.223,0.547,0.571,0.579C219.599,235.371,218.755,235.674,217.454,235.512
		z M219.737,236.672c1.191-2.177,2.847-3.932,5.706-2.9C224.364,235.575,221.945,236.017,219.737,236.672z M238.57,230.291
		c1.611-1.455,2.878-3.262,4.565-4.642C242.521,228.119,240.853,229.517,238.57,230.291z M251.125,235.512
		c-1.607-1.46-1.859-4.297-1.712-7.541c2.051-0.2-0.2,2.113,1.143,3.48c1.341-0.183,0.339-2.749,2.282-2.321
		c0.088,2.645,0.473,2.276,0,4.642c-0.533-0.426-0.865-1.055-1.142-1.74C250.437,232.104,251.455,234.491,251.125,235.512z
		 M252.268,234.932c0.196-0.7,1.519-0.469,1.712,0C254.497,236.186,251.889,236.274,252.268,234.932z M261.399,251.174
		c-2.599-1.552-1.739-3.083-2.283-6.382c0.479-1.841,0.752,1.029,0.569,1.741C259.988,248.312,262.676,249.585,261.399,251.174z
		 M231.723,332.384c0.852-0.681,0.672-2.411,2.281-2.32C233.204,330.796,233.972,333.123,231.723,332.384z M308.196,230.291
		c0.646-1.767,5.558-6.822,1.713-7.541c0.484-0.861,1.837-0.839,2.854-1.16C312.954,225.854,310.329,230.319,308.196,230.291z
		 M325.319,117.758c0.765,0.381,1.062,1.24,1.141,2.319C325.456,119.938,325.159,119.08,325.319,117.758z M327.602,158.941
		c0.245-1.104,1.229-1.456,1.142-2.899C330.053,156.498,329.298,159.633,327.602,158.941z M323.036,187.946
		c-6.445-0.639,0.377-6.977,0.571-9.862C326.948,181.785,322.373,184.258,323.036,187.946z M324.748,174.024
		c-0.112-1.661-0.071-3.166,1.712-2.901C325.933,172.135,326.479,174.237,324.748,174.024z M326.46,177.505
		c-0.217,1.104-0.726-0.37-0.571-1.161C326.106,175.24,326.615,176.716,326.46,177.505z M337.304,203.607
		c-0.988,0.931-1.672,2.169-2.283,3.48c1.83,0.506,1.785-0.893,2.283-1.74c1.726,2.761-2.465,3.007-3.424,3.48
		c-0.315,0.155,0.252,1.367,0.569,1.16c-1.121,0.731-2.551,0.536-3.424,1.161c0.001-2.516-2.938-2.043-3.424-4.062
		c0.836-1.085,3.132-0.684,2.854-2.899c-2.265,0.515-3.605,3.119-4.566-0.581c1.103,1.053,2.894-0.469,3.996-1.159
		c-1.347-1.953-2.97-0.041-4.565-1.74c0.375-1.737,1.22,0.554,2.282,0c0.607-2.164-2.141-0.92-1.713-2.901
		c4.656-2.24,3.732-5.744,0.571-9.86c0.783-6.302,1.636-10.252,1.712-17.982c6.696-10.81,2.072-27.204,2.283-41.765
		c-3.24-6.954-4.272-16.153-8.562-22.043c2.823,3.1,8.885,6.994,10.844,11.603c1.007,2.365,0.342,5.1,1.143,7.54
		c1.034,3.154,3.785,5.537,4.565,8.122c0.796,2.637,1.316,7.068,1.712,10.441c0.259,2.205,0.702,5.465,0.571,7.541
		c-0.028,0.451-1.082,1.05-1.143,1.74c-0.09,1.038,0.66,1.221,0.571,2.32c-0.003,0.037-1.137-0.039-1.141,0
		c-0.184,1.612,1.316,3.811,0,5.22c2.504,0.419,2.281-1.933,2.281-4.06c4.53,2.654,2.886,10.653,1.713,14.501
		c-0.821,2.692,0.218,6.437-0.57,9.281c-1.159,4.177-4.267,5.185-5.708,8.122c1.765,1.503,3.062-1.184,3.996-2.32
		c0.979,5.477,0.861,10.693,1.712,15.081C340.44,201.651,339.081,204.847,337.304,203.607z"/>
	<path style="fill-rule:evenodd;clip-rule:evenodd;" d="M103.312,49.889C106.412,47.632,100.17,48.8,103.312,49.889L103.312,49.889z
		"/>
	<path style="fill-rule:evenodd;clip-rule:evenodd;" d="M138.695,81.213C136.389,79.172,137.35,83.079,138.695,81.213
		L138.695,81.213z"/>
	<path style="fill-rule:evenodd;clip-rule:evenodd;" d="M43.387,66.711c0.3-2.79,1.913,1.488,2.854,1.74
		c1.916-0.531,0.282-1.079,0.571-2.901c2.334,3.123,2.059,5.839,0,9.282C45.518,73.118,47.528,67.93,43.387,66.711z"/>
	<path style="fill-rule:evenodd;clip-rule:evenodd;" d="M128.993,81.792c1-1.715,3.041,0.335,4.566,0
		C132.647,83.42,130.99,80.979,128.993,81.792z"/>
	<path style="fill-rule:evenodd;clip-rule:evenodd;" d="M224.874,216.949c3.228-0.574,2.027,3.353,4.564,3.48
		C228.222,221.25,225.273,218.885,224.874,216.949z"/>
	<path style="fill-rule:evenodd;clip-rule:evenodd;" d="M117.579,240.732c-0.241,0.709,2.54,4.159,1.142,5.801
		C116.691,246.358,117.534,241.202,117.579,240.732z"/>
	<path style="fill-rule:evenodd;clip-rule:evenodd;" d="M313.333,266.835c-2.412,4.416-6.206-1.802-6.849-4.64
		c0.183-2.293,1.767,0.43,2.283-1.161c1.423,2.809,5.227,3.195,6.277,6.382c-2.448-0.518-1.876-2.373-3.994-0.581
		c-0.576-1.154-0.987-2.477-2.283-2.899c0.87,1.436,1.172,3.449,2.854,4.06C312.202,267.618,312.211,266.662,313.333,266.835z"/>
</g>
</svg>
